M48
; DRILL file {KiCad 5.1.2-f72e74a~84~ubuntu18.04.1} date Tuesday, June 18, 2019 PM06:41:45 HKT
; FORMAT={-:-/ absolute / inch / decimal}
; #@! TF.CreationDate,2019-06-18T18:41:45+08:00
; #@! TF.GenerationSoftware,Kicad,Pcbnew,5.1.2-f72e74a~84~ubuntu18.04.1
; #@! TF.FileFunction,Plated,1,2,PTH
FMAT,2
INCH
T1C0.0157
T2C0.0256
T3C0.0315
T4C0.0354
T5C0.0394
T6C0.0472
T7C0.0630
%
G90
G05
T1
X0.0833Y-1.4823
X0.1378Y-2.1457
X0.1378Y-2.7953
X0.1522Y-1.5309
X0.1693Y-2.8622
X0.253Y-1.1752
X0.2707Y-3.4585
X0.2918Y-3.8027
X0.3041Y-1.5138
X0.3071Y-3.3386
X0.3258Y-1.688
X0.3509Y-1.4915
X0.3724Y-1.7396
X0.4094Y-3.6535
X0.4173Y-3.189
X0.4182Y-3.5796
X0.4213Y-0.128
X0.4319Y-2.5673
X0.4346Y-2.3915
X0.4675Y-3.1102
X0.4921Y-2.9252
X0.4961Y-3.6417
X0.5167Y-1.8819
X0.5738Y-1.499
X0.6063Y-0.2323
X0.6804Y-2.8796
X0.7343Y-0.3315
X0.748Y-1.8898
X0.7504Y-2.5553
X0.751Y-0.5591
X0.7539Y-2.7776
X0.7933Y-0.31
X0.8102Y-0.6339
X0.8317Y-0.5591
X0.8396Y-3.7657
X0.8524Y-0.3315
X0.8642Y-0.2352
X0.8661Y-3.3642
X0.877Y-2.9252
X0.8843Y-1.9414
X0.8878Y-2.628
X0.9063Y-3.4585
X0.9102Y-0.6339
X0.9331Y-0.7087
X0.9528Y-0.4252
X0.9537Y-0.1299
X0.9567Y-1.9232
X0.9587Y-1.972
X0.9665Y-0.6555
X0.9803Y-2.0276
X0.9843Y-0.1575
X0.9965Y-3.3627
X1.0039Y-0.7244
X1.0039Y-0.8244
X1.0039Y-0.9244
X1.0295Y-2.3799
X1.0394Y-3.189
X1.0472Y-3.6535
X1.0492Y-0.3315
X1.0504Y-2.6295
X1.053Y-3.5805
X1.0534Y-2.8081
X1.0585Y-2.7554
X1.063Y-1.3681
X1.0657Y-2.1929
X1.0723Y-1.408
X1.0728Y-1.4867
X1.0728Y-1.4473
X1.0738Y-0.5709
X1.0886Y-2.9163
X1.0886Y-2.4815
X1.1071Y-2.5598
X1.1083Y-0.3209
X1.1112Y-1.3321
X1.1112Y-2.4439
X1.122Y-2.6339
X1.1236Y-3.6197
X1.1249Y-2.377
X1.126Y-1.9531
X1.1311Y-2.1642
X1.1355Y-2.7042
X1.1467Y-2.8169
X1.1634Y-2.4673
X1.1673Y-0.3315
X1.1713Y-0.2362
X1.1828Y-2.2247
X1.2047Y-1.9618
X1.2116Y-1.5246
X1.2126Y-1.6181
X1.2221Y-2.8125
X1.2226Y-2.5104
X1.2283Y-0.2717
X1.2319Y-2.3173
X1.2441Y-0.5787
X1.247Y-2.5413
X1.2562Y-0.2136
X1.2591Y-1.2469
X1.2592Y-1.3444
X1.2657Y-0.498
X1.2657Y-2.1175
X1.2677Y-1.2953
X1.2707Y-0.4212
X1.2802Y-2.3067
X1.2923Y-2.8386
X1.2963Y-2.6772
X1.2992Y-2.7894
X1.2996Y-2.3886
X1.3169Y-0.1496
X1.3476Y-2.3685
X1.3573Y-0.6721
X1.3661Y-1.8182
X1.3708Y-0.2389
X1.3803Y-2.4611
X1.3819Y-0.6161
X1.3839Y-0.3315
X1.3858Y-1.9065
X1.3933Y-2.1621
X1.4016Y-2.6752
X1.4045Y-0.563
X1.4067Y-1.4665
X1.4094Y-0.7402
X1.4173Y-0.1929
X1.4193Y-2.4055
X1.4242Y-2.7106
X1.4242Y-3.5787
X1.4252Y-1.686
X1.4262Y-0.8553
X1.4262Y-0.9213
X1.4281Y-1.878
X1.4287Y-2.2655
X1.4289Y-1.2736
X1.438Y-3.7726
X1.4429Y-0.3169
X1.4482Y-2.2083
X1.4525Y-0.5558
X1.4646Y-2.126
X1.4683Y-2.4861
X1.4729Y-2.7953
X1.4745Y-2.2745
X1.481Y-1.0054
X1.4852Y-0.563
X1.4882Y-0.8553
X1.4882Y-0.9242
X1.4966Y-2.3184
X1.4972Y-1.7387
X1.502Y-0.3315
X1.5049Y-2.5453
X1.5059Y-2.3858
X1.5076Y-1.8261
X1.5179Y-2.1996
X1.5207Y-2.4741
X1.5228Y-1.3443
X1.537Y-1.438
X1.5406Y-2.3647
X1.542Y-3.4585
X1.5492Y-2.251
X1.5512Y-0.9449
X1.5591Y-1.8268
X1.5591Y-0.9921
X1.5635Y-1.7338
X1.5659Y-1.9114
X1.5748Y-1.9774
X1.5905Y-1.438
X1.5925Y-0.8258
X1.5925Y-2.0155
X1.5949Y-2.2879
X1.5981Y-0.9578
X1.5984Y-0.4094
X1.5984Y-0.4685
X1.6063Y-1.8276
X1.6152Y-0.2411
X1.6185Y-2.045
X1.6191Y-2.6322
X1.6449Y-1.8356
X1.6457Y-1.2726
X1.6457Y-3.3524
X1.6496Y-2.1549
X1.6538Y-1.2281
X1.6557Y-0.0757
X1.6654Y-0.2904
X1.6791Y-2.2067
X1.6802Y-1.6415
X1.6831Y-3.189
X1.6838Y-2.0707
X1.6845Y-2.7244
X1.685Y-3.5748
X1.685Y-3.6535
X1.6854Y-0.9268
X1.6892Y-2.8082
X1.7008Y-0.7638
X1.7105Y-1.8882
X1.7165Y-1.4094
X1.7195Y-2.1152
X1.7283Y-0.2992
X1.7344Y-2.6783
X1.7362Y-2.4921
X1.74Y-1.86
X1.7421Y-1.0738
X1.7486Y-2.8096
X1.754Y-2.6441
X1.7692Y-1.8864
X1.7795Y-2.4567
X1.7835Y-3.6378
X1.7836Y-1.923
X1.7953Y-0.1496
X1.8051Y-1.7982
X1.8169Y-0.9236
X1.8189Y-2.2362
X1.8228Y-0.1063
X1.8272Y-2.6522
X1.8327Y-2.3858
X1.8356Y-2.0295
X1.8356Y-1.94
X1.8506Y-1.5123
X1.8543Y-0.8402
X1.8681Y-2.2697
X1.8681Y-2.8051
X1.8715Y-1.8035
X1.875Y-1.1841
X1.8787Y-2.5652
X1.8947Y-2.6978
X1.8976Y-1.9094
X1.8986Y-1.5935
X1.8996Y-2.3504
X1.9085Y-1.8051
X1.9124Y-1.3356
X1.9223Y-2.31
X1.9252Y-1.3917
X1.9272Y-1.1654
X1.9432Y-1.7923
X1.9435Y-2.163
X1.9439Y-2.5906
X1.9478Y-1.9734
X1.9606Y-0.9724
X1.9803Y-1.3632
X1.9803Y-1.938
X1.9843Y-1.7923
X1.9892Y-2.5157
X1.9902Y-2.2953
X1.9931Y-3.2766
X1.9961Y-0.1299
X2.0075Y-2.2349
X2.0079Y-2.4154
X2.0095Y-2.1227
X2.0157Y-0.8947
X2.0167Y-1.3543
X2.0335Y-3.7657
X2.0433Y-1.6004
X2.0433Y-2.0866
X2.0482Y-2.8022
X2.0551Y-1.5571
X2.0652Y-0.8421
X2.0709Y-1.5157
X2.0957Y-0.8173
X2.1024Y-1.4902
X2.126Y-0.1398
X2.1437Y-1.4724
X2.1457Y-0.8396
X2.1644Y-1.6939
X2.1654Y-1.6339
X2.1671Y-3.4496
X2.2073Y-1.5155
X2.2717Y-0.8661
X2.2756Y-3.3661
X2.311Y-0.7811
X2.313Y-0.8543
X2.315Y-3.5955
X2.3189Y-3.6535
X2.3248Y-3.1969
X2.3533Y-0.7786
X2.4134Y-3.626
X2.4173Y-0.9016
X2.4724Y-0.1142
X2.5039Y-0.8583
X2.5457Y-0.7563
X2.5465Y-0.2839
X2.5512Y-0.1398
X2.5984Y-0.7904
X2.5984Y-0.8701
X2.6073Y-3.7657
X2.6289Y-3.2756
X2.8133Y-3.4585
X2.8898Y-3.7067
X2.9055Y-3.3661
X2.9528Y-3.189
X2.9528Y-3.6575
X2.9534Y-3.5935
X2.9606Y-0.7913
X2.9646Y-0.8711
X2.9656Y-2.5472
X2.9656Y-2.6181
X2.9744Y-0.1398
X3.0394Y-0.1024
X3.0394Y-0.1732
X3.0394Y-0.252
X3.0512Y-0.7992
X3.0551Y-3.6496
X3.0748Y-0.5488
X3.0748Y-0.6994
X3.0748Y-0.7506
X3.075Y-0.3988
X3.1398Y-0.8465
X3.1644Y-0.4496
X3.17Y-0.96
X3.185Y-3.7441
X3.2185Y-0.7579
X3.2195Y-0.8455
X3.2205Y-0.6233
X3.2382Y-0.7087
X3.2657Y-3.2766
X3.28Y-0.58
X3.38Y-0.94
X3.449Y-3.4585
X3.5217Y-3.7087
X3.5236Y-3.3504
X3.5827Y-3.189
X3.5906Y-3.6535
X3.622Y-3.6024
X3.623Y-0.6063
X3.6819Y-0.8215
X3.7494Y-0.95
X0.5859Y-0.7925
X0.5859Y-0.8425
X0.5859Y-0.8925
X0.6359Y-0.7925
X0.6359Y-0.8425
X0.6359Y-0.8925
X0.6859Y-0.7925
X0.6859Y-0.8425
X0.6859Y-0.8925
X0.8359Y-0.7925
X0.8359Y-0.8425
X0.8359Y-0.8925
X0.8859Y-0.7925
X0.8859Y-0.8425
X0.8859Y-0.8925
X0.9359Y-0.7925
X0.9359Y-0.8425
X0.9359Y-0.8925
X0.5859Y-1.013
X0.5859Y-1.063
X0.5859Y-1.113
X0.6359Y-1.013
X0.6359Y-1.063
X0.6359Y-1.113
X0.6859Y-1.013
X0.6859Y-1.063
X0.6859Y-1.113
X0.8359Y-1.013
X0.8359Y-1.063
X0.8359Y-1.113
X0.8859Y-1.013
X0.8859Y-1.063
X0.8859Y-1.113
X0.9359Y-1.013
X0.9359Y-1.063
X0.9359Y-1.113
X0.7433Y-0.3998
X0.7433Y-0.4298
X0.7933Y-0.3998
X0.7933Y-0.4298
X0.8433Y-0.3998
X0.8433Y-0.4298
X1.3929Y-0.3998
X1.3929Y-0.4298
X1.4429Y-0.3998
X1.4429Y-0.4298
X1.4929Y-0.3998
X1.4929Y-0.4298
X1.6852Y-0.4434
X1.6852Y-0.5004
X1.6852Y-0.5574
X1.6852Y-0.6144
X1.7352Y-0.3864
X1.7352Y-0.4434
X1.7352Y-0.5004
X1.7352Y-0.5574
X1.7352Y-0.6144
X1.7352Y-0.6714
X1.7852Y-0.3864
X1.7852Y-0.4434
X1.7852Y-0.5004
X1.7852Y-0.5574
X1.7852Y-0.6144
X1.7852Y-0.6714
X1.8352Y-0.3864
X1.8352Y-0.4434
X1.8352Y-0.5004
X1.8352Y-0.5574
X1.8352Y-0.6144
X1.8352Y-0.6714
X1.8852Y-0.3864
X1.8852Y-0.4434
X1.8852Y-0.5004
X1.8852Y-0.5574
X1.8852Y-0.6144
X1.8852Y-0.6714
X1.9352Y-0.3864
X1.9352Y-0.4434
X1.9352Y-0.5004
X1.9352Y-0.5574
X1.9352Y-0.6144
X1.9352Y-0.6714
X1.9852Y-0.3864
X1.9852Y-0.4434
X1.9852Y-0.5004
X1.9852Y-0.5574
X1.9852Y-0.6144
X1.9852Y-0.6714
X2.0302Y-0.4434
X2.0302Y-0.5004
X2.0302Y-0.5574
X2.0302Y-0.6144
X2.1419Y-0.4434
X2.1419Y-0.5004
X2.1419Y-0.5574
X2.1419Y-0.6144
X2.1919Y-0.3864
X2.1919Y-0.4434
X2.1919Y-0.5004
X2.1919Y-0.5574
X2.1919Y-0.6144
X2.1919Y-0.6714
X2.2419Y-0.3864
X2.2419Y-0.4434
X2.2419Y-0.5004
X2.2419Y-0.5574
X2.2419Y-0.6144
X2.2419Y-0.6714
X2.2919Y-0.3864
X2.2919Y-0.4434
X2.2919Y-0.5004
X2.2919Y-0.5574
X2.2919Y-0.6144
X2.2919Y-0.6714
X2.3419Y-0.3864
X2.3419Y-0.4434
X2.3419Y-0.5004
X2.3419Y-0.5574
X2.3419Y-0.6144
X2.3419Y-0.6714
X2.3919Y-0.3864
X2.3919Y-0.4434
X2.3919Y-0.5004
X2.3919Y-0.5574
X2.3919Y-0.6144
X2.3919Y-0.6714
X2.4419Y-0.3864
X2.4419Y-0.4434
X2.4419Y-0.5004
X2.4419Y-0.5574
X2.4419Y-0.6144
X2.4419Y-0.6714
X2.4869Y-0.4434
X2.4869Y-0.5004
X2.4869Y-0.5574
X2.4869Y-0.6144
X1.502Y-1.5433
X1.502Y-1.5783
X1.502Y-1.6133
X1.542Y-1.5433
X1.542Y-1.5783
X1.542Y-1.6133
X1.582Y-1.5433
X1.582Y-1.5783
X1.582Y-1.6133
X1.622Y-1.5433
X1.622Y-1.5783
X1.622Y-1.6133
X2.6065Y-0.4434
X2.6065Y-0.5004
X2.6065Y-0.5574
X2.6065Y-0.6144
X2.6565Y-0.3864
X2.6565Y-0.4434
X2.6565Y-0.5004
X2.6565Y-0.5574
X2.6565Y-0.6144
X2.6565Y-0.6714
X2.7065Y-0.3864
X2.7065Y-0.4434
X2.7065Y-0.5004
X2.7065Y-0.5574
X2.7065Y-0.6144
X2.7065Y-0.6714
X2.7565Y-0.3864
X2.7565Y-0.4434
X2.7565Y-0.5004
X2.7565Y-0.5574
X2.7565Y-0.6144
X2.7565Y-0.6714
X2.8065Y-0.3864
X2.8065Y-0.4434
X2.8065Y-0.5004
X2.8065Y-0.5574
X2.8065Y-0.6144
X2.8065Y-0.6714
X2.8565Y-0.3864
X2.8565Y-0.4434
X2.8565Y-0.5004
X2.8565Y-0.5574
X2.8565Y-0.6144
X2.8565Y-0.6714
X2.9065Y-0.3864
X2.9065Y-0.4434
X2.9065Y-0.5004
X2.9065Y-0.5574
X2.9065Y-0.6144
X2.9065Y-0.6714
X2.9515Y-0.4434
X2.9515Y-0.5004
X2.9515Y-0.5574
X2.9515Y-0.6144
X1.0583Y-0.3998
X1.0583Y-0.4298
X1.1083Y-0.3998
X1.1083Y-0.4298
X1.1583Y-0.3998
X1.1583Y-0.4298
X1.4794Y-1.1304
X1.4794Y-1.1654
X1.4794Y-1.2004
X1.5194Y-1.1304
X1.5194Y-1.1654
X1.5194Y-1.2004
X1.5594Y-1.1304
X1.5594Y-1.1654
X1.5594Y-1.2004
X1.5994Y-1.1304
X1.5994Y-1.1654
X1.5994Y-1.2004
T2
X2.1161Y-2.0472
X2.1161Y-2.0972
X2.1161Y-2.1472
X2.1161Y-2.1972
X2.1161Y-2.313
X2.1161Y-2.363
X2.1161Y-2.413
X2.1161Y-2.463
X2.1161Y-2.513
X2.1644Y-1.8065
X2.1644Y-1.8565
X2.1644Y-1.9065
X3.075Y-0.85
X3.075Y-0.9
X3.075Y-0.95
T3
X0.1211Y-2.927
X0.1211Y-3.027
X0.1211Y-3.127
X0.1211Y-3.227
X0.1211Y-3.327
X0.1211Y-3.427
X0.1211Y-3.527
X0.1211Y-3.627
X0.6211Y-2.927
X0.6211Y-3.027
X0.6211Y-3.127
X0.6211Y-3.227
X0.6211Y-3.327
X0.6211Y-3.427
X0.6211Y-3.527
X0.6211Y-3.627
X3.2994Y-2.927
X3.2994Y-3.027
X3.2994Y-3.127
X3.2994Y-3.227
X3.2994Y-3.327
X3.2994Y-3.427
X3.2994Y-3.527
X3.2994Y-3.627
X3.7994Y-2.927
X3.7994Y-3.027
X3.7994Y-3.127
X3.7994Y-3.227
X3.7994Y-3.327
X3.7994Y-3.427
X3.7994Y-3.527
X3.7994Y-3.627
X0.3033Y-1.59
X0.3033Y-2.09
X0.4033Y-1.59
X0.4033Y-2.09
X0.5033Y-1.59
X0.5033Y-2.09
X0.6033Y-1.59
X0.6033Y-2.09
X0.7033Y-1.59
X0.7033Y-2.09
X0.8033Y-1.59
X0.8033Y-2.09
X0.9033Y-1.59
X0.9033Y-2.09
X1.0033Y-1.59
X1.0033Y-2.09
X0.7567Y-2.927
X0.7567Y-3.027
X0.7567Y-3.127
X0.7567Y-3.227
X0.7567Y-3.327
X0.7567Y-3.427
X0.7567Y-3.527
X0.7567Y-3.627
X1.2567Y-2.927
X1.2567Y-3.027
X1.2567Y-3.127
X1.2567Y-3.227
X1.2567Y-3.327
X1.2567Y-3.427
X1.2567Y-3.527
X1.2567Y-3.627
X2.6637Y-2.927
X2.6637Y-3.027
X2.6637Y-3.127
X2.6637Y-3.227
X2.6637Y-3.327
X2.6637Y-3.427
X2.6637Y-3.527
X2.6637Y-3.627
X3.1637Y-2.927
X3.1637Y-3.027
X3.1637Y-3.127
X3.1637Y-3.227
X3.1637Y-3.327
X3.1637Y-3.427
X3.1637Y-3.527
X3.1637Y-3.627
X0.3033Y-2.2545
X0.3033Y-2.7545
X0.4033Y-2.2545
X0.4033Y-2.7545
X0.5033Y-2.2545
X0.5033Y-2.7545
X0.6033Y-2.2545
X0.6033Y-2.7545
X0.7033Y-2.2545
X0.7033Y-2.7545
X0.8033Y-2.2545
X0.8033Y-2.7545
X0.9033Y-2.2545
X0.9033Y-2.7545
X1.0033Y-2.2545
X1.0033Y-2.7545
X1.3924Y-2.927
X1.3924Y-3.027
X1.3924Y-3.127
X1.3924Y-3.227
X1.3924Y-3.327
X1.3924Y-3.427
X1.3924Y-3.527
X1.3924Y-3.627
X1.8924Y-2.927
X1.8924Y-3.027
X1.8924Y-3.127
X1.8924Y-3.227
X1.8924Y-3.327
X1.8924Y-3.427
X1.8924Y-3.527
X1.8924Y-3.627
X2.0281Y-2.927
X2.0281Y-3.027
X2.0281Y-3.127
X2.0281Y-3.227
X2.0281Y-3.327
X2.0281Y-3.427
X2.0281Y-3.527
X2.0281Y-3.627
X2.5281Y-2.927
X2.5281Y-3.027
X2.5281Y-3.127
X2.5281Y-3.227
X2.5281Y-3.327
X2.5281Y-3.427
X2.5281Y-3.527
X2.5281Y-3.627
T4
X3.2756Y-0.5276
X3.3756Y-0.5276
X3.4756Y-0.5276
X0.1177Y-1.4035
X0.3882Y-1.4035
X2.0614Y-3.8307
X2.1614Y-3.8307
X2.2614Y-3.8307
X2.3614Y-3.8307
X0.0984Y-1.6921
X0.0984Y-1.7921
X0.0984Y-1.8921
X0.0984Y-1.9921
X0.8Y-0.15
X1.4961Y-3.8307
X1.5961Y-3.8307
X1.6961Y-3.8307
X1.7961Y-3.8307
X1.15Y-0.15
X0.9307Y-3.8307
X1.0307Y-3.8307
X1.1307Y-3.8307
X1.2307Y-3.8307
X1.5Y-0.15
X0.9291Y-1.4035
X2.6268Y-3.8307
X2.7268Y-3.8307
X2.8268Y-3.8307
X2.9268Y-3.8307
X3.1921Y-3.8307
X3.2921Y-3.8307
X3.3921Y-3.8307
X3.4921Y-3.8307
X3.725Y-0.4
X3.725Y-0.5
X3.725Y-0.6
X0.6587Y-1.4035
X0.0984Y-2.3378
X0.0984Y-2.4378
X0.0984Y-2.5378
X0.0984Y-2.6378
X0.3654Y-3.8307
X0.4654Y-3.8307
X0.5654Y-3.8307
X0.6654Y-3.8307
X3.2756Y-0.8346
X3.3756Y-0.8346
X3.4756Y-0.8346
X3.2756Y-0.2126
X3.3756Y-0.2126
X3.4756Y-0.2126
T5
X0.9Y-0.15
X1.1598Y-0.7811
X1.1598Y-0.8811
X1.1598Y-0.9811
X1.1598Y-1.0811
X1.1598Y-1.1811
X1.2598Y-0.7811
X1.2598Y-0.8811
X1.2598Y-0.9811
X1.2598Y-1.0811
X1.2598Y-1.1811
X2.1555Y-3.0315
X2.1555Y-3.1315
X2.1555Y-3.2315
X2.2555Y-3.0315
X2.2555Y-3.1315
X2.2555Y-3.2315
X2.8015Y-3.0315
X2.8015Y-3.1315
X2.8015Y-3.2315
X2.9015Y-3.0315
X2.9015Y-3.1315
X2.9015Y-3.2315
X3.4252Y-3.0315
X3.4252Y-3.1315
X3.4252Y-3.2315
X3.5252Y-3.0315
X3.5252Y-3.1315
X3.5252Y-3.2315
X1.25Y-0.15
X0.2559Y-3.0315
X0.2559Y-3.1315
X0.2559Y-3.2315
X0.3559Y-3.0315
X0.3559Y-3.1315
X0.3559Y-3.2315
X2.3425Y-1.6732
X2.4425Y-1.6732
X2.5425Y-1.6732
X2.6425Y-1.6732
X1.6Y-0.15
X1.5256Y-3.027
X1.5256Y-3.127
X1.5256Y-3.227
X1.6256Y-3.027
X1.6256Y-3.127
X1.6256Y-3.227
X0.9291Y-1.3035
X0.8858Y-3.0315
X0.8858Y-3.1315
X0.8858Y-3.2315
X0.9858Y-3.0315
X0.9858Y-3.1315
X0.9858Y-3.2315
X0.7055Y-1.7224
X0.7055Y-1.8224
X0.8055Y-1.7224
X0.8055Y-1.8224
X0.9055Y-1.7224
X0.9055Y-1.8224
X0.6957Y-2.3917
X0.6957Y-2.4917
X0.7957Y-2.3917
X0.7957Y-2.4917
X0.8957Y-2.3917
X0.8957Y-2.4917
X2.3709Y-1.0661
X2.3709Y-1.1661
X2.3709Y-2.7661
X2.4709Y-1.0661
X2.4709Y-1.1661
X2.4709Y-2.7661
X2.5709Y-1.0661
X2.5709Y-1.1661
X2.5709Y-2.7661
X2.6709Y-1.0661
X2.6709Y-1.1661
X2.6709Y-2.7661
X2.7709Y-1.0661
X2.7709Y-1.1661
X2.7709Y-2.7661
X2.8709Y-1.0661
X2.8709Y-1.1661
X2.8709Y-2.7661
X2.9709Y-1.0661
X2.9709Y-1.1661
X2.9709Y-2.7661
X3.0709Y-1.0661
X3.0709Y-1.1661
X3.0709Y-2.7661
X3.1709Y-1.0661
X3.1709Y-1.1661
X3.1709Y-2.7661
X3.2709Y-1.0661
X3.2709Y-1.1661
X3.2709Y-2.7661
X3.3709Y-1.0661
X3.3709Y-1.1661
X3.3709Y-2.7661
X3.4709Y-1.0661
X3.4709Y-1.1661
X3.4709Y-2.7661
X3.5709Y-1.0661
X3.5709Y-1.1661
X3.5709Y-2.7661
X3.6299Y-1.3874
X3.7299Y-1.3874
X3.8299Y-1.3874
X0.6587Y-1.3035
X1.1598Y-1.4913
X1.1598Y-1.5913
X1.1598Y-1.6913
X1.1598Y-1.7913
X1.1598Y-1.8913
X1.2598Y-1.4913
X1.2598Y-1.5913
X1.2598Y-1.6913
X1.2598Y-1.7913
X1.2598Y-1.8913
X0.1177Y-1.3035
X0.3882Y-1.3035
T6
X2.2622Y-0.2598
X2.4Y-0.2598
X2.6872Y-0.2559
X2.825Y-0.2559
X1.8372Y-0.2559
X1.975Y-0.2559
T7
X0.248Y-0.3701
X0.248Y-0.5701
X0.248Y-0.8543
X0.248Y-1.0543
T0
M30
