%FSLAX45Y45*%
G04 Gerber Fmt 4.5, Leading zero omitted, Abs format (unit mm)*
G04 Created by KiCad (PCBNEW 5.1.2-f72e74a~84~ubuntu18.04.1) date 2019-06-18 18:41:50*
%MOMM*%
%LPD*%
G04 APERTURE LIST*
%ADD10C,0.150000*%
%ADD11C,0.100000*%
%ADD12C,0.200000*%
%ADD13C,0.300000*%
G04 APERTURE END LIST*
D10*
X8100000Y-4150000D02*
X8100000Y-6400000D01*
X8300000Y-3950000D02*
X9800000Y-3950000D01*
X8100000Y-4150000D02*
G75*
G02X8300000Y-3950000I200000J0D01*
G01*
X8300000Y-6600000D02*
X9800000Y-6600000D01*
X8300000Y-6600000D02*
G75*
G02X8100000Y-6400000I0J200000D01*
G01*
X10000000Y-6800000D02*
X10000000Y-9700000D01*
X9800000Y-6600000D02*
G75*
G02X10000000Y-6800000I0J-200000D01*
G01*
X10000000Y-3750000D02*
G75*
G02X9800000Y-3950000I-200000J0D01*
G01*
X9700000Y0D02*
G75*
G02X10000000Y-300000I0J-300000D01*
G01*
D11*
X7410000Y-6280000D02*
G75*
G02X7310000Y-6380000I-100000J0D01*
G01*
X5810000Y-6380000D02*
G75*
G02X5710000Y-6280000I0J100000D01*
G01*
X5710000Y-4680000D02*
G75*
G02X5810000Y-4580000I100000J0D01*
G01*
X7310000Y-4580000D02*
G75*
G02X7410000Y-4680000I0J-100000D01*
G01*
X5710000Y-6280000D02*
X5710000Y-4680000D01*
X7310000Y-6380000D02*
X5810000Y-6380000D01*
X7410000Y-4680000D02*
X7410000Y-6280000D01*
X5810000Y-4580000D02*
X7310000Y-4580000D01*
D10*
X10000000Y-9700000D02*
G75*
G02X9700000Y-10000000I-300000J0D01*
G01*
X300000Y-10000000D02*
G75*
G02X0Y-9700000I0J300000D01*
G01*
X10000000Y-3750000D02*
X10000000Y-300000D01*
X300000Y-10000000D02*
X9700000Y-10000000D01*
X0Y-250000D02*
G75*
G02X250000Y0I250000J0D01*
G01*
X9700000Y0D02*
X250000Y0D01*
X0Y-250000D02*
X0Y-9700000D01*
D12*
X9565000Y-9565000D02*
X9835000Y-9835000D01*
X9835000Y-9565000D02*
X9565000Y-9835000D01*
X165000Y-165000D02*
X435000Y-435000D01*
X435000Y-165000D02*
X165000Y-435000D01*
X9565000Y-165000D02*
X9835000Y-435000D01*
X9835000Y-165000D02*
X9565000Y-435000D01*
X165000Y-9565000D02*
X435000Y-9835000D01*
X435000Y-9565000D02*
X165000Y-9835000D01*
X5620000Y-2880000D02*
G75*
G03X5620000Y-2880000I-160000J0D01*
G01*
X5620000Y-6880000D02*
G75*
G03X5620000Y-6880000I-160000J0D01*
G01*
X9820000Y-2880000D02*
G75*
G03X9820000Y-2880000I-160000J0D01*
G01*
X9820000Y-6880000D02*
G75*
G03X9820000Y-6880000I-160000J0D01*
G01*
D13*
X278928Y-10473214D02*
X278928Y-10173214D01*
X350357Y-10173214D01*
X393214Y-10187500D01*
X421786Y-10216072D01*
X436071Y-10244643D01*
X450357Y-10301786D01*
X450357Y-10344643D01*
X436071Y-10401786D01*
X421786Y-10430357D01*
X393214Y-10458929D01*
X350357Y-10473214D01*
X278928Y-10473214D01*
X578928Y-10473214D02*
X578928Y-10273214D01*
X578928Y-10330357D02*
X593214Y-10301786D01*
X607500Y-10287500D01*
X636071Y-10273214D01*
X664643Y-10273214D01*
X764643Y-10473214D02*
X764643Y-10273214D01*
X764643Y-10173214D02*
X750357Y-10187500D01*
X764643Y-10201786D01*
X778928Y-10187500D01*
X764643Y-10173214D01*
X764643Y-10201786D01*
X950357Y-10473214D02*
X921786Y-10458929D01*
X907500Y-10430357D01*
X907500Y-10173214D01*
X1107500Y-10473214D02*
X1078928Y-10458929D01*
X1064643Y-10430357D01*
X1064643Y-10173214D01*
X1450357Y-10473214D02*
X1450357Y-10173214D01*
X1550357Y-10387500D01*
X1650357Y-10173214D01*
X1650357Y-10473214D01*
X1921786Y-10473214D02*
X1921786Y-10316072D01*
X1907500Y-10287500D01*
X1878928Y-10273214D01*
X1821786Y-10273214D01*
X1793214Y-10287500D01*
X1921786Y-10458929D02*
X1893214Y-10473214D01*
X1821786Y-10473214D01*
X1793214Y-10458929D01*
X1778928Y-10430357D01*
X1778928Y-10401786D01*
X1793214Y-10373214D01*
X1821786Y-10358929D01*
X1893214Y-10358929D01*
X1921786Y-10344643D01*
X2064643Y-10273214D02*
X2064643Y-10573214D01*
X2064643Y-10287500D02*
X2093214Y-10273214D01*
X2150357Y-10273214D01*
X2178928Y-10287500D01*
X2193214Y-10301786D01*
X2207500Y-10330357D01*
X2207500Y-10416072D01*
X2193214Y-10444643D01*
X2178928Y-10458929D01*
X2150357Y-10473214D01*
X2093214Y-10473214D01*
X2064643Y-10458929D01*
X2336071Y-10444643D02*
X2350357Y-10458929D01*
X2336071Y-10473214D01*
X2321786Y-10458929D01*
X2336071Y-10444643D01*
X2336071Y-10473214D01*
X2336071Y-10287500D02*
X2350357Y-10301786D01*
X2336071Y-10316072D01*
X2321786Y-10301786D01*
X2336071Y-10287500D01*
X2336071Y-10316072D01*
X-277500Y-10832500D02*
X-7500Y-11102500D01*
X-7500Y-10832500D02*
X-277500Y-11102500D01*
X264643Y-10831786D02*
X278928Y-10817500D01*
X307500Y-10803214D01*
X378928Y-10803214D01*
X407500Y-10817500D01*
X421786Y-10831786D01*
X436071Y-10860357D01*
X436071Y-10888929D01*
X421786Y-10931786D01*
X250357Y-11103214D01*
X436071Y-11103214D01*
X564643Y-11074643D02*
X578928Y-11088929D01*
X564643Y-11103214D01*
X550357Y-11088929D01*
X564643Y-11074643D01*
X564643Y-11103214D01*
X678928Y-10803214D02*
X878928Y-10803214D01*
X750357Y-11103214D01*
X1050357Y-10803214D02*
X1078928Y-10803214D01*
X1107500Y-10817500D01*
X1121786Y-10831786D01*
X1136071Y-10860357D01*
X1150357Y-10917500D01*
X1150357Y-10988929D01*
X1136071Y-11046072D01*
X1121786Y-11074643D01*
X1107500Y-11088929D01*
X1078928Y-11103214D01*
X1050357Y-11103214D01*
X1021786Y-11088929D01*
X1007500Y-11074643D01*
X993214Y-11046072D01*
X978928Y-10988929D01*
X978928Y-10917500D01*
X993214Y-10860357D01*
X1007500Y-10831786D01*
X1021786Y-10817500D01*
X1050357Y-10803214D01*
X1278928Y-11103214D02*
X1278928Y-10903214D01*
X1278928Y-10931786D02*
X1293214Y-10917500D01*
X1321786Y-10903214D01*
X1364643Y-10903214D01*
X1393214Y-10917500D01*
X1407500Y-10946072D01*
X1407500Y-11103214D01*
X1407500Y-10946072D02*
X1421786Y-10917500D01*
X1450357Y-10903214D01*
X1493214Y-10903214D01*
X1521786Y-10917500D01*
X1536071Y-10946072D01*
X1536071Y-11103214D01*
X1678928Y-11103214D02*
X1678928Y-10903214D01*
X1678928Y-10931786D02*
X1693214Y-10917500D01*
X1721786Y-10903214D01*
X1764643Y-10903214D01*
X1793214Y-10917500D01*
X1807500Y-10946072D01*
X1807500Y-11103214D01*
X1807500Y-10946072D02*
X1821786Y-10917500D01*
X1850357Y-10903214D01*
X1893214Y-10903214D01*
X1921786Y-10917500D01*
X1936071Y-10946072D01*
X1936071Y-11103214D01*
X2521786Y-10788929D02*
X2264643Y-11174643D01*
X2907500Y-10803214D02*
X2936071Y-10803214D01*
X2964643Y-10817500D01*
X2978928Y-10831786D01*
X2993214Y-10860357D01*
X3007500Y-10917500D01*
X3007500Y-10988929D01*
X2993214Y-11046072D01*
X2978928Y-11074643D01*
X2964643Y-11088929D01*
X2936071Y-11103214D01*
X2907500Y-11103214D01*
X2878928Y-11088929D01*
X2864643Y-11074643D01*
X2850357Y-11046072D01*
X2836071Y-10988929D01*
X2836071Y-10917500D01*
X2850357Y-10860357D01*
X2864643Y-10831786D01*
X2878928Y-10817500D01*
X2907500Y-10803214D01*
X3136071Y-11074643D02*
X3150357Y-11088929D01*
X3136071Y-11103214D01*
X3121786Y-11088929D01*
X3136071Y-11074643D01*
X3136071Y-11103214D01*
X3436071Y-11103214D02*
X3264643Y-11103214D01*
X3350357Y-11103214D02*
X3350357Y-10803214D01*
X3321786Y-10846072D01*
X3293214Y-10874643D01*
X3264643Y-10888929D01*
X3621786Y-10803214D02*
X3650357Y-10803214D01*
X3678928Y-10817500D01*
X3693214Y-10831786D01*
X3707500Y-10860357D01*
X3721786Y-10917500D01*
X3721786Y-10988929D01*
X3707500Y-11046072D01*
X3693214Y-11074643D01*
X3678928Y-11088929D01*
X3650357Y-11103214D01*
X3621786Y-11103214D01*
X3593214Y-11088929D01*
X3578928Y-11074643D01*
X3564643Y-11046072D01*
X3550357Y-10988929D01*
X3550357Y-10917500D01*
X3564643Y-10860357D01*
X3578928Y-10831786D01*
X3593214Y-10817500D01*
X3621786Y-10803214D01*
X3978928Y-10803214D02*
X3921786Y-10803214D01*
X3893214Y-10817500D01*
X3878928Y-10831786D01*
X3850357Y-10874643D01*
X3836071Y-10931786D01*
X3836071Y-11046072D01*
X3850357Y-11074643D01*
X3864643Y-11088929D01*
X3893214Y-11103214D01*
X3950357Y-11103214D01*
X3978928Y-11088929D01*
X3993214Y-11074643D01*
X4007500Y-11046072D01*
X4007500Y-10974643D01*
X3993214Y-10946072D01*
X3978928Y-10931786D01*
X3950357Y-10917500D01*
X3893214Y-10917500D01*
X3864643Y-10931786D01*
X3850357Y-10946072D01*
X3836071Y-10974643D01*
X4121786Y-10803214D02*
X4121786Y-10860357D01*
X4236071Y-10803214D02*
X4236071Y-10860357D01*
X4678928Y-11217500D02*
X4664643Y-11203214D01*
X4636071Y-11160357D01*
X4621786Y-11131786D01*
X4607500Y-11088929D01*
X4593214Y-11017500D01*
X4593214Y-10960357D01*
X4607500Y-10888929D01*
X4621786Y-10846072D01*
X4636071Y-10817500D01*
X4664643Y-10774643D01*
X4678928Y-10760357D01*
X4921786Y-10903214D02*
X4921786Y-11103214D01*
X4850357Y-10788929D02*
X4778928Y-11003214D01*
X4964643Y-11003214D01*
X5307500Y-11103214D02*
X5307500Y-10803214D01*
X5436071Y-11103214D02*
X5436071Y-10946072D01*
X5421786Y-10917500D01*
X5393214Y-10903214D01*
X5350357Y-10903214D01*
X5321786Y-10917500D01*
X5307500Y-10931786D01*
X5621786Y-11103214D02*
X5593214Y-11088929D01*
X5578928Y-11074643D01*
X5564643Y-11046072D01*
X5564643Y-10960357D01*
X5578928Y-10931786D01*
X5593214Y-10917500D01*
X5621786Y-10903214D01*
X5664643Y-10903214D01*
X5693214Y-10917500D01*
X5707500Y-10931786D01*
X5721786Y-10960357D01*
X5721786Y-11046072D01*
X5707500Y-11074643D01*
X5693214Y-11088929D01*
X5664643Y-11103214D01*
X5621786Y-11103214D01*
X5893214Y-11103214D02*
X5864643Y-11088929D01*
X5850357Y-11060357D01*
X5850357Y-10803214D01*
X6121786Y-11088929D02*
X6093214Y-11103214D01*
X6036071Y-11103214D01*
X6007500Y-11088929D01*
X5993214Y-11060357D01*
X5993214Y-10946072D01*
X6007500Y-10917500D01*
X6036071Y-10903214D01*
X6093214Y-10903214D01*
X6121786Y-10917500D01*
X6136071Y-10946072D01*
X6136071Y-10974643D01*
X5993214Y-11003214D01*
X6250357Y-11088929D02*
X6278928Y-11103214D01*
X6336071Y-11103214D01*
X6364643Y-11088929D01*
X6378928Y-11060357D01*
X6378928Y-11046072D01*
X6364643Y-11017500D01*
X6336071Y-11003214D01*
X6293214Y-11003214D01*
X6264643Y-10988929D01*
X6250357Y-10960357D01*
X6250357Y-10946072D01*
X6264643Y-10917500D01*
X6293214Y-10903214D01*
X6336071Y-10903214D01*
X6364643Y-10917500D01*
X6478928Y-11217500D02*
X6493214Y-11203214D01*
X6521786Y-11160357D01*
X6536071Y-11131786D01*
X6550357Y-11088929D01*
X6564643Y-11017500D01*
X6564643Y-10960357D01*
X6550357Y-10888929D01*
X6536071Y-10846072D01*
X6521786Y-10817500D01*
X6493214Y-10774643D01*
X6478928Y-10760357D01*
X7021786Y-11217500D02*
X7007500Y-11203214D01*
X6978928Y-11160357D01*
X6964643Y-11131786D01*
X6950357Y-11088929D01*
X6936071Y-11017500D01*
X6936071Y-10960357D01*
X6950357Y-10888929D01*
X6964643Y-10846072D01*
X6978928Y-10817500D01*
X7007500Y-10774643D01*
X7021786Y-10760357D01*
X7136071Y-10903214D02*
X7136071Y-11103214D01*
X7136071Y-10931786D02*
X7150357Y-10917500D01*
X7178928Y-10903214D01*
X7221786Y-10903214D01*
X7250357Y-10917500D01*
X7264643Y-10946072D01*
X7264643Y-11103214D01*
X7450357Y-11103214D02*
X7421786Y-11088929D01*
X7407500Y-11074643D01*
X7393214Y-11046072D01*
X7393214Y-10960357D01*
X7407500Y-10931786D01*
X7421786Y-10917500D01*
X7450357Y-10903214D01*
X7493214Y-10903214D01*
X7521786Y-10917500D01*
X7536071Y-10931786D01*
X7550357Y-10960357D01*
X7550357Y-11046072D01*
X7536071Y-11074643D01*
X7521786Y-11088929D01*
X7493214Y-11103214D01*
X7450357Y-11103214D01*
X7636071Y-10903214D02*
X7750357Y-10903214D01*
X7678928Y-10803214D02*
X7678928Y-11060357D01*
X7693214Y-11088929D01*
X7721786Y-11103214D01*
X7750357Y-11103214D01*
X8078928Y-10903214D02*
X8078928Y-11203214D01*
X8078928Y-10917500D02*
X8107500Y-10903214D01*
X8164643Y-10903214D01*
X8193214Y-10917500D01*
X8207500Y-10931786D01*
X8221786Y-10960357D01*
X8221786Y-11046072D01*
X8207500Y-11074643D01*
X8193214Y-11088929D01*
X8164643Y-11103214D01*
X8107500Y-11103214D01*
X8078928Y-11088929D01*
X8393214Y-11103214D02*
X8364643Y-11088929D01*
X8350357Y-11060357D01*
X8350357Y-10803214D01*
X8636071Y-11103214D02*
X8636071Y-10946072D01*
X8621786Y-10917500D01*
X8593214Y-10903214D01*
X8536071Y-10903214D01*
X8507500Y-10917500D01*
X8636071Y-11088929D02*
X8607500Y-11103214D01*
X8536071Y-11103214D01*
X8507500Y-11088929D01*
X8493214Y-11060357D01*
X8493214Y-11031786D01*
X8507500Y-11003214D01*
X8536071Y-10988929D01*
X8607500Y-10988929D01*
X8636071Y-10974643D01*
X8736071Y-10903214D02*
X8850357Y-10903214D01*
X8778928Y-10803214D02*
X8778928Y-11060357D01*
X8793214Y-11088929D01*
X8821786Y-11103214D01*
X8850357Y-11103214D01*
X9064643Y-11088929D02*
X9036071Y-11103214D01*
X8978928Y-11103214D01*
X8950357Y-11088929D01*
X8936071Y-11060357D01*
X8936071Y-10946072D01*
X8950357Y-10917500D01*
X8978928Y-10903214D01*
X9036071Y-10903214D01*
X9064643Y-10917500D01*
X9078928Y-10946072D01*
X9078928Y-10974643D01*
X8936071Y-11003214D01*
X9336071Y-11103214D02*
X9336071Y-10803214D01*
X9336071Y-11088929D02*
X9307500Y-11103214D01*
X9250357Y-11103214D01*
X9221786Y-11088929D01*
X9207500Y-11074643D01*
X9193214Y-11046072D01*
X9193214Y-10960357D01*
X9207500Y-10931786D01*
X9221786Y-10917500D01*
X9250357Y-10903214D01*
X9307500Y-10903214D01*
X9336071Y-10917500D01*
X9450357Y-11217500D02*
X9464643Y-11203214D01*
X9493214Y-11160357D01*
X9507500Y-11131786D01*
X9521786Y-11088929D01*
X9536071Y-11017500D01*
X9536071Y-10960357D01*
X9521786Y-10888929D01*
X9507500Y-10846072D01*
X9493214Y-10817500D01*
X9464643Y-10774643D01*
X9450357Y-10760357D01*
X-7500Y-11367500D02*
G75*
G03X-7500Y-11367500I-160000J0D01*
G01*
X250357Y-11203214D02*
X436071Y-11203214D01*
X336071Y-11317500D01*
X378928Y-11317500D01*
X407500Y-11331786D01*
X421786Y-11346071D01*
X436071Y-11374643D01*
X436071Y-11446071D01*
X421786Y-11474643D01*
X407500Y-11488929D01*
X378928Y-11503214D01*
X293214Y-11503214D01*
X264643Y-11488929D01*
X250357Y-11474643D01*
X564643Y-11474643D02*
X578928Y-11488929D01*
X564643Y-11503214D01*
X550357Y-11488929D01*
X564643Y-11474643D01*
X564643Y-11503214D01*
X693214Y-11231786D02*
X707500Y-11217500D01*
X736071Y-11203214D01*
X807500Y-11203214D01*
X836071Y-11217500D01*
X850357Y-11231786D01*
X864643Y-11260357D01*
X864643Y-11288929D01*
X850357Y-11331786D01*
X678928Y-11503214D01*
X864643Y-11503214D01*
X1050357Y-11203214D02*
X1078928Y-11203214D01*
X1107500Y-11217500D01*
X1121786Y-11231786D01*
X1136071Y-11260357D01*
X1150357Y-11317500D01*
X1150357Y-11388929D01*
X1136071Y-11446071D01*
X1121786Y-11474643D01*
X1107500Y-11488929D01*
X1078928Y-11503214D01*
X1050357Y-11503214D01*
X1021786Y-11488929D01*
X1007500Y-11474643D01*
X993214Y-11446071D01*
X978928Y-11388929D01*
X978928Y-11317500D01*
X993214Y-11260357D01*
X1007500Y-11231786D01*
X1021786Y-11217500D01*
X1050357Y-11203214D01*
X1278928Y-11503214D02*
X1278928Y-11303214D01*
X1278928Y-11331786D02*
X1293214Y-11317500D01*
X1321786Y-11303214D01*
X1364643Y-11303214D01*
X1393214Y-11317500D01*
X1407500Y-11346071D01*
X1407500Y-11503214D01*
X1407500Y-11346071D02*
X1421786Y-11317500D01*
X1450357Y-11303214D01*
X1493214Y-11303214D01*
X1521786Y-11317500D01*
X1536071Y-11346071D01*
X1536071Y-11503214D01*
X1678928Y-11503214D02*
X1678928Y-11303214D01*
X1678928Y-11331786D02*
X1693214Y-11317500D01*
X1721786Y-11303214D01*
X1764643Y-11303214D01*
X1793214Y-11317500D01*
X1807500Y-11346071D01*
X1807500Y-11503214D01*
X1807500Y-11346071D02*
X1821786Y-11317500D01*
X1850357Y-11303214D01*
X1893214Y-11303214D01*
X1921786Y-11317500D01*
X1936071Y-11346071D01*
X1936071Y-11503214D01*
X2521786Y-11188929D02*
X2264643Y-11574643D01*
X2907500Y-11203214D02*
X2936071Y-11203214D01*
X2964643Y-11217500D01*
X2978928Y-11231786D01*
X2993214Y-11260357D01*
X3007500Y-11317500D01*
X3007500Y-11388929D01*
X2993214Y-11446071D01*
X2978928Y-11474643D01*
X2964643Y-11488929D01*
X2936071Y-11503214D01*
X2907500Y-11503214D01*
X2878928Y-11488929D01*
X2864643Y-11474643D01*
X2850357Y-11446071D01*
X2836071Y-11388929D01*
X2836071Y-11317500D01*
X2850357Y-11260357D01*
X2864643Y-11231786D01*
X2878928Y-11217500D01*
X2907500Y-11203214D01*
X3136071Y-11474643D02*
X3150357Y-11488929D01*
X3136071Y-11503214D01*
X3121786Y-11488929D01*
X3136071Y-11474643D01*
X3136071Y-11503214D01*
X3436071Y-11503214D02*
X3264643Y-11503214D01*
X3350357Y-11503214D02*
X3350357Y-11203214D01*
X3321786Y-11246071D01*
X3293214Y-11274643D01*
X3264643Y-11288929D01*
X3550357Y-11231786D02*
X3564643Y-11217500D01*
X3593214Y-11203214D01*
X3664643Y-11203214D01*
X3693214Y-11217500D01*
X3707500Y-11231786D01*
X3721786Y-11260357D01*
X3721786Y-11288929D01*
X3707500Y-11331786D01*
X3536071Y-11503214D01*
X3721786Y-11503214D01*
X3978928Y-11203214D02*
X3921786Y-11203214D01*
X3893214Y-11217500D01*
X3878928Y-11231786D01*
X3850357Y-11274643D01*
X3836071Y-11331786D01*
X3836071Y-11446071D01*
X3850357Y-11474643D01*
X3864643Y-11488929D01*
X3893214Y-11503214D01*
X3950357Y-11503214D01*
X3978928Y-11488929D01*
X3993214Y-11474643D01*
X4007500Y-11446071D01*
X4007500Y-11374643D01*
X3993214Y-11346071D01*
X3978928Y-11331786D01*
X3950357Y-11317500D01*
X3893214Y-11317500D01*
X3864643Y-11331786D01*
X3850357Y-11346071D01*
X3836071Y-11374643D01*
X4121786Y-11203214D02*
X4121786Y-11260357D01*
X4236071Y-11203214D02*
X4236071Y-11260357D01*
X4678928Y-11617500D02*
X4664643Y-11603214D01*
X4636071Y-11560357D01*
X4621786Y-11531786D01*
X4607500Y-11488929D01*
X4593214Y-11417500D01*
X4593214Y-11360357D01*
X4607500Y-11288929D01*
X4621786Y-11246071D01*
X4636071Y-11217500D01*
X4664643Y-11174643D01*
X4678928Y-11160357D01*
X4921786Y-11303214D02*
X4921786Y-11503214D01*
X4850357Y-11188929D02*
X4778928Y-11403214D01*
X4964643Y-11403214D01*
X5307500Y-11503214D02*
X5307500Y-11203214D01*
X5436071Y-11503214D02*
X5436071Y-11346071D01*
X5421786Y-11317500D01*
X5393214Y-11303214D01*
X5350357Y-11303214D01*
X5321786Y-11317500D01*
X5307500Y-11331786D01*
X5621786Y-11503214D02*
X5593214Y-11488929D01*
X5578928Y-11474643D01*
X5564643Y-11446071D01*
X5564643Y-11360357D01*
X5578928Y-11331786D01*
X5593214Y-11317500D01*
X5621786Y-11303214D01*
X5664643Y-11303214D01*
X5693214Y-11317500D01*
X5707500Y-11331786D01*
X5721786Y-11360357D01*
X5721786Y-11446071D01*
X5707500Y-11474643D01*
X5693214Y-11488929D01*
X5664643Y-11503214D01*
X5621786Y-11503214D01*
X5893214Y-11503214D02*
X5864643Y-11488929D01*
X5850357Y-11460357D01*
X5850357Y-11203214D01*
X6121786Y-11488929D02*
X6093214Y-11503214D01*
X6036071Y-11503214D01*
X6007500Y-11488929D01*
X5993214Y-11460357D01*
X5993214Y-11346071D01*
X6007500Y-11317500D01*
X6036071Y-11303214D01*
X6093214Y-11303214D01*
X6121786Y-11317500D01*
X6136071Y-11346071D01*
X6136071Y-11374643D01*
X5993214Y-11403214D01*
X6250357Y-11488929D02*
X6278928Y-11503214D01*
X6336071Y-11503214D01*
X6364643Y-11488929D01*
X6378928Y-11460357D01*
X6378928Y-11446071D01*
X6364643Y-11417500D01*
X6336071Y-11403214D01*
X6293214Y-11403214D01*
X6264643Y-11388929D01*
X6250357Y-11360357D01*
X6250357Y-11346071D01*
X6264643Y-11317500D01*
X6293214Y-11303214D01*
X6336071Y-11303214D01*
X6364643Y-11317500D01*
X6478928Y-11617500D02*
X6493214Y-11603214D01*
X6521786Y-11560357D01*
X6536071Y-11531786D01*
X6550357Y-11488929D01*
X6564643Y-11417500D01*
X6564643Y-11360357D01*
X6550357Y-11288929D01*
X6536071Y-11246071D01*
X6521786Y-11217500D01*
X6493214Y-11174643D01*
X6478928Y-11160357D01*
X7021786Y-11617500D02*
X7007500Y-11603214D01*
X6978928Y-11560357D01*
X6964643Y-11531786D01*
X6950357Y-11488929D01*
X6936071Y-11417500D01*
X6936071Y-11360357D01*
X6950357Y-11288929D01*
X6964643Y-11246071D01*
X6978928Y-11217500D01*
X7007500Y-11174643D01*
X7021786Y-11160357D01*
X7136071Y-11303214D02*
X7136071Y-11503214D01*
X7136071Y-11331786D02*
X7150357Y-11317500D01*
X7178928Y-11303214D01*
X7221786Y-11303214D01*
X7250357Y-11317500D01*
X7264643Y-11346071D01*
X7264643Y-11503214D01*
X7450357Y-11503214D02*
X7421786Y-11488929D01*
X7407500Y-11474643D01*
X7393214Y-11446071D01*
X7393214Y-11360357D01*
X7407500Y-11331786D01*
X7421786Y-11317500D01*
X7450357Y-11303214D01*
X7493214Y-11303214D01*
X7521786Y-11317500D01*
X7536071Y-11331786D01*
X7550357Y-11360357D01*
X7550357Y-11446071D01*
X7536071Y-11474643D01*
X7521786Y-11488929D01*
X7493214Y-11503214D01*
X7450357Y-11503214D01*
X7636071Y-11303214D02*
X7750357Y-11303214D01*
X7678928Y-11203214D02*
X7678928Y-11460357D01*
X7693214Y-11488929D01*
X7721786Y-11503214D01*
X7750357Y-11503214D01*
X8078928Y-11303214D02*
X8078928Y-11603214D01*
X8078928Y-11317500D02*
X8107500Y-11303214D01*
X8164643Y-11303214D01*
X8193214Y-11317500D01*
X8207500Y-11331786D01*
X8221786Y-11360357D01*
X8221786Y-11446071D01*
X8207500Y-11474643D01*
X8193214Y-11488929D01*
X8164643Y-11503214D01*
X8107500Y-11503214D01*
X8078928Y-11488929D01*
X8393214Y-11503214D02*
X8364643Y-11488929D01*
X8350357Y-11460357D01*
X8350357Y-11203214D01*
X8636071Y-11503214D02*
X8636071Y-11346071D01*
X8621786Y-11317500D01*
X8593214Y-11303214D01*
X8536071Y-11303214D01*
X8507500Y-11317500D01*
X8636071Y-11488929D02*
X8607500Y-11503214D01*
X8536071Y-11503214D01*
X8507500Y-11488929D01*
X8493214Y-11460357D01*
X8493214Y-11431786D01*
X8507500Y-11403214D01*
X8536071Y-11388929D01*
X8607500Y-11388929D01*
X8636071Y-11374643D01*
X8736071Y-11303214D02*
X8850357Y-11303214D01*
X8778928Y-11203214D02*
X8778928Y-11460357D01*
X8793214Y-11488929D01*
X8821786Y-11503214D01*
X8850357Y-11503214D01*
X9064643Y-11488929D02*
X9036071Y-11503214D01*
X8978928Y-11503214D01*
X8950357Y-11488929D01*
X8936071Y-11460357D01*
X8936071Y-11346071D01*
X8950357Y-11317500D01*
X8978928Y-11303214D01*
X9036071Y-11303214D01*
X9064643Y-11317500D01*
X9078928Y-11346071D01*
X9078928Y-11374643D01*
X8936071Y-11403214D01*
X9336071Y-11503214D02*
X9336071Y-11203214D01*
X9336071Y-11488929D02*
X9307500Y-11503214D01*
X9250357Y-11503214D01*
X9221786Y-11488929D01*
X9207500Y-11474643D01*
X9193214Y-11446071D01*
X9193214Y-11360357D01*
X9207500Y-11331786D01*
X9221786Y-11317500D01*
X9250357Y-11303214D01*
X9307500Y-11303214D01*
X9336071Y-11317500D01*
X9450357Y-11617500D02*
X9464643Y-11603214D01*
X9493214Y-11560357D01*
X9507500Y-11531786D01*
X9521786Y-11488929D01*
X9536071Y-11417500D01*
X9536071Y-11360357D01*
X9521786Y-11288929D01*
X9507500Y-11246071D01*
X9493214Y-11217500D01*
X9464643Y-11174643D01*
X9450357Y-11160357D01*
M02*
