M48
; DRILL file {KiCad 5.1.2-f72e74a~84~ubuntu18.04.1} date Mon May  6 19:15:10 2019
; FORMAT={-:-/ absolute / metric / decimal}
; #@! TF.CreationDate,2019-05-06T19:15:10+08:00
; #@! TF.GenerationSoftware,Kicad,Pcbnew,5.1.2-f72e74a~84~ubuntu18.04.1
; #@! TF.FileFunction,Plated,1,2,PTH
FMAT,2
METRIC
T1C0.400
T2C0.500
T3C0.600
T4C0.650
T5C0.701
T6C0.762
T7C0.800
T8C1.000
T9C1.097
%
G90
G05
T1
X2.125Y-53.2
X4.025Y-31.05
X4.1Y-55.6
X4.3Y-43.9
X5.03Y-69.812
X5.075Y-92.275
X5.892Y-84.052
X5.933Y-85.117
X7.0Y-17.4
X7.1Y-86.2
X7.2Y-42.8
X7.6Y-55.3
X8.36Y-17.425
X9.0Y-25.81
X9.0Y-28.5
X9.2Y-48.7
X9.2Y-65.5
X9.235Y-44.1
X9.235Y-60.95
X9.4Y-92.1
X9.5Y-96.275
X9.63Y-17.425
X10.432Y-27.19
X10.525Y-9.3
X10.6Y-32.2
X10.7Y-90.095
X10.965Y-17.43
X11.312Y-31.012
X11.35Y-91.96
X11.6Y-63.7
X11.6Y-90.095
X11.963Y-42.525
X12.275Y-9.3
X12.3Y-25.8
X12.3Y-28.5
X12.3Y-43.7
X12.4Y-73.775
X12.4Y-79.4
X12.4Y-81.525
X12.41Y-83.27
X12.6Y-7.8
X12.615Y-11.285
X12.615Y-12.555
X12.615Y-13.825
X12.615Y-15.095
X13.885Y-8.745
X13.885Y-10.015
X13.885Y-11.285
X13.885Y-12.555
X13.885Y-13.825
X13.885Y-15.095
X14.25Y-60.5
X14.45Y-72.375
X14.5Y-43.75
X15.155Y-8.745
X15.155Y-10.015
X15.155Y-11.285
X15.155Y-12.555
X15.155Y-13.825
X15.155Y-15.095
X15.2Y-32.2
X15.3Y-25.9
X15.3Y-28.4
X15.34Y-72.831
X15.8Y-64.6
X16.15Y-97.1
X16.425Y-8.745
X16.425Y-10.015
X16.425Y-11.285
X16.425Y-12.555
X16.425Y-13.825
X16.425Y-15.095
X16.795Y-27.15
X17.8Y-98.475
X18.025Y-31.075
X18.2Y-15.7
X18.2Y-25.9
X18.3Y-28.4
X18.65Y-8.35
X18.9Y-23.2
X19.3Y-15.7
X19.4Y-96.2
X19.9Y-48.4
X20.4Y-14.0
X20.9Y-92.5
X21.5Y-96.7
X21.7Y-8.4
X21.798Y-85.395
X21.8Y-84.3
X22.5Y-65.2
X23.0Y-29.0
X23.272Y-71.095
X23.4Y-58.6
X23.5Y-56.2
X23.8Y-13.9
X24.1Y-5.25
X24.682Y-31.107
X24.9Y-86.6
X25.1Y-64.2
X25.2Y-62.3
X25.2Y-92.6
X25.225Y-22.25
X25.275Y-66.7
X25.5Y-73.2
X25.75Y-59.25
X26.1Y-15.625
X26.4Y-54.3
X26.412Y-72.693
X26.6Y-90.1
X26.7Y-8.3
X26.9Y-30.4
X26.925Y-32.955
X26.925Y-34.225
X26.925Y-35.495
X27.2Y-15.625
X27.2Y-90.1
X27.6Y-54.3
X27.9Y-52.4
X28.3Y-14.0
X28.43Y-64.287
X28.57Y-61.77
X28.572Y-60.225
X28.625Y-68.0
X28.7Y-54.3
X29.1Y-22.0
X29.35Y-79.325
X29.35Y-83.2
X29.35Y-73.925
X29.6Y-8.2
X29.683Y-61.683
X30.0Y-53.2
X30.168Y-62.558
X30.344Y-63.542
X30.6Y-49.1
X30.85Y-39.05
X30.85Y-43.05
X31.4Y-70.9
X31.6Y-48.1
X31.75Y-65.8
X31.9Y-13.7
X31.964Y-59.432
X32.1Y-8.0
X32.275Y-5.275
X32.514Y-64.826
X32.61Y-98.46
X32.992Y-58.362
X32.992Y-58.362
X33.25Y-67.2
X33.38Y-59.3
X33.5Y-60.75
X33.969Y-58.182
X34.2Y-96.7
X34.425Y-61.358
X34.6Y-15.625
X34.7Y-57.5
X34.8Y-36.8
X34.85Y-55.55
X34.874Y-60.909
X35.0Y-34.1
X35.0Y-50.55
X35.025Y-38.9
X35.15Y-8.35
X35.323Y-61.358
X35.675Y-68.022
X35.7Y-41.2
X35.714Y-57.766
X35.772Y-61.807
X35.8Y-15.625
X36.1Y-17.5
X36.2Y-58.6
X36.4Y-69.9
X36.4Y-96.5
X36.681Y-57.512
X36.743Y-59.216
X36.85Y-85.3
X36.9Y-13.9
X37.1Y-70.9
X37.2Y-58.6
X37.209Y-56.662
X37.582Y-63.103
X37.641Y-59.216
X37.641Y-60.114
X37.7Y-64.1
X37.925Y-87.0
X37.975Y-56.011
X37.99Y-46.22
X38.1Y-54.102
X38.1Y-58.6
X38.15Y-8.35
X38.225Y-47.3
X38.25Y-43.4
X38.3Y-42.0
X38.396Y-44.126
X38.5Y-4.9
X38.539Y-60.114
X38.539Y-61.012
X38.542Y-39.801
X38.7Y-54.9
X38.775Y-51.475
X38.865Y-71.863
X38.938Y-52.613
X39.079Y-65.841
X39.15Y-45.976
X39.167Y-64.824
X39.2Y-59.7
X39.2Y-60.6
X39.529Y-39.963
X39.62Y-14.0
X39.75Y-84.75
X39.8Y-51.45
X39.875Y-46.975
X40.3Y-53.9
X40.5Y-40.275
X40.663Y-55.394
X40.67Y-5.28
X40.7Y-54.5
X40.875Y-47.677
X40.884Y-51.191
X41.561Y-55.394
X41.561Y-56.292
X41.839Y-52.286
X41.97Y-45.27
X42.24Y-43.25
X42.3Y-42.1
X42.459Y-55.394
X42.459Y-56.292
X42.459Y-57.19
X42.7Y-90.094
X42.772Y-52.647
X42.922Y-69.357
X42.926Y-62.23
X42.929Y-71.22
X43.115Y-26.2
X43.357Y-55.394
X43.357Y-56.292
X43.4Y-73.9
X43.6Y-36.8
X43.6Y-90.1
X43.6Y-92.3
X43.7Y-28.4
X43.806Y-55.843
X43.95Y-70.1
X44.1Y-72.2
X44.23Y-46.47
X44.25Y-59.0
X44.27Y-40.89
X44.37Y-26.23
X44.4Y-55.4
X44.71Y-21.5
X44.84Y-38.17
X45.0Y-39.6
X45.225Y-36.5
X45.3Y-62.5
X45.506Y-37.619
X45.57Y-26.27
X45.9Y-56.6
X46.225Y-48.2
X46.3Y-69.3
X46.6Y-24.5
X46.7Y-26.3
X46.987Y-36.511
X47.1Y-66.5
X47.366Y-49.3
X47.38Y-98.48
X47.4Y-57.5
X47.4Y-59.7
X47.975Y-48.2
X48.0Y-28.0
X48.2Y-65.9
X48.6Y-39.0
X49.071Y-71.519
X49.417Y-53.281
X49.447Y-59.294
X49.5Y-96.9
X49.6Y-29.875
X49.8Y-21.3
X49.9Y-73.5
X50.075Y-26.3
X50.096Y-54.015
X50.1Y-31.4
X50.1Y-52.025
X50.3Y-40.675
X50.513Y-63.413
X50.625Y-7.3
X50.75Y-3.75
X51.0Y-58.7
X51.1Y-54.5
X51.3Y-64.25
X51.35Y-33.4
X51.4Y-36.4
X51.9Y-49.1
X52.0Y-65.3
X52.0Y-96.425
X52.3Y-43.2
X52.4Y-58.3
X53.5Y-86.75
X53.7Y-39.1
X53.75Y-21.25
X55.0Y-52.6
X55.4Y-32.8
X55.7Y-55.5
X56.4Y-21.4
X57.0Y-25.8
X57.1Y-92.2
X57.5Y-89.9
X57.709Y-23.065
X57.9Y-24.7
X58.5Y-20.6
X58.6Y-25.4
X58.9Y-90.1
X59.6Y-90.1
X60.0Y-67.275
X61.4Y-21.3
X62.35Y-7.3
X62.56Y-98.47
X64.0Y-40.9
X64.2Y-6.8
X64.2Y-21.1
X64.6Y-96.9
X65.0Y-35.0
X66.971Y-96.588
X68.15Y-21.3
X70.65Y-85.7
X72.0Y-83.9
X73.2Y-21.3
X73.25Y-3.75
X73.9Y-92.4
X74.025Y-7.3
X74.5Y-84.3
X75.3Y-90.1
X75.325Y-66.9
X75.325Y-68.4
X76.1Y-90.1
X76.89Y-4.15
X77.2Y-60.5
X77.89Y-8.15
X77.96Y-98.47
X78.23Y-11.05
X78.32Y-6.95
X78.6Y-2.0
X79.6Y-36.9
X79.6Y-96.9
X80.0Y-17.0
X80.094Y-13.5
X80.18Y-10.42
X81.253Y-7.621
X81.27Y-3.75
X83.1Y-10.9
X83.22Y-3.755
X85.5Y-23.1
X85.56Y-3.77
X85.7Y-86.7
X87.53Y-3.76
X87.75Y-74.0
X87.88Y-10.83
X87.93Y-6.92
X87.95Y-8.5
X88.1Y-83.9
X88.9Y-7.83
X89.65Y-12.05
X89.7Y-10.4
X90.16Y-3.78
X90.3Y-96.9
X90.35Y-8.26
X91.0Y-92.0
X91.4Y-90.1
X91.77Y-21.9
X91.84Y-98.48
X91.92Y-6.8
X92.13Y-3.77
X92.2Y-90.1
X93.0Y-17.2
X44.096Y-31.731
X44.096Y-32.62
X44.096Y-33.509
X45.112Y-31.731
X45.112Y-32.62
X45.112Y-33.509
X46.128Y-31.731
X46.128Y-32.62
X46.128Y-33.509
X47.144Y-31.731
X47.144Y-32.62
X47.144Y-33.509
X42.805Y-11.263
X42.805Y-12.711
X42.805Y-14.158
X42.805Y-15.606
X44.075Y-9.815
X44.075Y-11.263
X44.075Y-12.711
X44.075Y-14.158
X44.075Y-15.606
X44.075Y-17.054
X45.345Y-9.815
X45.345Y-11.263
X45.345Y-12.711
X45.345Y-14.158
X45.345Y-15.606
X45.345Y-17.054
X46.615Y-9.815
X46.615Y-11.263
X46.615Y-12.711
X46.615Y-14.158
X46.615Y-15.606
X46.615Y-17.054
X47.885Y-9.815
X47.885Y-11.263
X47.885Y-12.711
X47.885Y-14.158
X47.885Y-15.606
X47.885Y-17.054
X49.155Y-9.815
X49.155Y-11.263
X49.155Y-12.711
X49.155Y-14.158
X49.155Y-15.606
X49.155Y-17.054
X50.425Y-9.815
X50.425Y-11.263
X50.425Y-12.711
X50.425Y-14.158
X50.425Y-15.606
X50.425Y-17.054
X51.568Y-11.263
X51.568Y-12.711
X51.568Y-14.158
X51.568Y-15.606
X44.696Y-42.831
X44.696Y-43.72
X44.696Y-44.609
X45.712Y-42.831
X45.712Y-43.72
X45.712Y-44.609
X46.728Y-42.831
X46.728Y-43.72
X46.728Y-44.609
X47.744Y-42.831
X47.744Y-43.72
X47.744Y-44.609
X54.405Y-11.263
X54.405Y-12.711
X54.405Y-14.158
X54.405Y-15.606
X55.675Y-9.815
X55.675Y-11.263
X55.675Y-12.711
X55.675Y-14.158
X55.675Y-15.606
X55.675Y-17.054
X56.945Y-9.815
X56.945Y-11.263
X56.945Y-12.711
X56.945Y-14.158
X56.945Y-15.606
X56.945Y-17.054
X58.215Y-9.815
X58.215Y-11.263
X58.215Y-12.711
X58.215Y-14.158
X58.215Y-15.606
X58.215Y-17.054
X59.485Y-9.815
X59.485Y-11.263
X59.485Y-12.711
X59.485Y-14.158
X59.485Y-15.606
X59.485Y-17.054
X60.755Y-9.815
X60.755Y-11.263
X60.755Y-12.711
X60.755Y-14.158
X60.755Y-15.606
X60.755Y-17.054
X62.025Y-9.815
X62.025Y-11.263
X62.025Y-12.711
X62.025Y-14.158
X62.025Y-15.606
X62.025Y-17.054
X63.168Y-11.263
X63.168Y-12.711
X63.168Y-14.158
X63.168Y-15.606
X18.88Y-10.154
X18.88Y-10.916
X20.15Y-10.154
X20.15Y-10.916
X21.42Y-10.154
X21.42Y-10.916
X66.205Y-11.263
X66.205Y-12.711
X66.205Y-14.158
X66.205Y-15.606
X67.475Y-9.815
X67.475Y-11.263
X67.475Y-12.711
X67.475Y-14.158
X67.475Y-15.606
X67.475Y-17.054
X68.745Y-9.815
X68.745Y-11.263
X68.745Y-12.711
X68.745Y-14.158
X68.745Y-15.606
X68.745Y-17.054
X70.015Y-9.815
X70.015Y-11.263
X70.015Y-12.711
X70.015Y-14.158
X70.015Y-15.606
X70.015Y-17.054
X71.285Y-9.815
X71.285Y-11.263
X71.285Y-12.711
X71.285Y-14.158
X71.285Y-15.606
X71.285Y-17.054
X72.555Y-9.815
X72.555Y-11.263
X72.555Y-12.711
X72.555Y-14.158
X72.555Y-15.606
X72.555Y-17.054
X73.825Y-9.815
X73.825Y-11.263
X73.825Y-12.711
X73.825Y-14.158
X73.825Y-15.606
X73.825Y-17.054
X74.968Y-11.263
X74.968Y-12.711
X74.968Y-14.158
X74.968Y-15.606
X26.88Y-10.154
X26.88Y-10.916
X28.15Y-10.154
X28.15Y-10.916
X29.42Y-10.154
X29.42Y-10.916
X35.38Y-10.154
X35.38Y-10.916
X36.65Y-10.154
X36.65Y-10.916
X37.92Y-10.154
X37.92Y-10.916
T2
X32.3Y-39.7
T3
X38.55Y-90.095
X54.85Y-90.095
X71.2Y-90.095
X87.3Y-90.095
T4
X53.8Y-55.0
X53.8Y-56.27
X53.8Y-57.54
X53.8Y-58.81
X53.8Y-60.08
X29.1Y-42.1
X29.1Y-43.37
X29.1Y-44.64
X29.1Y-45.91
X29.1Y-47.18
X77.7Y-15.7
X77.7Y-16.97
X77.7Y-18.24
X77.7Y-19.51
X77.7Y-20.78
X77.7Y-22.05
T5
X27.149Y-3.9
X29.151Y-3.9
X91.798Y-9.1
X93.8Y-9.1
X95.802Y-9.1
X23.28Y-97.185
X25.279Y-97.185
X27.281Y-97.185
X29.282Y-97.185
X68.52Y-97.185
X70.519Y-97.185
X72.521Y-97.185
X74.522Y-97.185
X81.898Y-9.1
X83.9Y-9.1
X85.902Y-9.1
X2.4Y-60.6
X2.4Y-62.599
X2.4Y-64.601
X2.4Y-66.602
X91.798Y-14.75
X93.8Y-14.75
X95.802Y-14.75
X16.53Y-34.049
X16.53Y-36.051
X21.25Y-23.248
X21.25Y-25.25
X21.25Y-27.252
X38.11Y-97.185
X40.109Y-97.185
X42.111Y-97.185
X44.112Y-97.185
X23.4Y-34.049
X23.4Y-36.051
X81.898Y-20.4
X83.9Y-20.4
X85.902Y-20.4
X35.399Y-3.9
X37.401Y-3.9
X2.4Y-43.7
X2.4Y-45.699
X2.4Y-47.701
X2.4Y-49.702
X18.999Y-3.9
X21.001Y-3.9
X91.798Y-20.4
X93.8Y-20.4
X95.802Y-20.4
X2.79Y-34.049
X2.79Y-36.051
X81.898Y-14.75
X83.9Y-14.75
X85.902Y-14.75
X8.5Y-97.185
X10.499Y-97.185
X12.501Y-97.185
X14.502Y-97.185
X53.29Y-97.185
X55.289Y-97.185
X57.291Y-97.185
X59.292Y-97.185
X9.66Y-34.049
X9.66Y-36.051
X82.5Y-97.185
X84.499Y-97.185
X86.501Y-97.185
X88.502Y-97.185
T6
X60.22Y-27.58
X60.22Y-30.12
X60.22Y-70.76
X62.76Y-27.58
X62.76Y-30.12
X62.76Y-70.76
X65.3Y-27.58
X65.3Y-30.12
X65.3Y-70.76
X67.84Y-27.58
X67.84Y-30.12
X67.84Y-70.76
X70.38Y-27.58
X70.38Y-30.12
X70.38Y-70.76
X72.92Y-27.58
X72.92Y-30.12
X72.92Y-70.76
X75.46Y-27.58
X75.46Y-30.12
X75.46Y-70.76
X78.0Y-27.58
X78.0Y-30.12
X78.0Y-70.76
X80.54Y-27.58
X80.54Y-30.12
X80.54Y-70.76
X83.08Y-27.58
X83.08Y-30.12
X83.08Y-70.76
X85.62Y-27.58
X85.62Y-30.12
X85.62Y-70.76
X88.16Y-27.58
X88.16Y-30.12
X88.16Y-70.76
X90.7Y-27.58
X90.7Y-30.12
X90.7Y-70.76
X92.2Y-35.74
X94.74Y-35.74
X97.28Y-35.74
T7
X19.001Y-74.345
X19.001Y-76.885
X19.001Y-79.425
X19.001Y-81.965
X19.001Y-84.505
X19.001Y-87.045
X19.001Y-89.585
X19.001Y-92.125
X31.701Y-74.345
X31.701Y-76.885
X31.701Y-79.425
X31.701Y-81.965
X31.701Y-84.505
X31.701Y-87.045
X31.701Y-89.585
X31.701Y-92.125
X34.977Y-74.345
X34.977Y-76.885
X34.977Y-79.425
X34.977Y-81.965
X34.977Y-84.505
X34.977Y-87.045
X34.977Y-89.585
X34.977Y-92.125
X47.677Y-74.345
X47.677Y-76.885
X47.677Y-79.425
X47.677Y-81.965
X47.677Y-84.505
X47.677Y-87.045
X47.677Y-89.585
X47.677Y-92.125
X29.683Y-65.91
X33.133Y-69.361
X3.075Y-74.345
X3.075Y-76.885
X3.075Y-79.425
X3.075Y-81.965
X3.075Y-84.505
X3.075Y-87.045
X3.075Y-89.585
X3.075Y-92.125
X15.775Y-74.345
X15.775Y-76.885
X15.775Y-79.425
X15.775Y-81.965
X15.775Y-84.505
X15.775Y-87.045
X15.775Y-89.585
X15.775Y-92.125
X7.205Y-57.265
X7.205Y-69.965
X9.745Y-57.265
X9.745Y-69.965
X12.285Y-57.265
X12.285Y-69.965
X14.825Y-57.265
X14.825Y-69.965
X17.365Y-57.265
X17.365Y-69.965
X19.905Y-57.265
X19.905Y-69.965
X22.445Y-57.265
X22.445Y-69.965
X24.985Y-57.265
X24.985Y-69.965
X83.805Y-74.345
X83.805Y-76.885
X83.805Y-79.425
X83.805Y-81.965
X83.805Y-84.505
X83.805Y-87.045
X83.805Y-89.585
X83.805Y-92.125
X96.505Y-74.345
X96.505Y-76.885
X96.505Y-79.425
X96.505Y-81.965
X96.505Y-84.505
X96.505Y-87.045
X96.505Y-89.585
X96.505Y-92.125
X67.679Y-74.345
X67.679Y-76.885
X67.679Y-79.425
X67.679Y-81.965
X67.679Y-84.505
X67.679Y-87.045
X67.679Y-89.585
X67.679Y-92.125
X80.379Y-74.345
X80.379Y-76.885
X80.379Y-79.425
X80.379Y-81.965
X80.379Y-84.505
X80.379Y-87.045
X80.379Y-89.585
X80.379Y-92.125
X51.303Y-74.345
X51.303Y-76.885
X51.303Y-79.425
X51.303Y-81.965
X51.303Y-84.505
X51.303Y-87.045
X51.303Y-89.585
X51.303Y-92.125
X64.003Y-74.345
X64.003Y-76.885
X64.003Y-79.425
X64.003Y-81.965
X64.003Y-84.505
X64.003Y-87.045
X64.003Y-89.585
X64.003Y-92.125
X7.205Y-40.385
X7.205Y-53.085
X9.745Y-40.385
X9.745Y-53.085
X12.285Y-40.385
X12.285Y-53.085
X14.825Y-40.385
X14.825Y-53.085
X17.365Y-40.385
X17.365Y-53.085
X19.905Y-40.385
X19.905Y-53.085
X22.445Y-40.385
X22.445Y-53.085
X24.985Y-40.385
X24.985Y-53.085
T8
X22.3Y-76.9
X22.3Y-79.44
X22.3Y-81.98
X24.84Y-76.9
X24.84Y-79.44
X24.84Y-81.98
X38.8Y-76.9
X38.8Y-79.44
X38.8Y-81.98
X41.34Y-76.9
X41.34Y-79.44
X41.34Y-81.98
X32.6Y-41.6
X32.6Y-44.14
X32.6Y-46.68
X32.6Y-49.22
X71.0Y-76.9
X71.0Y-79.44
X71.0Y-81.98
X73.54Y-76.9
X73.54Y-79.44
X73.54Y-81.98
X6.4Y-76.9
X6.4Y-79.44
X6.4Y-81.98
X8.94Y-76.9
X8.94Y-79.44
X8.94Y-81.98
X29.66Y-27.64
X29.66Y-30.18
X29.66Y-32.72
X29.66Y-35.26
X29.66Y-37.8
X32.2Y-27.64
X32.2Y-30.18
X32.2Y-32.72
X32.2Y-35.26
X32.2Y-37.8
X87.3Y-76.9
X87.3Y-79.44
X87.3Y-81.98
X89.84Y-76.9
X89.84Y-79.44
X89.84Y-81.98
X17.32Y-43.8
X17.32Y-46.34
X19.86Y-43.8
X19.86Y-46.34
X22.4Y-43.8
X22.4Y-46.34
X17.42Y-60.65
X17.42Y-63.19
X19.96Y-60.65
X19.96Y-63.19
X22.5Y-60.65
X22.5Y-63.19
X54.8Y-76.9
X54.8Y-79.44
X54.8Y-81.98
X57.34Y-76.9
X57.34Y-79.44
X57.34Y-81.98
X38.06Y-27.64
X38.06Y-30.18
X38.06Y-32.72
X38.06Y-35.26
X38.06Y-37.8
X40.6Y-27.64
X40.6Y-30.18
X40.6Y-32.72
X40.6Y-35.26
X40.6Y-37.8
T9
X4.9Y-19.28
X4.9Y-21.82
X4.9Y-25.88
X4.9Y-28.42
X55.08Y-4.8
X57.62Y-4.8
X4.9Y-12.53
X4.9Y-15.07
X43.48Y-4.8
X46.02Y-4.8
X66.88Y-4.8
X69.42Y-4.8
T0
M30
