G04 #@! TF.GenerationSoftware,KiCad,Pcbnew,5.1.2-f72e74a~84~ubuntu18.04.1*
G04 #@! TF.CreationDate,2019-05-06T19:15:08+08:00*
G04 #@! TF.ProjectId,printer-board,7072696e-7465-4722-9d62-6f6172642e6b,rev?*
G04 #@! TF.SameCoordinates,Original*
G04 #@! TF.FileFunction,Other,User*
%FSLAX46Y46*%
G04 Gerber Fmt 4.6, Leading zero omitted, Abs format (unit mm)*
G04 Created by KiCad (PCBNEW 5.1.2-f72e74a~84~ubuntu18.04.1) date 2019-05-06 19:15:08*
%MOMM*%
%LPD*%
G04 APERTURE LIST*
%ADD10C,0.050000*%
G04 APERTURE END LIST*
D10*
X37500000Y-5300000D02*
X37500000Y-9000000D01*
X39400000Y-5300000D02*
X37500000Y-5300000D01*
X39400000Y-9000000D02*
X39400000Y-5300000D01*
X37500000Y-9000000D02*
X39400000Y-9000000D01*
X37634638Y-64593586D02*
X35301186Y-66927038D01*
X38667014Y-65625962D02*
X37634638Y-64593586D01*
X36333562Y-67959414D02*
X38667014Y-65625962D01*
X35301186Y-66927038D02*
X36333562Y-67959414D01*
X29521615Y-61200000D02*
X29521615Y-57500000D01*
X27621615Y-61200000D02*
X29521615Y-61200000D01*
X27621615Y-57500000D02*
X27621615Y-61200000D01*
X29521615Y-57500000D02*
X27621615Y-57500000D01*
X45324462Y-55357914D02*
X47657914Y-53024462D01*
X44292086Y-54325538D02*
X45324462Y-55357914D01*
X46625538Y-51992086D02*
X44292086Y-54325538D01*
X47657914Y-53024462D02*
X46625538Y-51992086D01*
X46050000Y-39729999D02*
X49350000Y-39729999D01*
X46050000Y-38269999D02*
X46050000Y-39729999D01*
X49350000Y-38269999D02*
X46050000Y-38269999D01*
X49350000Y-39729999D02*
X49350000Y-38269999D01*
X52730000Y-46150000D02*
X52730000Y-42850000D01*
X51270000Y-46150000D02*
X52730000Y-46150000D01*
X51270000Y-42850000D02*
X51270000Y-46150000D01*
X52730000Y-42850000D02*
X51270000Y-42850000D01*
X43950000Y-47230000D02*
X47250000Y-47230000D01*
X43950000Y-45770000D02*
X43950000Y-47230000D01*
X47250000Y-45770000D02*
X43950000Y-45770000D01*
X47250000Y-47230000D02*
X47250000Y-45770000D01*
X47250000Y-40170000D02*
X43950000Y-40170000D01*
X47250000Y-41630000D02*
X47250000Y-40170000D01*
X43950000Y-41630000D02*
X47250000Y-41630000D01*
X43950000Y-40170000D02*
X43950000Y-41630000D01*
X48750000Y-47470000D02*
X45450000Y-47470000D01*
X48750000Y-48930000D02*
X48750000Y-47470000D01*
X45450000Y-48930000D02*
X48750000Y-48930000D01*
X45450000Y-47470000D02*
X45450000Y-48930000D01*
X45450000Y-28680000D02*
X48750000Y-28680000D01*
X45450000Y-27220000D02*
X45450000Y-28680000D01*
X48750000Y-27220000D02*
X45450000Y-27220000D01*
X48750000Y-28680000D02*
X48750000Y-27220000D01*
X52130000Y-36450000D02*
X52130000Y-33150000D01*
X50670000Y-36450000D02*
X52130000Y-36450000D01*
X50670000Y-33150000D02*
X50670000Y-36450000D01*
X52130000Y-33150000D02*
X50670000Y-33150000D01*
X43350000Y-35730000D02*
X46650000Y-35730000D01*
X43350000Y-34270000D02*
X43350000Y-35730000D01*
X46650000Y-34270000D02*
X43350000Y-34270000D01*
X46650000Y-35730000D02*
X46650000Y-34270000D01*
X46650000Y-29070001D02*
X43350000Y-29070001D01*
X46650000Y-30530001D02*
X46650000Y-29070001D01*
X43350000Y-30530001D02*
X46650000Y-30530001D01*
X43350000Y-29070001D02*
X43350000Y-30530001D01*
X47750000Y-35770001D02*
X44450000Y-35770001D01*
X47750000Y-37230001D02*
X47750000Y-35770001D01*
X44450000Y-37230001D02*
X47750000Y-37230001D01*
X44450000Y-35770001D02*
X44450000Y-37230001D01*
X42117086Y-52150538D02*
X43149462Y-53182914D01*
X43149462Y-53182914D02*
X45482914Y-50849462D01*
X45482914Y-50849462D02*
X44450538Y-49817086D01*
X44450538Y-49817086D02*
X42117086Y-52150538D01*
X43217086Y-53250538D02*
X44249462Y-54282914D01*
X44249462Y-54282914D02*
X46582914Y-51949462D01*
X46582914Y-51949462D02*
X45550538Y-50917086D01*
X45550538Y-50917086D02*
X43217086Y-53250538D01*
X42682914Y-65150538D02*
X40349462Y-62817086D01*
X41650538Y-66182914D02*
X42682914Y-65150538D01*
X39317086Y-63849462D02*
X41650538Y-66182914D01*
X40349462Y-62817086D02*
X39317086Y-63849462D01*
X41349462Y-61817086D02*
X40317086Y-62849462D01*
X40317086Y-62849462D02*
X42650538Y-65182914D01*
X42650538Y-65182914D02*
X43682914Y-64150538D01*
X43682914Y-64150538D02*
X41349462Y-61817086D01*
X34240586Y-65866438D02*
X35272962Y-66898814D01*
X35272962Y-66898814D02*
X37606414Y-64565362D01*
X37606414Y-64565362D02*
X36574038Y-63532986D01*
X36574038Y-63532986D02*
X34240586Y-65866438D01*
X44140086Y-59856038D02*
X45172462Y-60888414D01*
X45172462Y-60888414D02*
X47505914Y-58554962D01*
X47505914Y-58554962D02*
X46473538Y-57522586D01*
X46473538Y-57522586D02*
X44140086Y-59856038D01*
X44528938Y-55577986D02*
X42195486Y-57911438D01*
X45561314Y-56610362D02*
X44528938Y-55577986D01*
X43227862Y-58943814D02*
X45561314Y-56610362D01*
X42195486Y-57911438D02*
X43227862Y-58943814D01*
X34629438Y-61588386D02*
X32295986Y-63921838D01*
X35661814Y-62620762D02*
X34629438Y-61588386D01*
X33328362Y-64954214D02*
X35661814Y-62620762D01*
X32295986Y-63921838D02*
X33328362Y-64954214D01*
X41984438Y-70327214D02*
X43016814Y-69294838D01*
X43016814Y-69294838D02*
X40683362Y-66961386D01*
X40683362Y-66961386D02*
X39650986Y-67993762D01*
X39650986Y-67993762D02*
X41984438Y-70327214D01*
X32391514Y-58176638D02*
X30058062Y-55843186D01*
X31359138Y-59209014D02*
X32391514Y-58176638D01*
X29025686Y-56875562D02*
X31359138Y-59209014D01*
X30058062Y-55843186D02*
X29025686Y-56875562D01*
X50716138Y-61595514D02*
X51748514Y-60563138D01*
X51748514Y-60563138D02*
X49415062Y-58229686D01*
X49415062Y-58229686D02*
X48382686Y-59262062D01*
X48382686Y-59262062D02*
X50716138Y-61595514D01*
X40849462Y-50882914D02*
X43182914Y-48549462D01*
X39817086Y-49850538D02*
X40849462Y-50882914D01*
X42150538Y-47517086D02*
X39817086Y-49850538D01*
X43182914Y-48549462D02*
X42150538Y-47517086D01*
X50687914Y-61623738D02*
X48354462Y-59290286D01*
X49655538Y-62656114D02*
X50687914Y-61623738D01*
X47322086Y-60322662D02*
X49655538Y-62656114D01*
X48354462Y-59290286D02*
X47322086Y-60322662D01*
X40917086Y-50950538D02*
X41949462Y-51982914D01*
X41949462Y-51982914D02*
X44282914Y-49649462D01*
X44282914Y-49649462D02*
X43250538Y-48617086D01*
X43250538Y-48617086D02*
X40917086Y-50950538D01*
X46337438Y-66779086D02*
X44003986Y-69112538D01*
X47369814Y-67811462D02*
X46337438Y-66779086D01*
X45036362Y-70144914D02*
X47369814Y-67811462D01*
X44003986Y-69112538D02*
X45036362Y-70144914D01*
X33150538Y-66017086D02*
X30817086Y-68350538D01*
X34182914Y-67049462D02*
X33150538Y-66017086D01*
X31849462Y-69382914D02*
X34182914Y-67049462D01*
X30817086Y-68350538D02*
X31849462Y-69382914D01*
X34070814Y-61029762D02*
X33038438Y-59997386D01*
X33038438Y-59997386D02*
X30704986Y-62330838D01*
X30704986Y-62330838D02*
X31737362Y-63363214D01*
X31737362Y-63363214D02*
X34070814Y-61029762D01*
X31969256Y-64898368D02*
X29635804Y-67231820D01*
X33001632Y-65930744D02*
X31969256Y-64898368D01*
X30668180Y-68264196D02*
X33001632Y-65930744D01*
X29635804Y-67231820D02*
X30668180Y-68264196D01*
X37801186Y-71894538D02*
X38833562Y-72926914D01*
X38833562Y-72926914D02*
X41167014Y-70593462D01*
X41167014Y-70593462D02*
X40134638Y-69561086D01*
X40134638Y-69561086D02*
X37801186Y-71894538D01*
X43807743Y-59452990D02*
X41474290Y-61786443D01*
X43807743Y-59452990D02*
X45575510Y-61220757D01*
X43242057Y-63554210D02*
X41474290Y-61786443D01*
X43242057Y-63554210D02*
X45575510Y-61220757D01*
X41863143Y-57508390D02*
X39529690Y-59841843D01*
X41863143Y-57508390D02*
X43630910Y-59276157D01*
X41297457Y-61609610D02*
X39529690Y-59841843D01*
X41297457Y-61609610D02*
X43630910Y-59276157D01*
X36361886Y-67987738D02*
X37394262Y-69020114D01*
X37394262Y-69020114D02*
X39727714Y-66686662D01*
X39727714Y-66686662D02*
X38695338Y-65654286D01*
X38695338Y-65654286D02*
X36361886Y-67987738D01*
X74550000Y-67630000D02*
X77850000Y-67630000D01*
X74550000Y-66170000D02*
X74550000Y-67630000D01*
X77850000Y-66170000D02*
X74550000Y-66170000D01*
X77850000Y-67630000D02*
X77850000Y-66170000D01*
X77850000Y-69130000D02*
X77850000Y-67670000D01*
X77850000Y-67670000D02*
X74550000Y-67670000D01*
X74550000Y-67670000D02*
X74550000Y-69130000D01*
X74550000Y-69130000D02*
X77850000Y-69130000D01*
X48357867Y-68944975D02*
X48357867Y-72244975D01*
X49817867Y-68944975D02*
X48357867Y-68944975D01*
X49817867Y-72244975D02*
X49817867Y-68944975D01*
X48357867Y-72244975D02*
X49817867Y-72244975D01*
X92565000Y-99250000D02*
X92565000Y-95950000D01*
X91105000Y-99250000D02*
X92565000Y-99250000D01*
X91105000Y-95950000D02*
X91105000Y-99250000D01*
X92565000Y-95950000D02*
X91105000Y-95950000D01*
X78685000Y-99250000D02*
X78685000Y-95950000D01*
X77225000Y-99250000D02*
X78685000Y-99250000D01*
X77225000Y-95950000D02*
X77225000Y-99250000D01*
X78685000Y-95950000D02*
X77225000Y-95950000D01*
X63280000Y-99250000D02*
X63280000Y-95950000D01*
X61820000Y-99250000D02*
X63280000Y-99250000D01*
X61820000Y-95950000D02*
X61820000Y-99250000D01*
X63280000Y-95950000D02*
X61820000Y-95950000D01*
X48100000Y-95950000D02*
X46640000Y-95950000D01*
X46640000Y-95950000D02*
X46640000Y-99250000D01*
X46640000Y-99250000D02*
X48100000Y-99250000D01*
X48100000Y-99250000D02*
X48100000Y-95950000D01*
X33330000Y-95950000D02*
X31870000Y-95950000D01*
X31870000Y-95950000D02*
X31870000Y-99250000D01*
X31870000Y-99250000D02*
X33330000Y-99250000D01*
X33330000Y-99250000D02*
X33330000Y-95950000D01*
X18530000Y-95950000D02*
X17070000Y-95950000D01*
X17070000Y-95950000D02*
X17070000Y-99250000D01*
X17070000Y-99250000D02*
X18530000Y-99250000D01*
X18530000Y-99250000D02*
X18530000Y-95950000D01*
X1350000Y-69170000D02*
X1350000Y-70630000D01*
X1350000Y-70630000D02*
X4650000Y-70630000D01*
X4650000Y-70630000D02*
X4650000Y-69170000D01*
X4650000Y-69170000D02*
X1350000Y-69170000D01*
X1350000Y-53930000D02*
X4650000Y-53930000D01*
X1350000Y-52470000D02*
X1350000Y-53930000D01*
X4650000Y-52470000D02*
X1350000Y-52470000D01*
X4650000Y-53930000D02*
X4650000Y-52470000D01*
X48100000Y-8030000D02*
X51400000Y-8030000D01*
X48100000Y-6570000D02*
X48100000Y-8030000D01*
X51400000Y-6570000D02*
X48100000Y-6570000D01*
X51400000Y-8030000D02*
X51400000Y-6570000D01*
X48800000Y-22150000D02*
X50700000Y-22150000D01*
X50700000Y-22150000D02*
X50700000Y-18450000D01*
X50700000Y-18450000D02*
X48800000Y-18450000D01*
X48800000Y-18450000D02*
X48800000Y-22150000D01*
X43800000Y-22150000D02*
X45700000Y-22150000D01*
X45700000Y-22150000D02*
X45700000Y-18450000D01*
X45700000Y-18450000D02*
X43800000Y-18450000D01*
X43800000Y-18450000D02*
X43800000Y-22150000D01*
X63125000Y-8030000D02*
X63125000Y-6570000D01*
X63125000Y-6570000D02*
X59825000Y-6570000D01*
X59825000Y-6570000D02*
X59825000Y-8030000D01*
X59825000Y-8030000D02*
X63125000Y-8030000D01*
X60400000Y-18450000D02*
X60400000Y-22150000D01*
X62300000Y-18450000D02*
X60400000Y-18450000D01*
X62300000Y-22150000D02*
X62300000Y-18450000D01*
X60400000Y-22150000D02*
X62300000Y-22150000D01*
X55400000Y-22150000D02*
X57300000Y-22150000D01*
X57300000Y-22150000D02*
X57300000Y-18450000D01*
X57300000Y-18450000D02*
X55400000Y-18450000D01*
X55400000Y-18450000D02*
X55400000Y-22150000D01*
X71500000Y-8030000D02*
X74800000Y-8030000D01*
X71500000Y-6570000D02*
X71500000Y-8030000D01*
X74800000Y-6570000D02*
X71500000Y-6570000D01*
X74800000Y-8030000D02*
X74800000Y-6570000D01*
X72200000Y-18450000D02*
X72200000Y-22150000D01*
X74100000Y-18450000D02*
X72200000Y-18450000D01*
X74100000Y-22150000D02*
X74100000Y-18450000D01*
X72200000Y-22150000D02*
X74100000Y-22150000D01*
X67200000Y-22150000D02*
X69100000Y-22150000D01*
X69100000Y-22150000D02*
X69100000Y-18450000D01*
X69100000Y-18450000D02*
X67200000Y-18450000D01*
X67200000Y-18450000D02*
X67200000Y-22150000D01*
X8750000Y-31780000D02*
X12050000Y-31780000D01*
X8750000Y-30320000D02*
X8750000Y-31780000D01*
X12050000Y-30320000D02*
X8750000Y-30320000D01*
X12050000Y-31780000D02*
X12050000Y-30320000D01*
X25456575Y-31836638D02*
X25456575Y-30376638D01*
X25456575Y-30376638D02*
X22156575Y-30376638D01*
X22156575Y-30376638D02*
X22156575Y-31836638D01*
X22156575Y-31836638D02*
X25456575Y-31836638D01*
X39605000Y-20450000D02*
X39605000Y-17150000D01*
X38145000Y-20450000D02*
X39605000Y-20450000D01*
X38145000Y-17150000D02*
X38145000Y-20450000D01*
X39605000Y-17150000D02*
X38145000Y-17150000D01*
X1500000Y-31780000D02*
X4800000Y-31780000D01*
X1500000Y-30320000D02*
X1500000Y-31780000D01*
X4800000Y-30320000D02*
X1500000Y-30320000D01*
X4800000Y-31780000D02*
X4800000Y-30320000D01*
X18800000Y-31780000D02*
X18800000Y-30320000D01*
X18800000Y-30320000D02*
X15500000Y-30320000D01*
X15500000Y-30320000D02*
X15500000Y-31780000D01*
X15500000Y-31780000D02*
X18800000Y-31780000D01*
X36520000Y-17150000D02*
X36520000Y-20450000D01*
X37980000Y-17150000D02*
X36520000Y-17150000D01*
X37980000Y-20450000D02*
X37980000Y-17150000D01*
X36520000Y-20450000D02*
X37980000Y-20450000D01*
X41230000Y-17150000D02*
X39770000Y-17150000D01*
X39770000Y-17150000D02*
X39770000Y-20450000D01*
X39770000Y-20450000D02*
X41230000Y-20450000D01*
X41230000Y-20450000D02*
X41230000Y-17150000D01*
X23370000Y-2675000D02*
X23370000Y-5975000D01*
X24830000Y-2675000D02*
X23370000Y-2675000D01*
X24830000Y-5975000D02*
X24830000Y-2675000D01*
X23370000Y-5975000D02*
X24830000Y-5975000D01*
X20880000Y-5350000D02*
X19420000Y-5350000D01*
X19420000Y-5350000D02*
X19420000Y-8650000D01*
X19420000Y-8650000D02*
X20880000Y-8650000D01*
X20880000Y-8650000D02*
X20880000Y-5350000D01*
X17400000Y-5150000D02*
X17400000Y-8850000D01*
X19300000Y-5150000D02*
X17400000Y-5150000D01*
X19300000Y-8850000D02*
X19300000Y-5150000D01*
X17400000Y-8850000D02*
X19300000Y-8850000D01*
X21000000Y-8850000D02*
X22900000Y-8850000D01*
X22900000Y-8850000D02*
X22900000Y-5150000D01*
X22900000Y-5150000D02*
X21000000Y-5150000D01*
X21000000Y-5150000D02*
X21000000Y-8850000D01*
X31545000Y-6050000D02*
X33005000Y-6050000D01*
X33005000Y-6050000D02*
X33005000Y-2750000D01*
X33005000Y-2750000D02*
X31545000Y-2750000D01*
X31545000Y-2750000D02*
X31545000Y-6050000D01*
X28880000Y-5625000D02*
X27420000Y-5625000D01*
X27420000Y-5625000D02*
X27420000Y-8925000D01*
X27420000Y-8925000D02*
X28880000Y-8925000D01*
X28880000Y-8925000D02*
X28880000Y-5625000D01*
X28950000Y-5300000D02*
X28950000Y-9000000D01*
X30850000Y-5300000D02*
X28950000Y-5300000D01*
X30850000Y-9000000D02*
X30850000Y-5300000D01*
X28950000Y-9000000D02*
X30850000Y-9000000D01*
X25450000Y-9000000D02*
X27350000Y-9000000D01*
X27350000Y-9000000D02*
X27350000Y-5300000D01*
X27350000Y-5300000D02*
X25450000Y-5300000D01*
X25450000Y-5300000D02*
X25450000Y-9000000D01*
X37380000Y-5500000D02*
X35920000Y-5500000D01*
X35920000Y-5500000D02*
X35920000Y-8800000D01*
X35920000Y-8800000D02*
X37380000Y-8800000D01*
X37380000Y-8800000D02*
X37380000Y-5500000D01*
X39920000Y-2750000D02*
X39920000Y-6050000D01*
X41380000Y-2750000D02*
X39920000Y-2750000D01*
X41380000Y-6050000D02*
X41380000Y-2750000D01*
X39920000Y-6050000D02*
X41380000Y-6050000D01*
X33950000Y-5300000D02*
X33950000Y-9000000D01*
X35850000Y-5300000D02*
X33950000Y-5300000D01*
X35850000Y-9000000D02*
X35850000Y-5300000D01*
X33950000Y-9000000D02*
X35850000Y-9000000D01*
X13550000Y-25350000D02*
X13550000Y-22050000D01*
X13550000Y-25350000D02*
X11050000Y-25350000D01*
X11050000Y-22050000D02*
X13550000Y-22050000D01*
X11050000Y-22050000D02*
X11050000Y-25350000D01*
X13050000Y-10030000D02*
X13050000Y-8570000D01*
X13050000Y-8570000D02*
X9750000Y-8570000D01*
X9750000Y-8570000D02*
X9750000Y-10030000D01*
X9750000Y-10030000D02*
X13050000Y-10030000D01*
X91410000Y-3000000D02*
X91410000Y-6300000D01*
X92870000Y-3000000D02*
X91410000Y-3000000D01*
X92870000Y-6300000D02*
X92870000Y-3000000D01*
X91410000Y-6300000D02*
X92870000Y-6300000D01*
X89420000Y-3000000D02*
X89420000Y-6300000D01*
X90880000Y-3000000D02*
X89420000Y-3000000D01*
X90880000Y-6300000D02*
X90880000Y-3000000D01*
X89420000Y-6300000D02*
X90880000Y-6300000D01*
X86780000Y-2990000D02*
X86780000Y-6290000D01*
X88240000Y-2990000D02*
X86780000Y-2990000D01*
X88240000Y-6290000D02*
X88240000Y-2990000D01*
X86780000Y-6290000D02*
X88240000Y-6290000D01*
X84830000Y-2990000D02*
X84830000Y-6290000D01*
X86290000Y-2990000D02*
X84830000Y-2990000D01*
X86290000Y-6290000D02*
X86290000Y-2990000D01*
X84830000Y-6290000D02*
X86290000Y-6290000D01*
X82490000Y-2980000D02*
X82490000Y-6280000D01*
X83950000Y-2980000D02*
X82490000Y-2980000D01*
X83950000Y-6280000D02*
X83950000Y-2980000D01*
X82490000Y-6280000D02*
X83950000Y-6280000D01*
X80540000Y-2980000D02*
X80540000Y-6280000D01*
X82000000Y-2980000D02*
X80540000Y-2980000D01*
X82000000Y-6280000D02*
X82000000Y-2980000D01*
X80540000Y-6280000D02*
X82000000Y-6280000D01*
M02*
