<?xml version="1.0" standalone="no"?>
 <!DOCTYPE svg PUBLIC "-//W3C//DTD SVG 1.1//EN" 
 "http://www.w3.org/Graphics/SVG/1.1/DTD/svg11.dtd"> 
<svg xmlns="http://www.w3.org/2000/svg" version="1.1" 
    width="29.7002cm" height="21.0007cm" viewBox="0 0 116930 82680 ">
<title>SVG Picture created as printer-board-B_CrtYd.svg date 2019/05/06 19:36:47 </title>
  <desc>Picture generated by PCBNEW </desc>
<g style="fill:#000000; fill-opacity:1;stroke:#000000; stroke-opacity:1;
stroke-linecap:round; stroke-linejoin:round; "
 transform="translate(0 0) scale(1 1)">
</g>
<g style="fill:#000000; fill-opacity:0.0; 
stroke:#000000; stroke-width:-0.000393701; stroke-opacity:1; 
stroke-linecap:round; stroke-linejoin:round;">
</g>
<g style="fill:#000000; fill-opacity:0.0; 
stroke:#000000; stroke-width:19.685; stroke-opacity:1; 
stroke-linecap:round; stroke-linejoin:round;">
<path d="M14816 25430
L13898 26349
" />
<path d="M15223 25836
L14816 25430
" />
<path d="M14304 26755
L15223 25836
" />
<path d="M13898 26349
L14304 26755
" />
<path d="M14763 2086
L14763 3543
" />
<path d="M15511 2086
L14763 2086
" />
<path d="M15511 3543
L15511 2086
" />
<path d="M14763 3543
L15511 3543
" />
<path d="M11622 24094
L11622 22637
" />
<path d="M10874 24094
L11622 24094
" />
<path d="M10874 22637
L10874 24094
" />
<path d="M11622 22637
L10874 22637
" />
<path d="M17844 21794
L18762 20875
" />
<path d="M17437 21388
L17844 21794
" />
<path d="M18356 20469
L17437 21388
" />
<path d="M18762 20875
L18356 20469
" />
<path d="M18129 15641
L19429 15641
" />
<path d="M18129 15066
L18129 15641
" />
<path d="M19429 15066
L18129 15066
" />
<path d="M19429 15641
L19429 15066
" />
<path d="M20759 18169
L20759 16870
" />
<path d="M20185 18169
L20759 18169
" />
<path d="M20185 16870
L20185 18169
" />
<path d="M20759 16870
L20185 16870
" />
<path d="M17303 18594
L18602 18594
" />
<path d="M17303 18019
L17303 18594
" />
<path d="M18602 18019
L17303 18019
" />
<path d="M18602 18594
L18602 18019
" />
<path d="M18602 15814
L17303 15814
" />
<path d="M18602 16389
L18602 15814
" />
<path d="M17303 16389
L18602 16389
" />
<path d="M17303 15814
L17303 16389
" />
<path d="M19192 18688
L17893 18688
" />
<path d="M19192 19263
L19192 18688
" />
<path d="M17893 19263
L19192 19263
" />
<path d="M17893 18688
L17893 19263
" />
<path d="M17893 11291
L19192 11291
" />
<path d="M17893 10716
L17893 11291
" />
<path d="M19192 10716
L17893 10716
" />
<path d="M19192 11291
L19192 10716
" />
<path d="M20523 14350
L20523 13051
" />
<path d="M19948 14350
L20523 14350
" />
<path d="M19948 13051
L19948 14350
" />
<path d="M20523 13051
L19948 13051
" />
<path d="M17066 14066
L18366 14066
" />
<path d="M17066 13492
L17066 14066
" />
<path d="M18366 13492
L17066 13492
" />
<path d="M18366 14066
L18366 13492
" />
<path d="M18366 11444
L17066 11444
" />
<path d="M18366 12019
L18366 11444
" />
<path d="M17066 12019
L18366 12019
" />
<path d="M17066 11444
L17066 12019
" />
<path d="M18799 14082
L17500 14082
" />
<path d="M18799 14657
L18799 14082
" />
<path d="M17500 14657
L18799 14657
" />
<path d="M17500 14082
L17500 14657
" />
<path d="M16581 20531
L16987 20938
" />
<path d="M16987 20938
L17906 20019
" />
<path d="M17906 20019
L17500 19613
" />
<path d="M17500 19613
L16581 20531
" />
<path d="M17014 20964
L17421 21371
" />
<path d="M17421 21371
L18339 20452
" />
<path d="M18339 20452
L17933 20046
" />
<path d="M17933 20046
L17014 20964
" />
<path d="M16804 25649
L15885 24731
" />
<path d="M16397 26056
L16804 25649
" />
<path d="M15479 25137
L16397 26056
" />
<path d="M15885 24731
L15479 25137
" />
<path d="M16279 24337
L15872 24743
" />
<path d="M15872 24743
L16791 25662
" />
<path d="M16791 25662
L17197 25256
" />
<path d="M17197 25256
L16279 24337
" />
<path d="M13480 25931
L13886 26338
" />
<path d="M13886 26338
L14805 25419
" />
<path d="M14805 25419
L14399 25012
" />
<path d="M14399 25012
L13480 25931
" />
<path d="M17377 23565
L17784 23971
" />
<path d="M17784 23971
L18703 23053
" />
<path d="M18703 23053
L18296 22646
" />
<path d="M18296 22646
L17377 23565
" />
<path d="M17531 21881
L16612 22799
" />
<path d="M17937 22287
L17531 21881
" />
<path d="M17018 23206
L17937 22287
" />
<path d="M16612 22799
L17018 23206
" />
<path d="M13633 24247
L12714 25166
" />
<path d="M14040 24653
L13633 24247
" />
<path d="M13121 25572
L14040 24653
" />
<path d="M12714 25166
L13121 25572
" />
<path d="M16529 27687
L16935 27281
" />
<path d="M16935 27281
L16017 26362
" />
<path d="M16017 26362
L15610 26769
" />
<path d="M15610 26769
L16529 27687
" />
<path d="M12752 22904
L11833 21985
" />
<path d="M12346 23310
L12752 22904
" />
<path d="M11427 22391
L12346 23310
" />
<path d="M11833 21985
L11427 22391
" />
<path d="M19966 24250
L20373 23843
" />
<path d="M20373 23843
L19454 22925
" />
<path d="M19454 22925
L19048 23331
" />
<path d="M19048 23331
L19966 24250
" />
<path d="M16082 20032
L17001 19113
" />
<path d="M15676 19626
L16082 20032
" />
<path d="M16594 18707
L15676 19626
" />
<path d="M17001 19113
L16594 18707
" />
<path d="M19955 24261
L19037 23342
" />
<path d="M19549 24667
L19955 24261
" />
<path d="M18630 23749
L19549 24667
" />
<path d="M19037 23342
L18630 23749
" />
<path d="M16109 20059
L16515 20465
" />
<path d="M16515 20465
L17434 19547
" />
<path d="M17434 19547
L17027 19140
" />
<path d="M17027 19140
L16109 20059
" />
<path d="M18243 26290
L17324 27209
" />
<path d="M18649 26697
L18243 26290
" />
<path d="M17730 27616
L18649 26697
" />
<path d="M17324 27209
L17730 27616
" />
<path d="M13051 25990
L12132 26909
" />
<path d="M13457 26397
L13051 25990
" />
<path d="M12539 27316
L13457 26397
" />
<path d="M12132 26909
L12539 27316
" />
<path d="M13413 24027
L13007 23621
" />
<path d="M13007 23621
L12088 24539
" />
<path d="M12088 24539
L12495 24946
" />
<path d="M12495 24946
L13413 24027
" />
<path d="M12586 25550
L11667 26469
" />
<path d="M12992 25956
L12586 25550
" />
<path d="M12074 26875
L12992 25956
" />
<path d="M11667 26469
L12074 26875
" />
<path d="M14882 28304
L15288 28711
" />
<path d="M15288 28711
L16207 27792
" />
<path d="M16207 27792
L15801 27386
" />
<path d="M15801 27386
L14882 28304
" />
<path d="M17247 23406
L16328 24325
" />
<path d="M17247 23406
L17943 24102
" />
<path d="M17024 25021
L16328 24325
" />
<path d="M17024 25021
L17943 24102
" />
<path d="M16481 22641
L15562 23559
" />
<path d="M16481 22641
L17177 23337
" />
<path d="M16258 24255
L15562 23559
" />
<path d="M16258 24255
L17177 23337
" />
<path d="M14315 26766
L14722 27173
" />
<path d="M14722 27173
L15640 26254
" />
<path d="M15640 26254
L15234 25848
" />
<path d="M15234 25848
L14315 26766
" />
<path d="M29350 26625
L30649 26625
" />
<path d="M29350 26051
L29350 26625
" />
<path d="M30649 26051
L29350 26051
" />
<path d="M30649 26625
L30649 26051
" />
<path d="M30649 27216
L30649 26641
" />
<path d="M30649 26641
L29350 26641
" />
<path d="M29350 26641
L29350 27216
" />
<path d="M29350 27216
L30649 27216
" />
<path d="M19038 27143
L19038 28442
" />
<path d="M19613 27143
L19038 27143
" />
<path d="M19613 28442
L19613 27143
" />
<path d="M19038 28442
L19613 28442
" />
<path d="M36442 39074
L36442 37775
" />
<path d="M35868 39074
L36442 39074
" />
<path d="M35868 37775
L35868 39074
" />
<path d="M36442 37775
L35868 37775
" />
<path d="M30978 39074
L30978 37775
" />
<path d="M30403 39074
L30978 39074
" />
<path d="M30403 37775
L30403 39074
" />
<path d="M30978 37775
L30403 37775
" />
<path d="M24913 39074
L24913 37775
" />
<path d="M24338 39074
L24913 39074
" />
<path d="M24338 37775
L24338 39074
" />
<path d="M24913 37775
L24338 37775
" />
<path d="M18937 37775
L18362 37775
" />
<path d="M18362 37775
L18362 39074
" />
<path d="M18362 39074
L18937 39074
" />
<path d="M18937 39074
L18937 37775
" />
<path d="M13122 37775
L12547 37775
" />
<path d="M12547 37775
L12547 39074
" />
<path d="M12547 39074
L13122 39074
" />
<path d="M13122 39074
L13122 37775
" />
<path d="M7295 37775
L6720 37775
" />
<path d="M6720 37775
L6720 39074
" />
<path d="M6720 39074
L7295 39074
" />
<path d="M7295 39074
L7295 37775
" />
<path d="M531 27232
L531 27807
" />
<path d="M531 27807
L1830 27807
" />
<path d="M1830 27807
L1830 27232
" />
<path d="M1830 27232
L531 27232
" />
<path d="M531 21232
L1830 21232
" />
<path d="M531 20657
L531 21232
" />
<path d="M1830 20657
L531 20657
" />
<path d="M1830 21232
L1830 20657
" />
<path d="M18937 3161
L20236 3161
" />
<path d="M18937 2586
L18937 3161
" />
<path d="M20236 2586
L18937 2586
" />
<path d="M20236 3161
L20236 2586
" />
<path d="M19212 8720
L19960 8720
" />
<path d="M19960 8720
L19960 7263
" />
<path d="M19960 7263
L19212 7263
" />
<path d="M19212 7263
L19212 8720
" />
<path d="M17244 8720
L17992 8720
" />
<path d="M17992 8720
L17992 7263
" />
<path d="M17992 7263
L17244 7263
" />
<path d="M17244 7263
L17244 8720
" />
<path d="M24852 3161
L24852 2586
" />
<path d="M24852 2586
L23553 2586
" />
<path d="M23553 2586
L23553 3161
" />
<path d="M23553 3161
L24852 3161
" />
<path d="M23779 7263
L23779 8720
" />
<path d="M24527 7263
L23779 7263
" />
<path d="M24527 8720
L24527 7263
" />
<path d="M23779 8720
L24527 8720
" />
<path d="M21811 8720
L22559 8720
" />
<path d="M22559 8720
L22559 7263
" />
<path d="M22559 7263
L21811 7263
" />
<path d="M21811 7263
L21811 8720
" />
<path d="M28149 3161
L29448 3161
" />
<path d="M28149 2586
L28149 3161
" />
<path d="M29448 2586
L28149 2586
" />
<path d="M29448 3161
L29448 2586
" />
<path d="M28425 7263
L28425 8720
" />
<path d="M29173 7263
L28425 7263
" />
<path d="M29173 8720
L29173 7263
" />
<path d="M28425 8720
L29173 8720
" />
<path d="M26456 8720
L27204 8720
" />
<path d="M27204 8720
L27204 7263
" />
<path d="M27204 7263
L26456 7263
" />
<path d="M26456 7263
L26456 8720
" />
<path d="M3444 12511
L4744 12511
" />
<path d="M3444 11937
L3444 12511
" />
<path d="M4744 11937
L3444 11937
" />
<path d="M4744 12511
L4744 11937
" />
<path d="M10022 12534
L10022 11959
" />
<path d="M10022 11959
L8723 11959
" />
<path d="M8723 11959
L8723 12534
" />
<path d="M8723 12534
L10022 12534
" />
<path d="M15592 8051
L15592 6751
" />
<path d="M15017 8051
L15592 8051
" />
<path d="M15017 6751
L15017 8051
" />
<path d="M15592 6751
L15017 6751
" />
<path d="M590 12511
L1889 12511
" />
<path d="M590 11937
L590 12511
" />
<path d="M1889 11937
L590 11937
" />
<path d="M1889 12511
L1889 11937
" />
<path d="M7401 12511
L7401 11937
" />
<path d="M7401 11937
L6102 11937
" />
<path d="M6102 11937
L6102 12511
" />
<path d="M6102 12511
L7401 12511
" />
<path d="M14377 6751
L14377 8051
" />
<path d="M14952 6751
L14377 6751
" />
<path d="M14952 8051
L14952 6751
" />
<path d="M14377 8051
L14952 8051
" />
<path d="M16232 6751
L15657 6751
" />
<path d="M15657 6751
L15657 8051
" />
<path d="M15657 8051
L16232 8051
" />
<path d="M16232 8051
L16232 6751
" />
<path d="M9200 1053
L9200 2352
" />
<path d="M9775 1053
L9200 1053
" />
<path d="M9775 2352
L9775 1053
" />
<path d="M9200 2352
L9775 2352
" />
<path d="M8220 2106
L7645 2106
" />
<path d="M7645 2106
L7645 3405
" />
<path d="M7645 3405
L8220 3405
" />
<path d="M8220 3405
L8220 2106
" />
<path d="M6850 2027
L6850 3484
" />
<path d="M7598 2027
L6850 2027
" />
<path d="M7598 3484
L7598 2027
" />
<path d="M6850 3484
L7598 3484
" />
<path d="M8267 3484
L9015 3484
" />
<path d="M9015 3484
L9015 2027
" />
<path d="M9015 2027
L8267 2027
" />
<path d="M8267 2027
L8267 3484
" />
<path d="M12419 2381
L12994 2381
" />
<path d="M12994 2381
L12994 1082
" />
<path d="M12994 1082
L12419 1082
" />
<path d="M12419 1082
L12419 2381
" />
<path d="M11370 2214
L10795 2214
" />
<path d="M10795 2214
L10795 3513
" />
<path d="M10795 3513
L11370 3513
" />
<path d="M11370 3513
L11370 2214
" />
<path d="M11397 2086
L11397 3543
" />
<path d="M12145 2086
L11397 2086
" />
<path d="M12145 3543
L12145 2086
" />
<path d="M11397 3543
L12145 3543
" />
<path d="M10019 3543
L10767 3543
" />
<path d="M10767 3543
L10767 2086
" />
<path d="M10767 2086
L10019 2086
" />
<path d="M10019 2086
L10019 3543
" />
<path d="M14716 2165
L14141 2165
" />
<path d="M14141 2165
L14141 3464
" />
<path d="M14141 3464
L14716 3464
" />
<path d="M14716 3464
L14716 2165
" />
<path d="M15716 1082
L15716 2381
" />
<path d="M16291 1082
L15716 1082
" />
<path d="M16291 2381
L16291 1082
" />
<path d="M15716 2381
L16291 2381
" />
<path d="M13366 2086
L13366 3543
" />
<path d="M14114 2086
L13366 2086
" />
<path d="M14114 3543
L14114 2086
" />
<path d="M13366 3543
L14114 3543
" />
<path d="M5334 9980
L5334 8681
" />
<path d="M5334 9980
L4350 9980
" />
<path d="M4350 8681
L5334 8681
" />
<path d="M4350 8681
L4350 9980
" />
<path d="M5137 3948
L5137 3374
" />
<path d="M5137 3374
L3838 3374
" />
<path d="M3838 3374
L3838 3948
" />
<path d="M3838 3948
L5137 3948
" />
<path d="M35988 1181
L35988 2480
" />
<path d="M36562 1181
L35988 1181
" />
<path d="M36562 2480
L36562 1181
" />
<path d="M35988 2480
L36562 2480
" />
<path d="M35204 1181
L35204 2480
" />
<path d="M35779 1181
L35204 1181
" />
<path d="M35779 2480
L35779 1181
" />
<path d="M35204 2480
L35779 2480
" />
<path d="M34165 1177
L34165 2476
" />
<path d="M34740 1177
L34165 1177
" />
<path d="M34740 2476
L34740 1177
" />
<path d="M34165 2476
L34740 2476
" />
<path d="M33397 1177
L33397 2476
" />
<path d="M33972 1177
L33397 1177
" />
<path d="M33972 2476
L33972 1177
" />
<path d="M33397 2476
L33972 2476
" />
<path d="M32476 1173
L32476 2472
" />
<path d="M33051 1173
L32476 1173
" />
<path d="M33051 2472
L33051 1173
" />
<path d="M32476 2472
L33051 2472
" />
<path d="M31708 1173
L31708 2472
" />
<path d="M32283 1173
L31708 1173
" />
<path d="M32283 2472
L32283 1173
" />
<path d="M31708 2472
L32283 2472
" />
<g >
</g>
<g >
</g>
<g >
</g>
<g >
</g>
<g >
</g>
<g >
</g>
<g >
</g>
<g >
</g>
<g >
</g>
<g >
</g>
<g >
</g>
<g >
</g>
<g >
</g>
<g >
</g>
<g >
</g>
<g >
</g>
<g >
</g>
<g >
</g>
<g >
</g>
<g >
</g>
<g >
</g>
<g >
</g>
<g >
</g>
<g >
</g>
<g >
</g>
<g >
</g>
<g >
</g>
<g >
</g>
<g >
</g>
<g >
</g>
<g >
</g>
<g >
</g>
<g >
</g>
<g >
</g>
<g >
</g>
<g >
</g>
<g >
</g>
<g >
</g>
<g >
</g>
<g >
</g>
<g >
</g>
<g >
</g>
<g >
</g>
<g >
</g>
<g >
</g>
<g >
</g>
<g >
</g>
<g >
</g>
<g >
</g>
<g >
</g>
<g >
</g>
<g >
</g>
<g >
</g>
<g >
</g>
<g >
</g>
<g >
</g>
<g >
</g>
<g >
</g>
<g >
</g>
<g >
</g>
<g >
</g>
<g >
</g>
<g >
</g>
<g >
</g>
<g >
</g>
<g >
</g>
<g >
</g>
<g >
</g>
<g >
</g>
<g >
</g>
<g >
</g>
<g >
</g>
<g >
</g>
<g >
</g>
<g >
</g>
<g >
</g>
<g >
</g>
<g >
</g>
<g >
</g>
<g >
</g>
<g >
</g>
<g >
</g>
<g >
</g>
<g >
</g>
<g >
</g>
<g >
</g>
<g >
</g>
<g >
</g>
<g >
</g>
<g >
</g>
<g >
</g>
<g >
</g>
<g >
</g>
<g >
</g>
<g >
</g>
<g >
</g>
<g >
</g>
<g >
</g>
<g >
</g>
<g >
</g>
<g >
</g>
<g >
</g>
<g >
</g>
<g >
</g>
<g >
</g>
<g >
</g>
<g >
</g>
<g >
</g>
<g >
</g>
<g >
</g>
<g >
</g>
<g >
</g>
<g >
</g>
<g >
</g>
<g >
</g>
<g >
</g>
<g >
</g>
<g >
</g>
<g >
</g>
<g >
</g>
<g >
</g>
<g >
</g>
<g >
</g>
<g >
</g>
<g >
</g>
<g >
</g>
<g >
</g>
<g >
</g>
<g >
</g>
<g >
</g>
<g >
</g>
<g >
</g>
<g >
</g>
<g >
</g>
<g >
</g>
<g >
</g>
<g >
</g>
<g >
</g>
<g >
</g>
<g >
</g>
<g >
</g>
<g >
</g>
<g >
</g>
<g >
</g>
<g >
</g>
<g >
</g>
<g >
</g>
<g >
</g>
<g >
</g>
<g >
</g>
<g >
</g>
<g >
</g>
<g >
</g>
<g >
</g>
<g >
</g>
<g >
</g>
<g >
</g>
<g >
</g>
<g >
</g>
<g >
</g>
<g >
</g>
<g >
</g>
<g >
</g>
<g >
</g>
<g >
</g>
<g >
</g>
<g >
</g>
<g >
</g>
<g >
</g>
<g >
</g>
<g >
</g>
<g >
</g>
<g >
</g>
<g >
</g>
<g >
</g>
<g >
</g>
<g >
</g>
<g >
</g>
<g >
</g>
<g >
</g>
<g >
</g>
<g >
</g>
<g >
</g>
<g >
</g>
<g >
</g>
<g >
</g>
<g >
</g>
<g >
</g>
<g >
</g>
<g >
</g>
<g >
</g>
<g >
</g>
<g >
</g>
<g >
</g>
<g >
</g>
<g >
</g>
<g >
</g>
<g >
</g>
<g >
</g>
<g >
</g>
<g >
</g>
<g >
</g>
<g >
</g>
<g >
</g>
<g >
</g>
<g >
</g>
<g >
</g>
<g >
</g>
<g >
</g>
<g >
</g>
<g >
</g>
<g >
</g>
<g >
</g>
<g >
</g>
<g >
</g>
<g >
</g>
<g >
</g>
<g >
</g>
<g >
</g>
<g >
</g>
<g >
</g>
<g >
</g>
<g >
</g>
<g >
</g>
<g >
</g>
<g >
</g>
<g >
</g>
<g >
</g>
<g >
</g>
<g >
</g>
<g >
</g>
<g >
</g>
<g >
</g>
<g >
</g>
<g >
</g>
</g> 
</svg>
