<?xml version="1.0" standalone="no"?>
 <!DOCTYPE svg PUBLIC "-//W3C//DTD SVG 1.1//EN" 
 "http://www.w3.org/Graphics/SVG/1.1/DTD/svg11.dtd"> 
<svg xmlns="http://www.w3.org/2000/svg" version="1.1" 
    width="29.7002cm" height="21.0007cm" viewBox="0 0 116930 82680 ">
<title>SVG Picture created as printer-board-B_SilkS.svg date 2019/05/06 19:06:45 </title>
  <desc>Picture generated by PCBNEW </desc>
<g style="fill:#000000; fill-opacity:1;stroke:#000000; stroke-opacity:1;
stroke-linecap:round; stroke-linejoin:round; "
 transform="translate(0 0) scale(1 1)">
</g>
<g style="fill:#000000; fill-opacity:0.0; 
stroke:#000000; stroke-width:-0.000393701; stroke-opacity:1; 
stroke-linecap:round; stroke-linejoin:round;">
</g>
<g style="fill:#000000; fill-opacity:0.0; 
stroke:#000000; stroke-width:59.0551; stroke-opacity:1; 
stroke-linecap:round; stroke-linejoin:round;">
<path d="M35079 13461
L35079 12989
" />
<path d="M35079 13439
L35124 13461
L35214 13461
L35259 13439
L35282 13416
L35304 13371
L35304 13236
L35282 13191
L35259 13169
L35214 13146
L35124 13146
L35079 13169
" />
<path d="M34674 13439
L34719 13461
L34809 13461
L34854 13439
L34877 13394
L34877 13214
L34854 13169
L34809 13146
L34719 13146
L34674 13169
L34652 13214
L34652 13259
L34877 13304
" />
<path d="M34472 13439
L34427 13461
L34337 13461
L34292 13439
L34269 13394
L34269 13371
L34292 13326
L34337 13304
L34404 13304
L34449 13281
L34472 13236
L34472 13214
L34449 13169
L34404 13146
L34337 13146
L34292 13169
" />
<path d="M34067 13461
L34067 13146
" />
<path d="M34067 12989
L34089 13011
L34067 13034
L34044 13011
L34067 12989
L34067 13034
" />
<path d="M33639 13146
L33639 13529
L33662 13574
L33684 13596
L33729 13619
L33797 13619
L33842 13596
" />
<path d="M33639 13439
L33684 13461
L33774 13461
L33819 13439
L33842 13416
L33864 13371
L33864 13236
L33842 13191
L33819 13169
L33774 13146
L33684 13146
L33639 13169
" />
<path d="M33414 13146
L33414 13461
" />
<path d="M33414 13191
L33392 13169
L33347 13146
L33279 13146
L33234 13169
L33212 13214
L33212 13461
" />
<path d="M32807 13439
L32852 13461
L32942 13461
L32987 13439
L33009 13394
L33009 13214
L32987 13169
L32942 13146
L32852 13146
L32807 13169
L32785 13214
L32785 13259
L33009 13304
" />
<path d="M32380 13461
L32380 12989
" />
<path d="M32380 13439
L32425 13461
L32515 13461
L32560 13439
L32582 13416
L32605 13371
L32605 13236
L32582 13191
L32560 13169
L32515 13146
L32425 13146
L32380 13169
" />
<path d="M31795 13461
L31795 13146
" />
<path d="M31795 12989
L31817 13011
L31795 13034
L31772 13011
L31795 12989
L31795 13034
" />
<path d="M31570 13146
L31570 13461
" />
<path d="M31570 13191
L31547 13169
L31502 13146
L31435 13146
L31390 13169
L31367 13214
L31367 13461
" />
<path d="M30782 13461
L30782 12989
" />
<path d="M30782 13214
L30512 13214
" />
<path d="M30512 13461
L30512 12989
" />
<path d="M30220 13461
L30265 13439
L30287 13416
L30310 13371
L30310 13236
L30287 13191
L30265 13169
L30220 13146
L30152 13146
L30107 13169
L30085 13191
L30062 13236
L30062 13371
L30085 13416
L30107 13439
L30152 13461
L30220 13461
" />
<path d="M29860 13146
L29860 13461
" />
<path d="M29860 13191
L29837 13169
L29792 13146
L29725 13146
L29680 13169
L29657 13214
L29657 13461
" />
<path d="M29230 13146
L29230 13529
L29252 13574
L29275 13596
L29320 13619
L29387 13619
L29432 13596
" />
<path d="M29230 13439
L29275 13461
L29365 13461
L29410 13439
L29432 13416
L29455 13371
L29455 13236
L29432 13191
L29410 13169
L29365 13146
L29275 13146
L29230 13169
" />
<path d="M28645 13461
L28645 12989
" />
<path d="M28375 13461
L28578 13191
" />
<path d="M28375 12989
L28645 13259
" />
<path d="M28105 13461
L28150 13439
L28173 13416
L28195 13371
L28195 13236
L28173 13191
L28150 13169
L28105 13146
L28038 13146
L27993 13169
L27970 13191
L27948 13236
L27948 13371
L27970 13416
L27993 13439
L28038 13461
L28105 13461
" />
<path d="M27745 13146
L27745 13461
" />
<path d="M27745 13191
L27723 13169
L27678 13146
L27610 13146
L27565 13169
L27543 13214
L27543 13461
" />
<path d="M27115 13146
L27115 13529
L27138 13574
L27160 13596
L27205 13619
L27273 13619
L27318 13596
" />
<path d="M27115 13439
L27160 13461
L27250 13461
L27295 13439
L27318 13416
L27340 13371
L27340 13236
L27318 13191
L27295 13169
L27250 13146
L27160 13146
L27115 13169
" />
<path d="M35282 13914
L35282 14386
" />
<path d="M35282 13937
L35237 13914
L35147 13914
L35102 13937
L35079 13959
L35057 14004
L35057 14139
L35079 14184
L35102 14206
L35147 14229
L35237 14229
L35282 14206
" />
<path d="M34854 14229
L34854 13914
" />
<path d="M34854 14004
L34832 13959
L34809 13937
L34764 13914
L34719 13914
" />
<path d="M34382 14206
L34427 14229
L34517 14229
L34562 14206
L34584 14161
L34584 13982
L34562 13937
L34517 13914
L34427 13914
L34382 13937
L34359 13982
L34359 14026
L34584 14071
" />
<path d="M34157 13914
L34157 14386
" />
<path d="M34157 13937
L34112 13914
L34022 13914
L33977 13937
L33954 13959
L33932 14004
L33932 14139
L33954 14184
L33977 14206
L34022 14229
L34112 14229
L34157 14206
" />
<path d="M33527 14229
L33527 13982
L33549 13937
L33594 13914
L33684 13914
L33729 13937
" />
<path d="M33527 14206
L33572 14229
L33684 14229
L33729 14206
L33752 14161
L33752 14116
L33729 14071
L33684 14049
L33572 14049
L33527 14026
" />
<path d="M33302 14229
L33302 13914
" />
<path d="M33302 14004
L33279 13959
L33257 13937
L33212 13914
L33167 13914
" />
<path d="M32830 14206
L32874 14229
L32964 14229
L33009 14206
L33032 14161
L33032 13982
L33009 13937
L32964 13914
L32874 13914
L32830 13937
L32807 13982
L32807 14026
L33032 14071
" />
<path d="M32402 14229
L32402 13757
" />
<path d="M32402 14206
L32447 14229
L32537 14229
L32582 14206
L32605 14184
L32627 14139
L32627 14004
L32605 13959
L32582 13937
L32537 13914
L32447 13914
L32402 13937
" />
<path d="M31817 14229
L31817 13757
" />
<path d="M31817 13937
L31772 13914
L31682 13914
L31637 13937
L31615 13959
L31592 14004
L31592 14139
L31615 14184
L31637 14206
L31682 14229
L31772 14229
L31817 14206
" />
<path d="M31435 13914
L31322 14229
" />
<path d="M31210 13914
L31322 14229
L31367 14341
L31390 14364
L31435 14386
" />
<path d="M30602 14229
L30647 14206
L30670 14161
L30670 13757
" />
<path d="M30355 14229
L30400 14206
L30422 14184
L30445 14139
L30445 14004
L30422 13959
L30400 13937
L30355 13914
L30287 13914
L30242 13937
L30220 13959
L30197 14004
L30197 14139
L30220 14184
L30242 14206
L30287 14229
L30355 14229
" />
<path d="M29792 13914
L29792 14229
" />
<path d="M29995 13914
L29995 14161
L29972 14206
L29927 14229
L29860 14229
L29815 14206
L29792 14184
" />
<path d="M29567 14229
L29567 13914
" />
<path d="M29567 13757
L29590 13779
L29567 13802
L29545 13779
L29567 13757
L29567 13802
" />
<path d="M29365 14206
L29320 14229
L29230 14229
L29185 14206
L29162 14161
L29162 14139
L29185 14094
L29230 14071
L29297 14071
L29342 14049
L29365 14004
L29365 13982
L29342 13937
L29297 13914
L29230 13914
L29185 13937
" />
<path d="M28758 14206
L28803 14229
L28892 14229
L28937 14206
L28960 14184
L28982 14139
L28982 14004
L28960 13959
L28937 13937
L28892 13914
L28803 13914
L28758 13937
" />
<path d="M28555 14229
L28555 13757
" />
<path d="M28510 14049
L28375 14229
" />
<path d="M28375 13914
L28555 14094
" />
<path d="M28105 14229
L28150 14206
L28173 14161
L28173 13757
" />
<path d="M27723 14229
L27723 13982
L27745 13937
L27790 13914
L27880 13914
L27925 13937
" />
<path d="M27723 14206
L27768 14229
L27880 14229
L27925 14206
L27948 14161
L27948 14116
L27925 14071
L27880 14049
L27768 14049
L27723 14026
" />
<path d="M27543 13914
L27453 14229
L27363 14004
L27273 14229
L27183 13914
" />
<path d="M35079 14682
L35079 15064
L35102 15109
L35124 15132
L35169 15154
L35237 15154
L35282 15132
" />
<path d="M35079 14974
L35124 14997
L35214 14997
L35259 14974
L35282 14952
L35304 14907
L35304 14772
L35282 14727
L35259 14704
L35214 14682
L35124 14682
L35079 14704
" />
<path d="M34854 14997
L34854 14682
" />
<path d="M34854 14524
L34877 14547
L34854 14569
L34832 14547
L34854 14524
L34854 14569
" />
<path d="M34697 14682
L34517 14682
" />
<path d="M34629 14524
L34629 14929
L34607 14974
L34562 14997
L34517 14997
" />
<path d="M34359 14997
L34359 14524
" />
<path d="M34157 14997
L34157 14749
L34179 14704
L34224 14682
L34292 14682
L34337 14704
L34359 14727
" />
<path d="M33729 14682
L33729 14997
" />
<path d="M33932 14682
L33932 14929
L33909 14974
L33864 14997
L33797 14997
L33752 14974
L33729 14952
" />
<path d="M33504 14997
L33504 14524
" />
<path d="M33504 14704
L33459 14682
L33369 14682
L33324 14704
L33302 14727
L33279 14772
L33279 14907
L33302 14952
L33324 14974
L33369 14997
L33459 14997
L33504 14974
" />
<path d="M33077 14952
L33054 14974
L33077 14997
L33099 14974
L33077 14952
L33077 14997
" />
<path d="M32650 14974
L32695 14997
L32785 14997
L32830 14974
L32852 14952
L32875 14907
L32875 14772
L32852 14727
L32830 14704
L32785 14682
L32695 14682
L32650 14704
" />
<path d="M32380 14997
L32425 14974
L32447 14952
L32470 14907
L32470 14772
L32447 14727
L32425 14704
L32380 14682
L32312 14682
L32267 14704
L32245 14727
L32222 14772
L32222 14907
L32245 14952
L32267 14974
L32312 14997
L32380 14997
" />
<path d="M32020 14997
L32020 14682
" />
<path d="M32020 14727
L31997 14704
L31952 14682
L31885 14682
L31840 14704
L31817 14749
L31817 14997
" />
<path d="M31817 14749
L31795 14704
L31750 14682
L31682 14682
L31637 14704
L31615 14749
L31615 14997
" />
<path d="M31052 14502
L31457 15109
" />
<path d="M30827 14997
L30872 14974
L30895 14929
L30895 14524
" />
<path d="M30580 14997
L30625 14974
L30647 14952
L30670 14907
L30670 14772
L30647 14727
L30625 14704
L30580 14682
L30512 14682
L30467 14704
L30445 14727
L30422 14772
L30422 14907
L30445 14952
L30467 14974
L30512 14997
L30580 14997
" />
<path d="M30017 14682
L30017 14997
" />
<path d="M30220 14682
L30220 14929
L30197 14974
L30152 14997
L30085 14997
L30040 14974
L30017 14952
" />
<path d="M29792 14997
L29792 14682
" />
<path d="M29792 14524
L29815 14547
L29792 14569
L29770 14547
L29792 14524
L29792 14569
" />
<path d="M29590 14974
L29545 14997
L29455 14997
L29410 14974
L29387 14929
L29387 14907
L29410 14862
L29455 14839
L29522 14839
L29567 14817
L29590 14772
L29590 14749
L29567 14704
L29522 14682
L29455 14682
L29410 14704
" />
<path d="M28982 14974
L29027 14997
L29117 14997
L29162 14974
L29185 14952
L29207 14907
L29207 14772
L29185 14727
L29162 14704
L29117 14682
L29027 14682
L28982 14704
" />
<path d="M28780 14997
L28780 14524
" />
<path d="M28735 14817
L28600 14997
" />
<path d="M28600 14682
L28780 14862
" />
<path d="M28330 14997
L28375 14974
L28398 14929
L28398 14524
" />
<path d="M27948 14997
L27948 14749
L27970 14704
L28015 14682
L28105 14682
L28150 14704
" />
<path d="M27948 14974
L27993 14997
L28105 14997
L28150 14974
L28173 14929
L28173 14884
L28150 14839
L28105 14817
L27993 14817
L27948 14794
" />
<path d="M27768 14682
L27678 14997
L27588 14772
L27498 14997
L27408 14682
" />
<path d="M26890 14502
L27295 15109
" />
<path d="M26778 14524
L26485 14524
L26643 14704
L26575 14704
L26530 14727
L26508 14749
L26485 14794
L26485 14907
L26508 14952
L26530 14974
L26575 14997
L26710 14997
L26755 14974
L26778 14952
" />
<path d="M26080 14997
L26080 14524
" />
<path d="M26080 14974
L26125 14997
L26215 14997
L26260 14974
L26283 14952
L26305 14907
L26305 14772
L26283 14727
L26260 14704
L26215 14682
L26125 14682
L26080 14704
" />
<path d="M25855 14817
L25495 14817
" />
<path d="M25270 14682
L25270 15154
" />
<path d="M25270 14704
L25225 14682
L25135 14682
L25090 14704
L25068 14727
L25045 14772
L25045 14907
L25068 14952
L25090 14974
L25135 14997
L25225 14997
L25270 14974
" />
<path d="M24843 14997
L24843 14682
" />
<path d="M24843 14772
L24821 14727
L24798 14704
L24753 14682
L24708 14682
" />
<path d="M24551 14997
L24551 14682
" />
<path d="M24551 14524
L24573 14547
L24551 14569
L24528 14547
L24551 14524
L24551 14569
" />
<path d="M24326 14682
L24326 14997
" />
<path d="M24326 14727
L24303 14704
L24258 14682
L24191 14682
L24146 14704
L24123 14749
L24123 14997
" />
<path d="M23966 14682
L23786 14682
" />
<path d="M23898 14524
L23898 14929
L23876 14974
L23831 14997
L23786 14997
" />
<path d="M23448 14974
L23493 14997
L23583 14997
L23628 14974
L23651 14929
L23651 14749
L23628 14704
L23583 14682
L23493 14682
L23448 14704
L23426 14749
L23426 14794
L23651 14839
" />
<path d="M23223 14997
L23223 14682
" />
<path d="M23223 14772
L23201 14727
L23178 14704
L23133 14682
L23088 14682
" />
<path d="M22931 14817
L22571 14817
" />
<path d="M22346 14997
L22346 14524
" />
<path d="M22346 14704
L22301 14682
L22211 14682
L22166 14704
L22143 14727
L22121 14772
L22121 14907
L22143 14952
L22166 14974
L22211 14997
L22301 14997
L22346 14974
" />
<path d="M21851 14997
L21896 14974
L21918 14952
L21941 14907
L21941 14772
L21918 14727
L21896 14704
L21851 14682
L21783 14682
L21738 14704
L21716 14727
L21693 14772
L21693 14907
L21716 14952
L21738 14974
L21783 14997
L21851 14997
" />
<path d="M21288 14997
L21288 14749
L21311 14704
L21356 14682
L21446 14682
L21491 14704
" />
<path d="M21288 14974
L21333 14997
L21446 14997
L21491 14974
L21513 14929
L21513 14884
L21491 14839
L21446 14817
L21333 14817
L21288 14794
" />
<path d="M21063 14997
L21063 14682
" />
<path d="M21063 14772
L21041 14727
L21018 14704
L20973 14682
L20928 14682
" />
<path d="M20569 14997
L20569 14524
" />
<path d="M20569 14974
L20614 14997
L20704 14997
L20749 14974
L20771 14952
L20794 14907
L20794 14772
L20771 14727
L20749 14704
L20704 14682
L20614 14682
L20569 14704
" />
<path d="M31363 16624
L31363 16231
L31213 16231
L31176 16250
L31157 16268
L31138 16306
L31138 16362
L31157 16399
L31176 16418
L31213 16437
L31363 16437
" />
<path d="M30745 16624
L30876 16437
" />
<path d="M30970 16624
L30970 16231
L30820 16231
L30782 16250
L30764 16268
L30745 16306
L30745 16362
L30764 16399
L30782 16418
L30820 16437
L30970 16437
" />
<path d="M30576 16624
L30576 16231
" />
<path d="M30389 16624
L30389 16231
L30164 16624
L30164 16231
" />
<path d="M30032 16231
L29807 16231
" />
<path d="M29920 16624
L29920 16231
" />
<path d="M29676 16418
L29545 16418
" />
<path d="M29489 16624
L29676 16624
L29676 16231
L29489 16231
" />
<path d="M29095 16624
L29226 16437
" />
<path d="M29320 16624
L29320 16231
L29170 16231
L29132 16250
L29114 16268
L29095 16306
L29095 16362
L29114 16399
L29132 16418
L29170 16437
L29320 16437
" />
<path d="M28926 16474
L28626 16474
" />
<path d="M28439 16418
L28308 16418
" />
<path d="M28251 16624
L28439 16624
L28439 16231
L28251 16231
" />
<path d="M28139 16231
L28008 16624
L27876 16231
" />
<path d="M27764 16512
L27576 16512
" />
<path d="M27801 16624
L27670 16231
L27539 16624
" />
<path d="M27220 16624
L27408 16624
L27408 16231
" />
<path d="M27089 16231
L27089 16549
L27070 16587
L27051 16606
L27014 16624
L26939 16624
L26901 16606
L26883 16587
L26864 16549
L26864 16231
" />
<path d="M26695 16512
L26508 16512
" />
<path d="M26733 16624
L26602 16231
L26470 16624
" />
<path d="M26395 16231
L26170 16231
" />
<path d="M26283 16624
L26283 16231
" />
<path d="M26039 16624
L26039 16231
" />
<path d="M25777 16231
L25702 16231
L25664 16250
L25627 16287
L25608 16362
L25608 16493
L25627 16568
L25664 16606
L25702 16624
L25777 16624
L25814 16606
L25852 16568
L25870 16493
L25870 16362
L25852 16287
L25814 16250
L25777 16231
" />
<path d="M25439 16624
L25439 16231
L25214 16624
L25214 16231
" />
<path d="M25027 16474
L24727 16474
" />
<path d="M24408 16418
L24352 16437
L24333 16456
L24314 16493
L24314 16549
L24333 16587
L24352 16606
L24389 16624
L24539 16624
L24539 16231
L24408 16231
L24371 16250
L24352 16268
L24333 16306
L24333 16343
L24352 16381
L24371 16399
L24408 16418
L24539 16418
" />
<path d="M24071 16231
L23996 16231
L23958 16250
L23921 16287
L23902 16362
L23902 16493
L23921 16568
L23958 16606
L23996 16624
L24071 16624
L24108 16606
L24146 16568
L24164 16493
L24164 16362
L24146 16287
L24108 16250
L24071 16231
" />
<path d="M23752 16512
L23564 16512
" />
<path d="M23789 16624
L23658 16231
L23527 16624
" />
<path d="M23171 16624
L23302 16437
" />
<path d="M23396 16624
L23396 16231
L23246 16231
L23208 16250
L23189 16268
L23171 16306
L23171 16362
L23189 16399
L23208 16418
L23246 16437
L23396 16437
" />
<path d="M23002 16624
L23002 16231
L22908 16231
L22852 16250
L22815 16287
L22796 16324
L22777 16399
L22777 16456
L22796 16531
L22815 16568
L22852 16606
L22908 16624
L23002 16624
" />
<path d="M31382 16918
L31363 16899
L31326 16880
L31232 16880
L31195 16899
L31176 16918
L31157 16955
L31157 16993
L31176 17049
L31401 17274
L31157 17274
" />
<path d="M30913 16880
L30876 16880
L30839 16899
L30820 16918
L30801 16955
L30782 17030
L30782 17124
L30801 17199
L30820 17237
L30839 17255
L30876 17274
L30913 17274
L30951 17255
L30970 17237
L30988 17199
L31007 17124
L31007 17030
L30988 16955
L30970 16918
L30951 16899
L30913 16880
" />
<path d="M30407 17274
L30632 17274
" />
<path d="M30520 17274
L30520 16880
L30557 16937
L30595 16974
L30632 16993
" />
<path d="M30220 17274
L30145 17274
L30107 17255
L30089 17237
L30051 17180
L30032 17105
L30032 16955
L30051 16918
L30070 16899
L30107 16880
L30182 16880
L30220 16899
L30239 16918
L30257 16955
L30257 17049
L30239 17087
L30220 17105
L30182 17124
L30107 17124
L30070 17105
L30051 17087
L30032 17049
" />
<path d="M29789 16880
L29751 16880
L29714 16899
L29695 16918
L29676 16955
L29657 17030
L29657 17124
L29676 17199
L29695 17237
L29714 17255
L29751 17274
L29789 17274
L29826 17255
L29845 17237
L29864 17199
L29882 17124
L29882 17030
L29864 16955
L29845 16918
L29826 16899
L29789 16880
" />
<path d="M29301 16880
L29489 16880
L29507 17068
L29489 17049
L29451 17030
L29357 17030
L29320 17049
L29301 17068
L29282 17105
L29282 17199
L29301 17237
L29320 17255
L29357 17274
L29451 17274
L29489 17255
L29507 17237
" />
<path d="M29039 16880
L29001 16880
L28964 16899
L28945 16918
L28926 16955
L28907 17030
L28907 17124
L28926 17199
L28945 17237
L28964 17255
L29001 17274
L29039 17274
L29076 17255
L29095 17237
L29114 17199
L29132 17124
L29132 17030
L29114 16955
L29095 16918
L29076 16899
L29039 16880
" />
<path d="M28776 16880
L28533 16880
L28664 17030
L28608 17030
L28570 17049
L28551 17068
L28533 17105
L28533 17199
L28551 17237
L28570 17255
L28608 17274
L28720 17274
L28758 17255
L28776 17237
" />
<path d="M28364 17124
L28064 17124
" />
<path d="M27876 17012
L27876 17405
" />
<path d="M27876 17030
L27839 17012
L27764 17012
L27726 17030
L27708 17049
L27689 17087
L27689 17199
L27708 17237
L27726 17255
L27764 17274
L27839 17274
L27876 17255
" />
<path d="M27520 17274
L27520 17012
" />
<path d="M27520 17087
L27501 17049
L27483 17030
L27445 17012
L27408 17012
" />
<path d="M27276 17274
L27276 17012
" />
<path d="M27276 16880
L27295 16899
L27276 16918
L27258 16899
L27276 16880
L27276 16918
" />
<path d="M27089 17012
L27089 17274
" />
<path d="M27089 17049
L27070 17030
L27033 17012
L26976 17012
L26939 17030
L26920 17068
L26920 17274
" />
<path d="M26789 17012
L26639 17012
" />
<path d="M26733 16880
L26733 17218
L26714 17255
L26677 17274
L26639 17274
" />
<path d="M26527 16918
L26508 16899
L26470 16880
L26377 16880
L26339 16899
L26320 16918
L26302 16955
L26302 16993
L26320 17049
L26545 17274
L26302 17274
" />
</g>
<g style="fill:#000000; fill-opacity:0.0; 
stroke:#000000; stroke-width:47.2441; stroke-opacity:1; 
stroke-linecap:round; stroke-linejoin:round;">
<path d="M14858 2917
L14858 2712
" />
<path d="M15417 2917
L15417 2712
" />
<path d="M14371 25998
L14466 25903
" />
<path d="M14654 26282
L14750 26187
" />
<path d="M11528 23263
L11528 23468
" />
<path d="M10969 23263
L10969 23468
" />
<path d="M18290 21226
L18194 21321
" />
<path d="M18006 20942
L17910 21037
" />
</g>
<g style="fill:#000000; fill-opacity:0.0; 
stroke:#000000; stroke-width:50; stroke-opacity:1; 
stroke-linecap:round; stroke-linejoin:round;">
<path d="M36043 9743
L36043 8641
" />
<path d="M37775 9743
L36043 9743
" />
<path d="M37775 8641
L37775 9743
" />
<path d="M36043 8641
L37775 8641
" />
<path d="M36240 8641
L36240 9743
" />
<path d="M36200 8641
L36200 9743
" />
<path d="M36161 9743
L36161 8641
" />
<path d="M36122 8641
L36122 9743
" />
<path d="M36082 9743
L36082 8641
" />
<path d="M32145 9684
L32145 8582
" />
<path d="M33877 9684
L32145 9684
" />
<path d="M33877 8582
L33877 9684
" />
<path d="M32145 8582
L33877 8582
" />
<path d="M32342 8582
L32342 9684
" />
<path d="M32302 8582
L32302 9684
" />
<path d="M32263 9684
L32263 8582
" />
<path d="M32224 8582
L32224 9684
" />
<path d="M32184 9684
L32184 8582
" />
<path d="M10787 10196
L9685 10196
" />
<path d="M10787 8464
L10787 10196
" />
<path d="M9685 8464
L10787 8464
" />
<path d="M9685 10196
L9685 8464
" />
<path d="M9685 9999
L10787 9999
" />
<path d="M9685 10039
L10787 10039
" />
<path d="M10787 10078
L9685 10078
" />
<path d="M9685 10117
L10787 10117
" />
<path d="M10787 10157
L9685 10157
" />
</g>
<g style="fill:#000000; fill-opacity:0.0; 
stroke:#000000; stroke-width:47.2441; stroke-opacity:1; 
stroke-linecap:round; stroke-linejoin:round;">
<path d="M18846 15555
L18712 15555
" />
<path d="M18846 15153
L18712 15153
" />
<path d="M20673 17452
L20673 17587
" />
<path d="M20271 17452
L20271 17587
" />
<path d="M18020 18507
L17885 18507
" />
<path d="M18020 18106
L17885 18106
" />
<path d="M17885 15901
L18020 15901
" />
<path d="M17885 16303
L18020 16303
" />
<path d="M18475 18775
L18610 18775
" />
<path d="M18475 19177
L18610 19177
" />
<path d="M18610 11204
L18475 11204
" />
<path d="M18610 10803
L18475 10803
" />
<path d="M20437 13633
L20437 13768
" />
<path d="M20035 13633
L20035 13768
" />
<path d="M17783 13980
L17649 13980
" />
<path d="M17783 13578
L17649 13578
" />
<path d="M17649 11531
L17783 11531
" />
<path d="M17649 11933
L17783 11933
" />
<path d="M18082 14169
L18217 14169
" />
<path d="M18082 14570
L18217 14570
" />
<path d="M17338 20465
L17433 20369
" />
<path d="M17054 20181
L17149 20085
" />
<path d="M17771 20898
L17866 20802
" />
<path d="M17487 20614
L17582 20519
" />
<path d="M16236 25204
L16331 25299
" />
<path d="M15952 25488
L16047 25583
" />
<path d="M16345 25094
L16441 25189
" />
<path d="M16629 24810
L16725 24905
" />
<path d="M14237 25865
L14332 25769
" />
<path d="M13953 25581
L14048 25485
" />
<path d="M18134 23498
L18230 23403
" />
<path d="M17850 23214
L17946 23119
" />
<path d="M17085 22449
L17180 22354
" />
<path d="M17369 22733
L17464 22637
" />
<path d="M13187 24815
L13283 24720
" />
<path d="M13471 25099
L13567 25004
" />
<path d="M16462 26931
L16367 26835
" />
<path d="M16178 27214
L16083 27119
" />
<path d="M12184 22458
L12279 22553
" />
<path d="M11900 22742
L11995 22837
" />
<path d="M19900 23493
L19805 23397
" />
<path d="M19616 23777
L19521 23681
" />
<path d="M16528 19464
L16432 19559
" />
<path d="M16244 19180
L16148 19275
" />
<path d="M19387 23815
L19482 23910
" />
<path d="M19103 24099
L19199 24194
" />
<path d="M16865 19992
L16961 19897
" />
<path d="M16581 19708
L16677 19613
" />
<path d="M17797 26859
L17892 26763
" />
<path d="M18081 27143
L18176 27047
" />
<path d="M12605 26559
L12700 26463
" />
<path d="M12889 26843
L12984 26747
" />
<path d="M12656 24093
L12561 24189
" />
<path d="M12940 24377
L12845 24473
" />
<path d="M12140 26118
L12235 26023
" />
<path d="M12424 26402
L12519 26307
" />
<path d="M15639 28238
L15734 28143
" />
<path d="M15355 27954
L15450 27859
" />
<path d="M17803 24102
L17247 23545
" />
<path d="M17024 24882
L17803 24102
" />
<path d="M16467 24325
L17024 24882
" />
<path d="M17247 23545
L16467 24325
" />
<path d="M17038 23337
L16481 22780
" />
<path d="M16258 24116
L17038 23337
" />
<path d="M15702 23559
L16258 24116
" />
<path d="M16481 22780
L15702 23559
" />
<path d="M15072 26700
L15167 26605
" />
<path d="M14788 26416
L14883 26321
" />
<path d="M30067 26539
L29932 26539
" />
<path d="M30067 26137
L29932 26137
" />
<path d="M30067 26728
L29932 26728
" />
<path d="M30067 27129
L29932 27129
" />
<path d="M19125 27860
L19125 27725
" />
<path d="M19526 27860
L19526 27725
" />
<path d="M36356 38357
L36356 38492
" />
<path d="M35954 38357
L35954 38492
" />
<path d="M30891 38357
L30891 38492
" />
<path d="M30490 38357
L30490 38492
" />
<path d="M24826 38357
L24826 38492
" />
<path d="M24425 38357
L24425 38492
" />
<path d="M18448 38357
L18448 38492
" />
<path d="M18850 38357
L18850 38492
" />
<path d="M12633 38357
L12633 38492
" />
<path d="M13035 38357
L13035 38492
" />
<path d="M6807 38357
L6807 38492
" />
<path d="M7208 38357
L7208 38492
" />
<path d="M1113 27720
L1248 27720
" />
<path d="M1113 27318
L1248 27318
" />
<path d="M1248 21145
L1113 21145
" />
<path d="M1248 20744
L1113 20744
" />
<path d="M19654 3074
L19519 3074
" />
<path d="M19654 2673
L19519 2673
" />
<path d="M19866 8094
L19866 7889
" />
<path d="M19307 8094
L19307 7889
" />
<path d="M17897 8094
L17897 7889
" />
<path d="M17338 8094
L17338 7889
" />
</g>
<g style="fill:#000000; fill-opacity:1.0; 
stroke:#000000; stroke-width:59.0551; stroke-opacity:1; 
stroke-linecap:round; stroke-linejoin:round;">
<path style="fill:#000000; fill-opacity:1.0; 
stroke:#000000; stroke-width:59.0551; stroke-opacity:1; 
stroke-linecap:round; stroke-linejoin:round;fill-rule:evenodd;"
d="M 17618,4389
17618,3789
16518,3789
16518,4389
Z" /> 
</g>
<g style="fill:#000000; fill-opacity:1.0; 
stroke:#000000; stroke-width:150; stroke-opacity:1; 
stroke-linecap:round; stroke-linejoin:round;">
</g>
<g style="fill:#000000; fill-opacity:0.0; 
stroke:#000000; stroke-width:150; stroke-opacity:1; 
stroke-linecap:round; stroke-linejoin:round;">
<path d="M17618 4339
L17618 689
" />
<path d="M16518 4339
L18718 4339
" />
<path d="M16518 689
L16518 4339
" />
<path d="M18718 689
L16518 689
" />
<path d="M18718 4339
L18718 689
" />
</g>
<g style="fill:#000000; fill-opacity:0.0; 
stroke:#000000; stroke-width:47.2441; stroke-opacity:1; 
stroke-linecap:round; stroke-linejoin:round;">
<path d="M24270 2673
L24135 2673
" />
<path d="M24270 3074
L24135 3074
" />
<path d="M23874 8094
L23874 7889
" />
<path d="M24433 8094
L24433 7889
" />
<path d="M22464 8094
L22464 7889
" />
<path d="M21905 8094
L21905 7889
" />
</g>
<g style="fill:#000000; fill-opacity:0.0; 
stroke:#000000; stroke-width:150; stroke-opacity:1; 
stroke-linecap:round; stroke-linejoin:round;">
<path d="M23285 4339
L23285 689
" />
<path d="M23285 689
L21085 689
" />
<path d="M21085 689
L21085 4339
" />
<path d="M21085 4339
L23285 4339
" />
<path d="M22185 4339
L22185 689
" />
</g>
<g style="fill:#000000; fill-opacity:1.0; 
stroke:#000000; stroke-width:59.0551; stroke-opacity:1; 
stroke-linecap:round; stroke-linejoin:round;">
<path style="fill:#000000; fill-opacity:1.0; 
stroke:#000000; stroke-width:59.0551; stroke-opacity:1; 
stroke-linecap:round; stroke-linejoin:round;fill-rule:evenodd;"
d="M 22185,4389
22185,3789
21085,3789
21085,4389
Z" /> 
</g>
<g style="fill:#000000; fill-opacity:1.0; 
stroke:#000000; stroke-width:47.2441; stroke-opacity:1; 
stroke-linecap:round; stroke-linejoin:round;">
</g>
<g style="fill:#000000; fill-opacity:0.0; 
stroke:#000000; stroke-width:47.2441; stroke-opacity:1; 
stroke-linecap:round; stroke-linejoin:round;">
<path d="M28866 3074
L28731 3074
" />
<path d="M28866 2673
L28731 2673
" />
<path d="M28519 8094
L28519 7889
" />
<path d="M29078 8094
L29078 7889
" />
<path d="M27110 8094
L27110 7889
" />
<path d="M26551 8094
L26551 7889
" />
</g>
<g style="fill:#000000; fill-opacity:0.0; 
stroke:#000000; stroke-width:150; stroke-opacity:1; 
stroke-linecap:round; stroke-linejoin:round;">
<path d="M27930 4339
L27930 689
" />
<path d="M27930 689
L25730 689
" />
<path d="M25730 689
L25730 4339
" />
<path d="M25730 4339
L27930 4339
" />
<path d="M26830 4339
L26830 689
" />
</g>
<g style="fill:#000000; fill-opacity:1.0; 
stroke:#000000; stroke-width:59.0551; stroke-opacity:1; 
stroke-linecap:round; stroke-linejoin:round;">
<path style="fill:#000000; fill-opacity:1.0; 
stroke:#000000; stroke-width:59.0551; stroke-opacity:1; 
stroke-linecap:round; stroke-linejoin:round;fill-rule:evenodd;"
d="M 26830,4389
26830,3789
25730,3789
25730,4389
Z" /> 
</g>
<g style="fill:#000000; fill-opacity:1.0; 
stroke:#000000; stroke-width:47.2441; stroke-opacity:1; 
stroke-linecap:round; stroke-linejoin:round;">
</g>
<g style="fill:#000000; fill-opacity:0.0; 
stroke:#000000; stroke-width:47.2441; stroke-opacity:1; 
stroke-linecap:round; stroke-linejoin:round;">
<path d="M4161 12425
L4027 12425
" />
<path d="M4161 12023
L4027 12023
" />
<path d="M9440 12045
L9305 12045
" />
<path d="M9440 12447
L9305 12447
" />
<path d="M15505 7334
L15505 7469
" />
<path d="M15104 7334
L15104 7469
" />
<path d="M1307 12425
L1172 12425
" />
<path d="M1307 12023
L1172 12023
" />
<path d="M6819 12023
L6684 12023
" />
<path d="M6819 12425
L6684 12425
" />
<path d="M14464 7469
L14464 7334
" />
<path d="M14866 7469
L14866 7334
" />
<path d="M15744 7334
L15744 7469
" />
<path d="M16145 7334
L16145 7469
" />
<path d="M9287 1770
L9287 1635
" />
<path d="M9688 1770
L9688 1635
" />
<path d="M7732 2688
L7732 2823
" />
<path d="M8133 2688
L8133 2823
" />
<path d="M6944 2858
L6944 2653
" />
<path d="M7503 2858
L7503 2653
" />
<path d="M8921 2858
L8921 2653
" />
<path d="M8362 2858
L8362 2653
" />
<path d="M12907 1799
L12907 1664
" />
<path d="M12505 1799
L12505 1664
" />
<path d="M10881 2796
L10881 2931
" />
<path d="M11283 2796
L11283 2931
" />
<path d="M11492 2917
L11492 2712
" />
<path d="M12051 2917
L12051 2712
" />
<path d="M10673 2917
L10673 2712
" />
<path d="M10114 2917
L10114 2712
" />
<path d="M14228 2747
L14228 2882
" />
<path d="M14629 2747
L14629 2882
" />
<path d="M15803 1799
L15803 1664
" />
<path d="M16204 1799
L16204 1664
" />
<path d="M13460 2917
L13460 2712
" />
<path d="M14019 2917
L14019 2712
" />
<path d="M4448 8779
L4448 9881
" />
<path d="M4448 9881
L5236 9881
" />
<path d="M5236 9881
L5236 8779
" />
<path d="M5236 8779
L4448 8779
" />
<path d="M4555 3460
L4420 3460
" />
<path d="M4555 3862
L4420 3862
" />
</g>
<g style="fill:#000000; fill-opacity:0.0; 
stroke:#000000; stroke-width:150; stroke-opacity:1; 
stroke-linecap:round; stroke-linejoin:round;">
<path d="M4379 6990
L729 6990
" />
<path d="M729 6990
L729 9190
" />
<path d="M729 9190
L4379 9190
" />
<path d="M4379 9190
L4379 6990
" />
<path d="M4379 8090
L729 8090
" />
</g>
<g style="fill:#000000; fill-opacity:1.0; 
stroke:#000000; stroke-width:59.0551; stroke-opacity:1; 
stroke-linecap:round; stroke-linejoin:round;">
<path style="fill:#000000; fill-opacity:1.0; 
stroke:#000000; stroke-width:59.0551; stroke-opacity:1; 
stroke-linecap:round; stroke-linejoin:round;fill-rule:evenodd;"
d="M 4429,8090
3829,8090
3829,9190
4429,9190
Z" /> 
<path style="fill:#000000; fill-opacity:1.0; 
stroke:#000000; stroke-width:59.0551; stroke-opacity:1; 
stroke-linecap:round; stroke-linejoin:round;fill-rule:evenodd;"
d="M 4429,10688
3829,10688
3829,11788
4429,11788
Z" /> 
</g>
<g style="fill:#000000; fill-opacity:1.0; 
stroke:#000000; stroke-width:150; stroke-opacity:1; 
stroke-linecap:round; stroke-linejoin:round;">
</g>
<g style="fill:#000000; fill-opacity:0.0; 
stroke:#000000; stroke-width:150; stroke-opacity:1; 
stroke-linecap:round; stroke-linejoin:round;">
<path d="M4379 10688
L729 10688
" />
<path d="M4379 11788
L4379 9588
" />
<path d="M729 11788
L4379 11788
" />
<path d="M729 9588
L729 11788
" />
<path d="M4379 9588
L729 9588
" />
<path d="M4379 4333
L729 4333
" />
<path d="M729 4333
L729 6533
" />
<path d="M729 6533
L4379 6533
" />
<path d="M4379 6533
L4379 4333
" />
<path d="M4379 5433
L729 5433
" />
</g>
<g style="fill:#000000; fill-opacity:1.0; 
stroke:#000000; stroke-width:59.0551; stroke-opacity:1; 
stroke-linecap:round; stroke-linejoin:round;">
<path style="fill:#000000; fill-opacity:1.0; 
stroke:#000000; stroke-width:59.0551; stroke-opacity:1; 
stroke-linecap:round; stroke-linejoin:round;fill-rule:evenodd;"
d="M 4429,5433
3829,5433
3829,6533
4429,6533
Z" /> 
</g>
<g style="fill:#000000; fill-opacity:1.0; 
stroke:#000000; stroke-width:47.2441; stroke-opacity:1; 
stroke-linecap:round; stroke-linejoin:round;">
</g>
<g style="fill:#000000; fill-opacity:0.0; 
stroke:#000000; stroke-width:47.2441; stroke-opacity:1; 
stroke-linecap:round; stroke-linejoin:round;">
<path d="M36074 1898
L36074 1763
" />
<path d="M36476 1898
L36476 1763
" />
<path d="M35291 1898
L35291 1763
" />
<path d="M35692 1898
L35692 1763
" />
<path d="M34251 1894
L34251 1759
" />
<path d="M34653 1894
L34653 1759
" />
<path d="M33484 1894
L33484 1759
" />
<path d="M33885 1894
L33885 1759
" />
<path d="M32562 1890
L32562 1755
" />
<path d="M32964 1890
L32964 1755
" />
<path d="M31795 1890
L31795 1755
" />
<path d="M32196 1890
L32196 1755
" />
</g>
<g style="fill:#000000; fill-opacity:0.0; 
stroke:#000000; stroke-width:59.0551; stroke-opacity:1; 
stroke-linecap:round; stroke-linejoin:round;">
<path d="M22737 16826
L23055 16826
L23093 16844
L23112 16863
L23130 16901
L23130 16976
L23112 17013
L23093 17032
L23055 17050
L22737 17050
" />
<path d="M23130 17444
L23130 17219
" />
<path d="M23130 17332
L22737 17332
L22793 17294
L22830 17257
L22849 17219
" />
<path d="M38059 13288
L38059 12894
" />
<path d="M38059 13269
L38097 13288
L38172 13288
L38209 13269
L38228 13250
L38247 13213
L38247 13100
L38228 13063
L38209 13044
L38172 13025
L38097 13025
L38059 13044
" />
<path d="M37722 13269
L37759 13288
L37834 13288
L37872 13269
L37890 13232
L37890 13082
L37872 13044
L37834 13025
L37759 13025
L37722 13044
L37703 13082
L37703 13119
L37890 13157
" />
<path d="M37534 13288
L37534 12894
" />
<path d="M37534 13044
L37497 13025
L37422 13025
L37384 13044
L37365 13063
L37347 13100
L37347 13213
L37365 13250
L37384 13269
L37422 13288
L37497 13288
L37534 13269
" />
<path d="M37009 13025
L37009 13288
" />
<path d="M37178 13025
L37178 13232
L37159 13269
L37122 13288
L37065 13288
L37028 13269
L37009 13250
" />
<path d="M36653 13025
L36653 13344
L36672 13382
L36691 13400
L36728 13419
L36784 13419
L36822 13400
" />
<path d="M36653 13269
L36691 13288
L36766 13288
L36803 13269
L36822 13250
L36841 13213
L36841 13100
L36822 13063
L36803 13044
L36766 13025
L36691 13025
L36653 13044
" />
<path d="M22636 10514
L22618 10533
L22599 10570
L22599 10664
L22618 10702
L22636 10720
L22674 10739
L22711 10739
L22768 10720
L22993 10495
L22993 10739
" />
<path d="M22599 11077
L22599 11002
L22618 10964
L22636 10945
L22693 10908
L22768 10889
L22918 10889
L22955 10908
L22974 10927
L22993 10964
L22993 11039
L22974 11077
L22955 11095
L22918 11114
L22824 11114
L22786 11095
L22768 11077
L22749 11039
L22749 10964
L22768 10927
L22786 10908
L22824 10889
" />
<path d="M22730 11583
L23124 11583
" />
<path d="M22749 11583
L22730 11620
L22730 11695
L22749 11733
L22768 11752
L22805 11770
L22918 11770
L22955 11752
L22974 11733
L22993 11695
L22993 11620
L22974 11583
" />
<path d="M22993 11939
L22730 11939
" />
<path d="M22599 11939
L22618 11920
L22636 11939
L22618 11958
L22599 11939
L22636 11939
" />
<path d="M22730 12126
L22993 12126
" />
<path d="M22768 12126
L22749 12145
L22730 12183
L22730 12239
L22749 12276
L22786 12295
L22993 12295
" />
<path d="M22686 27839
L22686 28064
" />
<path d="M22686 27951
L23080 27951
L23024 27989
L22986 28026
L22968 28064
" />
<path d="M23080 27708
L23080 27464
L22930 27595
L22930 27539
L22911 27502
L22893 27483
L22855 27464
L22761 27464
L22724 27483
L22705 27502
L22686 27539
L22686 27652
L22705 27689
L22724 27708
" />
<path d="M22949 26995
L22555 26995
" />
<path d="M22930 26995
L22949 26958
L22949 26883
L22930 26845
L22911 26827
L22874 26808
L22761 26808
L22724 26827
L22705 26845
L22686 26883
L22686 26958
L22705 26995
" />
<path d="M22686 26639
L22949 26639
" />
<path d="M23080 26639
L23061 26658
L23043 26639
L23061 26620
L23080 26639
L23043 26639
" />
<path d="M22949 26452
L22686 26452
" />
<path d="M22911 26452
L22930 26433
L22949 26395
L22949 26339
L22930 26302
L22893 26283
L22686 26283
" />
<path d="M34989 37077
L34989 36852
" />
<path d="M34989 36964
L34595 36964
L34652 36927
L34689 36889
L34708 36852
" />
<path d="M34783 37377
L34802 37433
L34820 37452
L34858 37471
L34914 37471
L34952 37452
L34970 37433
L34989 37396
L34989 37246
L34595 37246
L34595 37377
L34614 37414
L34633 37433
L34670 37452
L34708 37452
L34745 37433
L34764 37414
L34783 37377
L34783 37246
" />
<path d="M32983 36930
L32964 36949
L32945 36986
L32945 37080
L32964 37118
L32983 37136
L33020 37155
L33058 37155
L33114 37136
L33339 36911
L33339 37155
" />
<path d="M33227 37305
L33227 37493
" />
<path d="M33339 37268
L32945 37399
L33339 37530
" />
<path d="M32233 36902
L32214 36921
L32195 36958
L32195 37052
L32214 37089
L32233 37108
L32270 37127
L32308 37127
L32364 37108
L32589 36883
L32589 37127
" />
<path d="M32383 37427
L32402 37483
L32420 37502
L32458 37521
L32514 37521
L32552 37502
L32570 37483
L32589 37446
L32589 37296
L32195 37296
L32195 37427
L32214 37464
L32233 37483
L32270 37502
L32308 37502
L32345 37483
L32364 37464
L32383 37427
L32383 37296
" />
<path d="M34189 37105
L34189 36880
" />
<path d="M34189 36993
L33795 36993
L33852 36955
L33889 36918
L33908 36880
" />
<path d="M34077 37255
L34077 37443
" />
<path d="M34189 37218
L33795 37349
L34189 37480
" />
<path d="M29485 37077
L29485 36852
" />
<path d="M29485 36964
L29091 36964
L29148 36927
L29185 36889
L29204 36852
" />
<path d="M29279 37377
L29298 37433
L29316 37452
L29354 37471
L29410 37471
L29448 37452
L29466 37433
L29485 37396
L29485 37246
L29091 37246
L29091 37377
L29110 37414
L29129 37433
L29166 37452
L29204 37452
L29241 37433
L29260 37414
L29279 37377
L29279 37246
" />
<path d="M27479 36930
L27460 36949
L27441 36986
L27441 37080
L27460 37118
L27479 37136
L27516 37155
L27554 37155
L27610 37136
L27835 36911
L27835 37155
" />
<path d="M27723 37305
L27723 37493
" />
<path d="M27835 37268
L27441 37399
L27835 37530
" />
<path d="M26729 36902
L26710 36921
L26691 36958
L26691 37052
L26710 37089
L26729 37108
L26766 37127
L26804 37127
L26860 37108
L27085 36883
L27085 37127
" />
<path d="M26879 37427
L26898 37483
L26916 37502
L26954 37521
L27010 37521
L27048 37502
L27066 37483
L27085 37446
L27085 37296
L26691 37296
L26691 37427
L26710 37464
L26729 37483
L26766 37502
L26804 37502
L26841 37483
L26860 37464
L26879 37427
L26879 37296
" />
<path d="M28685 37105
L28685 36880
" />
<path d="M28685 36993
L28291 36993
L28348 36955
L28385 36918
L28404 36880
" />
<path d="M28573 37255
L28573 37443
" />
<path d="M28685 37218
L28291 37349
L28685 37480
" />
<path d="M23489 37077
L23489 36852
" />
<path d="M23489 36964
L23095 36964
L23152 36927
L23189 36889
L23208 36852
" />
<path d="M23283 37377
L23302 37433
L23320 37452
L23358 37471
L23414 37471
L23452 37452
L23470 37433
L23489 37396
L23489 37246
L23095 37246
L23095 37377
L23114 37414
L23133 37433
L23170 37452
L23208 37452
L23245 37433
L23264 37414
L23283 37377
L23283 37246
" />
<path d="M21483 36930
L21464 36949
L21445 36986
L21445 37080
L21464 37118
L21483 37136
L21520 37155
L21558 37155
L21614 37136
L21839 36911
L21839 37155
" />
<path d="M21727 37305
L21727 37493
" />
<path d="M21839 37268
L21445 37399
L21839 37530
" />
<path d="M20733 36902
L20714 36921
L20695 36958
L20695 37052
L20714 37089
L20733 37108
L20770 37127
L20808 37127
L20864 37108
L21089 36883
L21089 37127
" />
<path d="M20883 37427
L20902 37483
L20920 37502
L20958 37521
L21014 37521
L21052 37502
L21070 37483
L21089 37446
L21089 37296
L20695 37296
L20695 37427
L20714 37464
L20733 37483
L20770 37502
L20808 37502
L20845 37483
L20864 37464
L20883 37427
L20883 37296
" />
<path d="M22689 37105
L22689 36880
" />
<path d="M22689 36993
L22295 36993
L22352 36955
L22389 36918
L22408 36880
" />
<path d="M22577 37255
L22577 37443
" />
<path d="M22689 37218
L22295 37349
L22689 37480
" />
<path d="M17513 37077
L17513 36852
" />
<path d="M17513 36964
L17119 36964
L17175 36927
L17213 36889
L17231 36852
" />
<path d="M17306 37377
L17325 37433
L17344 37452
L17381 37471
L17438 37471
L17475 37452
L17494 37433
L17513 37396
L17513 37246
L17119 37246
L17119 37377
L17138 37414
L17156 37433
L17194 37452
L17231 37452
L17269 37433
L17288 37414
L17306 37377
L17306 37246
" />
<path d="M15506 36930
L15488 36949
L15469 36986
L15469 37080
L15488 37118
L15506 37136
L15544 37155
L15581 37155
L15638 37136
L15863 36911
L15863 37155
" />
<path d="M15750 37305
L15750 37493
" />
<path d="M15863 37268
L15469 37399
L15863 37530
" />
<path d="M14756 36902
L14738 36921
L14719 36958
L14719 37052
L14738 37089
L14756 37108
L14794 37127
L14831 37127
L14888 37108
L15113 36883
L15113 37127
" />
<path d="M14906 37427
L14925 37483
L14944 37502
L14981 37521
L15038 37521
L15075 37502
L15094 37483
L15113 37446
L15113 37296
L14719 37296
L14719 37427
L14738 37464
L14756 37483
L14794 37502
L14831 37502
L14869 37483
L14888 37464
L14906 37427
L14906 37296
" />
<path d="M16713 37105
L16713 36880
" />
<path d="M16713 36993
L16319 36993
L16375 36955
L16413 36918
L16431 36880
" />
<path d="M16600 37255
L16600 37443
" />
<path d="M16713 37218
L16319 37349
L16713 37480
" />
<path d="M11674 37077
L11674 36852
" />
<path d="M11674 36964
L11280 36964
L11337 36927
L11374 36889
L11393 36852
" />
<path d="M11468 37377
L11487 37433
L11505 37452
L11543 37471
L11599 37471
L11637 37452
L11655 37433
L11674 37396
L11674 37246
L11280 37246
L11280 37377
L11299 37414
L11318 37433
L11355 37452
L11393 37452
L11430 37433
L11449 37414
L11468 37377
L11468 37246
" />
<path d="M9668 36930
L9649 36949
L9630 36986
L9630 37080
L9649 37118
L9668 37136
L9705 37155
L9743 37155
L9799 37136
L10024 36911
L10024 37155
" />
<path d="M9912 37305
L9912 37493
" />
<path d="M10024 37268
L9630 37399
L10024 37530
" />
<path d="M8918 36902
L8899 36921
L8880 36958
L8880 37052
L8899 37089
L8918 37108
L8955 37127
L8993 37127
L9049 37108
L9274 36883
L9274 37127
" />
<path d="M9068 37427
L9087 37483
L9105 37502
L9143 37521
L9199 37521
L9237 37502
L9255 37483
L9274 37446
L9274 37296
L8880 37296
L8880 37427
L8899 37464
L8918 37483
L8955 37502
L8993 37502
L9030 37483
L9049 37464
L9068 37427
L9068 37296
" />
<path d="M10874 37105
L10874 36880
" />
<path d="M10874 36993
L10480 36993
L10537 36955
L10574 36918
L10593 36880
" />
<path d="M10762 37255
L10762 37443
" />
<path d="M10874 37218
L10480 37349
L10874 37480
" />
<path d="M5855 37077
L5855 36852
" />
<path d="M5855 36964
L5461 36964
L5518 36927
L5555 36889
L5574 36852
" />
<path d="M5649 37377
L5668 37433
L5686 37452
L5724 37471
L5780 37471
L5818 37452
L5836 37433
L5855 37396
L5855 37246
L5461 37246
L5461 37377
L5480 37414
L5499 37433
L5536 37452
L5574 37452
L5611 37433
L5630 37414
L5649 37377
L5649 37246
" />
<path d="M3849 36930
L3830 36949
L3811 36986
L3811 37080
L3830 37118
L3849 37136
L3886 37155
L3924 37155
L3980 37136
L4205 36911
L4205 37155
" />
<path d="M4093 37305
L4093 37493
" />
<path d="M4205 37268
L3811 37399
L4205 37530
" />
<path d="M3099 36902
L3080 36921
L3061 36958
L3061 37052
L3080 37089
L3099 37108
L3136 37127
L3174 37127
L3230 37108
L3455 36883
L3455 37127
" />
<path d="M3249 37427
L3268 37483
L3286 37502
L3324 37521
L3380 37521
L3418 37502
L3436 37483
L3455 37446
L3455 37296
L3061 37296
L3061 37427
L3080 37464
L3099 37483
L3136 37502
L3174 37502
L3211 37483
L3230 37464
L3249 37427
L3249 37296
" />
<path d="M5055 37105
L5055 36880
" />
<path d="M5055 36993
L4661 36993
L4718 36955
L4755 36918
L4774 36880
" />
<path d="M4943 37255
L4943 37443
" />
<path d="M5055 37218
L4661 37349
L5055 37480
" />
<path d="M2129 26367
L2354 26367
" />
<path d="M2241 26367
L2241 25973
L2279 26030
L2316 26067
L2354 26086
" />
<path d="M1829 26161
L1773 26179
L1754 26198
L1735 26236
L1735 26292
L1754 26329
L1773 26348
L1810 26367
L1960 26367
L1960 25973
L1829 25973
L1791 25992
L1773 26011
L1754 26048
L1754 26086
L1773 26123
L1791 26142
L1829 26161
L1960 26161
" />
<path d="M2276 24361
L2257 24342
L2219 24323
L2126 24323
L2088 24342
L2069 24361
L2051 24398
L2051 24436
L2069 24492
L2294 24717
L2051 24717
" />
<path d="M1901 24604
L1713 24604
" />
<path d="M1938 24717
L1807 24323
L1676 24717
" />
<path d="M2304 23611
L2285 23592
L2247 23573
L2154 23573
L2116 23592
L2097 23611
L2079 23648
L2079 23686
L2097 23742
L2322 23967
L2079 23967
" />
<path d="M1779 23761
L1723 23779
L1704 23798
L1685 23836
L1685 23892
L1704 23929
L1723 23948
L1760 23967
L1910 23967
L1910 23573
L1779 23573
L1741 23592
L1723 23611
L1704 23648
L1704 23686
L1723 23723
L1741 23742
L1779 23761
L1910 23761
" />
<path d="M2101 25567
L2326 25567
" />
<path d="M2213 25567
L2213 25173
L2251 25230
L2288 25267
L2326 25286
" />
<path d="M1951 25454
L1763 25454
" />
<path d="M1988 25567
L1857 25173
L1726 25567
" />
<path d="M2129 19713
L2354 19713
" />
<path d="M2241 19713
L2241 19320
L2279 19376
L2316 19413
L2354 19432
" />
<path d="M1829 19507
L1773 19526
L1754 19545
L1735 19582
L1735 19638
L1754 19676
L1773 19695
L1810 19713
L1960 19713
L1960 19320
L1829 19320
L1791 19338
L1773 19357
L1754 19395
L1754 19432
L1773 19470
L1791 19488
L1829 19507
L1960 19507
" />
<path d="M2276 17707
L2257 17688
L2219 17670
L2126 17670
L2088 17688
L2069 17707
L2051 17745
L2051 17782
L2069 17838
L2294 18063
L2051 18063
" />
<path d="M1901 17951
L1713 17951
" />
<path d="M1938 18063
L1807 17670
L1676 18063
" />
<path d="M2304 16957
L2285 16938
L2247 16920
L2154 16920
L2116 16938
L2097 16957
L2079 16995
L2079 17032
L2097 17088
L2322 17313
L2079 17313
" />
<path d="M1779 17107
L1723 17126
L1704 17145
L1685 17182
L1685 17238
L1704 17276
L1723 17295
L1760 17313
L1910 17313
L1910 16920
L1779 16920
L1741 16938
L1723 16957
L1704 16995
L1704 17032
L1723 17070
L1741 17088
L1779 17107
L1910 17107
" />
<path d="M2101 18913
L2326 18913
" />
<path d="M2213 18913
L2213 18520
L2251 18576
L2288 18613
L2326 18632
" />
<path d="M1951 18801
L1763 18801
" />
<path d="M1988 18913
L1857 18520
L1726 18913
" />
<path d="M14400 5081
L14213 4950
" />
<path d="M14400 4856
L14006 4856
L14006 5006
L14025 5044
L14044 5062
L14081 5081
L14138 5081
L14175 5062
L14194 5044
L14213 5006
L14213 4856
" />
<path d="M14006 5419
L14006 5344
L14025 5306
L14044 5287
L14100 5250
L14175 5231
L14325 5231
L14363 5250
L14381 5269
L14400 5306
L14400 5381
L14381 5419
L14363 5437
L14325 5456
L14231 5456
L14194 5437
L14175 5419
L14156 5381
L14156 5306
L14175 5269
L14194 5250
L14231 5231
" />
<path d="M14138 5793
L14400 5793
" />
<path d="M13988 5700
L14269 5606
L14269 5850
" />
<path d="M14084 27063
L14044 26837
" />
<path d="M14243 26904
L13965 26625
L13859 26731
L13845 26771
L13845 26797
L13859 26837
L13898 26877
L13938 26890
L13965 26890
L14004 26877
L14110 26771
" />
<path d="M13660 27116
L13845 27301
" />
<path d="M13620 26943
L13885 27076
L13713 27248
" />
<path d="M13461 27182
L13434 27182
L13395 27195
L13328 27261
L13315 27301
L13315 27328
L13328 27368
L13355 27394
L13408 27421
L13726 27421
L13554 27593
" />
<path d="M10777 23113
L10589 22981
" />
<path d="M10777 22888
L10383 22888
L10383 23038
L10402 23075
L10420 23094
L10458 23113
L10514 23113
L10552 23094
L10570 23075
L10589 23038
L10589 22888
" />
<path d="M10514 23450
L10777 23450
" />
<path d="M10364 23356
L10645 23263
L10645 23506
" />
<path d="M10514 23825
L10777 23825
" />
<path d="M10364 23731
L10645 23637
L10645 23881
" />
<path d="M17544 21929
L17504 21704
" />
<path d="M17703 21770
L17425 21492
L17319 21598
L17305 21638
L17305 21664
L17319 21704
L17358 21744
L17398 21757
L17425 21757
L17464 21744
L17570 21638
" />
<path d="M17027 21890
L17080 21837
L17120 21823
L17146 21823
L17212 21837
L17279 21876
L17385 21982
L17398 22022
L17398 22049
L17385 22089
L17332 22142
L17292 22155
L17265 22155
L17226 22142
L17159 22075
L17146 22035
L17146 22009
L17159 21969
L17212 21916
L17252 21903
L17279 21903
L17319 21916
" />
</g>
<g style="fill:#000000; fill-opacity:0.0; 
stroke:#000000; stroke-width:47; stroke-opacity:1; 
stroke-linecap:round; stroke-linejoin:round;">
<path d="M37148 8507
L37148 8310
L37101 8310
L37073 8319
L37054 8338
L37045 8356
L37036 8394
L37036 8422
L37045 8460
L37054 8478
L37073 8497
L37101 8507
L37148 8507
" />
<path d="M36961 8328
L36951 8319
L36932 8310
L36885 8310
L36867 8319
L36857 8328
L36848 8347
L36848 8366
L36857 8394
L36970 8507
L36848 8507
" />
<path d="M36679 8310
L36717 8310
L36735 8319
L36745 8328
L36764 8356
L36773 8394
L36773 8469
L36764 8488
L36754 8497
L36735 8507
L36698 8507
L36679 8497
L36670 8488
L36660 8469
L36660 8422
L36670 8403
L36679 8394
L36698 8385
L36735 8385
L36754 8394
L36764 8403
L36773 8422
" />
<path d="M33251 8447
L33251 8250
L33204 8250
L33175 8260
L33157 8279
L33147 8297
L33138 8335
L33138 8363
L33147 8401
L33157 8419
L33175 8438
L33204 8447
L33251 8447
" />
<path d="M33063 8269
L33054 8260
L33035 8250
L32988 8250
L32969 8260
L32960 8269
L32950 8288
L32950 8307
L32960 8335
L33072 8447
L32950 8447
" />
<path d="M32772 8250
L32866 8250
L32875 8344
L32866 8335
L32847 8326
L32800 8326
L32781 8335
L32772 8344
L32763 8363
L32763 8410
L32772 8429
L32781 8438
L32800 8447
L32847 8447
L32866 8438
L32875 8429
" />
<path d="M9550 9091
L9353 9091
L9353 9138
L9362 9166
L9381 9185
L9400 9194
L9437 9204
L9465 9204
L9503 9194
L9522 9185
L9540 9166
L9550 9138
L9550 9091
" />
<path d="M9550 9391
L9550 9279
" />
<path d="M9550 9335
L9353 9335
L9381 9316
L9400 9297
L9409 9279
" />
<path d="M9353 9560
L9353 9523
L9362 9504
L9372 9494
L9400 9476
L9437 9466
L9512 9466
L9531 9476
L9540 9485
L9550 9504
L9550 9541
L9540 9560
L9531 9569
L9512 9579
L9465 9579
L9447 9569
L9437 9560
L9428 9541
L9428 9504
L9437 9485
L9447 9476
L9465 9466
" />
</g>
<g style="fill:#000000; fill-opacity:0.0; 
stroke:#000000; stroke-width:59.0551; stroke-opacity:1; 
stroke-linecap:round; stroke-linejoin:round;">
<path d="M17733 15621
L17864 15433
" />
<path d="M17958 15621
L17958 15227
L17808 15227
L17770 15246
L17752 15264
L17733 15302
L17733 15358
L17752 15396
L17770 15414
L17808 15433
L17958 15433
" />
<path d="M17602 15227
L17339 15227
L17508 15621
" />
<path d="M17020 15358
L17020 15621
" />
<path d="M17114 15208
L17208 15489
L16964 15489
" />
<path d="M20050 17266
L20068 17247
L20087 17191
L20087 17154
L20068 17097
L20031 17060
L19993 17041
L19918 17022
L19862 17022
L19787 17041
L19750 17060
L19712 17097
L19693 17154
L19693 17191
L19712 17247
L19731 17266
" />
<path d="M19825 17604
L20087 17604
" />
<path d="M19675 17510
L19956 17416
L19956 17660
" />
<path d="M20087 17829
L20087 17904
L20068 17941
L20050 17960
L19993 17997
L19918 18016
L19768 18016
L19731 17997
L19712 17979
L19693 17941
L19693 17866
L19712 17829
L19731 17810
L19768 17791
L19862 17791
L19900 17810
L19918 17829
L19937 17866
L19937 17941
L19918 17979
L19900 17997
L19862 18016
" />
<path d="M16808 18447
L16826 18466
L16883 18485
L16920 18485
L16976 18466
L17014 18428
L17033 18391
L17051 18316
L17051 18260
L17033 18185
L17014 18147
L16976 18110
L16920 18091
L16883 18091
L16826 18110
L16808 18128
" />
<path d="M16470 18222
L16470 18485
" />
<path d="M16564 18072
L16658 18353
L16414 18353
" />
<path d="M16208 18260
L16245 18241
L16264 18222
L16283 18185
L16283 18166
L16264 18128
L16245 18110
L16208 18091
L16133 18091
L16095 18110
L16077 18128
L16058 18166
L16058 18185
L16077 18222
L16095 18241
L16133 18260
L16208 18260
L16245 18278
L16264 18297
L16283 18335
L16283 18410
L16264 18447
L16245 18466
L16208 18485
L16133 18485
L16095 18466
L16077 18447
L16058 18410
L16058 18335
L16077 18297
L16095 18278
L16133 18260
" />
<path d="M16867 16262
L16886 16281
L16942 16300
L16979 16300
L17035 16281
L17073 16243
L17092 16206
L17110 16131
L17110 16075
L17092 16000
L17073 15962
L17035 15925
L16979 15906
L16942 15906
L16886 15925
L16867 15943
" />
<path d="M16529 16037
L16529 16300
" />
<path d="M16623 15887
L16717 16168
L16473 16168
" />
<path d="M16154 15906
L16229 15906
L16267 15925
L16286 15943
L16323 16000
L16342 16075
L16342 16225
L16323 16262
L16304 16281
L16267 16300
L16192 16300
L16154 16281
L16136 16262
L16117 16225
L16117 16131
L16136 16093
L16154 16075
L16192 16056
L16267 16056
L16304 16075
L16323 16093
L16342 16131
" />
<path d="M20026 19156
L20045 19175
L20101 19193
L20139 19193
L20195 19175
L20232 19137
L20251 19100
L20270 19025
L20270 18968
L20251 18893
L20232 18856
L20195 18818
L20139 18800
L20101 18800
L20045 18818
L20026 18837
" />
<path d="M19689 18931
L19689 19193
" />
<path d="M19782 18781
L19876 19062
L19633 19062
" />
<path d="M19295 18800
L19483 18800
L19501 18987
L19483 18968
L19445 18950
L19351 18950
L19314 18968
L19295 18987
L19276 19025
L19276 19118
L19295 19156
L19314 19175
L19351 19193
L19445 19193
L19483 19175
L19501 19156
" />
<path d="M18796 10619
L18927 10431
" />
<path d="M19021 10619
L19021 10225
L18871 10225
L18833 10244
L18815 10262
L18796 10300
L18796 10356
L18815 10394
L18833 10412
L18871 10431
L19021 10431
" />
<path d="M18665 10225
L18402 10225
L18571 10619
" />
<path d="M18290 10225
L18027 10225
L18196 10619
" />
<path d="M19813 13447
L19832 13428
L19851 13372
L19851 13335
L19832 13278
L19795 13241
L19757 13222
L19682 13203
L19626 13203
L19551 13222
L19513 13241
L19476 13278
L19457 13335
L19457 13372
L19476 13428
L19495 13447
" />
<path d="M19457 13803
L19457 13616
L19645 13597
L19626 13616
L19607 13653
L19607 13747
L19626 13785
L19645 13803
L19682 13822
L19776 13822
L19813 13803
L19832 13785
L19851 13747
L19851 13653
L19832 13616
L19813 13597
" />
<path d="M19588 14160
L19851 14160
" />
<path d="M19438 14066
L19720 13972
L19720 14216
" />
<path d="M17113 14530
L17132 14549
L17188 14567
L17225 14567
L17282 14549
L17319 14511
L17338 14474
L17357 14399
L17357 14342
L17338 14267
L17319 14230
L17282 14192
L17225 14174
L17188 14174
L17132 14192
L17113 14211
" />
<path d="M16757 14174
L16944 14174
L16963 14361
L16944 14342
L16907 14324
L16813 14324
L16775 14342
L16757 14361
L16738 14399
L16738 14492
L16757 14530
L16775 14549
L16813 14567
L16907 14567
L16944 14549
L16963 14530
" />
<path d="M16607 14174
L16363 14174
L16494 14324
L16438 14324
L16400 14342
L16382 14361
L16363 14399
L16363 14492
L16382 14530
L16400 14549
L16438 14567
L16550 14567
L16588 14549
L16607 14530
" />
<path d="M19229 11863
L19248 11881
L19304 11900
L19341 11900
L19398 11881
L19435 11844
L19454 11806
L19473 11731
L19473 11675
L19454 11600
L19435 11563
L19398 11525
L19341 11506
L19304 11506
L19248 11525
L19229 11544
" />
<path d="M18873 11506
L19060 11506
L19079 11694
L19060 11675
L19023 11656
L18929 11656
L18892 11675
L18873 11694
L18854 11731
L18854 11825
L18873 11863
L18892 11881
L18929 11900
L19023 11900
L19060 11881
L19079 11863
" />
<path d="M18479 11900
L18704 11900
" />
<path d="M18592 11900
L18592 11506
L18629 11563
L18667 11600
L18704 11619
" />
<path d="M17093 15052
L17112 15070
L17168 15089
L17206 15089
L17262 15070
L17299 15033
L17318 14995
L17337 14920
L17337 14864
L17318 14789
L17299 14752
L17262 14714
L17206 14695
L17168 14695
L17112 14714
L17093 14733
" />
<path d="M16737 14695
L16924 14695
L16943 14883
L16924 14864
L16887 14845
L16793 14845
L16756 14864
L16737 14883
L16718 14920
L16718 15014
L16737 15052
L16756 15070
L16793 15089
L16887 15089
L16924 15070
L16943 15052
" />
<path d="M16474 14695
L16437 14695
L16399 14714
L16381 14733
L16362 14770
L16343 14845
L16343 14939
L16362 15014
L16381 15052
L16399 15070
L16437 15089
L16474 15089
L16512 15070
L16531 15052
L16549 15014
L16568 14939
L16568 14845
L16549 14770
L16531 14733
L16512 14714
L16474 14695
" />
<path d="M16619 21152
L16579 20927
" />
<path d="M16778 20993
L16499 20714
L16393 20820
L16380 20860
L16380 20887
L16393 20927
L16433 20966
L16473 20980
L16499 20980
L16539 20966
L16645 20860
" />
<path d="M16248 20966
L16075 21139
L16274 21152
L16234 21192
L16221 21231
L16221 21258
L16234 21298
L16301 21364
L16340 21377
L16367 21377
L16407 21364
L16486 21284
L16499 21245
L16499 21218
" />
<path d="M17106 21541
L17066 21316
" />
<path d="M17265 21382
L16986 21103
L16880 21210
L16867 21249
L16867 21276
L16880 21316
L16920 21355
L16960 21369
L16986 21369
L17026 21355
L17132 21249
" />
<path d="M16681 21594
L16867 21780
" />
<path d="M16642 21422
L16907 21554
L16734 21727
" />
<path d="M16469 21621
L16284 21806
L16681 21965
" />
<path d="M10906 16007
L10512 16007
L10512 16157
L10531 16195
L10550 16213
L10587 16232
L10643 16232
L10681 16213
L10700 16195
L10718 16157
L10718 16007
" />
<path d="M10512 16363
L10906 16457
L10625 16532
L10906 16607
L10512 16701
" />
<path d="M10906 17076
L10718 16945
" />
<path d="M10906 16851
L10512 16851
L10512 17001
L10531 17038
L10550 17057
L10587 17076
L10643 17076
L10681 17057
L10700 17038
L10718 17001
L10718 16851
" />
<path d="M10943 17151
L10943 17451
" />
<path d="M10906 17544
L10512 17544
L10512 17638
L10531 17694
L10568 17732
L10606 17751
L10681 17769
L10737 17769
L10812 17751
L10850 17732
L10887 17694
L10906 17638
L10906 17544
" />
<path d="M10700 17938
L10700 18069
" />
<path d="M10906 18126
L10906 17938
L10512 17938
L10512 18126
" />
<path d="M10700 18426
L10718 18482
L10737 18501
L10775 18519
L10831 18519
L10868 18501
L10887 18482
L10906 18444
L10906 18294
L10512 18294
L10512 18426
L10531 18463
L10550 18482
L10587 18501
L10625 18501
L10662 18482
L10681 18463
L10700 18426
L10700 18294
" />
<path d="M10512 18688
L10831 18688
L10868 18707
L10887 18726
L10906 18763
L10906 18838
L10887 18876
L10868 18894
L10831 18913
L10512 18913
" />
<path d="M10531 19307
L10512 19269
L10512 19213
L10531 19157
L10568 19119
L10606 19101
L10681 19082
L10737 19082
L10812 19101
L10850 19119
L10887 19157
L10906 19213
L10906 19251
L10887 19307
L10868 19326
L10737 19326
L10737 19251
" />
<path d="M15299 24842
L15524 24802
" />
<path d="M15458 25001
L15736 24722
L15630 24616
L15590 24603
L15564 24603
L15524 24616
L15484 24656
L15471 24696
L15471 24722
L15484 24762
L15590 24868
" />
<path d="M15246 24418
L15060 24603
" />
<path d="M15418 24378
L15285 24643
L15113 24471
" />
<path d="M15073 24060
L15126 24113
L15140 24152
L15140 24179
L15126 24245
L15086 24312
L14980 24418
L14941 24431
L14914 24431
L14874 24418
L14821 24365
L14808 24325
L14808 24298
L14821 24259
L14888 24192
L14927 24179
L14954 24179
L14994 24192
L15047 24245
L15060 24285
L15060 24312
L15047 24351
" />
<path d="M15692 24468
L15918 24428
" />
<path d="M15851 24627
L16130 24348
L16024 24242
L15984 24229
L15957 24229
L15918 24242
L15878 24282
L15865 24322
L15865 24348
L15878 24388
L15984 24494
" />
<path d="M15639 24044
L15454 24229
" />
<path d="M15812 24004
L15679 24269
L15507 24097
" />
<path d="M15454 23672
L15586 23805
L15467 23951
L15467 23924
L15454 23884
L15387 23818
L15348 23805
L15321 23805
L15281 23818
L15215 23884
L15202 23924
L15202 23951
L15215 23991
L15281 24057
L15321 24070
L15348 24070
" />
<path d="M13739 26718
L13700 26493
" />
<path d="M13899 26559
L13620 26281
L13514 26387
L13501 26426
L13501 26453
L13514 26493
L13554 26533
L13594 26546
L13620 26546
L13660 26533
L13766 26426
" />
<path d="M13315 26771
L13501 26957
" />
<path d="M13275 26599
L13541 26731
L13368 26904
" />
<path d="M13103 26798
L12931 26970
L13130 26983
L13090 27023
L13077 27063
L13077 27089
L13090 27129
L13156 27195
L13196 27209
L13222 27209
L13262 27195
L13342 27116
L13355 27076
L13355 27050
" />
<path d="M19251 22397
L19211 22172
" />
<path d="M19410 22238
L19132 21960
L19026 22066
L19013 22106
L19013 22132
L19026 22172
L19066 22212
L19105 22225
L19132 22225
L19172 22212
L19278 22106
" />
<path d="M18827 22450
L19013 22636
" />
<path d="M18787 22278
L19052 22411
L18880 22583
" />
<path d="M18721 22928
L18880 22768
" />
<path d="M18801 22848
L18522 22570
L18588 22583
L18641 22583
L18681 22570
" />
<path d="M18680 21757
L18641 21532
" />
<path d="M18839 21598
L18561 21320
L18455 21426
L18442 21466
L18442 21492
L18455 21532
L18495 21572
L18535 21585
L18561 21585
L18601 21572
L18707 21466
" />
<path d="M18256 21811
L18442 21996
" />
<path d="M18216 21638
L18482 21771
L18309 21943
" />
<path d="M17965 21917
L17938 21943
L17925 21983
L17925 22009
L17938 22049
L17978 22115
L18044 22182
L18110 22221
L18150 22235
L18177 22235
L18216 22221
L18243 22195
L18256 22155
L18256 22129
L18243 22089
L18203 22023
L18137 21956
L18071 21917
L18031 21903
L18004 21903
L17965 21917
" />
<path d="M14540 23965
L14566 23965
L14619 23939
L14646 23912
L14672 23859
L14672 23806
L14659 23766
L14619 23700
L14579 23660
L14513 23621
L14473 23607
L14420 23607
L14367 23634
L14341 23660
L14314 23713
L14314 23740
" />
<path d="M14208 23846
L14182 23846
L14142 23859
L14076 23925
L14062 23965
L14062 23992
L14076 24032
L14102 24058
L14155 24085
L14473 24085
L14301 24257
" />
<path d="M14169 24389
L14115 24442
L14076 24456
L14049 24456
L13983 24442
L13917 24403
L13811 24297
L13797 24257
L13797 24230
L13811 24191
L13864 24138
L13903 24124
L13930 24124
L13970 24138
L14036 24204
L14049 24244
L14049 24270
L14036 24310
L13983 24363
L13943 24376
L13917 24376
L13877 24363
" />
<path d="M16750 26905
L16750 26932
L16777 26985
L16803 27011
L16856 27038
L16909 27038
L16949 27024
L17015 26985
L17055 26945
L17095 26879
L17108 26839
L17108 26786
L17082 26733
L17055 26706
L17002 26680
L16976 26680
" />
<path d="M16870 26574
L16870 26547
L16856 26507
L16790 26441
L16750 26428
L16724 26428
L16684 26441
L16658 26468
L16631 26521
L16631 26839
L16459 26666
" />
<path d="M16459 26348
L16498 26362
L16525 26362
L16565 26348
L16578 26335
L16591 26295
L16591 26269
L16578 26229
L16525 26176
L16485 26163
L16459 26163
L16419 26176
L16406 26189
L16392 26229
L16392 26256
L16406 26295
L16459 26348
L16472 26388
L16472 26415
L16459 26454
L16406 26507
L16366 26521
L16339 26521
L16300 26507
L16247 26454
L16233 26415
L16233 26388
L16247 26348
L16300 26295
L16339 26282
L16366 26282
L16406 26295
" />
<path d="M11280 22059
L11280 22086
L11306 22139
L11333 22165
L11386 22192
L11439 22192
L11479 22179
L11545 22139
L11585 22099
L11624 22033
L11638 21993
L11638 21940
L11611 21887
L11585 21861
L11532 21834
L11505 21834
" />
<path d="M11399 21728
L11399 21701
L11386 21662
L11320 21595
L11280 21582
L11253 21582
L11214 21595
L11187 21622
L11161 21675
L11161 21993
L10988 21821
" />
<path d="M11015 21291
L11147 21423
L11028 21569
L11028 21542
L11015 21503
L10948 21436
L10909 21423
L10882 21423
L10842 21436
L10776 21503
L10763 21542
L10763 21569
L10776 21609
L10842 21675
L10882 21688
L10909 21688
" />
<path d="M20188 23467
L20188 23494
L20215 23547
L20241 23573
L20294 23600
L20347 23600
L20387 23587
L20453 23547
L20493 23507
L20533 23441
L20546 23401
L20546 23348
L20519 23295
L20493 23269
L20440 23242
L20413 23242
" />
<path d="M20307 23136
L20307 23110
L20294 23070
L20228 23003
L20188 22990
L20161 22990
L20122 23003
L20095 23030
L20069 23083
L20069 23401
L19896 23229
" />
<path d="M20082 22858
L19896 22672
L19737 23070
" />
<path d="M15681 20196
L15708 20196
L15761 20169
L15787 20143
L15814 20089
L15814 20036
L15801 19997
L15761 19930
L15721 19891
L15655 19851
L15615 19838
L15562 19838
L15509 19864
L15483 19891
L15456 19944
L15456 19970
" />
<path d="M15350 20076
L15324 20076
L15284 20089
L15217 20156
L15204 20196
L15204 20222
L15217 20262
L15244 20288
L15297 20315
L15615 20315
L15443 20487
" />
<path d="M14926 20447
L14979 20394
L15019 20381
L15045 20381
L15111 20394
L15178 20434
L15284 20540
L15297 20580
L15297 20607
L15284 20646
L15231 20699
L15191 20713
L15164 20713
L15125 20699
L15058 20633
L15045 20593
L15045 20567
L15058 20527
L15111 20474
L15151 20461
L15178 20461
L15217 20474
" />
<path d="M18974 24681
L18974 24708
L19001 24761
L19027 24787
L19080 24814
L19133 24814
L19173 24800
L19239 24761
L19279 24721
L19319 24655
L19332 24615
L19332 24562
L19306 24509
L19279 24482
L19226 24456
L19200 24456
" />
<path d="M19133 24337
L18961 24164
L18948 24363
L18908 24323
L18868 24310
L18842 24310
L18802 24323
L18736 24390
L18722 24429
L18722 24456
L18736 24496
L18815 24575
L18855 24588
L18881 24588
" />
<path d="M18789 23992
L18762 23965
L18722 23952
L18696 23952
L18656 23965
L18590 24005
L18524 24071
L18484 24138
L18471 24177
L18471 24204
L18484 24244
L18510 24270
L18550 24283
L18577 24283
L18616 24270
L18683 24230
L18749 24164
L18789 24098
L18802 24058
L18802 24032
L18789 23992
" />
<path d="M16183 20638
L16210 20638
L16263 20612
L16289 20585
L16316 20532
L16316 20479
L16303 20440
L16263 20373
L16223 20334
L16157 20294
L16117 20281
L16064 20281
L16011 20307
L15985 20334
L15958 20387
L15958 20413
" />
<path d="M15839 20479
L15666 20652
L15865 20665
L15825 20705
L15812 20745
L15812 20771
L15825 20811
L15892 20877
L15932 20890
L15958 20890
L15998 20877
L16077 20798
L16091 20758
L16091 20731
" />
<path d="M15680 21195
L15839 21036
" />
<path d="M15759 21116
L15481 20837
L15547 20851
L15600 20851
L15640 20837
" />
<path d="M18663 27272
L18689 27272
L18742 27245
L18769 27219
L18796 27166
L18796 27113
L18782 27073
L18742 27006
L18703 26967
L18636 26927
L18597 26914
L18544 26914
L18491 26940
L18464 26967
L18438 27020
L18438 27046
" />
<path d="M18318 27113
L18146 27285
L18345 27298
L18305 27338
L18292 27378
L18292 27404
L18305 27444
L18371 27510
L18411 27523
L18438 27523
L18477 27510
L18557 27431
L18570 27391
L18570 27364
" />
<path d="M18066 27417
L18040 27417
L18000 27431
L17934 27497
L17921 27537
L17921 27563
L17934 27603
L17960 27630
L18013 27656
L18332 27656
L18159 27828
" />
<path d="M12187 27449
L12214 27449
L12267 27423
L12293 27396
L12320 27343
L12320 27290
L12307 27251
L12267 27184
L12227 27145
L12161 27105
L12121 27092
L12068 27092
L12015 27118
L11988 27145
L11962 27198
L11962 27224
" />
<path d="M11856 27330
L11829 27330
L11790 27343
L11723 27410
L11710 27449
L11710 27476
L11723 27516
L11750 27542
L11803 27569
L12121 27569
L11949 27741
" />
<path d="M11525 27794
L11710 27980
" />
<path d="M11485 27622
L11750 27754
L11578 27927
" />
<path d="M13910 23355
L13936 23355
L13989 23328
L14016 23302
L14042 23249
L14042 23196
L14029 23156
L13989 23090
L13950 23050
L13883 23010
L13843 22997
L13790 22997
L13737 23024
L13711 23050
L13684 23103
L13684 23130
" />
<path d="M13578 23236
L13552 23236
L13512 23249
L13446 23315
L13433 23355
L13433 23382
L13446 23421
L13472 23448
L13525 23474
L13843 23474
L13671 23647
" />
<path d="M13300 23461
L13128 23633
L13326 23647
L13287 23686
L13273 23726
L13273 23753
L13287 23792
L13353 23859
L13393 23872
L13419 23872
L13459 23859
L13539 23779
L13552 23739
L13552 23713
" />
<path d="M11725 27016
L11751 27016
L11804 26990
L11831 26963
L11857 26910
L11857 26857
L11844 26818
L11804 26751
L11765 26712
L11698 26672
L11658 26658
L11605 26658
L11552 26685
L11526 26712
L11499 26765
L11499 26791
" />
<path d="M11393 26897
L11367 26897
L11327 26910
L11261 26977
L11248 27016
L11248 27043
L11261 27083
L11287 27109
L11340 27136
L11658 27136
L11486 27308
" />
<path d="M11128 27162
L11102 27162
L11062 27175
L10996 27242
L10982 27282
L10982 27308
L10996 27348
L11022 27374
L11075 27401
L11393 27401
L11221 27573
" />
<path d="M16221 28367
L16247 28367
L16300 28340
L16327 28314
L16353 28261
L16353 28208
L16340 28168
L16300 28102
L16261 28062
L16194 28022
L16155 28009
L16102 28009
L16049 28035
L16022 28062
L15996 28115
L15996 28142
" />
<path d="M15889 28248
L15863 28248
L15823 28261
L15757 28327
L15744 28367
L15744 28393
L15757 28433
L15783 28460
L15836 28486
L16155 28486
L15982 28659
" />
<path d="M15717 28924
L15876 28765
" />
<path d="M15797 28844
L15518 28566
L15585 28579
L15638 28579
L15677 28566
" />
<path d="M18155 24212
L18128 24265
L18128 24292
L18141 24331
L18181 24371
L18221 24385
L18248 24385
L18287 24371
L18393 24265
L18115 23987
L18022 24080
L18009 24119
L18009 24146
L18022 24186
L18049 24212
L18088 24225
L18115 24225
L18155 24212
L18248 24119
" />
<path d="M17784 24318
L17731 24371
L17717 24411
L17717 24464
L17757 24530
L17850 24623
L17916 24663
L17969 24663
L18009 24650
L18062 24597
L18075 24557
L18075 24504
L18035 24438
L17943 24345
L17876 24305
L17823 24305
L17784 24318
" />
<path d="M17492 24610
L17439 24663
L17426 24703
L17426 24756
L17465 24822
L17558 24915
L17624 24955
L17677 24955
L17717 24941
L17770 24888
L17784 24849
L17784 24795
L17744 24729
L17651 24636
L17585 24597
L17532 24597
L17492 24610
" />
<path d="M17293 24809
L17134 24968
" />
<path d="M17492 25167
L17214 24888
" />
<path d="M17174 25485
L17333 25326
" />
<path d="M17253 25405
L16975 25127
L17041 25140
L17094 25140
L17134 25127
" />
<path d="M16317 22333
L16290 22386
L16290 22413
L16304 22453
L16343 22492
L16383 22506
L16410 22506
L16449 22492
L16555 22386
L16277 22108
L16184 22201
L16171 22241
L16171 22267
L16184 22307
L16211 22333
L16250 22347
L16277 22347
L16317 22333
L16410 22241
" />
<path d="M15946 22439
L15893 22492
L15879 22532
L15879 22585
L15919 22652
L16012 22744
L16078 22784
L16131 22784
L16171 22771
L16224 22718
L16237 22678
L16237 22625
L16197 22559
L16105 22466
L16038 22426
L15985 22426
L15946 22439
" />
<path d="M15654 22731
L15601 22784
L15588 22824
L15588 22877
L15627 22943
L15720 23036
L15787 23076
L15840 23076
L15879 23063
L15932 23009
L15946 22970
L15946 22917
L15906 22850
L15813 22758
L15747 22718
L15694 22718
L15654 22731
" />
<path d="M15455 22930
L15296 23089
" />
<path d="M15654 23288
L15376 23009
" />
<path d="M15150 23235
L15124 23261
L15110 23301
L15110 23328
L15124 23367
L15163 23434
L15230 23500
L15296 23540
L15336 23553
L15362 23553
L15402 23540
L15429 23513
L15442 23473
L15442 23447
L15429 23407
L15389 23341
L15323 23275
L15256 23235
L15216 23222
L15190 23222
L15150 23235
" />
<path d="M14422 27400
L14448 27400
L14501 27374
L14528 27347
L14554 27294
L14554 27241
L14541 27201
L14501 27135
L14461 27095
L14395 27056
L14355 27042
L14302 27042
L14249 27069
L14223 27095
L14196 27148
L14196 27175
" />
<path d="M13918 27400
L14050 27268
L14196 27387
L14170 27387
L14130 27400
L14064 27467
L14050 27506
L14050 27533
L14064 27573
L14130 27639
L14170 27652
L14196 27652
L14236 27639
L14302 27573
L14316 27533
L14316 27506
" />
<path d="M13653 27665
L13785 27533
L13931 27652
L13905 27652
L13865 27665
L13799 27732
L13785 27771
L13785 27798
L13799 27838
L13865 27904
L13905 27917
L13931 27917
L13971 27904
L14037 27838
L14050 27798
L14050 27771
" />
<path d="M28943 26516
L29074 26329
" />
<path d="M29168 26516
L29168 26122
L29018 26122
L28981 26141
L28962 26160
L28943 26197
L28943 26254
L28962 26291
L28981 26310
L29018 26329
L29168 26329
" />
<path d="M28606 26254
L28606 26516
" />
<path d="M28699 26104
L28793 26385
L28549 26385
" />
<path d="M28982 27126
L29114 26939
" />
<path d="M29207 27126
L29207 26733
L29057 26733
L29020 26751
L29001 26770
L28982 26808
L28982 26864
L29001 26901
L29020 26920
L29057 26939
L29207 26939
" />
<path d="M28626 26733
L28814 26733
L28832 26920
L28814 26901
L28776 26883
L28682 26883
L28645 26901
L28626 26920
L28607 26958
L28607 27051
L28626 27089
L28645 27108
L28682 27126
L28776 27126
L28814 27108
L28832 27089
" />
<path d="M20067 27727
L19879 27596
" />
<path d="M20067 27502
L19673 27502
L19673 27652
L19692 27690
L19710 27708
L19748 27727
L19804 27727
L19842 27708
L19860 27690
L19879 27652
L19879 27502
" />
<path d="M19673 27858
L19673 28121
L20067 27952
" />
<path d="M35770 38359
L35583 38228
" />
<path d="M35770 38134
L35376 38134
L35376 38284
L35395 38322
L35414 38340
L35451 38359
L35508 38359
L35545 38340
L35564 38322
L35583 38284
L35583 38134
" />
<path d="M35770 38547
L35770 38622
L35751 38659
L35733 38678
L35676 38715
L35601 38734
L35451 38734
L35414 38715
L35395 38697
L35376 38659
L35376 38584
L35395 38547
L35414 38528
L35451 38509
L35545 38509
L35583 38528
L35601 38547
L35620 38584
L35620 38659
L35601 38697
L35583 38715
L35545 38734
" />
<path d="M30306 38172
L30118 38040
" />
<path d="M30306 37947
L29912 37947
L29912 38097
L29931 38134
L29949 38153
L29987 38172
L30043 38172
L30081 38153
L30099 38134
L30118 38097
L30118 37947
" />
<path d="M29912 38303
L29912 38565
L30306 38397
" />
<path d="M29949 38697
L29931 38715
L29912 38753
L29912 38847
L29931 38884
L29949 38903
L29987 38922
L30024 38922
L30081 38903
L30306 38678
L30306 38922
" />
<path d="M24241 38172
L24053 38040
" />
<path d="M24241 37947
L23847 37947
L23847 38097
L23866 38134
L23884 38153
L23922 38172
L23978 38172
L24016 38153
L24034 38134
L24053 38097
L24053 37947
" />
<path d="M24241 38547
L24241 38322
" />
<path d="M24241 38434
L23847 38434
L23903 38397
L23941 38359
L23959 38322
" />
<path d="M23884 38697
L23866 38715
L23847 38753
L23847 38847
L23866 38884
L23884 38903
L23922 38922
L23959 38922
L24016 38903
L24241 38678
L24241 38922
" />
<path d="M18264 38172
L18077 38040
" />
<path d="M18264 37947
L17871 37947
L17871 38097
L17889 38134
L17908 38153
L17946 38172
L18002 38172
L18039 38153
L18058 38134
L18077 38097
L18077 37947
" />
<path d="M18264 38547
L18264 38322
" />
<path d="M18264 38434
L17871 38434
L17927 38397
L17964 38359
L17983 38322
" />
<path d="M17871 38903
L17871 38715
L18058 38697
L18039 38715
L18020 38753
L18020 38847
L18039 38884
L18058 38903
L18095 38922
L18189 38922
L18227 38903
L18245 38884
L18264 38847
L18264 38753
L18245 38715
L18227 38697
" />
<path d="M12449 38172
L12262 38040
" />
<path d="M12449 37947
L12056 37947
L12056 38097
L12074 38134
L12093 38153
L12131 38172
L12187 38172
L12224 38153
L12243 38134
L12262 38097
L12262 37947
" />
<path d="M12056 38509
L12056 38434
L12074 38397
L12093 38378
L12149 38340
L12224 38322
L12374 38322
L12412 38340
L12431 38359
L12449 38397
L12449 38472
L12431 38509
L12412 38528
L12374 38547
L12281 38547
L12243 38528
L12224 38509
L12206 38472
L12206 38397
L12224 38359
L12243 38340
L12281 38322
" />
<path d="M12449 38734
L12449 38809
L12431 38847
L12412 38865
L12356 38903
L12281 38922
L12131 38922
L12093 38903
L12074 38884
L12056 38847
L12056 38772
L12074 38734
L12093 38715
L12131 38697
L12224 38697
L12262 38715
L12281 38734
L12299 38772
L12299 38847
L12281 38884
L12262 38903
L12224 38922
" />
<path d="M6622 38172
L6435 38040
" />
<path d="M6622 37947
L6229 37947
L6229 38097
L6248 38134
L6266 38153
L6304 38172
L6360 38172
L6398 38153
L6416 38134
L6435 38097
L6435 37947
" />
<path d="M6622 38547
L6622 38322
" />
<path d="M6622 38434
L6229 38434
L6285 38397
L6323 38359
L6341 38322
" />
<path d="M6398 38772
L6379 38734
L6360 38715
L6323 38697
L6304 38697
L6266 38715
L6248 38734
L6229 38772
L6229 38847
L6248 38884
L6266 38903
L6304 38922
L6323 38922
L6360 38903
L6379 38884
L6398 38847
L6398 38772
L6416 38734
L6435 38715
L6473 38697
L6547 38697
L6585 38715
L6604 38734
L6622 38772
L6622 38847
L6604 38884
L6585 38903
L6547 38922
L6473 38922
L6435 38903
L6416 38884
L6398 38847
" />
<path d="M1434 28260
L1565 28073
" />
<path d="M1659 28260
L1659 27867
L1509 27867
L1471 27885
L1452 27904
L1434 27942
L1434 27998
L1452 28035
L1471 28054
L1509 28073
L1659 28073
" />
<path d="M1284 27904
L1265 27885
L1227 27867
L1134 27867
L1096 27885
L1077 27904
L1059 27942
L1059 27979
L1077 28035
L1302 28260
L1059 28260
" />
<path d="M684 28260
L909 28260
" />
<path d="M796 28260
L796 27867
L834 27923
L871 27960
L909 27979
" />
<path d="M1434 20559
L1565 20372
" />
<path d="M1659 20559
L1659 20166
L1509 20166
L1471 20185
L1452 20203
L1434 20241
L1434 20297
L1452 20335
L1471 20353
L1509 20372
L1659 20372
" />
<path d="M1284 20203
L1265 20185
L1227 20166
L1134 20166
L1096 20185
L1077 20203
L1059 20241
L1059 20278
L1077 20335
L1302 20559
L1059 20559
" />
<path d="M703 20166
L890 20166
L909 20353
L890 20335
L853 20316
L759 20316
L721 20335
L703 20353
L684 20391
L684 20485
L703 20522
L721 20541
L759 20559
L853 20559
L890 20541
L909 20522
" />
<path d="M19839 2489
L19970 2301
" />
<path d="M20064 2489
L20064 2095
L19914 2095
L19877 2114
L19858 2132
L19839 2170
L19839 2226
L19858 2264
L19877 2282
L19914 2301
L20064 2301
" />
<path d="M19689 2132
L19670 2114
L19633 2095
L19539 2095
L19502 2114
L19483 2132
L19464 2170
L19464 2207
L19483 2264
L19708 2489
L19464 2489
" />
<path d="M19239 2264
L19277 2245
L19296 2226
L19314 2189
L19314 2170
L19296 2132
L19277 2114
L19239 2095
L19164 2095
L19127 2114
L19108 2132
L19089 2170
L19089 2189
L19108 2226
L19127 2245
L19164 2264
L19239 2264
L19277 2282
L19296 2301
L19314 2339
L19314 2414
L19296 2451
L19277 2470
L19239 2489
L19164 2489
L19127 2470
L19108 2451
L19089 2414
L19089 2339
L19108 2301
L19127 2282
L19164 2264
" />
<path d="M20414 7739
L20226 7607
" />
<path d="M20414 7514
L20020 7514
L20020 7664
L20039 7701
L20058 7720
L20095 7739
L20151 7739
L20189 7720
L20208 7701
L20226 7664
L20226 7514
" />
<path d="M20058 7889
L20039 7907
L20020 7945
L20020 8038
L20039 8076
L20058 8095
L20095 8113
L20133 8113
L20189 8095
L20414 7870
L20414 8113
" />
<path d="M20020 8245
L20020 8507
L20414 8338
" />
<path d="M18445 7739
L18258 7607
" />
<path d="M18445 7514
L18052 7514
L18052 7664
L18070 7701
L18089 7720
L18127 7739
L18183 7739
L18220 7720
L18239 7701
L18258 7664
L18258 7514
" />
<path d="M18089 7889
L18070 7907
L18052 7945
L18052 8038
L18070 8076
L18089 8095
L18127 8113
L18164 8113
L18220 8095
L18445 7870
L18445 8113
" />
<path d="M18052 8451
L18052 8376
L18070 8338
L18089 8320
L18145 8282
L18220 8263
L18370 8263
L18408 8282
L18427 8301
L18445 8338
L18445 8413
L18427 8451
L18408 8470
L18370 8488
L18277 8488
L18239 8470
L18220 8451
L18202 8413
L18202 8338
L18220 8301
L18239 8282
L18277 8263
" />
</g>
<g style="fill:#000000; fill-opacity:0.0; 
stroke:#000000; stroke-width:118.11; stroke-opacity:1; 
stroke-linecap:round; stroke-linejoin:round;">
<path d="M18549 3361
L17787 3361
" />
<path d="M17449 3361
L16687 3361
" />
<path d="M17068 3742
L17068 2980
" />
</g>
<g style="fill:#000000; fill-opacity:0.0; 
stroke:#000000; stroke-width:59.0551; stroke-opacity:1; 
stroke-linecap:round; stroke-linejoin:round;">
<path d="M24455 2489
L24587 2301
" />
<path d="M24680 2489
L24680 2095
L24530 2095
L24493 2114
L24474 2132
L24455 2170
L24455 2226
L24474 2264
L24493 2282
L24530 2301
L24680 2301
" />
<path d="M24099 2095
L24287 2095
L24305 2282
L24287 2264
L24249 2245
L24155 2245
L24118 2264
L24099 2282
L24080 2320
L24080 2414
L24099 2451
L24118 2470
L24155 2489
L24249 2489
L24287 2470
L24305 2451
" />
<path d="M23930 2132
L23912 2114
L23874 2095
L23780 2095
L23743 2114
L23724 2132
L23705 2170
L23705 2207
L23724 2264
L23949 2489
L23705 2489
" />
<path d="M24981 7739
L24793 7607
" />
<path d="M24981 7514
L24587 7514
L24587 7664
L24606 7701
L24625 7720
L24662 7739
L24718 7739
L24756 7720
L24775 7701
L24793 7664
L24793 7514
" />
<path d="M24587 8095
L24587 7907
L24775 7889
L24756 7907
L24737 7945
L24737 8038
L24756 8076
L24775 8095
L24812 8113
L24906 8113
L24943 8095
L24962 8076
L24981 8038
L24981 7945
L24962 7907
L24943 7889
" />
<path d="M24981 8488
L24981 8263
" />
<path d="M24981 8376
L24587 8376
L24643 8338
L24681 8301
L24700 8263
" />
<path d="M23012 7739
L22825 7607
" />
<path d="M23012 7514
L22619 7514
L22619 7664
L22637 7701
L22656 7720
L22694 7739
L22750 7739
L22787 7720
L22806 7701
L22825 7664
L22825 7514
" />
<path d="M22619 8095
L22619 7907
L22806 7889
L22787 7907
L22769 7945
L22769 8038
L22787 8076
L22806 8095
L22844 8113
L22937 8113
L22975 8095
L22994 8076
L23012 8038
L23012 7945
L22994 7907
L22975 7889
" />
<path d="M22619 8357
L22619 8395
L22637 8432
L22656 8451
L22694 8470
L22769 8488
L22862 8488
L22937 8470
L22975 8451
L22994 8432
L23012 8395
L23012 8357
L22994 8320
L22975 8301
L22937 8282
L22862 8263
L22769 8263
L22694 8282
L22656 8301
L22637 8320
L22619 8357
" />
</g>
<g style="fill:#000000; fill-opacity:0.0; 
stroke:#000000; stroke-width:118.11; stroke-opacity:1; 
stroke-linecap:round; stroke-linejoin:round;">
<path d="M22015 3361
L21254 3361
" />
<path d="M21635 3742
L21635 2980
" />
<path d="M23115 3361
L22354 3361
" />
</g>
<g style="fill:#000000; fill-opacity:0.0; 
stroke:#000000; stroke-width:59.0551; stroke-opacity:1; 
stroke-linecap:round; stroke-linejoin:round;">
<path d="M29052 2489
L29183 2301
" />
<path d="M29277 2489
L29277 2095
L29127 2095
L29089 2114
L29071 2132
L29052 2170
L29052 2226
L29071 2264
L29089 2282
L29127 2301
L29277 2301
" />
<path d="M28696 2095
L28883 2095
L28902 2282
L28883 2264
L28846 2245
L28752 2245
L28714 2264
L28696 2282
L28677 2320
L28677 2414
L28696 2451
L28714 2470
L28752 2489
L28846 2489
L28883 2470
L28902 2451
" />
<path d="M28321 2095
L28508 2095
L28527 2282
L28508 2264
L28471 2245
L28377 2245
L28339 2264
L28321 2282
L28302 2320
L28302 2414
L28321 2451
L28339 2470
L28377 2489
L28471 2489
L28508 2470
L28527 2451
" />
<path d="M29626 7739
L29439 7607
" />
<path d="M29626 7514
L29233 7514
L29233 7664
L29251 7701
L29270 7720
L29308 7739
L29364 7739
L29401 7720
L29420 7701
L29439 7664
L29439 7514
" />
<path d="M29233 8095
L29233 7907
L29420 7889
L29401 7907
L29383 7945
L29383 8038
L29401 8076
L29420 8095
L29458 8113
L29551 8113
L29589 8095
L29608 8076
L29626 8038
L29626 7945
L29608 7907
L29589 7889
" />
<path d="M29364 8451
L29626 8451
" />
<path d="M29214 8357
L29495 8263
L29495 8507
" />
<path d="M27658 7739
L27470 7607
" />
<path d="M27658 7514
L27264 7514
L27264 7664
L27283 7701
L27302 7720
L27339 7739
L27395 7739
L27433 7720
L27452 7701
L27470 7664
L27470 7514
" />
<path d="M27264 8095
L27264 7907
L27452 7889
L27433 7907
L27414 7945
L27414 8038
L27433 8076
L27452 8095
L27489 8113
L27583 8113
L27620 8095
L27639 8076
L27658 8038
L27658 7945
L27639 7907
L27620 7889
" />
<path d="M27264 8245
L27264 8488
L27414 8357
L27414 8413
L27433 8451
L27452 8470
L27489 8488
L27583 8488
L27620 8470
L27639 8451
L27658 8413
L27658 8301
L27639 8263
L27620 8245
" />
</g>
<g style="fill:#000000; fill-opacity:0.0; 
stroke:#000000; stroke-width:118.11; stroke-opacity:1; 
stroke-linecap:round; stroke-linejoin:round;">
<path d="M26661 3361
L25899 3361
" />
<path d="M26280 3742
L26280 2980
" />
<path d="M27761 3361
L26999 3361
" />
</g>
<g style="fill:#000000; fill-opacity:0.0; 
stroke:#000000; stroke-width:59.0551; stroke-opacity:1; 
stroke-linecap:round; stroke-linejoin:round;">
<path d="M4327 13014
L4346 13033
L4402 13052
L4440 13052
L4496 13033
L4534 12995
L4552 12958
L4571 12883
L4571 12827
L4552 12752
L4534 12714
L4496 12677
L4440 12658
L4402 12658
L4346 12677
L4327 12695
" />
<path d="M3952 13052
L4177 13052
" />
<path d="M4065 13052
L4065 12658
L4102 12714
L4140 12752
L4177 12770
" />
<path d="M3596 12658
L3784 12658
L3802 12845
L3784 12827
L3746 12808
L3652 12808
L3615 12827
L3596 12845
L3577 12883
L3577 12977
L3596 13014
L3615 13033
L3652 13052
L3746 13052
L3784 13033
L3802 13014
" />
<path d="M9625 11824
L9644 11843
L9700 11861
L9738 11861
L9794 11843
L9831 11805
L9850 11768
L9869 11693
L9869 11636
L9850 11561
L9831 11524
L9794 11486
L9738 11468
L9700 11468
L9644 11486
L9625 11505
" />
<path d="M9250 11861
L9475 11861
" />
<path d="M9363 11861
L9363 11468
L9400 11524
L9438 11561
L9475 11580
" />
<path d="M9119 11468
L8857 11468
L9025 11861
" />
<path d="M15445 5859
L15464 5840
L15483 5784
L15483 5746
L15464 5690
L15426 5652
L15389 5634
L15314 5615
L15258 5615
L15183 5634
L15145 5652
L15108 5690
L15089 5746
L15089 5784
L15108 5840
L15127 5859
" />
<path d="M15483 6234
L15483 6009
" />
<path d="M15483 6121
L15089 6121
L15145 6084
L15183 6046
L15202 6009
" />
<path d="M15258 6459
L15239 6421
L15220 6402
L15183 6384
L15164 6384
L15127 6402
L15108 6421
L15089 6459
L15089 6534
L15108 6571
L15127 6590
L15164 6609
L15183 6609
L15220 6590
L15239 6571
L15258 6534
L15258 6459
L15276 6421
L15295 6402
L15333 6384
L15408 6384
L15445 6402
L15464 6421
L15483 6459
L15483 6534
L15464 6571
L15445 6590
L15408 6609
L15333 6609
L15295 6590
L15276 6571
L15258 6534
" />
<path d="M1483 13024
L1502 13043
L1558 13061
L1595 13061
L1652 13043
L1689 13005
L1708 12968
L1727 12893
L1727 12836
L1708 12761
L1689 12724
L1652 12687
L1595 12668
L1558 12668
L1502 12687
L1483 12705
" />
<path d="M1108 13061
L1333 13061
" />
<path d="M1220 13061
L1220 12668
L1258 12724
L1295 12761
L1333 12780
" />
<path d="M770 12799
L770 13061
" />
<path d="M864 12649
L958 12930
L714 12930
" />
<path d="M7005 11802
L7023 11820
L7080 11839
L7117 11839
L7173 11820
L7211 11783
L7230 11745
L7248 11670
L7248 11614
L7230 11539
L7211 11502
L7173 11464
L7117 11445
L7080 11445
L7023 11464
L7005 11483
" />
<path d="M6630 11839
L6855 11839
" />
<path d="M6742 11839
L6742 11445
L6780 11502
L6817 11539
L6855 11558
" />
<path d="M6292 11445
L6367 11445
L6405 11464
L6423 11483
L6461 11539
L6480 11614
L6480 11764
L6461 11802
L6442 11820
L6405 11839
L6330 11839
L6292 11820
L6273 11802
L6255 11764
L6255 11670
L6273 11633
L6292 11614
L6330 11595
L6405 11595
L6442 11614
L6461 11633
L6480 11670
" />
<path d="M14843 5839
L14655 5708
" />
<path d="M14843 5614
L14449 5614
L14449 5764
L14468 5801
L14487 5820
L14524 5839
L14580 5839
L14618 5820
L14637 5801
L14655 5764
L14655 5614
" />
<path d="M14449 5970
L14449 6214
L14599 6083
L14599 6139
L14618 6176
L14637 6195
L14674 6214
L14768 6214
L14805 6195
L14824 6176
L14843 6139
L14843 6026
L14824 5989
L14805 5970
" />
<path d="M14843 6401
L14843 6476
L14824 6514
L14805 6533
L14749 6570
L14674 6589
L14524 6589
L14487 6570
L14468 6551
L14449 6514
L14449 6439
L14468 6401
L14487 6383
L14524 6364
L14618 6364
L14655 6383
L14674 6401
L14693 6439
L14693 6514
L14674 6551
L14655 6570
L14618 6589
" />
<path d="M15739 5645
L15739 5870
" />
<path d="M16132 5757
L15739 5757
" />
<path d="M16132 6001
L15739 6001
" />
<path d="M15926 6001
L15926 6226
" />
<path d="M16132 6226
L15739 6226
" />
<path d="M16132 6620
L16132 6395
" />
<path d="M16132 6507
L15739 6507
L15795 6470
L15832 6432
L15851 6395
" />
<path d="M10315 1174
L10128 1042
" />
<path d="M10315 949
L9922 949
L9922 1099
L9940 1136
L9959 1155
L9997 1174
L10053 1174
L10090 1155
L10109 1136
L10128 1099
L10128 949
" />
<path d="M9922 1530
L9922 1342
L10109 1324
L10090 1342
L10072 1380
L10072 1474
L10090 1511
L10109 1530
L10147 1549
L10240 1549
L10278 1530
L10297 1511
L10315 1474
L10315 1380
L10297 1342
L10278 1324
" />
<path d="M10315 1736
L10315 1811
L10297 1848
L10278 1867
L10222 1905
L10147 1923
L9997 1923
L9959 1905
L9940 1886
L9922 1848
L9922 1773
L9940 1736
L9959 1717
L9997 1699
L10090 1699
L10128 1717
L10147 1736
L10165 1773
L10165 1848
L10147 1886
L10128 1905
L10090 1923
" />
<path d="M8002 5219
L7815 5088
" />
<path d="M8002 4994
L7609 4994
L7609 5144
L7627 5181
L7646 5200
L7684 5219
L7740 5219
L7777 5200
L7796 5181
L7815 5144
L7815 4994
" />
<path d="M7609 5575
L7609 5388
L7796 5369
L7777 5388
L7759 5425
L7759 5519
L7777 5556
L7796 5575
L7834 5594
L7927 5594
L7965 5575
L7984 5556
L8002 5519
L8002 5425
L7984 5388
L7965 5369
" />
<path d="M7777 5819
L7759 5781
L7740 5763
L7702 5744
L7684 5744
L7646 5763
L7627 5781
L7609 5819
L7609 5894
L7627 5931
L7646 5950
L7684 5969
L7702 5969
L7740 5950
L7759 5931
L7777 5894
L7777 5819
L7796 5781
L7815 5763
L7852 5744
L7927 5744
L7965 5763
L7984 5781
L8002 5819
L8002 5894
L7984 5931
L7965 5950
L7927 5969
L7852 5969
L7815 5950
L7796 5931
L7777 5894
" />
<path d="M7412 5209
L7224 5078
" />
<path d="M7412 4984
L7018 4984
L7018 5134
L7037 5172
L7056 5190
L7093 5209
L7149 5209
L7187 5190
L7206 5172
L7224 5134
L7224 4984
" />
<path d="M7018 5565
L7018 5378
L7206 5359
L7187 5378
L7168 5415
L7168 5509
L7187 5546
L7206 5565
L7243 5584
L7337 5584
L7374 5565
L7393 5546
L7412 5509
L7412 5415
L7393 5378
L7374 5359
" />
<path d="M7018 5715
L7018 5978
L7412 5809
" />
<path d="M8603 5199
L8415 5068
" />
<path d="M8603 4974
L8209 4974
L8209 5124
L8228 5162
L8247 5180
L8284 5199
L8340 5199
L8378 5180
L8397 5162
L8415 5124
L8415 4974
" />
<path d="M8209 5555
L8209 5368
L8397 5349
L8378 5368
L8359 5405
L8359 5499
L8378 5537
L8397 5555
L8434 5574
L8528 5574
L8565 5555
L8584 5537
L8603 5499
L8603 5405
L8584 5368
L8565 5349
" />
<path d="M8209 5912
L8209 5837
L8228 5799
L8247 5780
L8303 5743
L8378 5724
L8528 5724
L8565 5743
L8584 5762
L8603 5799
L8603 5874
L8584 5912
L8565 5930
L8528 5949
L8434 5949
L8397 5930
L8378 5912
L8359 5874
L8359 5799
L8378 5762
L8397 5743
L8434 5724
" />
<path d="M13593 1174
L13405 1042
" />
<path d="M13593 949
L13199 949
L13199 1099
L13218 1136
L13237 1155
L13274 1174
L13330 1174
L13368 1155
L13387 1136
L13405 1099
L13405 949
" />
<path d="M13199 1511
L13199 1436
L13218 1399
L13237 1380
L13293 1342
L13368 1324
L13518 1324
L13555 1342
L13574 1361
L13593 1399
L13593 1474
L13574 1511
L13555 1530
L13518 1549
L13424 1549
L13387 1530
L13368 1511
L13349 1474
L13349 1399
L13368 1361
L13387 1342
L13424 1324
" />
<path d="M13199 1680
L13199 1923
L13349 1792
L13349 1848
L13368 1886
L13387 1905
L13424 1923
L13518 1923
L13555 1905
L13574 1886
L13593 1848
L13593 1736
L13574 1699
L13555 1680
" />
<path d="M11270 5229
L11083 5097
" />
<path d="M11270 5004
L10876 5004
L10876 5154
L10895 5191
L10914 5210
L10951 5229
L11008 5229
L11045 5210
L11064 5191
L11083 5154
L11083 5004
" />
<path d="M10876 5566
L10876 5491
L10895 5454
L10914 5435
L10970 5397
L11045 5379
L11195 5379
L11233 5397
L11251 5416
L11270 5454
L11270 5529
L11251 5566
L11233 5585
L11195 5604
L11101 5604
L11064 5585
L11045 5566
L11026 5529
L11026 5454
L11045 5416
L11064 5397
L11101 5379
" />
<path d="M10914 5754
L10895 5772
L10876 5810
L10876 5904
L10895 5941
L10914 5960
L10951 5979
L10989 5979
L11045 5960
L11270 5735
L11270 5979
" />
<path d="M11900 5268
L11713 5137
" />
<path d="M11900 5043
L11506 5043
L11506 5193
L11525 5231
L11544 5249
L11581 5268
L11638 5268
L11675 5249
L11694 5231
L11713 5193
L11713 5043
" />
<path d="M11506 5606
L11506 5531
L11525 5493
L11544 5474
L11600 5437
L11675 5418
L11825 5418
L11863 5437
L11881 5456
L11900 5493
L11900 5568
L11881 5606
L11863 5624
L11825 5643
L11731 5643
L11694 5624
L11675 5606
L11656 5568
L11656 5493
L11675 5456
L11694 5437
L11731 5418
" />
<path d="M11506 5887
L11506 5924
L11525 5962
L11544 5980
L11581 5999
L11656 6018
L11750 6018
L11825 5999
L11863 5980
L11881 5962
L11900 5924
L11900 5887
L11881 5849
L11863 5830
L11825 5812
L11750 5793
L11656 5793
L11581 5812
L11544 5830
L11525 5849
L11506 5887
" />
<path d="M10699 5258
L10512 5127
" />
<path d="M10699 5033
L10306 5033
L10306 5183
L10324 5221
L10343 5239
L10381 5258
L10437 5258
L10474 5239
L10493 5221
L10512 5183
L10512 5033
" />
<path d="M10306 5596
L10306 5521
L10324 5483
L10343 5464
L10399 5427
L10474 5408
L10624 5408
L10662 5427
L10681 5446
L10699 5483
L10699 5558
L10681 5596
L10662 5614
L10624 5633
L10531 5633
L10493 5614
L10474 5596
L10456 5558
L10456 5483
L10474 5446
L10493 5427
L10531 5408
" />
<path d="M10699 6008
L10699 5783
" />
<path d="M10699 5896
L10306 5896
L10362 5858
L10399 5821
L10418 5783
" />
<path d="M13928 5101
L13740 4970
" />
<path d="M13928 4876
L13534 4876
L13534 5026
L13553 5063
L13571 5082
L13609 5101
L13665 5101
L13703 5082
L13721 5063
L13740 5026
L13740 4876
" />
<path d="M13534 5438
L13534 5363
L13553 5326
L13571 5307
L13628 5269
L13703 5251
L13853 5251
L13890 5269
L13909 5288
L13928 5326
L13928 5401
L13909 5438
L13890 5457
L13853 5476
L13759 5476
L13721 5457
L13703 5438
L13684 5401
L13684 5326
L13703 5288
L13721 5269
L13759 5251
" />
<path d="M13534 5813
L13534 5738
L13553 5701
L13571 5682
L13628 5644
L13703 5626
L13853 5626
L13890 5644
L13909 5663
L13928 5701
L13928 5776
L13909 5813
L13890 5832
L13853 5851
L13759 5851
L13721 5832
L13703 5813
L13684 5776
L13684 5701
L13703 5663
L13721 5644
L13759 5626
" />
<path d="M16221 2748
L16033 2617
" />
<path d="M16221 2523
L15827 2523
L15827 2673
L15846 2711
L15865 2730
L15902 2748
L15958 2748
L15996 2730
L16015 2711
L16033 2673
L16033 2523
" />
<path d="M15827 3086
L15827 3011
L15846 2973
L15865 2955
L15921 2917
L15996 2898
L16146 2898
L16183 2917
L16202 2936
L16221 2973
L16221 3048
L16202 3086
L16183 3105
L16146 3123
L16052 3123
L16015 3105
L15996 3086
L15977 3048
L15977 2973
L15996 2936
L16015 2917
L16052 2898
" />
<path d="M15827 3255
L15827 3517
L16221 3348
" />
<path d="M13485 5111
L13297 4979
" />
<path d="M13485 4886
L13091 4886
L13091 5036
L13110 5073
L13128 5092
L13166 5111
L13222 5111
L13260 5092
L13278 5073
L13297 5036
L13297 4886
" />
<path d="M13091 5448
L13091 5373
L13110 5336
L13128 5317
L13185 5279
L13260 5261
L13410 5261
L13447 5279
L13466 5298
L13485 5336
L13485 5411
L13466 5448
L13447 5467
L13410 5486
L13316 5486
L13278 5467
L13260 5448
L13241 5411
L13241 5336
L13260 5298
L13278 5279
L13316 5261
" />
<path d="M13091 5842
L13091 5654
L13278 5636
L13260 5654
L13241 5692
L13241 5785
L13260 5823
L13278 5842
L13316 5860
L13410 5860
L13447 5842
L13466 5823
L13485 5785
L13485 5692
L13466 5654
L13447 5636
" />
<path d="M5394 8982
L5675 8982
L5732 8964
L5769 8926
L5788 8870
L5788 8832
" />
<path d="M5788 9170
L5394 9170
L5394 9320
L5413 9357
L5432 9376
L5469 9395
L5525 9395
L5563 9376
L5582 9357
L5600 9320
L5600 9170
" />
<path d="M5394 9751
L5394 9564
L5582 9545
L5563 9564
L5544 9601
L5544 9695
L5563 9732
L5582 9751
L5619 9770
L5713 9770
L5750 9751
L5769 9732
L5788 9695
L5788 9601
L5769 9564
L5750 9545
" />
<path d="M4741 3239
L4760 3257
L4816 3276
L4853 3276
L4910 3257
L4947 3220
L4966 3182
L4985 3107
L4985 3051
L4966 2976
L4947 2939
L4910 2901
L4853 2882
L4816 2882
L4760 2901
L4741 2920
" />
<path d="M4366 3276
L4591 3276
" />
<path d="M4478 3276
L4478 2882
L4516 2939
L4553 2976
L4591 2995
" />
<path d="M4178 3276
L4103 3276
L4066 3257
L4047 3239
L4010 3182
L3991 3107
L3991 2957
L4010 2920
L4028 2901
L4066 2882
L4141 2882
L4178 2901
L4197 2920
L4216 2957
L4216 3051
L4197 3089
L4178 3107
L4141 3126
L4066 3126
L4028 3107
L4010 3089
L3991 3051
" />
</g>
<g style="fill:#000000; fill-opacity:0.0; 
stroke:#000000; stroke-width:118.11; stroke-opacity:1; 
stroke-linecap:round; stroke-linejoin:round;">
<path d="M3400 8259
L3400 9021
" />
<path d="M3781 8640
L3019 8640
" />
<path d="M3400 7159
L3400 7921
" />
</g>
<g style="fill:#000000; fill-opacity:0.0; 
stroke:#000000; stroke-width:59.0551; stroke-opacity:1; 
stroke-linecap:round; stroke-linejoin:round;">
<path d="M5107 7359
L5107 7134
" />
<path d="M5107 7246
L4713 7246
L4769 7209
L4807 7171
L4826 7134
" />
<path d="M4751 7509
L4732 7528
L4713 7565
L4713 7659
L4732 7696
L4751 7715
L4788 7734
L4826 7734
L4882 7715
L5107 7490
L5107 7734
" />
<path d="M4713 7846
L5107 7978
L4713 8109
" />
<path d="M5107 8240
L4713 8240
" />
<path d="M5107 8428
L4713 8428
L5107 8652
L4713 8652
" />
<path d="M4751 8821
L4732 8840
L4713 8877
L4713 8971
L4732 9009
L4751 9027
L4788 9046
L4826 9046
L4882 9027
L5107 8802
L5107 9046
" />
<path d="M5107 10145
L5107 9920
" />
<path d="M5107 10032
L4713 10032
L4769 9995
L4807 9957
L4826 9920
" />
<path d="M4751 10295
L4732 10314
L4713 10351
L4713 10445
L4732 10482
L4751 10501
L4788 10520
L4826 10520
L4882 10501
L5107 10276
L5107 10520
" />
<path d="M4713 10632
L5107 10763
L4713 10895
" />
<path d="M5107 11026
L4713 11026
" />
<path d="M5107 11213
L4713 11213
L5107 11438
L4713 11438
" />
</g>
<g style="fill:#000000; fill-opacity:0.0; 
stroke:#000000; stroke-width:118.11; stroke-opacity:1; 
stroke-linecap:round; stroke-linejoin:round;">
<path d="M3400 9758
L3400 10519
" />
<path d="M3400 10858
L3400 11619
" />
<path d="M3781 11238
L3019 11238
" />
<path d="M3400 5602
L3400 6364
" />
<path d="M3781 5983
L3019 5983
" />
<path d="M3400 4502
L3400 5264
" />
</g>
<g style="fill:#000000; fill-opacity:0.0; 
stroke:#000000; stroke-width:59.0551; stroke-opacity:1; 
stroke-linecap:round; stroke-linejoin:round;">
<path d="M5107 4420
L5107 4195
" />
<path d="M5107 4308
L4713 4308
L4769 4270
L4807 4233
L4826 4195
" />
<path d="M4751 4570
L4732 4589
L4713 4626
L4713 4720
L4732 4758
L4751 4776
L4788 4795
L4826 4795
L4882 4776
L5107 4551
L5107 4795
" />
<path d="M4713 4908
L5107 5039
L4713 5170
" />
<path d="M4694 5583
L5200 5245
" />
<path d="M4713 5789
L4713 5864
L4732 5901
L4769 5939
L4844 5958
L4976 5958
L5050 5939
L5088 5901
L5107 5864
L5107 5789
L5088 5751
L5050 5714
L4976 5695
L4844 5695
L4769 5714
L4732 5751
L4713 5789
" />
<path d="M4713 6126
L5032 6126
L5069 6145
L5088 6164
L5107 6201
L5107 6276
L5088 6314
L5069 6332
L5032 6351
L4713 6351
" />
<path d="M4713 6482
L4713 6707
" />
<path d="M5107 6595
L4713 6595
" />
<path d="M36487 2837
L36299 2706
" />
<path d="M36487 2612
L36093 2612
L36093 2762
L36112 2799
L36130 2818
L36168 2837
L36224 2837
L36262 2818
L36280 2799
L36299 2762
L36299 2612
" />
<path d="M36093 2968
L36093 3212
L36243 3081
L36243 3137
L36262 3174
L36280 3193
L36318 3212
L36412 3212
L36449 3193
L36468 3174
L36487 3137
L36487 3024
L36468 2987
L36449 2968
" />
<path d="M36224 3549
L36487 3549
" />
<path d="M36074 3456
L36355 3362
L36355 3606
" />
<path d="M35758 2827
L35571 2696
" />
<path d="M35758 2602
L35365 2602
L35365 2752
L35383 2790
L35402 2808
L35440 2827
L35496 2827
L35533 2808
L35552 2790
L35571 2752
L35571 2602
" />
<path d="M35365 2958
L35365 3202
L35515 3071
L35515 3127
L35533 3165
L35552 3183
L35590 3202
L35683 3202
L35721 3183
L35740 3165
L35758 3127
L35758 3015
L35740 2977
L35721 2958
" />
<path d="M35365 3333
L35365 3577
L35515 3446
L35515 3502
L35533 3540
L35552 3558
L35590 3577
L35683 3577
L35721 3558
L35740 3540
L35758 3502
L35758 3390
L35740 3352
L35721 3333
" />
<path d="M34695 2837
L34508 2706
" />
<path d="M34695 2612
L34302 2612
L34302 2762
L34320 2799
L34339 2818
L34377 2837
L34433 2837
L34470 2818
L34489 2799
L34508 2762
L34508 2612
" />
<path d="M34302 2968
L34302 3212
L34452 3081
L34452 3137
L34470 3174
L34489 3193
L34527 3212
L34620 3212
L34658 3193
L34677 3174
L34695 3137
L34695 3024
L34677 2987
L34658 2968
" />
<path d="M34339 3362
L34320 3381
L34302 3418
L34302 3512
L34320 3549
L34339 3568
L34377 3587
L34414 3587
L34470 3568
L34695 3343
L34695 3587
" />
<path d="M33869 2827
L33681 2696
" />
<path d="M33869 2602
L33475 2602
L33475 2752
L33494 2790
L33512 2808
L33550 2827
L33606 2827
L33644 2808
L33662 2790
L33681 2752
L33681 2602
" />
<path d="M33475 2958
L33475 3202
L33625 3071
L33625 3127
L33644 3165
L33662 3183
L33700 3202
L33794 3202
L33831 3183
L33850 3165
L33869 3127
L33869 3015
L33850 2977
L33831 2958
" />
<path d="M33869 3577
L33869 3352
" />
<path d="M33869 3465
L33475 3465
L33531 3427
L33569 3390
L33587 3352
" />
<path d="M32953 2857
L32766 2725
" />
<path d="M32953 2632
L32559 2632
L32559 2782
L32578 2819
L32597 2838
L32634 2857
L32691 2857
L32728 2838
L32747 2819
L32766 2782
L32766 2632
" />
<path d="M32559 2988
L32559 3232
L32709 3100
L32709 3157
L32728 3194
L32747 3213
L32784 3232
L32878 3232
L32916 3213
L32934 3194
L32953 3157
L32953 3044
L32934 3007
L32916 2988
" />
<path d="M32559 3475
L32559 3513
L32578 3550
L32597 3569
L32634 3588
L32709 3607
L32803 3607
L32878 3588
L32916 3569
L32934 3550
L32953 3513
L32953 3475
L32934 3438
L32916 3419
L32878 3400
L32803 3382
L32709 3382
L32634 3400
L32597 3419
L32578 3438
L32559 3475
" />
<path d="M32225 2886
L32037 2755
" />
<path d="M32225 2661
L31831 2661
L31831 2811
L31850 2849
L31869 2867
L31906 2886
L31962 2886
L32000 2867
L32019 2849
L32037 2811
L32037 2661
" />
<path d="M31869 3036
L31850 3055
L31831 3092
L31831 3186
L31850 3224
L31869 3242
L31906 3261
L31944 3261
L32000 3242
L32225 3017
L32225 3261
" />
<path d="M32225 3449
L32225 3524
L32206 3561
L32187 3580
L32131 3617
L32056 3636
L31906 3636
L31869 3617
L31850 3599
L31831 3561
L31831 3486
L31850 3449
L31869 3430
L31906 3411
L32000 3411
L32037 3430
L32056 3449
L32075 3486
L32075 3561
L32056 3599
L32037 3617
L32000 3636
" />
<g >
</g>
</g> 
</svg>
