<?xml version="1.0" standalone="no"?>
 <!DOCTYPE svg PUBLIC "-//W3C//DTD SVG 1.1//EN" 
 "http://www.w3.org/Graphics/SVG/1.1/DTD/svg11.dtd"> 
<svg xmlns="http://www.w3.org/2000/svg" version="1.1" 
    width="29.7002cm" height="21.0007cm" viewBox="0 0 116930 82680 ">
<title>SVG Picture created as printer-board-F_CrtYd.svg date 2019/05/06 18:12:30 </title>
  <desc>Picture generated by PCBNEW </desc>
<g style="fill:#000000; fill-opacity:1;stroke:#000000; stroke-opacity:1;
stroke-linecap:round; stroke-linejoin:round; "
 transform="translate(0 0) scale(1 1)">
</g>
<g style="fill:#000000; fill-opacity:0.0; 
stroke:#000000; stroke-width:-0.000393701; stroke-opacity:1; 
stroke-linecap:round; stroke-linejoin:round;">
</g>
<g style="fill:#000000; fill-opacity:0.0; 
stroke:#000000; stroke-width:19.685; stroke-opacity:1; 
stroke-linecap:round; stroke-linejoin:round;">
<circle cx="1181.1" cy="38189" r="1161.42" /> 
<circle cx="38189" cy="38189" r="1161.42" /> 
<circle cx="1181.1" cy="1181.1" r="1161.42" /> 
<circle cx="38189" cy="1181.1" r="1161.42" /> 
<path d="M13543 15669
L12125 15669
" />
<path d="M13543 20078
L13543 15669
" />
<path d="M12125 20078
L13543 20078
" />
<path d="M12125 15669
L12125 20078
" />
<path d="M6929 2921
L8937 2921
" />
<path d="M6929 2921
L6929 5169
" />
<path d="M8937 5169
L8937 2921
" />
<path d="M8937 5169
L6929 5169
" />
<path d="M10078 2921
L12086 2921
" />
<path d="M10078 2921
L10078 5169
" />
<path d="M12086 5169
L12086 2921
" />
<path d="M12086 5169
L10078 5169
" />
<path d="M13425 2921
L15433 2921
" />
<path d="M13425 2921
L13425 5169
" />
<path d="M15433 5169
L15433 2921
" />
<path d="M15433 5169
L13425 5169
" />
<path d="M17133 18681
L19259 18681
" />
<path d="M17133 15744
L19259 15744
" />
<path d="M17133 18681
L17133 15744
" />
<path d="M19259 18681
L19259 15744
" />
<path d="M16897 14311
L19023 14311
" />
<path d="M16897 11374
L19023 11374
" />
<path d="M16897 14311
L16897 11374
" />
<path d="M19023 14311
L19023 11374
" />
<path d="M25590 3338
L25590 9889
" />
<path d="M30039 3338
L25590 3338
" />
<path d="M30039 9889
L30039 3338
" />
<path d="M25590 9889
L30039 9889
" />
<path d="M20944 3338
L20944 9889
" />
<path d="M25393 3338
L20944 3338
" />
<path d="M25393 9889
L25393 3338
" />
<path d="M20944 9889
L25393 9889
" />
<path d="M16377 9889
L20826 9889
" />
<path d="M20826 9889
L20826 3338
" />
<path d="M20826 3338
L16377 3338
" />
<path d="M16377 3338
L16377 9889
" />
<path d="M14271 15590
L16692 15590
" />
<path d="M14271 10177
L14271 15590
" />
<path d="M16692 10177
L14271 10177
" />
<path d="M16692 15590
L16692 10177
" />
<path d="M13385 15590
L13385 10177
" />
<path d="M13385 10177
L10964 10177
" />
<path d="M10964 10177
L10964 15590
" />
<path d="M10964 15590
L13385 15590
" />
<path d="M29665 29566
L27244 29566
" />
<path d="M29665 32972
L29665 29566
" />
<path d="M27244 32972
L29665 32972
" />
<path d="M27244 29566
L27244 32972
" />
<path d="M30287 2539
L30287 1240
" />
<path d="M30287 2539
L31271 2539
" />
<path d="M31271 1240
L30287 1240
" />
<path d="M31271 1240
L31271 2539
" />
<path d="M9625 9842
L10925 9842
" />
<path d="M9625 9842
L9625 10826
" />
<path d="M10925 10826
L10925 9842
" />
<path d="M10925 10826
L9625 10826
" />
<path d="M10925 9736
L9625 9736
" />
<path d="M10925 9161
L10925 9736
" />
<path d="M9625 9161
L10925 9161
" />
<path d="M9625 9736
L9625 9161
" />
<path d="M10925 9047
L9625 9047
" />
<path d="M10925 8472
L10925 9047
" />
<path d="M9625 8472
L10925 8472
" />
<path d="M9625 9047
L9625 8472
" />
<path d="M22598 14192
L23090 14192
" />
<path d="M22598 13366
L22598 14192
" />
<path d="M23090 13366
L22598 13366
" />
<path d="M23090 14192
L23090 14724
" />
<path d="M23090 12834
L23090 13366
" />
<path d="M23090 12834
L23543 12381
" />
<path d="M23090 14724
L23543 15177
" />
<path d="M23543 12381
L25885 12381
" />
<path d="M23543 15177
L25885 15177
" />
<path d="M25885 14192
L25885 15177
" />
<path d="M26377 14192
L25885 14192
" />
<path d="M26377 13366
L26377 14192
" />
<path d="M25885 13366
L26377 13366
" />
<path d="M25885 12381
L25885 13366
" />
<path d="M20799 15019
L20799 16318
" />
<path d="M20224 15019
L20799 15019
" />
<path d="M20224 16318
L20224 15019
" />
<path d="M20799 16318
L20224 16318
" />
<path d="M19515 16318
L19515 15019
" />
<path d="M20090 16318
L19515 16318
" />
<path d="M20090 15019
L20090 16318
" />
<path d="M19515 15019
L20090 15019
" />
<path d="M19429 15641
L18129 15641
" />
<path d="M19429 15066
L19429 15641
" />
<path d="M18129 15066
L19429 15066
" />
<path d="M18129 15641
L18129 15066
" />
<path d="M18720 10066
L20019 10066
" />
<path d="M18720 10641
L18720 10066
" />
<path d="M20019 10641
L18720 10641
" />
<path d="M20019 10066
L20019 10641
" />
<path d="M19240 12066
L19240 10767
" />
<path d="M19814 12066
L19240 12066
" />
<path d="M19814 10767
L19814 12066
" />
<path d="M19240 10767
L19814 10767
" />
<path d="M19192 11291
L17893 11291
" />
<path d="M19192 10716
L19192 11291
" />
<path d="M17893 10716
L19192 10716
" />
<path d="M17893 11291
L17893 10716
" />
<path d="M31200 5728
L29980 5728
" />
<path d="M31200 9133
L31200 5728
" />
<path d="M29980 9133
L31200 9133
" />
<path d="M29980 5728
L29980 9133
" />
<path d="M10435 15297
L10435 21494
" />
<path d="M10435 15297
L2238 15297
" />
<path d="M2238 21494
L10435 21494
" />
<path d="M2238 21494
L2238 15297
" />
<path d="M37019 30295
L37019 31594
" />
<path d="M36444 30295
L37019 30295
" />
<path d="M36444 31594
L36444 30295
" />
<path d="M37019 31594
L36444 31594
" />
<path d="M15472 5216
L15472 5748
" />
<path d="M15472 5748
L15846 5748
" />
<path d="M15846 5748
L15846 6574
" />
<path d="M15846 6574
L15472 6574
" />
<path d="M15472 6574
L15472 7106
" />
<path d="M14035 7106
L15472 7106
" />
<path d="M14035 5216
L15472 5216
" />
<path d="M13582 6653
L14035 7106
" />
<path d="M13582 5669
L14035 5216
" />
<path d="M13582 5669
L13582 5748
" />
<path d="M13582 6574
L13582 6653
" />
<path d="M13582 5748
L13208 5748
" />
<path d="M13208 5748
L13208 6574
" />
<path d="M13208 6574
L13582 6574
" />
<path d="M6751 6574
L7125 6574
" />
<path d="M6751 5748
L6751 6574
" />
<path d="M7125 5748
L6751 5748
" />
<path d="M7125 6574
L7125 6653
" />
<path d="M7125 5669
L7125 5748
" />
<path d="M7125 5669
L7578 5216
" />
<path d="M7125 6653
L7578 7106
" />
<path d="M7578 5216
L9015 5216
" />
<path d="M7578 7106
L9015 7106
" />
<path d="M9015 6574
L9015 7106
" />
<path d="M9389 6574
L9015 6574
" />
<path d="M9389 5748
L9389 6574
" />
<path d="M9015 5748
L9389 5748
" />
<path d="M9015 5216
L9015 5748
" />
<path d="M12125 5216
L12125 5748
" />
<path d="M12125 5748
L12500 5748
" />
<path d="M12500 5748
L12500 6574
" />
<path d="M12500 6574
L12125 6574
" />
<path d="M12125 6574
L12125 7106
" />
<path d="M10688 7106
L12125 7106
" />
<path d="M10688 5216
L12125 5216
" />
<path d="M10236 6653
L10688 7106
" />
<path d="M10236 5669
L10688 5216
" />
<path d="M10236 5669
L10236 5748
" />
<path d="M10236 6574
L10236 6653
" />
<path d="M10236 5748
L9862 5748
" />
<path d="M9862 5748
L9862 6574
" />
<path d="M9862 6574
L10236 6574
" />
<path d="M30649 27216
L29350 27216
" />
<path d="M30649 26641
L30649 27216
" />
<path d="M29350 26641
L30649 26641
" />
<path d="M29350 27216
L29350 26641
" />
<path d="M29350 26625
L29350 26051
" />
<path d="M29350 26051
L30649 26051
" />
<path d="M30649 26051
L30649 26625
" />
<path d="M30649 26625
L29350 26625
" />
<path d="M20570 21200
L20570 24114
" />
<path d="M20570 24114
L21791 24114
" />
<path d="M21791 24114
L21791 21200
" />
<path d="M21791 21200
L20570 21200
" />
<path d="M15492 7185
L15492 8169
" />
<path d="M15492 8169
L15984 8169
" />
<path d="M15984 8169
L15984 8996
" />
<path d="M15984 8996
L15492 8996
" />
<path d="M15492 8996
L15492 9980
" />
<path d="M13149 9980
L15492 9980
" />
<path d="M13149 7185
L15492 7185
" />
<path d="M12696 9527
L13149 9980
" />
<path d="M12696 7637
L13149 7185
" />
<path d="M12696 7637
L12696 8169
" />
<path d="M12696 8996
L12696 9527
" />
<path d="M12696 8169
L12204 8169
" />
<path d="M12204 8169
L12204 8996
" />
<path d="M12204 8996
L12696 8996
" />
<path d="M12066 16122
L10846 16122
" />
<path d="M12066 19035
L12066 16122
" />
<path d="M10846 19035
L12066 19035
" />
<path d="M10846 16122
L10846 19035
" />
<path d="M11536 24015
L10961 24015
" />
<path d="M10961 24015
L10961 22716
" />
<path d="M10961 22716
L11536 22716
" />
<path d="M11536 22716
L11536 24015
" />
<path d="M11463 24167
L9904 25726
" />
<path d="M9904 25726
L13272 29094
" />
<path d="M13272 29094
L14831 27535
" />
<path d="M14831 27535
L11463 24167
" />
<path d="M18780 25018
L19921 26160
" />
<path d="M16052 27746
L18780 25018
" />
<path d="M17193 28888
L16052 27746
" />
<path d="M19921 26160
L17193 28888
" />
<path d="M19038 28442
L19038 27143
" />
<path d="M19613 28442
L19038 28442
" />
<path d="M19613 27143
L19613 28442
" />
<path d="M19038 27143
L19613 27143
" />
<path d="M36830 34072
L36830 35057
" />
<path d="M36830 35057
L37283 35057
" />
<path d="M37283 35057
L37283 35883
" />
<path d="M37283 35883
L36830 35883
" />
<path d="M36830 35883
L36830 36868
" />
<path d="M34488 36868
L36830 36868
" />
<path d="M34488 34072
L36830 34072
" />
<path d="M34035 36415
L34488 36868
" />
<path d="M34035 34525
L34488 34072
" />
<path d="M34035 34525
L34035 35057
" />
<path d="M34035 35883
L34035 36415
" />
<path d="M34035 35057
L33582 35057
" />
<path d="M33582 35057
L33582 35883
" />
<path d="M33582 35883
L34035 35883
" />
<path d="M37019 31712
L37019 33011
" />
<path d="M36444 31712
L37019 31712
" />
<path d="M36444 33011
L36444 31712
" />
<path d="M37019 33011
L36444 33011
" />
<path d="M36082 29566
L33661 29566
" />
<path d="M36082 32972
L36082 29566
" />
<path d="M33661 32972
L36082 32972
" />
<path d="M33661 29566
L33661 32972
" />
<path d="M35868 39074
L35868 37775
" />
<path d="M36442 39074
L35868 39074
" />
<path d="M36442 37775
L36442 39074
" />
<path d="M35868 37775
L36442 37775
" />
<path d="M37019 30177
L36444 30177
" />
<path d="M36444 30177
L36444 28877
" />
<path d="M36444 28877
L37019 28877
" />
<path d="M37019 28877
L37019 30177
" />
<path d="M32391 28671
L38588 28671
" />
<path d="M32391 28671
L32391 36868
" />
<path d="M38588 36868
L38588 28671
" />
<path d="M38588 36868
L32391 36868
" />
<path d="M30492 34072
L30492 35057
" />
<path d="M30492 35057
L30944 35057
" />
<path d="M30944 35057
L30944 35883
" />
<path d="M30944 35883
L30492 35883
" />
<path d="M30492 35883
L30492 36868
" />
<path d="M28149 36868
L30492 36868
" />
<path d="M28149 34072
L30492 34072
" />
<path d="M27696 36415
L28149 36868
" />
<path d="M27696 34525
L28149 34072
" />
<path d="M27696 34525
L27696 35057
" />
<path d="M27696 35883
L27696 36415
" />
<path d="M27696 35057
L27244 35057
" />
<path d="M27244 35057
L27244 35883
" />
<path d="M27244 35883
L27696 35883
" />
<path d="M30681 31712
L30681 33011
" />
<path d="M30106 31712
L30681 31712
" />
<path d="M30106 33011
L30106 31712
" />
<path d="M30681 33011
L30106 33011
" />
<path d="M30405 39074
L30405 37775
" />
<path d="M30980 39074
L30405 39074
" />
<path d="M30980 37775
L30980 39074
" />
<path d="M30405 37775
L30980 37775
" />
<path d="M30681 31594
L30106 31594
" />
<path d="M30106 31594
L30106 30295
" />
<path d="M30106 30295
L30681 30295
" />
<path d="M30681 30295
L30681 31594
" />
<path d="M30681 28877
L30681 30177
" />
<path d="M30106 28877
L30681 28877
" />
<path d="M30106 30177
L30106 28877
" />
<path d="M30681 30177
L30106 30177
" />
<path d="M32239 36868
L26042 36868
" />
<path d="M32239 36868
L32239 28671
" />
<path d="M26042 28671
L26042 36868
" />
<path d="M26042 28671
L32239 28671
" />
<path d="M24055 34072
L24055 35057
" />
<path d="M24055 35057
L24507 35057
" />
<path d="M24507 35057
L24507 35883
" />
<path d="M24507 35883
L24055 35883
" />
<path d="M24055 35883
L24055 36868
" />
<path d="M21712 36868
L24055 36868
" />
<path d="M21712 34072
L24055 34072
" />
<path d="M21259 36415
L21712 36868
" />
<path d="M21259 34525
L21712 34072
" />
<path d="M21259 34525
L21259 35057
" />
<path d="M21259 35883
L21259 36415
" />
<path d="M21259 35057
L20807 35057
" />
<path d="M20807 35057
L20807 35883
" />
<path d="M20807 35883
L21259 35883
" />
<path d="M24303 33090
L23728 33090
" />
<path d="M23728 33090
L23728 31791
" />
<path d="M23728 31791
L24303 31791
" />
<path d="M24303 31791
L24303 33090
" />
<path d="M20866 29566
L20866 32972
" />
<path d="M20866 32972
L23287 32972
" />
<path d="M23287 32972
L23287 29566
" />
<path d="M23287 29566
L20866 29566
" />
<path d="M24338 37777
L24913 37777
" />
<path d="M24913 37777
L24913 39076
" />
<path d="M24913 39076
L24338 39076
" />
<path d="M24338 39076
L24338 37777
" />
<path d="M24303 31594
L23728 31594
" />
<path d="M23728 31594
L23728 30295
" />
<path d="M23728 30295
L24303 30295
" />
<path d="M24303 30295
L24303 31594
" />
<path d="M24303 30177
L23728 30177
" />
<path d="M23728 30177
L23728 28877
" />
<path d="M23728 28877
L24303 28877
" />
<path d="M24303 28877
L24303 30177
" />
<path d="M19595 28671
L25792 28671
" />
<path d="M19595 28671
L19595 36868
" />
<path d="M25792 36868
L25792 28671
" />
<path d="M25792 36868
L19595 36868
" />
<path d="M14389 35883
L14842 35883
" />
<path d="M14389 35057
L14389 35883
" />
<path d="M14842 35057
L14389 35057
" />
<path d="M14842 35883
L14842 36415
" />
<path d="M14842 34525
L14842 35057
" />
<path d="M14842 34525
L15295 34072
" />
<path d="M14842 36415
L15295 36868
" />
<path d="M15295 34072
L17637 34072
" />
<path d="M15295 36868
L17637 36868
" />
<path d="M17637 35883
L17637 36868
" />
<path d="M18090 35883
L17637 35883
" />
<path d="M18090 35057
L18090 35883
" />
<path d="M17637 35057
L18090 35057
" />
<path d="M17637 34072
L17637 35057
" />
<path d="M17964 31712
L17964 33011
" />
<path d="M17389 31712
L17964 31712
" />
<path d="M17389 33011
L17389 31712
" />
<path d="M17964 33011
L17389 33011
" />
<path d="M16988 29566
L14566 29566
" />
<path d="M16988 32972
L16988 29566
" />
<path d="M14566 32972
L16988 32972
" />
<path d="M14566 29566
L14566 32972
" />
<path d="M18362 39074
L18362 37775
" />
<path d="M18937 39074
L18362 39074
" />
<path d="M18937 37775
L18937 39074
" />
<path d="M18362 37775
L18937 37775
" />
<path d="M17964 31555
L17389 31555
" />
<path d="M17389 31555
L17389 30255
" />
<path d="M17389 30255
L17964 30255
" />
<path d="M17964 30255
L17964 31555
" />
<path d="M17964 30137
L17389 30137
" />
<path d="M17389 30137
L17389 28838
" />
<path d="M17389 28838
L17964 28838
" />
<path d="M17964 28838
L17964 30137
" />
<path d="M13168 28671
L19364 28671
" />
<path d="M13168 28671
L13168 36868
" />
<path d="M19364 36868
L19364 28671
" />
<path d="M19364 36868
L13168 36868
" />
<path d="M8110 35883
L8562 35883
" />
<path d="M8110 35057
L8110 35883
" />
<path d="M8562 35057
L8110 35057
" />
<path d="M8562 35883
L8562 36415
" />
<path d="M8562 34525
L8562 35057
" />
<path d="M8562 34525
L9015 34072
" />
<path d="M8562 36415
L9015 36868
" />
<path d="M9015 34072
L11358 34072
" />
<path d="M9015 36868
L11358 36868
" />
<path d="M11358 35883
L11358 36868
" />
<path d="M11811 35883
L11358 35883
" />
<path d="M11811 35057
L11811 35883
" />
<path d="M11358 35057
L11811 35057
" />
<path d="M11358 34072
L11358 35057
" />
<path d="M11842 33061
L11267 33061
" />
<path d="M11267 33061
L11267 31761
" />
<path d="M11267 31761
L11842 31761
" />
<path d="M11842 31761
L11842 33061
" />
<path d="M10492 29566
L8070 29566
" />
<path d="M10492 32972
L10492 29566
" />
<path d="M8070 32972
L10492 32972
" />
<path d="M8070 29566
L8070 32972
" />
<path d="M12547 37775
L13122 37775
" />
<path d="M13122 37775
L13122 39074
" />
<path d="M13122 39074
L12547 39074
" />
<path d="M12547 39074
L12547 37775
" />
<path d="M11842 31535
L11267 31535
" />
<path d="M11267 31535
L11267 30236
" />
<path d="M11267 30236
L11842 30236
" />
<path d="M11842 30236
L11842 31535
" />
<path d="M11842 28799
L11842 30098
" />
<path d="M11267 28799
L11842 28799
" />
<path d="M11267 30098
L11267 28799
" />
<path d="M11842 30098
L11267 30098
" />
<path d="M6878 28671
L13075 28671
" />
<path d="M6878 28671
L6878 36868
" />
<path d="M13075 36868
L13075 28671
" />
<path d="M13075 36868
L6878 36868
" />
<path d="M5098 34072
L5098 35057
" />
<path d="M5098 35057
L5551 35057
" />
<path d="M5551 35057
L5551 35883
" />
<path d="M5551 35883
L5098 35883
" />
<path d="M5098 35883
L5098 36868
" />
<path d="M2755 36868
L5098 36868
" />
<path d="M2755 34072
L5098 34072
" />
<path d="M2303 36415
L2755 36868
" />
<path d="M2303 34525
L2755 34072
" />
<path d="M2303 34525
L2303 35057
" />
<path d="M2303 35883
L2303 36415
" />
<path d="M2303 35057
L1850 35057
" />
<path d="M1850 35057
L1850 35883
" />
<path d="M1850 35883
L2303 35883
" />
<path d="M5169 31791
L5169 33090
" />
<path d="M4594 31791
L5169 31791
" />
<path d="M4594 33090
L4594 31791
" />
<path d="M5169 33090
L4594 33090
" />
<path d="M4232 29566
L1811 29566
" />
<path d="M4232 32972
L4232 29566
" />
<path d="M1811 32972
L4232 32972
" />
<path d="M1811 29566
L1811 32972
" />
<path d="M6720 37757
L7295 37757
" />
<path d="M7295 37757
L7295 39057
" />
<path d="M7295 39057
L6720 39057
" />
<path d="M6720 39057
L6720 37757
" />
<path d="M5169 28740
L5169 30039
" />
<path d="M4594 28740
L5169 28740
" />
<path d="M4594 30039
L4594 28740
" />
<path d="M5169 30039
L4594 30039
" />
<path d="M5169 30265
L5169 31564
" />
<path d="M4594 30265
L5169 30265
" />
<path d="M4594 31564
L4594 30265
" />
<path d="M5169 31564
L4594 31564
" />
<path d="M6805 36868
L608 36868
" />
<path d="M6805 36868
L6805 28671
" />
<path d="M608 28671
L608 36868
" />
<path d="M608 28671
L6805 28671
" />
<path d="M3222 23208
L3222 23661
" />
<path d="M4049 23208
L3222 23208
" />
<path d="M4049 23661
L4049 23208
" />
<path d="M3222 23661
L2690 23661
" />
<path d="M4580 23661
L4049 23661
" />
<path d="M4580 23661
L5033 24114
" />
<path d="M2690 23661
L2238 24114
" />
<path d="M5033 24114
L5033 26456
" />
<path d="M2238 24114
L2238 26456
" />
<path d="M3222 26456
L2238 26456
" />
<path d="M3222 26909
L3222 26456
" />
<path d="M4049 26909
L3222 26909
" />
<path d="M4049 26456
L4049 26909
" />
<path d="M5033 26456
L4049 26456
" />
<path d="M7263 26547
L5964 26547
" />
<path d="M7263 25972
L7263 26547
" />
<path d="M5964 25972
L7263 25972
" />
<path d="M5964 26547
L5964 25972
" />
<path d="M9566 23169
L6161 23169
" />
<path d="M6161 23169
L6161 25590
" />
<path d="M6161 25590
L9566 25590
" />
<path d="M9566 25590
L9566 23169
" />
<path d="M1830 27807
L531 27807
" />
<path d="M1830 27232
L1830 27807
" />
<path d="M531 27232
L1830 27232
" />
<path d="M531 27807
L531 27232
" />
<path d="M8956 26547
L8956 25972
" />
<path d="M8956 25972
L10255 25972
" />
<path d="M10255 25972
L10255 26547
" />
<path d="M10255 26547
L8956 26547
" />
<path d="M7460 26547
L7460 25972
" />
<path d="M7460 25972
L8759 25972
" />
<path d="M8759 25972
L8759 26547
" />
<path d="M8759 26547
L7460 26547
" />
<path d="M2238 28139
L2238 21942
" />
<path d="M2238 28139
L10435 28139
" />
<path d="M10435 21942
L2238 21942
" />
<path d="M10435 21942
L10435 28139
" />
<path d="M5033 19822
L4049 19822
" />
<path d="M4049 19822
L4049 20275
" />
<path d="M4049 20275
L3222 20275
" />
<path d="M3222 20275
L3222 19822
" />
<path d="M3222 19822
L2238 19822
" />
<path d="M2238 17480
L2238 19822
" />
<path d="M5033 17480
L5033 19822
" />
<path d="M2690 17027
L2238 17480
" />
<path d="M4580 17027
L5033 17480
" />
<path d="M4580 17027
L4049 17027
" />
<path d="M3222 17027
L2690 17027
" />
<path d="M4049 17027
L4049 16574
" />
<path d="M4049 16574
L3222 16574
" />
<path d="M3222 16574
L3222 17027
" />
<path d="M7263 19893
L5964 19893
" />
<path d="M7263 19318
L7263 19893
" />
<path d="M5964 19318
L7263 19318
" />
<path d="M5964 19893
L5964 19318
" />
<path d="M9527 16535
L6122 16535
" />
<path d="M6122 16535
L6122 18956
" />
<path d="M6122 18956
L9527 18956
" />
<path d="M9527 18956
L9527 16535
" />
<path d="M531 21232
L531 20657
" />
<path d="M531 20657
L1830 20657
" />
<path d="M1830 20657
L1830 21232
" />
<path d="M1830 21232
L531 21232
" />
<path d="M8956 19318
L10255 19318
" />
<path d="M8956 19893
L8956 19318
" />
<path d="M10255 19893
L8956 19893
" />
<path d="M10255 19318
L10255 19893
" />
<path d="M7460 19893
L7460 19318
" />
<path d="M7460 19318
L8759 19318
" />
<path d="M8759 19318
L8759 19893
" />
<path d="M8759 19893
L7460 19893
" />
<path d="M18937 3161
L18937 2586
" />
<path d="M18937 2586
L20236 2586
" />
<path d="M20236 2586
L20236 3161
" />
<path d="M20236 3161
L18937 3161
" />
<path d="M23553 3161
L23553 2586
" />
<path d="M23553 2586
L24852 2586
" />
<path d="M24852 2586
L24852 3161
" />
<path d="M24852 3161
L23553 3161
" />
<path d="M29448 3161
L28149 3161
" />
<path d="M29448 2586
L29448 3161
" />
<path d="M28149 2586
L29448 2586
" />
<path d="M28149 3161
L28149 2586
" />
<path d="M7401 12511
L6102 12511
" />
<path d="M7401 11937
L7401 12511
" />
<path d="M6102 11937
L7401 11937
" />
<path d="M6102 12511
L6102 11937
" />
<path d="M8723 12534
L8723 11959
" />
<path d="M8723 11959
L10022 11959
" />
<path d="M10022 11959
L10022 12534
" />
<path d="M10022 12534
L8723 12534
" />
<path d="M3444 12511
L3444 11937
" />
<path d="M3444 11937
L4744 11937
" />
<path d="M4744 11937
L4744 12511
" />
<path d="M4744 12511
L3444 12511
" />
<path d="M1889 12511
L590 12511
" />
<path d="M1889 11937
L1889 12511
" />
<path d="M590 11937
L1889 11937
" />
<path d="M590 12511
L590 11937
" />
<path d="M9200 1052
L9775 1052
" />
<path d="M9775 1052
L9775 2351
" />
<path d="M9775 2351
L9200 2351
" />
<path d="M9200 2351
L9200 1052
" />
<path d="M12419 2390
L12419 1091
" />
<path d="M12994 2390
L12419 2390
" />
<path d="M12994 1091
L12994 2390
" />
<path d="M12419 1091
L12994 1091
" />
<path d="M15716 1082
L16291 1082
" />
<path d="M16291 1082
L16291 2381
" />
<path d="M16291 2381
L15716 2381
" />
<path d="M15716 2381
L15716 1082
" />
<path d="M3090 3917
L3090 2933
" />
<path d="M3090 2933
L2637 2933
" />
<path d="M2637 2933
L2637 2106
" />
<path d="M2637 2106
L3090 2106
" />
<path d="M3090 2106
L3090 1122
" />
<path d="M5433 1122
L3090 1122
" />
<path d="M5433 3917
L3090 3917
" />
<path d="M5885 1574
L5433 1122
" />
<path d="M5885 3464
L5433 3917
" />
<path d="M5885 3464
L5885 2933
" />
<path d="M5885 2106
L5885 1574
" />
<path d="M5885 2933
L6338 2933
" />
<path d="M6338 2933
L6338 2106
" />
<path d="M6338 2106
L5885 2106
" />
<path d="M36562 1181
L36562 2480
" />
<path d="M35988 1181
L36562 1181
" />
<path d="M35988 2480
L35988 1181
" />
<path d="M36562 2480
L35988 2480
" />
<path d="M35779 1183
L35779 2482
" />
<path d="M35204 1183
L35779 1183
" />
<path d="M35204 2482
L35204 1183
" />
<path d="M35779 2482
L35204 2482
" />
<path d="M34740 1179
L34740 2478
" />
<path d="M34165 1179
L34740 1179
" />
<path d="M34165 2478
L34165 1179
" />
<path d="M34740 2478
L34165 2478
" />
<path d="M33972 1179
L33972 2478
" />
<path d="M33397 1179
L33972 1179
" />
<path d="M33397 2478
L33397 1179
" />
<path d="M33972 2478
L33397 2478
" />
<path d="M33051 1171
L33051 2470
" />
<path d="M32476 1171
L33051 1171
" />
<path d="M32476 2470
L32476 1171
" />
<path d="M33051 2470
L32476 2470
" />
<path d="M32283 1173
L32283 2472
" />
<path d="M31708 1173
L32283 1173
" />
<path d="M31708 2472
L31708 1173
" />
<path d="M32283 2472
L31708 2472
" />
<g >
</g>
<g >
</g>
<g >
</g>
<g >
</g>
<g >
</g>
<g >
</g>
<g >
</g>
<g >
</g>
<g >
</g>
<g >
</g>
<g >
</g>
<g >
</g>
<g >
</g>
<g >
</g>
<g >
</g>
<g >
</g>
<g >
</g>
<g >
</g>
<g >
</g>
<g >
</g>
<g >
</g>
<g >
</g>
<g >
</g>
<g >
</g>
<g >
</g>
<g >
</g>
<g >
</g>
<g >
</g>
<g >
</g>
<g >
</g>
<g >
</g>
<g >
</g>
<g >
</g>
<g >
</g>
<g >
</g>
<g >
</g>
<g >
</g>
<g >
</g>
<g >
</g>
<g >
</g>
<g >
</g>
<g >
</g>
<g >
</g>
<g >
</g>
<g >
</g>
<g >
</g>
<g >
</g>
<g >
</g>
<g >
</g>
<g >
</g>
<g >
</g>
<g >
</g>
<g >
</g>
<g >
</g>
<g >
</g>
<g >
</g>
<g >
</g>
<g >
</g>
<g >
</g>
<g >
</g>
<g >
</g>
<g >
</g>
<g >
</g>
<g >
</g>
<g >
</g>
<g >
</g>
<g >
</g>
<g >
</g>
<g >
</g>
<g >
</g>
<g >
</g>
<g >
</g>
<g >
</g>
<g >
</g>
<g >
</g>
<g >
</g>
<g >
</g>
<g >
</g>
<g >
</g>
<g >
</g>
<g >
</g>
<g >
</g>
<g >
</g>
<g >
</g>
<g >
</g>
<g >
</g>
<g >
</g>
<g >
</g>
<g >
</g>
<g >
</g>
<g >
</g>
<g >
</g>
<g >
</g>
<g >
</g>
<g >
</g>
<g >
</g>
<g >
</g>
<g >
</g>
<g >
</g>
<g >
</g>
<g >
</g>
<g >
</g>
<g >
</g>
<g >
</g>
<g >
</g>
<g >
</g>
<g >
</g>
<g >
</g>
<g >
</g>
<g >
</g>
<g >
</g>
<g >
</g>
<g >
</g>
<g >
</g>
<g >
</g>
<g >
</g>
<g >
</g>
<g >
</g>
<g >
</g>
<g >
</g>
<g >
</g>
<g >
</g>
<g >
</g>
<g >
</g>
<g >
</g>
<g >
</g>
<g >
</g>
<g >
</g>
<g >
</g>
<g >
</g>
<g >
</g>
<g >
</g>
<g >
</g>
<g >
</g>
<g >
</g>
<g >
</g>
<g >
</g>
<g >
</g>
<g >
</g>
<g >
</g>
<g >
</g>
<g >
</g>
<g >
</g>
<g >
</g>
<g >
</g>
<g >
</g>
<g >
</g>
<g >
</g>
<g >
</g>
<g >
</g>
<g >
</g>
<g >
</g>
<g >
</g>
<g >
</g>
<g >
</g>
<g >
</g>
<g >
</g>
<g >
</g>
<g >
</g>
<g >
</g>
<g >
</g>
<g >
</g>
<g >
</g>
<g >
</g>
<g >
</g>
<g >
</g>
<g >
</g>
<g >
</g>
<g >
</g>
<g >
</g>
<g >
</g>
<g >
</g>
<g >
</g>
<g >
</g>
<g >
</g>
<g >
</g>
<g >
</g>
<g >
</g>
<g >
</g>
<g >
</g>
<g >
</g>
<g >
</g>
<g >
</g>
<g >
</g>
<g >
</g>
<g >
</g>
<g >
</g>
<g >
</g>
<g >
</g>
<g >
</g>
<g >
</g>
<g >
</g>
<g >
</g>
<g >
</g>
<g >
</g>
<g >
</g>
<g >
</g>
<g >
</g>
<g >
</g>
<g >
</g>
<g >
</g>
<g >
</g>
<g >
</g>
<g >
</g>
<g >
</g>
<g >
</g>
<g >
</g>
<g >
</g>
<g >
</g>
<g >
</g>
<g >
</g>
<g >
</g>
<g >
</g>
<g >
</g>
<g >
</g>
<g >
</g>
<g >
</g>
<g >
</g>
<g >
</g>
<g >
</g>
<g >
</g>
<g >
</g>
<g >
</g>
<g >
</g>
<g >
</g>
<g >
</g>
<g >
</g>
<g >
</g>
<g >
</g>
<g >
</g>
<g >
</g>
<g >
</g>
<g >
</g>
</g> 
</svg>
