G04 #@! TF.GenerationSoftware,KiCad,Pcbnew,5.1.2-f72e74a~84~ubuntu18.04.1*
G04 #@! TF.CreationDate,2019-06-18T18:41:53+08:00*
G04 #@! TF.ProjectId,printer-board,7072696e-7465-4722-9d62-6f6172642e6b,rev?*
G04 #@! TF.SameCoordinates,Original*
G04 #@! TF.FileFunction,Legend,Bot*
G04 #@! TF.FilePolarity,Positive*
%FSLAX46Y46*%
G04 Gerber Fmt 4.6, Leading zero omitted, Abs format (unit mm)*
G04 Created by KiCad (PCBNEW 5.1.2-f72e74a~84~ubuntu18.04.1) date 2019-06-18 18:41:53*
%MOMM*%
%LPD*%
G04 APERTURE LIST*
%ADD10C,0.150000*%
%ADD11C,0.120000*%
%ADD12C,0.127000*%
G04 APERTURE END LIST*
D10*
X88680952Y-3871428D02*
X87919047Y-3871428D01*
X83585714Y-4204761D02*
X83442857Y-4252380D01*
X83204761Y-4252380D01*
X83109523Y-4204761D01*
X83061904Y-4157142D01*
X83014285Y-4061904D01*
X83014285Y-3966666D01*
X83061904Y-3871428D01*
X83109523Y-3823809D01*
X83204761Y-3776190D01*
X83395238Y-3728571D01*
X83490476Y-3680952D01*
X83538095Y-3633333D01*
X83585714Y-3538095D01*
X83585714Y-3442857D01*
X83538095Y-3347619D01*
X83490476Y-3300000D01*
X83395238Y-3252380D01*
X83157142Y-3252380D01*
X83014285Y-3300000D01*
X86180952Y-3871428D02*
X85419047Y-3871428D01*
X85800000Y-4252380D02*
X85800000Y-3490476D01*
X88680952Y-11871428D02*
X87919047Y-11871428D01*
X83585714Y-12204761D02*
X83442857Y-12252380D01*
X83204761Y-12252380D01*
X83109523Y-12204761D01*
X83061904Y-12157142D01*
X83014285Y-12061904D01*
X83014285Y-11966666D01*
X83061904Y-11871428D01*
X83109523Y-11823809D01*
X83204761Y-11776190D01*
X83395238Y-11728571D01*
X83490476Y-11680952D01*
X83538095Y-11633333D01*
X83585714Y-11538095D01*
X83585714Y-11442857D01*
X83538095Y-11347619D01*
X83490476Y-11300000D01*
X83395238Y-11252380D01*
X83157142Y-11252380D01*
X83014285Y-11300000D01*
X86180952Y-11871428D02*
X85419047Y-11871428D01*
X85800000Y-12252380D02*
X85800000Y-11490476D01*
X83535714Y-20154761D02*
X83392857Y-20202380D01*
X83154761Y-20202380D01*
X83059523Y-20154761D01*
X83011904Y-20107142D01*
X82964285Y-20011904D01*
X82964285Y-19916666D01*
X83011904Y-19821428D01*
X83059523Y-19773809D01*
X83154761Y-19726190D01*
X83345238Y-19678571D01*
X83440476Y-19630952D01*
X83488095Y-19583333D01*
X83535714Y-19488095D01*
X83535714Y-19392857D01*
X83488095Y-19297619D01*
X83440476Y-19250000D01*
X83345238Y-19202380D01*
X83107142Y-19202380D01*
X82964285Y-19250000D01*
X86130952Y-19821428D02*
X85369047Y-19821428D01*
X85750000Y-20202380D02*
X85750000Y-19440476D01*
X88630952Y-19821428D02*
X87869047Y-19821428D01*
X89552500Y-33192857D02*
X89552500Y-31992857D01*
X89552500Y-33135714D02*
X89666785Y-33192857D01*
X89895357Y-33192857D01*
X90009642Y-33135714D01*
X90066785Y-33078571D01*
X90123928Y-32964285D01*
X90123928Y-32621428D01*
X90066785Y-32507142D01*
X90009642Y-32450000D01*
X89895357Y-32392857D01*
X89666785Y-32392857D01*
X89552500Y-32450000D01*
X88523928Y-33135714D02*
X88638214Y-33192857D01*
X88866785Y-33192857D01*
X88981071Y-33135714D01*
X89038214Y-33021428D01*
X89038214Y-32564285D01*
X88981071Y-32450000D01*
X88866785Y-32392857D01*
X88638214Y-32392857D01*
X88523928Y-32450000D01*
X88466785Y-32564285D01*
X88466785Y-32678571D01*
X89038214Y-32792857D01*
X88009642Y-33135714D02*
X87895357Y-33192857D01*
X87666785Y-33192857D01*
X87552500Y-33135714D01*
X87495357Y-33021428D01*
X87495357Y-32964285D01*
X87552500Y-32850000D01*
X87666785Y-32792857D01*
X87838214Y-32792857D01*
X87952500Y-32735714D01*
X88009642Y-32621428D01*
X88009642Y-32564285D01*
X87952500Y-32450000D01*
X87838214Y-32392857D01*
X87666785Y-32392857D01*
X87552500Y-32450000D01*
X86981071Y-33192857D02*
X86981071Y-32392857D01*
X86981071Y-31992857D02*
X87038214Y-32050000D01*
X86981071Y-32107142D01*
X86923928Y-32050000D01*
X86981071Y-31992857D01*
X86981071Y-32107142D01*
X85895357Y-32392857D02*
X85895357Y-33364285D01*
X85952500Y-33478571D01*
X86009642Y-33535714D01*
X86123928Y-33592857D01*
X86295357Y-33592857D01*
X86409642Y-33535714D01*
X85895357Y-33135714D02*
X86009642Y-33192857D01*
X86238214Y-33192857D01*
X86352500Y-33135714D01*
X86409642Y-33078571D01*
X86466785Y-32964285D01*
X86466785Y-32621428D01*
X86409642Y-32507142D01*
X86352500Y-32450000D01*
X86238214Y-32392857D01*
X86009642Y-32392857D01*
X85895357Y-32450000D01*
X85323928Y-32392857D02*
X85323928Y-33192857D01*
X85323928Y-32507142D02*
X85266785Y-32450000D01*
X85152500Y-32392857D01*
X84981071Y-32392857D01*
X84866785Y-32450000D01*
X84809642Y-32564285D01*
X84809642Y-33192857D01*
X83781071Y-33135714D02*
X83895357Y-33192857D01*
X84123928Y-33192857D01*
X84238214Y-33135714D01*
X84295357Y-33021428D01*
X84295357Y-32564285D01*
X84238214Y-32450000D01*
X84123928Y-32392857D01*
X83895357Y-32392857D01*
X83781071Y-32450000D01*
X83723928Y-32564285D01*
X83723928Y-32678571D01*
X84295357Y-32792857D01*
X82695357Y-33192857D02*
X82695357Y-31992857D01*
X82695357Y-33135714D02*
X82809642Y-33192857D01*
X83038214Y-33192857D01*
X83152500Y-33135714D01*
X83209642Y-33078571D01*
X83266785Y-32964285D01*
X83266785Y-32621428D01*
X83209642Y-32507142D01*
X83152500Y-32450000D01*
X83038214Y-32392857D01*
X82809642Y-32392857D01*
X82695357Y-32450000D01*
X81209642Y-33192857D02*
X81209642Y-32392857D01*
X81209642Y-31992857D02*
X81266785Y-32050000D01*
X81209642Y-32107142D01*
X81152500Y-32050000D01*
X81209642Y-31992857D01*
X81209642Y-32107142D01*
X80638214Y-32392857D02*
X80638214Y-33192857D01*
X80638214Y-32507142D02*
X80581071Y-32450000D01*
X80466785Y-32392857D01*
X80295357Y-32392857D01*
X80181071Y-32450000D01*
X80123928Y-32564285D01*
X80123928Y-33192857D01*
X78638214Y-33192857D02*
X78638214Y-31992857D01*
X78638214Y-32564285D02*
X77952500Y-32564285D01*
X77952500Y-33192857D02*
X77952500Y-31992857D01*
X77209642Y-33192857D02*
X77323928Y-33135714D01*
X77381071Y-33078571D01*
X77438214Y-32964285D01*
X77438214Y-32621428D01*
X77381071Y-32507142D01*
X77323928Y-32450000D01*
X77209642Y-32392857D01*
X77038214Y-32392857D01*
X76923928Y-32450000D01*
X76866785Y-32507142D01*
X76809642Y-32621428D01*
X76809642Y-32964285D01*
X76866785Y-33078571D01*
X76923928Y-33135714D01*
X77038214Y-33192857D01*
X77209642Y-33192857D01*
X76295357Y-32392857D02*
X76295357Y-33192857D01*
X76295357Y-32507142D02*
X76238214Y-32450000D01*
X76123928Y-32392857D01*
X75952500Y-32392857D01*
X75838214Y-32450000D01*
X75781071Y-32564285D01*
X75781071Y-33192857D01*
X74695357Y-32392857D02*
X74695357Y-33364285D01*
X74752500Y-33478571D01*
X74809642Y-33535714D01*
X74923928Y-33592857D01*
X75095357Y-33592857D01*
X75209642Y-33535714D01*
X74695357Y-33135714D02*
X74809642Y-33192857D01*
X75038214Y-33192857D01*
X75152500Y-33135714D01*
X75209642Y-33078571D01*
X75266785Y-32964285D01*
X75266785Y-32621428D01*
X75209642Y-32507142D01*
X75152500Y-32450000D01*
X75038214Y-32392857D01*
X74809642Y-32392857D01*
X74695357Y-32450000D01*
X73209642Y-33192857D02*
X73209642Y-31992857D01*
X72523928Y-33192857D02*
X73038214Y-32507142D01*
X72523928Y-31992857D02*
X73209642Y-32678571D01*
X71838214Y-33192857D02*
X71952500Y-33135714D01*
X72009642Y-33078571D01*
X72066785Y-32964285D01*
X72066785Y-32621428D01*
X72009642Y-32507142D01*
X71952500Y-32450000D01*
X71838214Y-32392857D01*
X71666785Y-32392857D01*
X71552500Y-32450000D01*
X71495357Y-32507142D01*
X71438214Y-32621428D01*
X71438214Y-32964285D01*
X71495357Y-33078571D01*
X71552500Y-33135714D01*
X71666785Y-33192857D01*
X71838214Y-33192857D01*
X70923928Y-32392857D02*
X70923928Y-33192857D01*
X70923928Y-32507142D02*
X70866785Y-32450000D01*
X70752500Y-32392857D01*
X70581071Y-32392857D01*
X70466785Y-32450000D01*
X70409642Y-32564285D01*
X70409642Y-33192857D01*
X69323928Y-32392857D02*
X69323928Y-33364285D01*
X69381071Y-33478571D01*
X69438214Y-33535714D01*
X69552500Y-33592857D01*
X69723928Y-33592857D01*
X69838214Y-33535714D01*
X69323928Y-33135714D02*
X69438214Y-33192857D01*
X69666785Y-33192857D01*
X69781071Y-33135714D01*
X69838214Y-33078571D01*
X69895357Y-32964285D01*
X69895357Y-32621428D01*
X69838214Y-32507142D01*
X69781071Y-32450000D01*
X69666785Y-32392857D01*
X69438214Y-32392857D01*
X69323928Y-32450000D01*
X90066785Y-34342857D02*
X90066785Y-35542857D01*
X90066785Y-34400000D02*
X89952500Y-34342857D01*
X89723928Y-34342857D01*
X89609642Y-34400000D01*
X89552500Y-34457142D01*
X89495357Y-34571428D01*
X89495357Y-34914285D01*
X89552500Y-35028571D01*
X89609642Y-35085714D01*
X89723928Y-35142857D01*
X89952500Y-35142857D01*
X90066785Y-35085714D01*
X88981071Y-35142857D02*
X88981071Y-34342857D01*
X88981071Y-34571428D02*
X88923928Y-34457142D01*
X88866785Y-34400000D01*
X88752500Y-34342857D01*
X88638214Y-34342857D01*
X87781071Y-35085714D02*
X87895357Y-35142857D01*
X88123928Y-35142857D01*
X88238214Y-35085714D01*
X88295357Y-34971428D01*
X88295357Y-34514285D01*
X88238214Y-34400000D01*
X88123928Y-34342857D01*
X87895357Y-34342857D01*
X87781071Y-34400000D01*
X87723928Y-34514285D01*
X87723928Y-34628571D01*
X88295357Y-34742857D01*
X87209642Y-34342857D02*
X87209642Y-35542857D01*
X87209642Y-34400000D02*
X87095357Y-34342857D01*
X86866785Y-34342857D01*
X86752500Y-34400000D01*
X86695357Y-34457142D01*
X86638214Y-34571428D01*
X86638214Y-34914285D01*
X86695357Y-35028571D01*
X86752500Y-35085714D01*
X86866785Y-35142857D01*
X87095357Y-35142857D01*
X87209642Y-35085714D01*
X85609642Y-35142857D02*
X85609642Y-34514285D01*
X85666785Y-34400000D01*
X85781071Y-34342857D01*
X86009642Y-34342857D01*
X86123928Y-34400000D01*
X85609642Y-35085714D02*
X85723928Y-35142857D01*
X86009642Y-35142857D01*
X86123928Y-35085714D01*
X86181071Y-34971428D01*
X86181071Y-34857142D01*
X86123928Y-34742857D01*
X86009642Y-34685714D01*
X85723928Y-34685714D01*
X85609642Y-34628571D01*
X85038214Y-35142857D02*
X85038214Y-34342857D01*
X85038214Y-34571428D02*
X84981071Y-34457142D01*
X84923928Y-34400000D01*
X84809642Y-34342857D01*
X84695357Y-34342857D01*
X83838214Y-35085714D02*
X83952499Y-35142857D01*
X84181071Y-35142857D01*
X84295357Y-35085714D01*
X84352499Y-34971428D01*
X84352499Y-34514285D01*
X84295357Y-34400000D01*
X84181071Y-34342857D01*
X83952499Y-34342857D01*
X83838214Y-34400000D01*
X83781071Y-34514285D01*
X83781071Y-34628571D01*
X84352499Y-34742857D01*
X82752499Y-35142857D02*
X82752499Y-33942857D01*
X82752499Y-35085714D02*
X82866785Y-35142857D01*
X83095357Y-35142857D01*
X83209642Y-35085714D01*
X83266785Y-35028571D01*
X83323928Y-34914285D01*
X83323928Y-34571428D01*
X83266785Y-34457142D01*
X83209642Y-34400000D01*
X83095357Y-34342857D01*
X82866785Y-34342857D01*
X82752499Y-34400000D01*
X81266785Y-35142857D02*
X81266785Y-33942857D01*
X81266785Y-34400000D02*
X81152499Y-34342857D01*
X80923928Y-34342857D01*
X80809642Y-34400000D01*
X80752499Y-34457142D01*
X80695357Y-34571428D01*
X80695357Y-34914285D01*
X80752499Y-35028571D01*
X80809642Y-35085714D01*
X80923928Y-35142857D01*
X81152499Y-35142857D01*
X81266785Y-35085714D01*
X80295357Y-34342857D02*
X80009642Y-35142857D01*
X79723928Y-34342857D02*
X80009642Y-35142857D01*
X80123928Y-35428571D01*
X80181071Y-35485714D01*
X80295357Y-35542857D01*
X78181071Y-35142857D02*
X78295357Y-35085714D01*
X78352499Y-34971428D01*
X78352499Y-33942857D01*
X77552499Y-35142857D02*
X77666785Y-35085714D01*
X77723928Y-35028571D01*
X77781071Y-34914285D01*
X77781071Y-34571428D01*
X77723928Y-34457142D01*
X77666785Y-34400000D01*
X77552499Y-34342857D01*
X77381071Y-34342857D01*
X77266785Y-34400000D01*
X77209642Y-34457142D01*
X77152499Y-34571428D01*
X77152499Y-34914285D01*
X77209642Y-35028571D01*
X77266785Y-35085714D01*
X77381071Y-35142857D01*
X77552499Y-35142857D01*
X76123928Y-34342857D02*
X76123928Y-35142857D01*
X76638214Y-34342857D02*
X76638214Y-34971428D01*
X76581071Y-35085714D01*
X76466785Y-35142857D01*
X76295357Y-35142857D01*
X76181071Y-35085714D01*
X76123928Y-35028571D01*
X75552499Y-35142857D02*
X75552499Y-34342857D01*
X75552499Y-33942857D02*
X75609642Y-34000000D01*
X75552499Y-34057142D01*
X75495357Y-34000000D01*
X75552499Y-33942857D01*
X75552499Y-34057142D01*
X75038214Y-35085714D02*
X74923928Y-35142857D01*
X74695357Y-35142857D01*
X74581071Y-35085714D01*
X74523928Y-34971428D01*
X74523928Y-34914285D01*
X74581071Y-34800000D01*
X74695357Y-34742857D01*
X74866785Y-34742857D01*
X74981071Y-34685714D01*
X75038214Y-34571428D01*
X75038214Y-34514285D01*
X74981071Y-34400000D01*
X74866785Y-34342857D01*
X74695357Y-34342857D01*
X74581071Y-34400000D01*
X73495357Y-35085714D02*
X73609642Y-35142857D01*
X73838214Y-35142857D01*
X73952499Y-35085714D01*
X74009642Y-35028571D01*
X74066785Y-34914285D01*
X74066785Y-34571428D01*
X74009642Y-34457142D01*
X73952499Y-34400000D01*
X73838214Y-34342857D01*
X73609642Y-34342857D01*
X73495357Y-34400000D01*
X72981071Y-35142857D02*
X72981071Y-33942857D01*
X72866785Y-34685714D02*
X72523928Y-35142857D01*
X72523928Y-34342857D02*
X72981071Y-34800000D01*
X71838214Y-35142857D02*
X71952499Y-35085714D01*
X72009642Y-34971428D01*
X72009642Y-33942857D01*
X70866785Y-35142857D02*
X70866785Y-34514285D01*
X70923928Y-34400000D01*
X71038214Y-34342857D01*
X71266785Y-34342857D01*
X71381071Y-34400000D01*
X70866785Y-35085714D02*
X70981071Y-35142857D01*
X71266785Y-35142857D01*
X71381071Y-35085714D01*
X71438214Y-34971428D01*
X71438214Y-34857142D01*
X71381071Y-34742857D01*
X71266785Y-34685714D01*
X70981071Y-34685714D01*
X70866785Y-34628571D01*
X70409642Y-34342857D02*
X70181071Y-35142857D01*
X69952499Y-34571428D01*
X69723928Y-35142857D01*
X69495357Y-34342857D01*
X89552500Y-36292857D02*
X89552500Y-37264285D01*
X89609642Y-37378571D01*
X89666785Y-37435714D01*
X89781071Y-37492857D01*
X89952500Y-37492857D01*
X90066785Y-37435714D01*
X89552500Y-37035714D02*
X89666785Y-37092857D01*
X89895357Y-37092857D01*
X90009642Y-37035714D01*
X90066785Y-36978571D01*
X90123928Y-36864285D01*
X90123928Y-36521428D01*
X90066785Y-36407142D01*
X90009642Y-36350000D01*
X89895357Y-36292857D01*
X89666785Y-36292857D01*
X89552500Y-36350000D01*
X88981071Y-37092857D02*
X88981071Y-36292857D01*
X88981071Y-35892857D02*
X89038214Y-35950000D01*
X88981071Y-36007142D01*
X88923928Y-35950000D01*
X88981071Y-35892857D01*
X88981071Y-36007142D01*
X88581071Y-36292857D02*
X88123928Y-36292857D01*
X88409642Y-35892857D02*
X88409642Y-36921428D01*
X88352500Y-37035714D01*
X88238214Y-37092857D01*
X88123928Y-37092857D01*
X87723928Y-37092857D02*
X87723928Y-35892857D01*
X87209642Y-37092857D02*
X87209642Y-36464285D01*
X87266785Y-36350000D01*
X87381071Y-36292857D01*
X87552500Y-36292857D01*
X87666785Y-36350000D01*
X87723928Y-36407142D01*
X86123928Y-36292857D02*
X86123928Y-37092857D01*
X86638214Y-36292857D02*
X86638214Y-36921428D01*
X86581071Y-37035714D01*
X86466785Y-37092857D01*
X86295357Y-37092857D01*
X86181071Y-37035714D01*
X86123928Y-36978571D01*
X85552500Y-37092857D02*
X85552500Y-35892857D01*
X85552500Y-36350000D02*
X85438214Y-36292857D01*
X85209642Y-36292857D01*
X85095357Y-36350000D01*
X85038214Y-36407142D01*
X84981071Y-36521428D01*
X84981071Y-36864285D01*
X85038214Y-36978571D01*
X85095357Y-37035714D01*
X85209642Y-37092857D01*
X85438214Y-37092857D01*
X85552500Y-37035714D01*
X84466785Y-36978571D02*
X84409642Y-37035714D01*
X84466785Y-37092857D01*
X84523928Y-37035714D01*
X84466785Y-36978571D01*
X84466785Y-37092857D01*
X83381071Y-37035714D02*
X83495357Y-37092857D01*
X83723928Y-37092857D01*
X83838214Y-37035714D01*
X83895357Y-36978571D01*
X83952500Y-36864285D01*
X83952500Y-36521428D01*
X83895357Y-36407142D01*
X83838214Y-36350000D01*
X83723928Y-36292857D01*
X83495357Y-36292857D01*
X83381071Y-36350000D01*
X82695357Y-37092857D02*
X82809642Y-37035714D01*
X82866785Y-36978571D01*
X82923928Y-36864285D01*
X82923928Y-36521428D01*
X82866785Y-36407142D01*
X82809642Y-36350000D01*
X82695357Y-36292857D01*
X82523928Y-36292857D01*
X82409642Y-36350000D01*
X82352500Y-36407142D01*
X82295357Y-36521428D01*
X82295357Y-36864285D01*
X82352500Y-36978571D01*
X82409642Y-37035714D01*
X82523928Y-37092857D01*
X82695357Y-37092857D01*
X81781071Y-37092857D02*
X81781071Y-36292857D01*
X81781071Y-36407142D02*
X81723928Y-36350000D01*
X81609642Y-36292857D01*
X81438214Y-36292857D01*
X81323928Y-36350000D01*
X81266785Y-36464285D01*
X81266785Y-37092857D01*
X81266785Y-36464285D02*
X81209642Y-36350000D01*
X81095357Y-36292857D01*
X80923928Y-36292857D01*
X80809642Y-36350000D01*
X80752500Y-36464285D01*
X80752500Y-37092857D01*
X79323928Y-35835714D02*
X80352500Y-37378571D01*
X78752500Y-37092857D02*
X78866785Y-37035714D01*
X78923928Y-36921428D01*
X78923928Y-35892857D01*
X78123928Y-37092857D02*
X78238214Y-37035714D01*
X78295357Y-36978571D01*
X78352500Y-36864285D01*
X78352500Y-36521428D01*
X78295357Y-36407142D01*
X78238214Y-36350000D01*
X78123928Y-36292857D01*
X77952500Y-36292857D01*
X77838214Y-36350000D01*
X77781071Y-36407142D01*
X77723928Y-36521428D01*
X77723928Y-36864285D01*
X77781071Y-36978571D01*
X77838214Y-37035714D01*
X77952500Y-37092857D01*
X78123928Y-37092857D01*
X76695357Y-36292857D02*
X76695357Y-37092857D01*
X77209642Y-36292857D02*
X77209642Y-36921428D01*
X77152500Y-37035714D01*
X77038214Y-37092857D01*
X76866785Y-37092857D01*
X76752500Y-37035714D01*
X76695357Y-36978571D01*
X76123928Y-37092857D02*
X76123928Y-36292857D01*
X76123928Y-35892857D02*
X76181071Y-35950000D01*
X76123928Y-36007142D01*
X76066785Y-35950000D01*
X76123928Y-35892857D01*
X76123928Y-36007142D01*
X75609642Y-37035714D02*
X75495357Y-37092857D01*
X75266785Y-37092857D01*
X75152500Y-37035714D01*
X75095357Y-36921428D01*
X75095357Y-36864285D01*
X75152500Y-36750000D01*
X75266785Y-36692857D01*
X75438214Y-36692857D01*
X75552500Y-36635714D01*
X75609642Y-36521428D01*
X75609642Y-36464285D01*
X75552500Y-36350000D01*
X75438214Y-36292857D01*
X75266785Y-36292857D01*
X75152500Y-36350000D01*
X74066785Y-37035714D02*
X74181071Y-37092857D01*
X74409642Y-37092857D01*
X74523928Y-37035714D01*
X74581071Y-36978571D01*
X74638214Y-36864285D01*
X74638214Y-36521428D01*
X74581071Y-36407142D01*
X74523928Y-36350000D01*
X74409642Y-36292857D01*
X74181071Y-36292857D01*
X74066785Y-36350000D01*
X73552500Y-37092857D02*
X73552500Y-35892857D01*
X73438214Y-36635714D02*
X73095357Y-37092857D01*
X73095357Y-36292857D02*
X73552500Y-36750000D01*
X72409642Y-37092857D02*
X72523928Y-37035714D01*
X72581071Y-36921428D01*
X72581071Y-35892857D01*
X71438214Y-37092857D02*
X71438214Y-36464285D01*
X71495357Y-36350000D01*
X71609642Y-36292857D01*
X71838214Y-36292857D01*
X71952500Y-36350000D01*
X71438214Y-37035714D02*
X71552500Y-37092857D01*
X71838214Y-37092857D01*
X71952500Y-37035714D01*
X72009642Y-36921428D01*
X72009642Y-36807142D01*
X71952500Y-36692857D01*
X71838214Y-36635714D01*
X71552500Y-36635714D01*
X71438214Y-36578571D01*
X70981071Y-36292857D02*
X70752500Y-37092857D01*
X70523928Y-36521428D01*
X70295357Y-37092857D01*
X70066785Y-36292857D01*
X68752500Y-35835714D02*
X69781071Y-37378571D01*
X68466785Y-35892857D02*
X67723928Y-35892857D01*
X68123928Y-36350000D01*
X67952500Y-36350000D01*
X67838214Y-36407142D01*
X67781071Y-36464285D01*
X67723928Y-36578571D01*
X67723928Y-36864285D01*
X67781071Y-36978571D01*
X67838214Y-37035714D01*
X67952500Y-37092857D01*
X68295357Y-37092857D01*
X68409642Y-37035714D01*
X68466785Y-36978571D01*
X66695357Y-37092857D02*
X66695357Y-35892857D01*
X66695357Y-37035714D02*
X66809642Y-37092857D01*
X67038214Y-37092857D01*
X67152499Y-37035714D01*
X67209642Y-36978571D01*
X67266785Y-36864285D01*
X67266785Y-36521428D01*
X67209642Y-36407142D01*
X67152499Y-36350000D01*
X67038214Y-36292857D01*
X66809642Y-36292857D01*
X66695357Y-36350000D01*
X66123928Y-36635714D02*
X65209642Y-36635714D01*
X64638214Y-36292857D02*
X64638214Y-37492857D01*
X64638214Y-36350000D02*
X64523928Y-36292857D01*
X64295357Y-36292857D01*
X64181071Y-36350000D01*
X64123928Y-36407142D01*
X64066785Y-36521428D01*
X64066785Y-36864285D01*
X64123928Y-36978571D01*
X64181071Y-37035714D01*
X64295357Y-37092857D01*
X64523928Y-37092857D01*
X64638214Y-37035714D01*
X63552499Y-37092857D02*
X63552499Y-36292857D01*
X63552499Y-36521428D02*
X63495357Y-36407142D01*
X63438214Y-36350000D01*
X63323928Y-36292857D01*
X63209642Y-36292857D01*
X62809642Y-37092857D02*
X62809642Y-36292857D01*
X62809642Y-35892857D02*
X62866785Y-35950000D01*
X62809642Y-36007142D01*
X62752499Y-35950000D01*
X62809642Y-35892857D01*
X62809642Y-36007142D01*
X62238214Y-36292857D02*
X62238214Y-37092857D01*
X62238214Y-36407142D02*
X62181071Y-36350000D01*
X62066785Y-36292857D01*
X61895357Y-36292857D01*
X61781071Y-36350000D01*
X61723928Y-36464285D01*
X61723928Y-37092857D01*
X61323928Y-36292857D02*
X60866785Y-36292857D01*
X61152499Y-35892857D02*
X61152499Y-36921428D01*
X61095357Y-37035714D01*
X60981071Y-37092857D01*
X60866785Y-37092857D01*
X60009642Y-37035714D02*
X60123928Y-37092857D01*
X60352499Y-37092857D01*
X60466785Y-37035714D01*
X60523928Y-36921428D01*
X60523928Y-36464285D01*
X60466785Y-36350000D01*
X60352499Y-36292857D01*
X60123928Y-36292857D01*
X60009642Y-36350000D01*
X59952499Y-36464285D01*
X59952499Y-36578571D01*
X60523928Y-36692857D01*
X59438214Y-37092857D02*
X59438214Y-36292857D01*
X59438214Y-36521428D02*
X59381071Y-36407142D01*
X59323928Y-36350000D01*
X59209642Y-36292857D01*
X59095357Y-36292857D01*
X58695357Y-36635714D02*
X57781071Y-36635714D01*
X57209642Y-37092857D02*
X57209642Y-35892857D01*
X57209642Y-36350000D02*
X57095357Y-36292857D01*
X56866785Y-36292857D01*
X56752499Y-36350000D01*
X56695357Y-36407142D01*
X56638214Y-36521428D01*
X56638214Y-36864285D01*
X56695357Y-36978571D01*
X56752499Y-37035714D01*
X56866785Y-37092857D01*
X57095357Y-37092857D01*
X57209642Y-37035714D01*
X55952499Y-37092857D02*
X56066785Y-37035714D01*
X56123928Y-36978571D01*
X56181071Y-36864285D01*
X56181071Y-36521428D01*
X56123928Y-36407142D01*
X56066785Y-36350000D01*
X55952499Y-36292857D01*
X55781071Y-36292857D01*
X55666785Y-36350000D01*
X55609642Y-36407142D01*
X55552499Y-36521428D01*
X55552499Y-36864285D01*
X55609642Y-36978571D01*
X55666785Y-37035714D01*
X55781071Y-37092857D01*
X55952499Y-37092857D01*
X54523928Y-37092857D02*
X54523928Y-36464285D01*
X54581071Y-36350000D01*
X54695357Y-36292857D01*
X54923928Y-36292857D01*
X55038214Y-36350000D01*
X54523928Y-37035714D02*
X54638214Y-37092857D01*
X54923928Y-37092857D01*
X55038214Y-37035714D01*
X55095357Y-36921428D01*
X55095357Y-36807142D01*
X55038214Y-36692857D01*
X54923928Y-36635714D01*
X54638214Y-36635714D01*
X54523928Y-36578571D01*
X53952499Y-37092857D02*
X53952499Y-36292857D01*
X53952499Y-36521428D02*
X53895357Y-36407142D01*
X53838214Y-36350000D01*
X53723928Y-36292857D01*
X53609642Y-36292857D01*
X52695357Y-37092857D02*
X52695357Y-35892857D01*
X52695357Y-37035714D02*
X52809642Y-37092857D01*
X53038214Y-37092857D01*
X53152499Y-37035714D01*
X53209642Y-36978571D01*
X53266785Y-36864285D01*
X53266785Y-36521428D01*
X53209642Y-36407142D01*
X53152499Y-36350000D01*
X53038214Y-36292857D01*
X52809642Y-36292857D01*
X52695357Y-36350000D01*
X90064404Y-38802380D02*
X90064404Y-38135714D01*
X90064404Y-38326190D02*
X90016785Y-38230952D01*
X89969166Y-38183333D01*
X89873928Y-38135714D01*
X89778690Y-38135714D01*
X89064404Y-38754761D02*
X89159642Y-38802380D01*
X89350119Y-38802380D01*
X89445357Y-38754761D01*
X89492976Y-38659523D01*
X89492976Y-38278571D01*
X89445357Y-38183333D01*
X89350119Y-38135714D01*
X89159642Y-38135714D01*
X89064404Y-38183333D01*
X89016785Y-38278571D01*
X89016785Y-38373809D01*
X89492976Y-38469047D01*
X88683452Y-38135714D02*
X88445357Y-38802380D01*
X88207261Y-38135714D01*
X87112023Y-37754761D02*
X87969166Y-39040476D01*
X86826309Y-37897619D02*
X86778690Y-37850000D01*
X86683452Y-37802380D01*
X86445357Y-37802380D01*
X86350119Y-37850000D01*
X86302500Y-37897619D01*
X86254880Y-37992857D01*
X86254880Y-38088095D01*
X86302500Y-38230952D01*
X86873928Y-38802380D01*
X86254880Y-38802380D01*
X85635833Y-37802380D02*
X85540595Y-37802380D01*
X85445357Y-37850000D01*
X85397738Y-37897619D01*
X85350119Y-37992857D01*
X85302500Y-38183333D01*
X85302500Y-38421428D01*
X85350119Y-38611904D01*
X85397738Y-38707142D01*
X85445357Y-38754761D01*
X85540595Y-38802380D01*
X85635833Y-38802380D01*
X85731071Y-38754761D01*
X85778690Y-38707142D01*
X85826309Y-38611904D01*
X85873928Y-38421428D01*
X85873928Y-38183333D01*
X85826309Y-37992857D01*
X85778690Y-37897619D01*
X85731071Y-37850000D01*
X85635833Y-37802380D01*
X84350119Y-38802380D02*
X84921547Y-38802380D01*
X84635833Y-38802380D02*
X84635833Y-37802380D01*
X84731071Y-37945238D01*
X84826309Y-38040476D01*
X84921547Y-38088095D01*
X83873928Y-38802380D02*
X83683452Y-38802380D01*
X83588214Y-38754761D01*
X83540595Y-38707142D01*
X83445357Y-38564285D01*
X83397738Y-38373809D01*
X83397738Y-37992857D01*
X83445357Y-37897619D01*
X83492976Y-37850000D01*
X83588214Y-37802380D01*
X83778690Y-37802380D01*
X83873928Y-37850000D01*
X83921547Y-37897619D01*
X83969166Y-37992857D01*
X83969166Y-38230952D01*
X83921547Y-38326190D01*
X83873928Y-38373809D01*
X83778690Y-38421428D01*
X83588214Y-38421428D01*
X83492976Y-38373809D01*
X83445357Y-38326190D01*
X83397738Y-38230952D01*
X82778690Y-37802380D02*
X82683452Y-37802380D01*
X82588214Y-37850000D01*
X82540595Y-37897619D01*
X82492976Y-37992857D01*
X82445357Y-38183333D01*
X82445357Y-38421428D01*
X82492976Y-38611904D01*
X82540595Y-38707142D01*
X82588214Y-38754761D01*
X82683452Y-38802380D01*
X82778690Y-38802380D01*
X82873928Y-38754761D01*
X82921547Y-38707142D01*
X82969166Y-38611904D01*
X83016785Y-38421428D01*
X83016785Y-38183333D01*
X82969166Y-37992857D01*
X82921547Y-37897619D01*
X82873928Y-37850000D01*
X82778690Y-37802380D01*
X81588214Y-37802380D02*
X81778690Y-37802380D01*
X81873928Y-37850000D01*
X81921547Y-37897619D01*
X82016785Y-38040476D01*
X82064404Y-38230952D01*
X82064404Y-38611904D01*
X82016785Y-38707142D01*
X81969166Y-38754761D01*
X81873928Y-38802380D01*
X81683452Y-38802380D01*
X81588214Y-38754761D01*
X81540595Y-38707142D01*
X81492976Y-38611904D01*
X81492976Y-38373809D01*
X81540595Y-38278571D01*
X81588214Y-38230952D01*
X81683452Y-38183333D01*
X81873928Y-38183333D01*
X81969166Y-38230952D01*
X82016785Y-38278571D01*
X82064404Y-38373809D01*
X80540595Y-38802380D02*
X81112023Y-38802380D01*
X80826309Y-38802380D02*
X80826309Y-37802380D01*
X80921547Y-37945238D01*
X81016785Y-38040476D01*
X81112023Y-38088095D01*
X80159642Y-37897619D02*
X80112023Y-37850000D01*
X80016785Y-37802380D01*
X79778690Y-37802380D01*
X79683452Y-37850000D01*
X79635833Y-37897619D01*
X79588214Y-37992857D01*
X79588214Y-38088095D01*
X79635833Y-38230952D01*
X80207261Y-38802380D01*
X79588214Y-38802380D01*
X79159642Y-38421428D02*
X78397738Y-38421428D01*
X77921547Y-38135714D02*
X77921547Y-39135714D01*
X77921547Y-38183333D02*
X77826309Y-38135714D01*
X77635833Y-38135714D01*
X77540595Y-38183333D01*
X77492976Y-38230952D01*
X77445357Y-38326190D01*
X77445357Y-38611904D01*
X77492976Y-38707142D01*
X77540595Y-38754761D01*
X77635833Y-38802380D01*
X77826309Y-38802380D01*
X77921547Y-38754761D01*
X77016785Y-38802380D02*
X77016785Y-38135714D01*
X77016785Y-38326190D02*
X76969166Y-38230952D01*
X76921547Y-38183333D01*
X76826309Y-38135714D01*
X76731071Y-38135714D01*
X76397738Y-38802380D02*
X76397738Y-38135714D01*
X76397738Y-37802380D02*
X76445357Y-37850000D01*
X76397738Y-37897619D01*
X76350119Y-37850000D01*
X76397738Y-37802380D01*
X76397738Y-37897619D01*
X75921547Y-38135714D02*
X75921547Y-38802380D01*
X75921547Y-38230952D02*
X75873928Y-38183333D01*
X75778690Y-38135714D01*
X75635833Y-38135714D01*
X75540595Y-38183333D01*
X75492976Y-38278571D01*
X75492976Y-38802380D01*
X75159642Y-38135714D02*
X74778690Y-38135714D01*
X75016785Y-37802380D02*
X75016785Y-38659523D01*
X74969166Y-38754761D01*
X74873928Y-38802380D01*
X74778690Y-38802380D01*
X74492976Y-37897619D02*
X74445357Y-37850000D01*
X74350119Y-37802380D01*
X74112023Y-37802380D01*
X74016785Y-37850000D01*
X73969166Y-37897619D01*
X73921547Y-37992857D01*
X73921547Y-38088095D01*
X73969166Y-38230952D01*
X74540595Y-38802380D01*
X73921547Y-38802380D01*
D11*
X60490000Y-20971267D02*
X60490000Y-20628733D01*
X61510000Y-20971267D02*
X61510000Y-20628733D01*
X55890000Y-20971267D02*
X55890000Y-20628733D01*
X56910000Y-20971267D02*
X56910000Y-20628733D01*
X72190000Y-21571267D02*
X72190000Y-21228733D01*
X73210000Y-21571267D02*
X73210000Y-21228733D01*
X67790000Y-21571267D02*
X67790000Y-21228733D01*
X68810000Y-21571267D02*
X68810000Y-21228733D01*
X44290000Y-22671267D02*
X44290000Y-22328733D01*
X45310000Y-22671267D02*
X45310000Y-22328733D01*
X48890000Y-22671267D02*
X48890000Y-22328733D01*
X49910000Y-22671267D02*
X49910000Y-22328733D01*
D12*
X57747500Y-21598500D02*
X57747500Y-22258900D01*
X59652500Y-21598500D02*
X59652500Y-22258900D01*
X58700000Y-20201500D02*
X58700000Y-19541100D01*
X60198600Y-20201500D02*
X57201400Y-20201500D01*
X57201400Y-20201500D02*
X57201400Y-21598500D01*
X57201400Y-21598500D02*
X60198600Y-21598500D01*
X60198600Y-21598500D02*
X60198600Y-20201500D01*
X69584600Y-21933499D02*
X69584600Y-22593899D01*
X71489600Y-21933499D02*
X71489600Y-22593899D01*
X70537100Y-20536499D02*
X70537100Y-19876099D01*
X72035700Y-20536499D02*
X69038500Y-20536499D01*
X69038500Y-20536499D02*
X69038500Y-21933499D01*
X69038500Y-21933499D02*
X72035700Y-21933499D01*
X72035700Y-21933499D02*
X72035700Y-20536499D01*
X46147500Y-23098500D02*
X46147500Y-23758900D01*
X48052500Y-23098500D02*
X48052500Y-23758900D01*
X47100000Y-21701500D02*
X47100000Y-21041100D01*
X48598600Y-21701500D02*
X45601400Y-21701500D01*
X45601400Y-21701500D02*
X45601400Y-23098500D01*
X45601400Y-23098500D02*
X48598600Y-23098500D01*
X48598600Y-23098500D02*
X48598600Y-21701500D01*
D11*
X40710000Y-33028733D02*
X40710000Y-33371267D01*
X39690000Y-33028733D02*
X39690000Y-33371267D01*
X42310000Y-33028733D02*
X42310000Y-33371267D01*
X41290000Y-33028733D02*
X41290000Y-33371267D01*
X40110000Y-26228733D02*
X40110000Y-26571267D01*
X39090000Y-26228733D02*
X39090000Y-26571267D01*
X37510000Y-33028733D02*
X37510000Y-33371267D01*
X36490000Y-33028733D02*
X36490000Y-33371267D01*
X41910000Y-26228733D02*
X41910000Y-26571267D01*
X40890000Y-26228733D02*
X40890000Y-26571267D01*
X37290000Y-22771267D02*
X37290000Y-22428733D01*
X38310000Y-22771267D02*
X38310000Y-22428733D01*
D12*
X43699700Y-29426480D02*
X48500300Y-29426480D01*
X43699700Y-25428520D02*
X43699700Y-29426480D01*
X48500300Y-25428520D02*
X43699700Y-25428520D01*
X48500300Y-29426480D02*
X48500300Y-25428520D01*
X47900860Y-29426480D02*
X47900860Y-25428520D01*
X47999920Y-29426480D02*
X47999920Y-25428520D01*
X48098980Y-25428520D02*
X48098980Y-29426480D01*
X48200580Y-29426480D02*
X48200580Y-25428520D01*
X48299640Y-25428520D02*
X48299640Y-29426480D01*
X48401240Y-29426480D02*
X48401240Y-25428520D01*
D11*
X46861252Y-30810000D02*
X46338748Y-30810000D01*
X46861252Y-29390000D02*
X46338748Y-29390000D01*
X46861252Y-32810000D02*
X46338748Y-32810000D01*
X46861252Y-31390000D02*
X46338748Y-31390000D01*
X38090000Y-33371267D02*
X38090000Y-33028733D01*
X39110000Y-33371267D02*
X39110000Y-33028733D01*
X38310000Y-26938748D02*
X38310000Y-27461252D01*
X36890000Y-26938748D02*
X36890000Y-27461252D01*
X35690000Y-22771267D02*
X35690000Y-22428733D01*
X36710000Y-22771267D02*
X36710000Y-22428733D01*
X40940000Y-43871267D02*
X40940000Y-43528733D01*
X41960000Y-43871267D02*
X41960000Y-43528733D01*
X42710000Y-37528733D02*
X42710000Y-37871267D01*
X41690000Y-37528733D02*
X41690000Y-37871267D01*
X40960000Y-37528733D02*
X40960000Y-37871267D01*
X39940000Y-37528733D02*
X39940000Y-37871267D01*
X37440000Y-43871267D02*
X37440000Y-43528733D01*
X38460000Y-43871267D02*
X38460000Y-43528733D01*
X42690000Y-43871267D02*
X42690000Y-43528733D01*
X43710000Y-43871267D02*
X43710000Y-43528733D01*
X36710000Y-43528733D02*
X36710000Y-43871267D01*
X35690000Y-43528733D02*
X35690000Y-43871267D01*
D12*
X49100300Y-35701020D02*
X44299700Y-35701020D01*
X49100300Y-39698980D02*
X49100300Y-35701020D01*
X44299700Y-39698980D02*
X49100300Y-39698980D01*
X44299700Y-35701020D02*
X44299700Y-39698980D01*
X44899140Y-35701020D02*
X44899140Y-39698980D01*
X44800080Y-35701020D02*
X44800080Y-39698980D01*
X44701020Y-39698980D02*
X44701020Y-35701020D01*
X44599420Y-35701020D02*
X44599420Y-39698980D01*
X44500360Y-39698980D02*
X44500360Y-35701020D01*
X44398760Y-35701020D02*
X44398760Y-39698980D01*
D11*
X47461252Y-43410000D02*
X46938748Y-43410000D01*
X47461252Y-41990000D02*
X46938748Y-41990000D01*
X47461252Y-41160000D02*
X46938748Y-41160000D01*
X47461252Y-39740000D02*
X46938748Y-39740000D01*
X39190000Y-43871267D02*
X39190000Y-43528733D01*
X40210000Y-43871267D02*
X40210000Y-43528733D01*
X39410000Y-37688748D02*
X39410000Y-38211252D01*
X37990000Y-37688748D02*
X37990000Y-38211252D01*
X82600000Y-39800000D02*
G75*
G03X81350000Y-41050000I0J-1250000D01*
G01*
X81350000Y-64300000D02*
G75*
G03X82600000Y-65550000I1250000J0D01*
G01*
X99600000Y-67050000D02*
G75*
G03X98100000Y-65550000I-1500000J0D01*
G01*
X98350000Y-39800000D02*
G75*
G03X99600000Y-38550000I0J1250000D01*
G01*
X82600000Y-39800000D02*
X98350000Y-39800000D01*
X81350000Y-64300000D02*
X81350000Y-41050000D01*
X98100000Y-65550000D02*
X82600000Y-65550000D01*
X36502371Y-66036980D02*
X36744580Y-65794771D01*
X37223620Y-66758229D02*
X37465829Y-66516020D01*
X37740000Y-7411252D02*
X37740000Y-6888748D01*
X39160000Y-7411252D02*
X39160000Y-6888748D01*
X29281615Y-59088748D02*
X29281615Y-59611252D01*
X27861615Y-59088748D02*
X27861615Y-59611252D01*
X46456729Y-53914520D02*
X46214520Y-54156729D01*
X45735480Y-53193271D02*
X45493271Y-53435480D01*
D12*
X83525360Y-25529540D02*
X83525360Y-22730460D01*
X87924640Y-25529540D02*
X83525360Y-25529540D01*
X87924640Y-22730460D02*
X87924640Y-25529540D01*
X83525360Y-22730460D02*
X87924640Y-22730460D01*
X84025740Y-22730460D02*
X84025740Y-25529540D01*
X83924140Y-22730460D02*
X83924140Y-25529540D01*
X83825080Y-25529540D02*
X83825080Y-22730460D01*
X83726020Y-22730460D02*
X83726020Y-25529540D01*
X83624420Y-25529540D02*
X83624420Y-22730460D01*
X97449640Y-19555460D02*
X97449640Y-22354540D01*
X93050360Y-19555460D02*
X97449640Y-19555460D01*
X93050360Y-22354540D02*
X93050360Y-19555460D01*
X97449640Y-22354540D02*
X93050360Y-22354540D01*
X96949260Y-22354540D02*
X96949260Y-19555460D01*
X97050860Y-22354540D02*
X97050860Y-19555460D01*
X97149920Y-19555460D02*
X97149920Y-22354540D01*
X97248980Y-22354540D02*
X97248980Y-19555460D01*
X97350580Y-19555460D02*
X97350580Y-22354540D01*
D11*
X44039520Y-51981729D02*
X44281729Y-51739520D01*
X43318271Y-51260480D02*
X43560480Y-51018271D01*
X45139520Y-53081729D02*
X45381729Y-52839520D01*
X44418271Y-52360480D02*
X44660480Y-52118271D01*
X41139520Y-64118271D02*
X41381729Y-64360480D01*
X40418271Y-64839520D02*
X40660480Y-65081729D01*
X41518271Y-63739520D02*
X41760480Y-63981729D01*
X42239520Y-63018271D02*
X42481729Y-63260480D01*
X36163020Y-65697629D02*
X36405229Y-65455420D01*
X35441771Y-64976380D02*
X35683980Y-64734171D01*
X46139520Y-59556729D02*
X46381729Y-59314520D01*
X45418271Y-58835480D02*
X45660480Y-58593271D01*
X43468271Y-56910480D02*
X43710480Y-56668271D01*
X44189520Y-57631729D02*
X44431729Y-57389520D01*
X33497171Y-63031780D02*
X33739380Y-62789571D01*
X34218420Y-63753029D02*
X34460629Y-63510820D01*
X41815629Y-68404780D02*
X41573420Y-68162571D01*
X41094380Y-69126029D02*
X40852171Y-68883820D01*
X30948120Y-57044371D02*
X31190329Y-57286580D01*
X30226871Y-57765620D02*
X30469080Y-58007829D01*
X50547329Y-59673080D02*
X50305120Y-59430871D01*
X49826080Y-60394329D02*
X49583871Y-60152120D01*
X41831729Y-49289520D02*
X41589520Y-49531729D01*
X41110480Y-48568271D02*
X40868271Y-48810480D01*
X49244520Y-60491471D02*
X49486729Y-60733680D01*
X48523271Y-61212720D02*
X48765480Y-61454929D01*
X42839520Y-50781729D02*
X43081729Y-50539520D01*
X42118271Y-50060480D02*
X42360480Y-49818271D01*
X43709727Y-71874382D02*
X43367191Y-71874382D01*
X43709727Y-70854382D02*
X43367191Y-70854382D01*
X30183184Y-72056231D02*
X29840648Y-72056231D01*
X30183184Y-71036231D02*
X29840648Y-71036231D01*
X32148380Y-61198571D02*
X31906171Y-61440780D01*
X32869629Y-61919820D02*
X32627420Y-62162029D01*
X29769938Y-68137093D02*
X30112474Y-68137093D01*
X29769938Y-69157093D02*
X30112474Y-69157093D01*
X38728732Y-71610000D02*
X39071268Y-71610000D01*
X38728732Y-70590000D02*
X39071268Y-70590000D01*
X45221956Y-61220757D02*
X43807743Y-59806544D01*
X43242057Y-63200656D02*
X45221956Y-61220757D01*
X41827844Y-61786443D02*
X43242057Y-63200656D01*
X43807743Y-59806544D02*
X41827844Y-61786443D01*
X43277356Y-59276157D02*
X41863143Y-57861944D01*
X41297457Y-61256056D02*
X43277356Y-59276157D01*
X39883244Y-59841843D02*
X41297457Y-61256056D01*
X41863143Y-57861944D02*
X39883244Y-59841843D01*
X38284320Y-67818929D02*
X38526529Y-67576720D01*
X37563071Y-67097680D02*
X37805280Y-66855471D01*
X76371267Y-65210000D02*
X76028733Y-65210000D01*
X76371267Y-64190000D02*
X76028733Y-64190000D01*
X76371267Y-65990000D02*
X76028733Y-65990000D01*
X76371267Y-67010000D02*
X76028733Y-67010000D01*
X46940000Y-70571267D02*
X46940000Y-70228733D01*
X47960000Y-70571267D02*
X47960000Y-70228733D01*
X90133733Y-92335000D02*
X90476267Y-92335000D01*
X90133733Y-93355000D02*
X90476267Y-93355000D01*
X73987732Y-92340000D02*
X74330266Y-92340000D01*
X73987732Y-93360000D02*
X74330266Y-93360000D01*
X57841733Y-92335000D02*
X58184267Y-92335000D01*
X57841733Y-93355000D02*
X58184267Y-93355000D01*
X41695733Y-93355000D02*
X42038267Y-93355000D01*
X41695733Y-92335000D02*
X42038267Y-92335000D01*
X25549733Y-93355000D02*
X25892267Y-93355000D01*
X25549733Y-92335000D02*
X25892267Y-92335000D01*
X9403733Y-93355000D02*
X9746267Y-93355000D01*
X9403733Y-92335000D02*
X9746267Y-92335000D01*
X2328733Y-71510000D02*
X2671267Y-71510000D01*
X2328733Y-70490000D02*
X2671267Y-70490000D01*
X2428733Y-54090000D02*
X2771267Y-54090000D01*
X2428733Y-55110000D02*
X2771267Y-55110000D01*
X54485000Y-4273733D02*
X54485000Y-4616267D01*
X53465000Y-4273733D02*
X53465000Y-4616267D01*
X51910000Y-21961252D02*
X51910000Y-21438748D01*
X50490000Y-21961252D02*
X50490000Y-21438748D01*
X43510000Y-22761252D02*
X43510000Y-22238748D01*
X42090000Y-22761252D02*
X42090000Y-22238748D01*
X64260000Y-4273733D02*
X64260000Y-4616267D01*
X65280000Y-4273733D02*
X65280000Y-4616267D01*
X62290000Y-20961252D02*
X62290000Y-20438748D01*
X63710000Y-20961252D02*
X63710000Y-20438748D01*
X55210000Y-20961252D02*
X55210000Y-20438748D01*
X53790000Y-20961252D02*
X53790000Y-20438748D01*
X76075000Y-4273733D02*
X76075000Y-4616267D01*
X75055000Y-4273733D02*
X75055000Y-4616267D01*
X74590000Y-21361252D02*
X74590000Y-20838748D01*
X76010000Y-21361252D02*
X76010000Y-20838748D01*
X66710000Y-21361252D02*
X66710000Y-20838748D01*
X65290000Y-21361252D02*
X65290000Y-20838748D01*
X10571267Y-31560000D02*
X10228733Y-31560000D01*
X10571267Y-30540000D02*
X10228733Y-30540000D01*
X23977842Y-30596638D02*
X23635308Y-30596638D01*
X23977842Y-31616638D02*
X23635308Y-31616638D01*
X39385000Y-18628733D02*
X39385000Y-18971267D01*
X38365000Y-18628733D02*
X38365000Y-18971267D01*
X3171267Y-31510000D02*
X2828733Y-31510000D01*
X3171267Y-30490000D02*
X2828733Y-30490000D01*
X17321267Y-30540000D02*
X16978733Y-30540000D01*
X17321267Y-31560000D02*
X16978733Y-31560000D01*
X16901367Y-38160000D02*
X16558833Y-38160000D01*
X16901367Y-37140000D02*
X16558833Y-37140000D01*
X23771267Y-37140000D02*
X23428733Y-37140000D01*
X23771267Y-38160000D02*
X23428733Y-38160000D01*
X36740000Y-18971267D02*
X36740000Y-18628733D01*
X37760000Y-18971267D02*
X37760000Y-18628733D01*
X39990000Y-18628733D02*
X39990000Y-18971267D01*
X41010000Y-18628733D02*
X41010000Y-18971267D01*
X10031567Y-37140000D02*
X9689033Y-37140000D01*
X10031567Y-38160000D02*
X9689033Y-38160000D01*
X3161667Y-38160000D02*
X2819133Y-38160000D01*
X3161667Y-37140000D02*
X2819133Y-37140000D01*
X23690000Y-10096267D02*
X23690000Y-9753733D01*
X24710000Y-10096267D02*
X24710000Y-9753733D01*
X19640000Y-6828733D02*
X19640000Y-7171267D01*
X20660000Y-6828733D02*
X20660000Y-7171267D01*
X17640000Y-7261252D02*
X17640000Y-6738748D01*
X19060000Y-7261252D02*
X19060000Y-6738748D01*
X22660000Y-7261252D02*
X22660000Y-6738748D01*
X21240000Y-7261252D02*
X21240000Y-6738748D01*
X32785000Y-9971267D02*
X32785000Y-9628733D01*
X31765000Y-9971267D02*
X31765000Y-9628733D01*
X27640000Y-7103733D02*
X27640000Y-7446267D01*
X28660000Y-7103733D02*
X28660000Y-7446267D01*
X29190000Y-7411252D02*
X29190000Y-6888748D01*
X30610000Y-7411252D02*
X30610000Y-6888748D01*
X27110000Y-7411252D02*
X27110000Y-6888748D01*
X25690000Y-7411252D02*
X25690000Y-6888748D01*
X36140000Y-6978733D02*
X36140000Y-7321267D01*
X37160000Y-6978733D02*
X37160000Y-7321267D01*
X40040000Y-9771267D02*
X40040000Y-9428733D01*
X41060000Y-9771267D02*
X41060000Y-9428733D01*
X34190000Y-7411252D02*
X34190000Y-6888748D01*
X35610000Y-7411252D02*
X35610000Y-6888748D01*
X9875000Y-15800000D02*
X9875000Y-18600000D01*
X9875000Y-18600000D02*
X11875000Y-18600000D01*
X11875000Y-18600000D02*
X11875000Y-15800000D01*
X11875000Y-15800000D02*
X9875000Y-15800000D01*
X78276267Y-6860000D02*
X77933733Y-6860000D01*
X78276267Y-5840000D02*
X77933733Y-5840000D01*
X78276267Y-4955000D02*
X77933733Y-4955000D01*
X78276267Y-3935000D02*
X77933733Y-3935000D01*
X78276267Y-3050000D02*
X77933733Y-3050000D01*
X78276267Y-2030000D02*
X77933733Y-2030000D01*
D10*
X61552380Y-16757142D02*
X61076190Y-16423809D01*
X61552380Y-16185714D02*
X60552380Y-16185714D01*
X60552380Y-16566666D01*
X60600000Y-16661904D01*
X60647619Y-16709523D01*
X60742857Y-16757142D01*
X60885714Y-16757142D01*
X60980952Y-16709523D01*
X61028571Y-16661904D01*
X61076190Y-16566666D01*
X61076190Y-16185714D01*
X60552380Y-17090476D02*
X60552380Y-17757142D01*
X61552380Y-17328571D01*
X60552380Y-18566666D02*
X60552380Y-18376190D01*
X60600000Y-18280952D01*
X60647619Y-18233333D01*
X60790476Y-18138095D01*
X60980952Y-18090476D01*
X61361904Y-18090476D01*
X61457142Y-18138095D01*
X61504761Y-18185714D01*
X61552380Y-18280952D01*
X61552380Y-18471428D01*
X61504761Y-18566666D01*
X61457142Y-18614285D01*
X61361904Y-18661904D01*
X61123809Y-18661904D01*
X61028571Y-18614285D01*
X60980952Y-18566666D01*
X60933333Y-18471428D01*
X60933333Y-18280952D01*
X60980952Y-18185714D01*
X61028571Y-18138095D01*
X61123809Y-18090476D01*
X56852380Y-16857142D02*
X56376190Y-16523809D01*
X56852380Y-16285714D02*
X55852380Y-16285714D01*
X55852380Y-16666666D01*
X55900000Y-16761904D01*
X55947619Y-16809523D01*
X56042857Y-16857142D01*
X56185714Y-16857142D01*
X56280952Y-16809523D01*
X56328571Y-16761904D01*
X56376190Y-16666666D01*
X56376190Y-16285714D01*
X55852380Y-17190476D02*
X55852380Y-17857142D01*
X56852380Y-17428571D01*
X55852380Y-18714285D02*
X55852380Y-18238095D01*
X56328571Y-18190476D01*
X56280952Y-18238095D01*
X56233333Y-18333333D01*
X56233333Y-18571428D01*
X56280952Y-18666666D01*
X56328571Y-18714285D01*
X56423809Y-18761904D01*
X56661904Y-18761904D01*
X56757142Y-18714285D01*
X56804761Y-18666666D01*
X56852380Y-18571428D01*
X56852380Y-18333333D01*
X56804761Y-18238095D01*
X56757142Y-18190476D01*
X73152380Y-17057142D02*
X72676190Y-16723809D01*
X73152380Y-16485714D02*
X72152380Y-16485714D01*
X72152380Y-16866666D01*
X72200000Y-16961904D01*
X72247619Y-17009523D01*
X72342857Y-17057142D01*
X72485714Y-17057142D01*
X72580952Y-17009523D01*
X72628571Y-16961904D01*
X72676190Y-16866666D01*
X72676190Y-16485714D01*
X72152380Y-17390476D02*
X72152380Y-18057142D01*
X73152380Y-17628571D01*
X72485714Y-18866666D02*
X73152380Y-18866666D01*
X72104761Y-18628571D02*
X72819047Y-18390476D01*
X72819047Y-19009523D01*
X68552380Y-17157142D02*
X68076190Y-16823809D01*
X68552380Y-16585714D02*
X67552380Y-16585714D01*
X67552380Y-16966666D01*
X67600000Y-17061904D01*
X67647619Y-17109523D01*
X67742857Y-17157142D01*
X67885714Y-17157142D01*
X67980952Y-17109523D01*
X68028571Y-17061904D01*
X68076190Y-16966666D01*
X68076190Y-16585714D01*
X67552380Y-17490476D02*
X67552380Y-18109523D01*
X67933333Y-17776190D01*
X67933333Y-17919047D01*
X67980952Y-18014285D01*
X68028571Y-18061904D01*
X68123809Y-18109523D01*
X68361904Y-18109523D01*
X68457142Y-18061904D01*
X68504761Y-18014285D01*
X68552380Y-17919047D01*
X68552380Y-17633333D01*
X68504761Y-17538095D01*
X68457142Y-17490476D01*
X67885714Y-18966666D02*
X68552380Y-18966666D01*
X67504761Y-18728571D02*
X68219047Y-18490476D01*
X68219047Y-19109523D01*
X45252380Y-17557142D02*
X44776190Y-17223809D01*
X45252380Y-16985714D02*
X44252380Y-16985714D01*
X44252380Y-17366666D01*
X44300000Y-17461904D01*
X44347619Y-17509523D01*
X44442857Y-17557142D01*
X44585714Y-17557142D01*
X44680952Y-17509523D01*
X44728571Y-17461904D01*
X44776190Y-17366666D01*
X44776190Y-16985714D01*
X44252380Y-17890476D02*
X44252380Y-18509523D01*
X44633333Y-18176190D01*
X44633333Y-18319047D01*
X44680952Y-18414285D01*
X44728571Y-18461904D01*
X44823809Y-18509523D01*
X45061904Y-18509523D01*
X45157142Y-18461904D01*
X45204761Y-18414285D01*
X45252380Y-18319047D01*
X45252380Y-18033333D01*
X45204761Y-17938095D01*
X45157142Y-17890476D01*
X44347619Y-18890476D02*
X44300000Y-18938095D01*
X44252380Y-19033333D01*
X44252380Y-19271428D01*
X44300000Y-19366666D01*
X44347619Y-19414285D01*
X44442857Y-19461904D01*
X44538095Y-19461904D01*
X44680952Y-19414285D01*
X45252380Y-18842857D01*
X45252380Y-19461904D01*
X49852380Y-17457142D02*
X49376190Y-17123809D01*
X49852380Y-16885714D02*
X48852380Y-16885714D01*
X48852380Y-17266666D01*
X48900000Y-17361904D01*
X48947619Y-17409523D01*
X49042857Y-17457142D01*
X49185714Y-17457142D01*
X49280952Y-17409523D01*
X49328571Y-17361904D01*
X49376190Y-17266666D01*
X49376190Y-16885714D01*
X48852380Y-17790476D02*
X48852380Y-18409523D01*
X49233333Y-18076190D01*
X49233333Y-18219047D01*
X49280952Y-18314285D01*
X49328571Y-18361904D01*
X49423809Y-18409523D01*
X49661904Y-18409523D01*
X49757142Y-18361904D01*
X49804761Y-18314285D01*
X49852380Y-18219047D01*
X49852380Y-17933333D01*
X49804761Y-17838095D01*
X49757142Y-17790476D01*
X48852380Y-19028571D02*
X48852380Y-19123809D01*
X48900000Y-19219047D01*
X48947619Y-19266666D01*
X49042857Y-19314285D01*
X49233333Y-19361904D01*
X49471428Y-19361904D01*
X49661904Y-19314285D01*
X49757142Y-19266666D01*
X49804761Y-19219047D01*
X49852380Y-19123809D01*
X49852380Y-19028571D01*
X49804761Y-18933333D01*
X49757142Y-18885714D01*
X49661904Y-18838095D01*
X49471428Y-18790476D01*
X49233333Y-18790476D01*
X49042857Y-18838095D01*
X48947619Y-18885714D01*
X48900000Y-18933333D01*
X48852380Y-19028571D01*
X58695238Y-18547619D02*
X58790476Y-18500000D01*
X58885714Y-18404761D01*
X59028571Y-18261904D01*
X59123809Y-18214285D01*
X59219047Y-18214285D01*
X59171428Y-18452380D02*
X59266666Y-18404761D01*
X59361904Y-18309523D01*
X59409523Y-18119047D01*
X59409523Y-17785714D01*
X59361904Y-17595238D01*
X59266666Y-17500000D01*
X59171428Y-17452380D01*
X58980952Y-17452380D01*
X58885714Y-17500000D01*
X58790476Y-17595238D01*
X58742857Y-17785714D01*
X58742857Y-18119047D01*
X58790476Y-18309523D01*
X58885714Y-18404761D01*
X58980952Y-18452380D01*
X59171428Y-18452380D01*
X58266666Y-18452380D02*
X58076190Y-18452380D01*
X57980952Y-18404761D01*
X57933333Y-18357142D01*
X57838095Y-18214285D01*
X57790476Y-18023809D01*
X57790476Y-17642857D01*
X57838095Y-17547619D01*
X57885714Y-17500000D01*
X57980952Y-17452380D01*
X58171428Y-17452380D01*
X58266666Y-17500000D01*
X58314285Y-17547619D01*
X58361904Y-17642857D01*
X58361904Y-17880952D01*
X58314285Y-17976190D01*
X58266666Y-18023809D01*
X58171428Y-18071428D01*
X57980952Y-18071428D01*
X57885714Y-18023809D01*
X57838095Y-17976190D01*
X57790476Y-17880952D01*
X70595238Y-19147619D02*
X70690476Y-19100000D01*
X70785714Y-19004761D01*
X70928571Y-18861904D01*
X71023809Y-18814285D01*
X71119047Y-18814285D01*
X71071428Y-19052380D02*
X71166666Y-19004761D01*
X71261904Y-18909523D01*
X71309523Y-18719047D01*
X71309523Y-18385714D01*
X71261904Y-18195238D01*
X71166666Y-18100000D01*
X71071428Y-18052380D01*
X70880952Y-18052380D01*
X70785714Y-18100000D01*
X70690476Y-18195238D01*
X70642857Y-18385714D01*
X70642857Y-18719047D01*
X70690476Y-18909523D01*
X70785714Y-19004761D01*
X70880952Y-19052380D01*
X71071428Y-19052380D01*
X70071428Y-18480952D02*
X70166666Y-18433333D01*
X70214285Y-18385714D01*
X70261904Y-18290476D01*
X70261904Y-18242857D01*
X70214285Y-18147619D01*
X70166666Y-18100000D01*
X70071428Y-18052380D01*
X69880952Y-18052380D01*
X69785714Y-18100000D01*
X69738095Y-18147619D01*
X69690476Y-18242857D01*
X69690476Y-18290476D01*
X69738095Y-18385714D01*
X69785714Y-18433333D01*
X69880952Y-18480952D01*
X70071428Y-18480952D01*
X70166666Y-18528571D01*
X70214285Y-18576190D01*
X70261904Y-18671428D01*
X70261904Y-18861904D01*
X70214285Y-18957142D01*
X70166666Y-19004761D01*
X70071428Y-19052380D01*
X69880952Y-19052380D01*
X69785714Y-19004761D01*
X69738095Y-18957142D01*
X69690476Y-18861904D01*
X69690476Y-18671428D01*
X69738095Y-18576190D01*
X69785714Y-18528571D01*
X69880952Y-18480952D01*
X47095238Y-19547619D02*
X47190476Y-19500000D01*
X47285714Y-19404761D01*
X47428571Y-19261904D01*
X47523809Y-19214285D01*
X47619047Y-19214285D01*
X47571428Y-19452380D02*
X47666666Y-19404761D01*
X47761904Y-19309523D01*
X47809523Y-19119047D01*
X47809523Y-18785714D01*
X47761904Y-18595238D01*
X47666666Y-18500000D01*
X47571428Y-18452380D01*
X47380952Y-18452380D01*
X47285714Y-18500000D01*
X47190476Y-18595238D01*
X47142857Y-18785714D01*
X47142857Y-19119047D01*
X47190476Y-19309523D01*
X47285714Y-19404761D01*
X47380952Y-19452380D01*
X47571428Y-19452380D01*
X46809523Y-18452380D02*
X46142857Y-18452380D01*
X46571428Y-19452380D01*
X40652380Y-29557142D02*
X40176190Y-29223809D01*
X40652380Y-28985714D02*
X39652380Y-28985714D01*
X39652380Y-29366666D01*
X39700000Y-29461904D01*
X39747619Y-29509523D01*
X39842857Y-29557142D01*
X39985714Y-29557142D01*
X40080952Y-29509523D01*
X40128571Y-29461904D01*
X40176190Y-29366666D01*
X40176190Y-28985714D01*
X40652380Y-30033333D02*
X40652380Y-30223809D01*
X40604761Y-30319047D01*
X40557142Y-30366666D01*
X40414285Y-30461904D01*
X40223809Y-30509523D01*
X39842857Y-30509523D01*
X39747619Y-30461904D01*
X39700000Y-30414285D01*
X39652380Y-30319047D01*
X39652380Y-30128571D01*
X39700000Y-30033333D01*
X39747619Y-29985714D01*
X39842857Y-29938095D01*
X40080952Y-29938095D01*
X40176190Y-29985714D01*
X40223809Y-30033333D01*
X40271428Y-30128571D01*
X40271428Y-30319047D01*
X40223809Y-30414285D01*
X40176190Y-30461904D01*
X40080952Y-30509523D01*
X40652380Y-31461904D02*
X40652380Y-30890476D01*
X40652380Y-31176190D02*
X39652380Y-31176190D01*
X39795238Y-31080952D01*
X39890476Y-30985714D01*
X39938095Y-30890476D01*
X42252380Y-29357142D02*
X41776190Y-29023809D01*
X42252380Y-28785714D02*
X41252380Y-28785714D01*
X41252380Y-29166666D01*
X41300000Y-29261904D01*
X41347619Y-29309523D01*
X41442857Y-29357142D01*
X41585714Y-29357142D01*
X41680952Y-29309523D01*
X41728571Y-29261904D01*
X41776190Y-29166666D01*
X41776190Y-28785714D01*
X42252380Y-29833333D02*
X42252380Y-30023809D01*
X42204761Y-30119047D01*
X42157142Y-30166666D01*
X42014285Y-30261904D01*
X41823809Y-30309523D01*
X41442857Y-30309523D01*
X41347619Y-30261904D01*
X41300000Y-30214285D01*
X41252380Y-30119047D01*
X41252380Y-29928571D01*
X41300000Y-29833333D01*
X41347619Y-29785714D01*
X41442857Y-29738095D01*
X41680952Y-29738095D01*
X41776190Y-29785714D01*
X41823809Y-29833333D01*
X41871428Y-29928571D01*
X41871428Y-30119047D01*
X41823809Y-30214285D01*
X41776190Y-30261904D01*
X41680952Y-30309523D01*
X41252380Y-30928571D02*
X41252380Y-31023809D01*
X41300000Y-31119047D01*
X41347619Y-31166666D01*
X41442857Y-31214285D01*
X41633333Y-31261904D01*
X41871428Y-31261904D01*
X42061904Y-31214285D01*
X42157142Y-31166666D01*
X42204761Y-31119047D01*
X42252380Y-31023809D01*
X42252380Y-30928571D01*
X42204761Y-30833333D01*
X42157142Y-30785714D01*
X42061904Y-30738095D01*
X41871428Y-30690476D01*
X41633333Y-30690476D01*
X41442857Y-30738095D01*
X41347619Y-30785714D01*
X41300000Y-30833333D01*
X41252380Y-30928571D01*
X35252380Y-26457142D02*
X34776190Y-26123809D01*
X35252380Y-25885714D02*
X34252380Y-25885714D01*
X34252380Y-26266666D01*
X34300000Y-26361904D01*
X34347619Y-26409523D01*
X34442857Y-26457142D01*
X34585714Y-26457142D01*
X34680952Y-26409523D01*
X34728571Y-26361904D01*
X34776190Y-26266666D01*
X34776190Y-25885714D01*
X34680952Y-27028571D02*
X34633333Y-26933333D01*
X34585714Y-26885714D01*
X34490476Y-26838095D01*
X34442857Y-26838095D01*
X34347619Y-26885714D01*
X34300000Y-26933333D01*
X34252380Y-27028571D01*
X34252380Y-27219047D01*
X34300000Y-27314285D01*
X34347619Y-27361904D01*
X34442857Y-27409523D01*
X34490476Y-27409523D01*
X34585714Y-27361904D01*
X34633333Y-27314285D01*
X34680952Y-27219047D01*
X34680952Y-27028571D01*
X34728571Y-26933333D01*
X34776190Y-26885714D01*
X34871428Y-26838095D01*
X35061904Y-26838095D01*
X35157142Y-26885714D01*
X35204761Y-26933333D01*
X35252380Y-27028571D01*
X35252380Y-27219047D01*
X35204761Y-27314285D01*
X35157142Y-27361904D01*
X35061904Y-27409523D01*
X34871428Y-27409523D01*
X34776190Y-27361904D01*
X34728571Y-27314285D01*
X34680952Y-27219047D01*
X35252380Y-27885714D02*
X35252380Y-28076190D01*
X35204761Y-28171428D01*
X35157142Y-28219047D01*
X35014285Y-28314285D01*
X34823809Y-28361904D01*
X34442857Y-28361904D01*
X34347619Y-28314285D01*
X34300000Y-28266666D01*
X34252380Y-28171428D01*
X34252380Y-27980952D01*
X34300000Y-27885714D01*
X34347619Y-27838095D01*
X34442857Y-27790476D01*
X34680952Y-27790476D01*
X34776190Y-27838095D01*
X34823809Y-27885714D01*
X34871428Y-27980952D01*
X34871428Y-28171428D01*
X34823809Y-28266666D01*
X34776190Y-28314285D01*
X34680952Y-28361904D01*
X36052380Y-32557142D02*
X35576190Y-32223809D01*
X36052380Y-31985714D02*
X35052380Y-31985714D01*
X35052380Y-32366666D01*
X35100000Y-32461904D01*
X35147619Y-32509523D01*
X35242857Y-32557142D01*
X35385714Y-32557142D01*
X35480952Y-32509523D01*
X35528571Y-32461904D01*
X35576190Y-32366666D01*
X35576190Y-31985714D01*
X35480952Y-33128571D02*
X35433333Y-33033333D01*
X35385714Y-32985714D01*
X35290476Y-32938095D01*
X35242857Y-32938095D01*
X35147619Y-32985714D01*
X35100000Y-33033333D01*
X35052380Y-33128571D01*
X35052380Y-33319047D01*
X35100000Y-33414285D01*
X35147619Y-33461904D01*
X35242857Y-33509523D01*
X35290476Y-33509523D01*
X35385714Y-33461904D01*
X35433333Y-33414285D01*
X35480952Y-33319047D01*
X35480952Y-33128571D01*
X35528571Y-33033333D01*
X35576190Y-32985714D01*
X35671428Y-32938095D01*
X35861904Y-32938095D01*
X35957142Y-32985714D01*
X36004761Y-33033333D01*
X36052380Y-33128571D01*
X36052380Y-33319047D01*
X36004761Y-33414285D01*
X35957142Y-33461904D01*
X35861904Y-33509523D01*
X35671428Y-33509523D01*
X35576190Y-33461904D01*
X35528571Y-33414285D01*
X35480952Y-33319047D01*
X35480952Y-34080952D02*
X35433333Y-33985714D01*
X35385714Y-33938095D01*
X35290476Y-33890476D01*
X35242857Y-33890476D01*
X35147619Y-33938095D01*
X35100000Y-33985714D01*
X35052380Y-34080952D01*
X35052380Y-34271428D01*
X35100000Y-34366666D01*
X35147619Y-34414285D01*
X35242857Y-34461904D01*
X35290476Y-34461904D01*
X35385714Y-34414285D01*
X35433333Y-34366666D01*
X35480952Y-34271428D01*
X35480952Y-34080952D01*
X35528571Y-33985714D01*
X35576190Y-33938095D01*
X35671428Y-33890476D01*
X35861904Y-33890476D01*
X35957142Y-33938095D01*
X36004761Y-33985714D01*
X36052380Y-34080952D01*
X36052380Y-34271428D01*
X36004761Y-34366666D01*
X35957142Y-34414285D01*
X35861904Y-34461904D01*
X35671428Y-34461904D01*
X35576190Y-34414285D01*
X35528571Y-34366666D01*
X35480952Y-34271428D01*
X36452380Y-26457142D02*
X35976190Y-26123809D01*
X36452380Y-25885714D02*
X35452380Y-25885714D01*
X35452380Y-26266666D01*
X35500000Y-26361904D01*
X35547619Y-26409523D01*
X35642857Y-26457142D01*
X35785714Y-26457142D01*
X35880952Y-26409523D01*
X35928571Y-26361904D01*
X35976190Y-26266666D01*
X35976190Y-25885714D01*
X35880952Y-27028571D02*
X35833333Y-26933333D01*
X35785714Y-26885714D01*
X35690476Y-26838095D01*
X35642857Y-26838095D01*
X35547619Y-26885714D01*
X35500000Y-26933333D01*
X35452380Y-27028571D01*
X35452380Y-27219047D01*
X35500000Y-27314285D01*
X35547619Y-27361904D01*
X35642857Y-27409523D01*
X35690476Y-27409523D01*
X35785714Y-27361904D01*
X35833333Y-27314285D01*
X35880952Y-27219047D01*
X35880952Y-27028571D01*
X35928571Y-26933333D01*
X35976190Y-26885714D01*
X36071428Y-26838095D01*
X36261904Y-26838095D01*
X36357142Y-26885714D01*
X36404761Y-26933333D01*
X36452380Y-27028571D01*
X36452380Y-27219047D01*
X36404761Y-27314285D01*
X36357142Y-27361904D01*
X36261904Y-27409523D01*
X36071428Y-27409523D01*
X35976190Y-27361904D01*
X35928571Y-27314285D01*
X35880952Y-27219047D01*
X35452380Y-27742857D02*
X35452380Y-28409523D01*
X36452380Y-27980952D01*
X35252380Y-21957142D02*
X34776190Y-21623809D01*
X35252380Y-21385714D02*
X34252380Y-21385714D01*
X34252380Y-21766666D01*
X34300000Y-21861904D01*
X34347619Y-21909523D01*
X34442857Y-21957142D01*
X34585714Y-21957142D01*
X34680952Y-21909523D01*
X34728571Y-21861904D01*
X34776190Y-21766666D01*
X34776190Y-21385714D01*
X34680952Y-22528571D02*
X34633333Y-22433333D01*
X34585714Y-22385714D01*
X34490476Y-22338095D01*
X34442857Y-22338095D01*
X34347619Y-22385714D01*
X34300000Y-22433333D01*
X34252380Y-22528571D01*
X34252380Y-22719047D01*
X34300000Y-22814285D01*
X34347619Y-22861904D01*
X34442857Y-22909523D01*
X34490476Y-22909523D01*
X34585714Y-22861904D01*
X34633333Y-22814285D01*
X34680952Y-22719047D01*
X34680952Y-22528571D01*
X34728571Y-22433333D01*
X34776190Y-22385714D01*
X34871428Y-22338095D01*
X35061904Y-22338095D01*
X35157142Y-22385714D01*
X35204761Y-22433333D01*
X35252380Y-22528571D01*
X35252380Y-22719047D01*
X35204761Y-22814285D01*
X35157142Y-22861904D01*
X35061904Y-22909523D01*
X34871428Y-22909523D01*
X34776190Y-22861904D01*
X34728571Y-22814285D01*
X34680952Y-22719047D01*
X34252380Y-23766666D02*
X34252380Y-23576190D01*
X34300000Y-23480952D01*
X34347619Y-23433333D01*
X34490476Y-23338095D01*
X34680952Y-23290476D01*
X35061904Y-23290476D01*
X35157142Y-23338095D01*
X35204761Y-23385714D01*
X35252380Y-23480952D01*
X35252380Y-23671428D01*
X35204761Y-23766666D01*
X35157142Y-23814285D01*
X35061904Y-23861904D01*
X34823809Y-23861904D01*
X34728571Y-23814285D01*
X34680952Y-23766666D01*
X34633333Y-23671428D01*
X34633333Y-23480952D01*
X34680952Y-23385714D01*
X34728571Y-23338095D01*
X34823809Y-23290476D01*
X51214285Y-26052380D02*
X51214285Y-25052380D01*
X50976190Y-25052380D01*
X50833333Y-25100000D01*
X50738095Y-25195238D01*
X50690476Y-25290476D01*
X50642857Y-25480952D01*
X50642857Y-25623809D01*
X50690476Y-25814285D01*
X50738095Y-25909523D01*
X50833333Y-26004761D01*
X50976190Y-26052380D01*
X51214285Y-26052380D01*
X50261904Y-25147619D02*
X50214285Y-25100000D01*
X50119047Y-25052380D01*
X49880952Y-25052380D01*
X49785714Y-25100000D01*
X49738095Y-25147619D01*
X49690476Y-25242857D01*
X49690476Y-25338095D01*
X49738095Y-25480952D01*
X50309523Y-26052380D01*
X49690476Y-26052380D01*
X49119047Y-25480952D02*
X49214285Y-25433333D01*
X49261904Y-25385714D01*
X49309523Y-25290476D01*
X49309523Y-25242857D01*
X49261904Y-25147619D01*
X49214285Y-25100000D01*
X49119047Y-25052380D01*
X48928571Y-25052380D01*
X48833333Y-25100000D01*
X48785714Y-25147619D01*
X48738095Y-25242857D01*
X48738095Y-25290476D01*
X48785714Y-25385714D01*
X48833333Y-25433333D01*
X48928571Y-25480952D01*
X49119047Y-25480952D01*
X49214285Y-25528571D01*
X49261904Y-25576190D01*
X49309523Y-25671428D01*
X49309523Y-25861904D01*
X49261904Y-25957142D01*
X49214285Y-26004761D01*
X49119047Y-26052380D01*
X48928571Y-26052380D01*
X48833333Y-26004761D01*
X48785714Y-25957142D01*
X48738095Y-25861904D01*
X48738095Y-25671428D01*
X48785714Y-25576190D01*
X48833333Y-25528571D01*
X48928571Y-25480952D01*
X50542857Y-31257142D02*
X50590476Y-31304761D01*
X50733333Y-31352380D01*
X50828571Y-31352380D01*
X50971428Y-31304761D01*
X51066666Y-31209523D01*
X51114285Y-31114285D01*
X51161904Y-30923809D01*
X51161904Y-30780952D01*
X51114285Y-30590476D01*
X51066666Y-30495238D01*
X50971428Y-30400000D01*
X50828571Y-30352380D01*
X50733333Y-30352380D01*
X50590476Y-30400000D01*
X50542857Y-30447619D01*
X49685714Y-30352380D02*
X49876190Y-30352380D01*
X49971428Y-30400000D01*
X50019047Y-30447619D01*
X50114285Y-30590476D01*
X50161904Y-30780952D01*
X50161904Y-31161904D01*
X50114285Y-31257142D01*
X50066666Y-31304761D01*
X49971428Y-31352380D01*
X49780952Y-31352380D01*
X49685714Y-31304761D01*
X49638095Y-31257142D01*
X49590476Y-31161904D01*
X49590476Y-30923809D01*
X49638095Y-30828571D01*
X49685714Y-30780952D01*
X49780952Y-30733333D01*
X49971428Y-30733333D01*
X50066666Y-30780952D01*
X50114285Y-30828571D01*
X50161904Y-30923809D01*
X49209523Y-30447619D02*
X49161904Y-30400000D01*
X49066666Y-30352380D01*
X48828571Y-30352380D01*
X48733333Y-30400000D01*
X48685714Y-30447619D01*
X48638095Y-30542857D01*
X48638095Y-30638095D01*
X48685714Y-30780952D01*
X49257142Y-31352380D01*
X48638095Y-31352380D01*
X50442857Y-32657142D02*
X50490476Y-32704761D01*
X50633333Y-32752380D01*
X50728571Y-32752380D01*
X50871428Y-32704761D01*
X50966666Y-32609523D01*
X51014285Y-32514285D01*
X51061904Y-32323809D01*
X51061904Y-32180952D01*
X51014285Y-31990476D01*
X50966666Y-31895238D01*
X50871428Y-31800000D01*
X50728571Y-31752380D01*
X50633333Y-31752380D01*
X50490476Y-31800000D01*
X50442857Y-31847619D01*
X49585714Y-31752380D02*
X49776190Y-31752380D01*
X49871428Y-31800000D01*
X49919047Y-31847619D01*
X50014285Y-31990476D01*
X50061904Y-32180952D01*
X50061904Y-32561904D01*
X50014285Y-32657142D01*
X49966666Y-32704761D01*
X49871428Y-32752380D01*
X49680952Y-32752380D01*
X49585714Y-32704761D01*
X49538095Y-32657142D01*
X49490476Y-32561904D01*
X49490476Y-32323809D01*
X49538095Y-32228571D01*
X49585714Y-32180952D01*
X49680952Y-32133333D01*
X49871428Y-32133333D01*
X49966666Y-32180952D01*
X50014285Y-32228571D01*
X50061904Y-32323809D01*
X48538095Y-32752380D02*
X49109523Y-32752380D01*
X48823809Y-32752380D02*
X48823809Y-31752380D01*
X48919047Y-31895238D01*
X49014285Y-31990476D01*
X49109523Y-32038095D01*
X38957142Y-29457142D02*
X39004761Y-29409523D01*
X39052380Y-29266666D01*
X39052380Y-29171428D01*
X39004761Y-29028571D01*
X38909523Y-28933333D01*
X38814285Y-28885714D01*
X38623809Y-28838095D01*
X38480952Y-28838095D01*
X38290476Y-28885714D01*
X38195238Y-28933333D01*
X38100000Y-29028571D01*
X38052380Y-29171428D01*
X38052380Y-29266666D01*
X38100000Y-29409523D01*
X38147619Y-29457142D01*
X38052380Y-30314285D02*
X38052380Y-30123809D01*
X38100000Y-30028571D01*
X38147619Y-29980952D01*
X38290476Y-29885714D01*
X38480952Y-29838095D01*
X38861904Y-29838095D01*
X38957142Y-29885714D01*
X39004761Y-29933333D01*
X39052380Y-30028571D01*
X39052380Y-30219047D01*
X39004761Y-30314285D01*
X38957142Y-30361904D01*
X38861904Y-30409523D01*
X38623809Y-30409523D01*
X38528571Y-30361904D01*
X38480952Y-30314285D01*
X38433333Y-30219047D01*
X38433333Y-30028571D01*
X38480952Y-29933333D01*
X38528571Y-29885714D01*
X38623809Y-29838095D01*
X38052380Y-31028571D02*
X38052380Y-31123809D01*
X38100000Y-31219047D01*
X38147619Y-31266666D01*
X38242857Y-31314285D01*
X38433333Y-31361904D01*
X38671428Y-31361904D01*
X38861904Y-31314285D01*
X38957142Y-31266666D01*
X39004761Y-31219047D01*
X39052380Y-31123809D01*
X39052380Y-31028571D01*
X39004761Y-30933333D01*
X38957142Y-30885714D01*
X38861904Y-30838095D01*
X38671428Y-30790476D01*
X38433333Y-30790476D01*
X38242857Y-30838095D01*
X38147619Y-30885714D01*
X38100000Y-30933333D01*
X38052380Y-31028571D01*
X33957142Y-26457142D02*
X34004761Y-26409523D01*
X34052380Y-26266666D01*
X34052380Y-26171428D01*
X34004761Y-26028571D01*
X33909523Y-25933333D01*
X33814285Y-25885714D01*
X33623809Y-25838095D01*
X33480952Y-25838095D01*
X33290476Y-25885714D01*
X33195238Y-25933333D01*
X33100000Y-26028571D01*
X33052380Y-26171428D01*
X33052380Y-26266666D01*
X33100000Y-26409523D01*
X33147619Y-26457142D01*
X33052380Y-27361904D02*
X33052380Y-26885714D01*
X33528571Y-26838095D01*
X33480952Y-26885714D01*
X33433333Y-26980952D01*
X33433333Y-27219047D01*
X33480952Y-27314285D01*
X33528571Y-27361904D01*
X33623809Y-27409523D01*
X33861904Y-27409523D01*
X33957142Y-27361904D01*
X34004761Y-27314285D01*
X34052380Y-27219047D01*
X34052380Y-26980952D01*
X34004761Y-26885714D01*
X33957142Y-26838095D01*
X34052380Y-27885714D02*
X34052380Y-28076190D01*
X34004761Y-28171428D01*
X33957142Y-28219047D01*
X33814285Y-28314285D01*
X33623809Y-28361904D01*
X33242857Y-28361904D01*
X33147619Y-28314285D01*
X33100000Y-28266666D01*
X33052380Y-28171428D01*
X33052380Y-27980952D01*
X33100000Y-27885714D01*
X33147619Y-27838095D01*
X33242857Y-27790476D01*
X33480952Y-27790476D01*
X33576190Y-27838095D01*
X33623809Y-27885714D01*
X33671428Y-27980952D01*
X33671428Y-28171428D01*
X33623809Y-28266666D01*
X33576190Y-28314285D01*
X33480952Y-28361904D01*
X33957142Y-21957142D02*
X34004761Y-21909523D01*
X34052380Y-21766666D01*
X34052380Y-21671428D01*
X34004761Y-21528571D01*
X33909523Y-21433333D01*
X33814285Y-21385714D01*
X33623809Y-21338095D01*
X33480952Y-21338095D01*
X33290476Y-21385714D01*
X33195238Y-21433333D01*
X33100000Y-21528571D01*
X33052380Y-21671428D01*
X33052380Y-21766666D01*
X33100000Y-21909523D01*
X33147619Y-21957142D01*
X33052380Y-22861904D02*
X33052380Y-22385714D01*
X33528571Y-22338095D01*
X33480952Y-22385714D01*
X33433333Y-22480952D01*
X33433333Y-22719047D01*
X33480952Y-22814285D01*
X33528571Y-22861904D01*
X33623809Y-22909523D01*
X33861904Y-22909523D01*
X33957142Y-22861904D01*
X34004761Y-22814285D01*
X34052380Y-22719047D01*
X34052380Y-22480952D01*
X34004761Y-22385714D01*
X33957142Y-22338095D01*
X33480952Y-23480952D02*
X33433333Y-23385714D01*
X33385714Y-23338095D01*
X33290476Y-23290476D01*
X33242857Y-23290476D01*
X33147619Y-23338095D01*
X33100000Y-23385714D01*
X33052380Y-23480952D01*
X33052380Y-23671428D01*
X33100000Y-23766666D01*
X33147619Y-23814285D01*
X33242857Y-23861904D01*
X33290476Y-23861904D01*
X33385714Y-23814285D01*
X33433333Y-23766666D01*
X33480952Y-23671428D01*
X33480952Y-23480952D01*
X33528571Y-23385714D01*
X33576190Y-23338095D01*
X33671428Y-23290476D01*
X33861904Y-23290476D01*
X33957142Y-23338095D01*
X34004761Y-23385714D01*
X34052380Y-23480952D01*
X34052380Y-23671428D01*
X34004761Y-23766666D01*
X33957142Y-23814285D01*
X33861904Y-23861904D01*
X33671428Y-23861904D01*
X33576190Y-23814285D01*
X33528571Y-23766666D01*
X33480952Y-23671428D01*
X41852380Y-46057142D02*
X41376190Y-45723809D01*
X41852380Y-45485714D02*
X40852380Y-45485714D01*
X40852380Y-45866666D01*
X40900000Y-45961904D01*
X40947619Y-46009523D01*
X41042857Y-46057142D01*
X41185714Y-46057142D01*
X41280952Y-46009523D01*
X41328571Y-45961904D01*
X41376190Y-45866666D01*
X41376190Y-45485714D01*
X41280952Y-46628571D02*
X41233333Y-46533333D01*
X41185714Y-46485714D01*
X41090476Y-46438095D01*
X41042857Y-46438095D01*
X40947619Y-46485714D01*
X40900000Y-46533333D01*
X40852380Y-46628571D01*
X40852380Y-46819047D01*
X40900000Y-46914285D01*
X40947619Y-46961904D01*
X41042857Y-47009523D01*
X41090476Y-47009523D01*
X41185714Y-46961904D01*
X41233333Y-46914285D01*
X41280952Y-46819047D01*
X41280952Y-46628571D01*
X41328571Y-46533333D01*
X41376190Y-46485714D01*
X41471428Y-46438095D01*
X41661904Y-46438095D01*
X41757142Y-46485714D01*
X41804761Y-46533333D01*
X41852380Y-46628571D01*
X41852380Y-46819047D01*
X41804761Y-46914285D01*
X41757142Y-46961904D01*
X41661904Y-47009523D01*
X41471428Y-47009523D01*
X41376190Y-46961904D01*
X41328571Y-46914285D01*
X41280952Y-46819047D01*
X40852380Y-47914285D02*
X40852380Y-47438095D01*
X41328571Y-47390476D01*
X41280952Y-47438095D01*
X41233333Y-47533333D01*
X41233333Y-47771428D01*
X41280952Y-47866666D01*
X41328571Y-47914285D01*
X41423809Y-47961904D01*
X41661904Y-47961904D01*
X41757142Y-47914285D01*
X41804761Y-47866666D01*
X41852380Y-47771428D01*
X41852380Y-47533333D01*
X41804761Y-47438095D01*
X41757142Y-47390476D01*
X42752380Y-40057142D02*
X42276190Y-39723809D01*
X42752380Y-39485714D02*
X41752380Y-39485714D01*
X41752380Y-39866666D01*
X41800000Y-39961904D01*
X41847619Y-40009523D01*
X41942857Y-40057142D01*
X42085714Y-40057142D01*
X42180952Y-40009523D01*
X42228571Y-39961904D01*
X42276190Y-39866666D01*
X42276190Y-39485714D01*
X42180952Y-40628571D02*
X42133333Y-40533333D01*
X42085714Y-40485714D01*
X41990476Y-40438095D01*
X41942857Y-40438095D01*
X41847619Y-40485714D01*
X41800000Y-40533333D01*
X41752380Y-40628571D01*
X41752380Y-40819047D01*
X41800000Y-40914285D01*
X41847619Y-40961904D01*
X41942857Y-41009523D01*
X41990476Y-41009523D01*
X42085714Y-40961904D01*
X42133333Y-40914285D01*
X42180952Y-40819047D01*
X42180952Y-40628571D01*
X42228571Y-40533333D01*
X42276190Y-40485714D01*
X42371428Y-40438095D01*
X42561904Y-40438095D01*
X42657142Y-40485714D01*
X42704761Y-40533333D01*
X42752380Y-40628571D01*
X42752380Y-40819047D01*
X42704761Y-40914285D01*
X42657142Y-40961904D01*
X42561904Y-41009523D01*
X42371428Y-41009523D01*
X42276190Y-40961904D01*
X42228571Y-40914285D01*
X42180952Y-40819047D01*
X42085714Y-41866666D02*
X42752380Y-41866666D01*
X41704761Y-41628571D02*
X42419047Y-41390476D01*
X42419047Y-42009523D01*
X41052380Y-40057142D02*
X40576190Y-39723809D01*
X41052380Y-39485714D02*
X40052380Y-39485714D01*
X40052380Y-39866666D01*
X40100000Y-39961904D01*
X40147619Y-40009523D01*
X40242857Y-40057142D01*
X40385714Y-40057142D01*
X40480952Y-40009523D01*
X40528571Y-39961904D01*
X40576190Y-39866666D01*
X40576190Y-39485714D01*
X40480952Y-40628571D02*
X40433333Y-40533333D01*
X40385714Y-40485714D01*
X40290476Y-40438095D01*
X40242857Y-40438095D01*
X40147619Y-40485714D01*
X40100000Y-40533333D01*
X40052380Y-40628571D01*
X40052380Y-40819047D01*
X40100000Y-40914285D01*
X40147619Y-40961904D01*
X40242857Y-41009523D01*
X40290476Y-41009523D01*
X40385714Y-40961904D01*
X40433333Y-40914285D01*
X40480952Y-40819047D01*
X40480952Y-40628571D01*
X40528571Y-40533333D01*
X40576190Y-40485714D01*
X40671428Y-40438095D01*
X40861904Y-40438095D01*
X40957142Y-40485714D01*
X41004761Y-40533333D01*
X41052380Y-40628571D01*
X41052380Y-40819047D01*
X41004761Y-40914285D01*
X40957142Y-40961904D01*
X40861904Y-41009523D01*
X40671428Y-41009523D01*
X40576190Y-40961904D01*
X40528571Y-40914285D01*
X40480952Y-40819047D01*
X40052380Y-41342857D02*
X40052380Y-41961904D01*
X40433333Y-41628571D01*
X40433333Y-41771428D01*
X40480952Y-41866666D01*
X40528571Y-41914285D01*
X40623809Y-41961904D01*
X40861904Y-41961904D01*
X40957142Y-41914285D01*
X41004761Y-41866666D01*
X41052380Y-41771428D01*
X41052380Y-41485714D01*
X41004761Y-41390476D01*
X40957142Y-41342857D01*
X38452380Y-46057142D02*
X37976190Y-45723809D01*
X38452380Y-45485714D02*
X37452380Y-45485714D01*
X37452380Y-45866666D01*
X37500000Y-45961904D01*
X37547619Y-46009523D01*
X37642857Y-46057142D01*
X37785714Y-46057142D01*
X37880952Y-46009523D01*
X37928571Y-45961904D01*
X37976190Y-45866666D01*
X37976190Y-45485714D01*
X37880952Y-46628571D02*
X37833333Y-46533333D01*
X37785714Y-46485714D01*
X37690476Y-46438095D01*
X37642857Y-46438095D01*
X37547619Y-46485714D01*
X37500000Y-46533333D01*
X37452380Y-46628571D01*
X37452380Y-46819047D01*
X37500000Y-46914285D01*
X37547619Y-46961904D01*
X37642857Y-47009523D01*
X37690476Y-47009523D01*
X37785714Y-46961904D01*
X37833333Y-46914285D01*
X37880952Y-46819047D01*
X37880952Y-46628571D01*
X37928571Y-46533333D01*
X37976190Y-46485714D01*
X38071428Y-46438095D01*
X38261904Y-46438095D01*
X38357142Y-46485714D01*
X38404761Y-46533333D01*
X38452380Y-46628571D01*
X38452380Y-46819047D01*
X38404761Y-46914285D01*
X38357142Y-46961904D01*
X38261904Y-47009523D01*
X38071428Y-47009523D01*
X37976190Y-46961904D01*
X37928571Y-46914285D01*
X37880952Y-46819047D01*
X37547619Y-47390476D02*
X37500000Y-47438095D01*
X37452380Y-47533333D01*
X37452380Y-47771428D01*
X37500000Y-47866666D01*
X37547619Y-47914285D01*
X37642857Y-47961904D01*
X37738095Y-47961904D01*
X37880952Y-47914285D01*
X38452380Y-47342857D01*
X38452380Y-47961904D01*
X43652380Y-46057142D02*
X43176190Y-45723809D01*
X43652380Y-45485714D02*
X42652380Y-45485714D01*
X42652380Y-45866666D01*
X42700000Y-45961904D01*
X42747619Y-46009523D01*
X42842857Y-46057142D01*
X42985714Y-46057142D01*
X43080952Y-46009523D01*
X43128571Y-45961904D01*
X43176190Y-45866666D01*
X43176190Y-45485714D01*
X43080952Y-46628571D02*
X43033333Y-46533333D01*
X42985714Y-46485714D01*
X42890476Y-46438095D01*
X42842857Y-46438095D01*
X42747619Y-46485714D01*
X42700000Y-46533333D01*
X42652380Y-46628571D01*
X42652380Y-46819047D01*
X42700000Y-46914285D01*
X42747619Y-46961904D01*
X42842857Y-47009523D01*
X42890476Y-47009523D01*
X42985714Y-46961904D01*
X43033333Y-46914285D01*
X43080952Y-46819047D01*
X43080952Y-46628571D01*
X43128571Y-46533333D01*
X43176190Y-46485714D01*
X43271428Y-46438095D01*
X43461904Y-46438095D01*
X43557142Y-46485714D01*
X43604761Y-46533333D01*
X43652380Y-46628571D01*
X43652380Y-46819047D01*
X43604761Y-46914285D01*
X43557142Y-46961904D01*
X43461904Y-47009523D01*
X43271428Y-47009523D01*
X43176190Y-46961904D01*
X43128571Y-46914285D01*
X43080952Y-46819047D01*
X43652380Y-47961904D02*
X43652380Y-47390476D01*
X43652380Y-47676190D02*
X42652380Y-47676190D01*
X42795238Y-47580952D01*
X42890476Y-47485714D01*
X42938095Y-47390476D01*
X35222380Y-43057142D02*
X34746190Y-42723809D01*
X35222380Y-42485714D02*
X34222380Y-42485714D01*
X34222380Y-42866666D01*
X34270000Y-42961904D01*
X34317619Y-43009523D01*
X34412857Y-43057142D01*
X34555714Y-43057142D01*
X34650952Y-43009523D01*
X34698571Y-42961904D01*
X34746190Y-42866666D01*
X34746190Y-42485714D01*
X34650952Y-43628571D02*
X34603333Y-43533333D01*
X34555714Y-43485714D01*
X34460476Y-43438095D01*
X34412857Y-43438095D01*
X34317619Y-43485714D01*
X34270000Y-43533333D01*
X34222380Y-43628571D01*
X34222380Y-43819047D01*
X34270000Y-43914285D01*
X34317619Y-43961904D01*
X34412857Y-44009523D01*
X34460476Y-44009523D01*
X34555714Y-43961904D01*
X34603333Y-43914285D01*
X34650952Y-43819047D01*
X34650952Y-43628571D01*
X34698571Y-43533333D01*
X34746190Y-43485714D01*
X34841428Y-43438095D01*
X35031904Y-43438095D01*
X35127142Y-43485714D01*
X35174761Y-43533333D01*
X35222380Y-43628571D01*
X35222380Y-43819047D01*
X35174761Y-43914285D01*
X35127142Y-43961904D01*
X35031904Y-44009523D01*
X34841428Y-44009523D01*
X34746190Y-43961904D01*
X34698571Y-43914285D01*
X34650952Y-43819047D01*
X34222380Y-44628571D02*
X34222380Y-44723809D01*
X34270000Y-44819047D01*
X34317619Y-44866666D01*
X34412857Y-44914285D01*
X34603333Y-44961904D01*
X34841428Y-44961904D01*
X35031904Y-44914285D01*
X35127142Y-44866666D01*
X35174761Y-44819047D01*
X35222380Y-44723809D01*
X35222380Y-44628571D01*
X35174761Y-44533333D01*
X35127142Y-44485714D01*
X35031904Y-44438095D01*
X34841428Y-44390476D01*
X34603333Y-44390476D01*
X34412857Y-44438095D01*
X34317619Y-44485714D01*
X34270000Y-44533333D01*
X34222380Y-44628571D01*
X52414285Y-38252380D02*
X52414285Y-37252380D01*
X52176190Y-37252380D01*
X52033333Y-37300000D01*
X51938095Y-37395238D01*
X51890476Y-37490476D01*
X51842857Y-37680952D01*
X51842857Y-37823809D01*
X51890476Y-38014285D01*
X51938095Y-38109523D01*
X52033333Y-38204761D01*
X52176190Y-38252380D01*
X52414285Y-38252380D01*
X51461904Y-37347619D02*
X51414285Y-37300000D01*
X51319047Y-37252380D01*
X51080952Y-37252380D01*
X50985714Y-37300000D01*
X50938095Y-37347619D01*
X50890476Y-37442857D01*
X50890476Y-37538095D01*
X50938095Y-37680952D01*
X51509523Y-38252380D01*
X50890476Y-38252380D01*
X50557142Y-37252380D02*
X49890476Y-37252380D01*
X50319047Y-38252380D01*
X51142857Y-43157142D02*
X51190476Y-43204761D01*
X51333333Y-43252380D01*
X51428571Y-43252380D01*
X51571428Y-43204761D01*
X51666666Y-43109523D01*
X51714285Y-43014285D01*
X51761904Y-42823809D01*
X51761904Y-42680952D01*
X51714285Y-42490476D01*
X51666666Y-42395238D01*
X51571428Y-42300000D01*
X51428571Y-42252380D01*
X51333333Y-42252380D01*
X51190476Y-42300000D01*
X51142857Y-42347619D01*
X50238095Y-42252380D02*
X50714285Y-42252380D01*
X50761904Y-42728571D01*
X50714285Y-42680952D01*
X50619047Y-42633333D01*
X50380952Y-42633333D01*
X50285714Y-42680952D01*
X50238095Y-42728571D01*
X50190476Y-42823809D01*
X50190476Y-43061904D01*
X50238095Y-43157142D01*
X50285714Y-43204761D01*
X50380952Y-43252380D01*
X50619047Y-43252380D01*
X50714285Y-43204761D01*
X50761904Y-43157142D01*
X49857142Y-42252380D02*
X49190476Y-42252380D01*
X49619047Y-43252380D01*
X51142857Y-41057142D02*
X51190476Y-41104761D01*
X51333333Y-41152380D01*
X51428571Y-41152380D01*
X51571428Y-41104761D01*
X51666666Y-41009523D01*
X51714285Y-40914285D01*
X51761904Y-40723809D01*
X51761904Y-40580952D01*
X51714285Y-40390476D01*
X51666666Y-40295238D01*
X51571428Y-40200000D01*
X51428571Y-40152380D01*
X51333333Y-40152380D01*
X51190476Y-40200000D01*
X51142857Y-40247619D01*
X50238095Y-40152380D02*
X50714285Y-40152380D01*
X50761904Y-40628571D01*
X50714285Y-40580952D01*
X50619047Y-40533333D01*
X50380952Y-40533333D01*
X50285714Y-40580952D01*
X50238095Y-40628571D01*
X50190476Y-40723809D01*
X50190476Y-40961904D01*
X50238095Y-41057142D01*
X50285714Y-41104761D01*
X50380952Y-41152380D01*
X50619047Y-41152380D01*
X50714285Y-41104761D01*
X50761904Y-41057142D01*
X49333333Y-40152380D02*
X49523809Y-40152380D01*
X49619047Y-40200000D01*
X49666666Y-40247619D01*
X49761904Y-40390476D01*
X49809523Y-40580952D01*
X49809523Y-40961904D01*
X49761904Y-41057142D01*
X49714285Y-41104761D01*
X49619047Y-41152380D01*
X49428571Y-41152380D01*
X49333333Y-41104761D01*
X49285714Y-41057142D01*
X49238095Y-40961904D01*
X49238095Y-40723809D01*
X49285714Y-40628571D01*
X49333333Y-40580952D01*
X49428571Y-40533333D01*
X49619047Y-40533333D01*
X49714285Y-40580952D01*
X49761904Y-40628571D01*
X49809523Y-40723809D01*
X40057142Y-46057142D02*
X40104761Y-46009523D01*
X40152380Y-45866666D01*
X40152380Y-45771428D01*
X40104761Y-45628571D01*
X40009523Y-45533333D01*
X39914285Y-45485714D01*
X39723809Y-45438095D01*
X39580952Y-45438095D01*
X39390476Y-45485714D01*
X39295238Y-45533333D01*
X39200000Y-45628571D01*
X39152380Y-45771428D01*
X39152380Y-45866666D01*
X39200000Y-46009523D01*
X39247619Y-46057142D01*
X39485714Y-46914285D02*
X40152380Y-46914285D01*
X39104761Y-46676190D02*
X39819047Y-46438095D01*
X39819047Y-47057142D01*
X39152380Y-47342857D02*
X39152380Y-47961904D01*
X39533333Y-47628571D01*
X39533333Y-47771428D01*
X39580952Y-47866666D01*
X39628571Y-47914285D01*
X39723809Y-47961904D01*
X39961904Y-47961904D01*
X40057142Y-47914285D01*
X40104761Y-47866666D01*
X40152380Y-47771428D01*
X40152380Y-47485714D01*
X40104761Y-47390476D01*
X40057142Y-47342857D01*
X37457142Y-37357142D02*
X37504761Y-37309523D01*
X37552380Y-37166666D01*
X37552380Y-37071428D01*
X37504761Y-36928571D01*
X37409523Y-36833333D01*
X37314285Y-36785714D01*
X37123809Y-36738095D01*
X36980952Y-36738095D01*
X36790476Y-36785714D01*
X36695238Y-36833333D01*
X36600000Y-36928571D01*
X36552380Y-37071428D01*
X36552380Y-37166666D01*
X36600000Y-37309523D01*
X36647619Y-37357142D01*
X36552380Y-37690476D02*
X36552380Y-38309523D01*
X36933333Y-37976190D01*
X36933333Y-38119047D01*
X36980952Y-38214285D01*
X37028571Y-38261904D01*
X37123809Y-38309523D01*
X37361904Y-38309523D01*
X37457142Y-38261904D01*
X37504761Y-38214285D01*
X37552380Y-38119047D01*
X37552380Y-37833333D01*
X37504761Y-37738095D01*
X37457142Y-37690476D01*
X36552380Y-39214285D02*
X36552380Y-38738095D01*
X37028571Y-38690476D01*
X36980952Y-38738095D01*
X36933333Y-38833333D01*
X36933333Y-39071428D01*
X36980952Y-39166666D01*
X37028571Y-39214285D01*
X37123809Y-39261904D01*
X37361904Y-39261904D01*
X37457142Y-39214285D01*
X37504761Y-39166666D01*
X37552380Y-39071428D01*
X37552380Y-38833333D01*
X37504761Y-38738095D01*
X37457142Y-38690476D01*
X96571428Y-12369047D02*
X96571428Y-13130952D01*
X96952380Y-12750000D02*
X96190476Y-12750000D01*
X96785714Y-15654761D02*
X96642857Y-15702380D01*
X96404761Y-15702380D01*
X96309523Y-15654761D01*
X96261904Y-15607142D01*
X96214285Y-15511904D01*
X96214285Y-15416666D01*
X96261904Y-15321428D01*
X96309523Y-15273809D01*
X96404761Y-15226190D01*
X96595238Y-15178571D01*
X96690476Y-15130952D01*
X96738095Y-15083333D01*
X96785714Y-14988095D01*
X96785714Y-14892857D01*
X96738095Y-14797619D01*
X96690476Y-14750000D01*
X96595238Y-14702380D01*
X96357142Y-14702380D01*
X96214285Y-14750000D01*
X96880952Y-10071428D02*
X96119047Y-10071428D01*
X66267619Y-94482285D02*
X66220000Y-94529904D01*
X66172380Y-94625142D01*
X66172380Y-94863238D01*
X66220000Y-94958476D01*
X66267619Y-95006095D01*
X66362857Y-95053714D01*
X66458095Y-95053714D01*
X66600952Y-95006095D01*
X67172380Y-94434666D01*
X67172380Y-95053714D01*
X66648571Y-95815619D02*
X66696190Y-95958476D01*
X66743809Y-96006095D01*
X66839047Y-96053714D01*
X66981904Y-96053714D01*
X67077142Y-96006095D01*
X67124761Y-95958476D01*
X67172380Y-95863238D01*
X67172380Y-95482285D01*
X66172380Y-95482285D01*
X66172380Y-95815619D01*
X66220000Y-95910857D01*
X66267619Y-95958476D01*
X66362857Y-96006095D01*
X66458095Y-96006095D01*
X66553333Y-95958476D01*
X66600952Y-95910857D01*
X66648571Y-95815619D01*
X66648571Y-95482285D01*
X68807619Y-94553714D02*
X68760000Y-94601333D01*
X68712380Y-94696571D01*
X68712380Y-94934666D01*
X68760000Y-95029904D01*
X68807619Y-95077523D01*
X68902857Y-95125142D01*
X68998095Y-95125142D01*
X69140952Y-95077523D01*
X69712380Y-94506095D01*
X69712380Y-95125142D01*
X69426666Y-95506095D02*
X69426666Y-95982285D01*
X69712380Y-95410857D02*
X68712380Y-95744190D01*
X69712380Y-96077523D01*
X72252380Y-95125142D02*
X72252380Y-94553714D01*
X72252380Y-94839428D02*
X71252380Y-94839428D01*
X71395238Y-94744190D01*
X71490476Y-94648952D01*
X71538095Y-94553714D01*
X71966666Y-95506095D02*
X71966666Y-95982285D01*
X72252380Y-95410857D02*
X71252380Y-95744190D01*
X72252380Y-96077523D01*
X74792380Y-95053714D02*
X74792380Y-94482285D01*
X74792380Y-94768000D02*
X73792380Y-94768000D01*
X73935238Y-94672761D01*
X74030476Y-94577523D01*
X74078095Y-94482285D01*
X74268571Y-95815619D02*
X74316190Y-95958476D01*
X74363809Y-96006095D01*
X74459047Y-96053714D01*
X74601904Y-96053714D01*
X74697142Y-96006095D01*
X74744761Y-95958476D01*
X74792380Y-95863238D01*
X74792380Y-95482285D01*
X73792380Y-95482285D01*
X73792380Y-95815619D01*
X73840000Y-95910857D01*
X73887619Y-95958476D01*
X73982857Y-96006095D01*
X74078095Y-96006095D01*
X74173333Y-95958476D01*
X74220952Y-95910857D01*
X74268571Y-95815619D01*
X74268571Y-95482285D01*
X23187619Y-94482285D02*
X23140000Y-94529904D01*
X23092380Y-94625142D01*
X23092380Y-94863238D01*
X23140000Y-94958476D01*
X23187619Y-95006095D01*
X23282857Y-95053714D01*
X23378095Y-95053714D01*
X23520952Y-95006095D01*
X24092380Y-94434666D01*
X24092380Y-95053714D01*
X23568571Y-95815619D02*
X23616190Y-95958476D01*
X23663809Y-96006095D01*
X23759047Y-96053714D01*
X23901904Y-96053714D01*
X23997142Y-96006095D01*
X24044761Y-95958476D01*
X24092380Y-95863238D01*
X24092380Y-95482285D01*
X23092380Y-95482285D01*
X23092380Y-95815619D01*
X23140000Y-95910857D01*
X23187619Y-95958476D01*
X23282857Y-96006095D01*
X23378095Y-96006095D01*
X23473333Y-95958476D01*
X23520952Y-95910857D01*
X23568571Y-95815619D01*
X23568571Y-95482285D01*
X25727619Y-94553714D02*
X25680000Y-94601333D01*
X25632380Y-94696571D01*
X25632380Y-94934666D01*
X25680000Y-95029904D01*
X25727619Y-95077523D01*
X25822857Y-95125142D01*
X25918095Y-95125142D01*
X26060952Y-95077523D01*
X26632380Y-94506095D01*
X26632380Y-95125142D01*
X26346666Y-95506095D02*
X26346666Y-95982285D01*
X26632380Y-95410857D02*
X25632380Y-95744190D01*
X26632380Y-96077523D01*
X29172380Y-95125142D02*
X29172380Y-94553714D01*
X29172380Y-94839428D02*
X28172380Y-94839428D01*
X28315238Y-94744190D01*
X28410476Y-94648952D01*
X28458095Y-94553714D01*
X28886666Y-95506095D02*
X28886666Y-95982285D01*
X29172380Y-95410857D02*
X28172380Y-95744190D01*
X29172380Y-96077523D01*
X31712380Y-95053714D02*
X31712380Y-94482285D01*
X31712380Y-94768000D02*
X30712380Y-94768000D01*
X30855238Y-94672761D01*
X30950476Y-94577523D01*
X30998095Y-94482285D01*
X31188571Y-95815619D02*
X31236190Y-95958476D01*
X31283809Y-96006095D01*
X31379047Y-96053714D01*
X31521904Y-96053714D01*
X31617142Y-96006095D01*
X31664761Y-95958476D01*
X31712380Y-95863238D01*
X31712380Y-95482285D01*
X30712380Y-95482285D01*
X30712380Y-95815619D01*
X30760000Y-95910857D01*
X30807619Y-95958476D01*
X30902857Y-96006095D01*
X30998095Y-96006095D01*
X31093333Y-95958476D01*
X31140952Y-95910857D01*
X31188571Y-95815619D01*
X31188571Y-95482285D01*
X5317714Y-42527619D02*
X5270095Y-42480000D01*
X5174857Y-42432380D01*
X4936761Y-42432380D01*
X4841523Y-42480000D01*
X4793904Y-42527619D01*
X4746285Y-42622857D01*
X4746285Y-42718095D01*
X4793904Y-42860952D01*
X5365333Y-43432380D01*
X4746285Y-43432380D01*
X3984380Y-42908571D02*
X3841523Y-42956190D01*
X3793904Y-43003809D01*
X3746285Y-43099047D01*
X3746285Y-43241904D01*
X3793904Y-43337142D01*
X3841523Y-43384761D01*
X3936761Y-43432380D01*
X4317714Y-43432380D01*
X4317714Y-42432380D01*
X3984380Y-42432380D01*
X3889142Y-42480000D01*
X3841523Y-42527619D01*
X3793904Y-42622857D01*
X3793904Y-42718095D01*
X3841523Y-42813333D01*
X3889142Y-42860952D01*
X3984380Y-42908571D01*
X4317714Y-42908571D01*
X5246285Y-45067619D02*
X5198666Y-45020000D01*
X5103428Y-44972380D01*
X4865333Y-44972380D01*
X4770095Y-45020000D01*
X4722476Y-45067619D01*
X4674857Y-45162857D01*
X4674857Y-45258095D01*
X4722476Y-45400952D01*
X5293904Y-45972380D01*
X4674857Y-45972380D01*
X4293904Y-45686666D02*
X3817714Y-45686666D01*
X4389142Y-45972380D02*
X4055809Y-44972380D01*
X3722476Y-45972380D01*
X4674857Y-48512380D02*
X5246285Y-48512380D01*
X4960571Y-48512380D02*
X4960571Y-47512380D01*
X5055809Y-47655238D01*
X5151047Y-47750476D01*
X5246285Y-47798095D01*
X4293904Y-48226666D02*
X3817714Y-48226666D01*
X4389142Y-48512380D02*
X4055809Y-47512380D01*
X3722476Y-48512380D01*
X4746285Y-51052380D02*
X5317714Y-51052380D01*
X5032000Y-51052380D02*
X5032000Y-50052380D01*
X5127238Y-50195238D01*
X5222476Y-50290476D01*
X5317714Y-50338095D01*
X3984380Y-50528571D02*
X3841523Y-50576190D01*
X3793904Y-50623809D01*
X3746285Y-50719047D01*
X3746285Y-50861904D01*
X3793904Y-50957142D01*
X3841523Y-51004761D01*
X3936761Y-51052380D01*
X4317714Y-51052380D01*
X4317714Y-50052380D01*
X3984380Y-50052380D01*
X3889142Y-50100000D01*
X3841523Y-50147619D01*
X3793904Y-50242857D01*
X3793904Y-50338095D01*
X3841523Y-50433333D01*
X3889142Y-50480952D01*
X3984380Y-50528571D01*
X4317714Y-50528571D01*
X5317714Y-58927619D02*
X5270095Y-58880000D01*
X5174857Y-58832380D01*
X4936761Y-58832380D01*
X4841523Y-58880000D01*
X4793904Y-58927619D01*
X4746285Y-59022857D01*
X4746285Y-59118095D01*
X4793904Y-59260952D01*
X5365333Y-59832380D01*
X4746285Y-59832380D01*
X3984380Y-59308571D02*
X3841523Y-59356190D01*
X3793904Y-59403809D01*
X3746285Y-59499047D01*
X3746285Y-59641904D01*
X3793904Y-59737142D01*
X3841523Y-59784761D01*
X3936761Y-59832380D01*
X4317714Y-59832380D01*
X4317714Y-58832380D01*
X3984380Y-58832380D01*
X3889142Y-58880000D01*
X3841523Y-58927619D01*
X3793904Y-59022857D01*
X3793904Y-59118095D01*
X3841523Y-59213333D01*
X3889142Y-59260952D01*
X3984380Y-59308571D01*
X4317714Y-59308571D01*
X5246285Y-61467619D02*
X5198666Y-61420000D01*
X5103428Y-61372380D01*
X4865333Y-61372380D01*
X4770095Y-61420000D01*
X4722476Y-61467619D01*
X4674857Y-61562857D01*
X4674857Y-61658095D01*
X4722476Y-61800952D01*
X5293904Y-62372380D01*
X4674857Y-62372380D01*
X4293904Y-62086666D02*
X3817714Y-62086666D01*
X4389142Y-62372380D02*
X4055809Y-61372380D01*
X3722476Y-62372380D01*
X4674857Y-64912380D02*
X5246285Y-64912380D01*
X4960571Y-64912380D02*
X4960571Y-63912380D01*
X5055809Y-64055238D01*
X5151047Y-64150476D01*
X5246285Y-64198095D01*
X4293904Y-64626666D02*
X3817714Y-64626666D01*
X4389142Y-64912380D02*
X4055809Y-63912380D01*
X3722476Y-64912380D01*
X4746285Y-67452380D02*
X5317714Y-67452380D01*
X5032000Y-67452380D02*
X5032000Y-66452380D01*
X5127238Y-66595238D01*
X5222476Y-66690476D01*
X5317714Y-66738095D01*
X3984380Y-66928571D02*
X3841523Y-66976190D01*
X3793904Y-67023809D01*
X3746285Y-67119047D01*
X3746285Y-67261904D01*
X3793904Y-67357142D01*
X3841523Y-67404761D01*
X3936761Y-67452380D01*
X4317714Y-67452380D01*
X4317714Y-66452380D01*
X3984380Y-66452380D01*
X3889142Y-66500000D01*
X3841523Y-66547619D01*
X3793904Y-66642857D01*
X3793904Y-66738095D01*
X3841523Y-66833333D01*
X3889142Y-66880952D01*
X3984380Y-66928571D01*
X4317714Y-66928571D01*
X8827619Y-94482285D02*
X8780000Y-94529904D01*
X8732380Y-94625142D01*
X8732380Y-94863238D01*
X8780000Y-94958476D01*
X8827619Y-95006095D01*
X8922857Y-95053714D01*
X9018095Y-95053714D01*
X9160952Y-95006095D01*
X9732380Y-94434666D01*
X9732380Y-95053714D01*
X9208571Y-95815619D02*
X9256190Y-95958476D01*
X9303809Y-96006095D01*
X9399047Y-96053714D01*
X9541904Y-96053714D01*
X9637142Y-96006095D01*
X9684761Y-95958476D01*
X9732380Y-95863238D01*
X9732380Y-95482285D01*
X8732380Y-95482285D01*
X8732380Y-95815619D01*
X8780000Y-95910857D01*
X8827619Y-95958476D01*
X8922857Y-96006095D01*
X9018095Y-96006095D01*
X9113333Y-95958476D01*
X9160952Y-95910857D01*
X9208571Y-95815619D01*
X9208571Y-95482285D01*
X11367619Y-94553714D02*
X11320000Y-94601333D01*
X11272380Y-94696571D01*
X11272380Y-94934666D01*
X11320000Y-95029904D01*
X11367619Y-95077523D01*
X11462857Y-95125142D01*
X11558095Y-95125142D01*
X11700952Y-95077523D01*
X12272380Y-94506095D01*
X12272380Y-95125142D01*
X11986666Y-95506095D02*
X11986666Y-95982285D01*
X12272380Y-95410857D02*
X11272380Y-95744190D01*
X12272380Y-96077523D01*
X14812380Y-95125142D02*
X14812380Y-94553714D01*
X14812380Y-94839428D02*
X13812380Y-94839428D01*
X13955238Y-94744190D01*
X14050476Y-94648952D01*
X14098095Y-94553714D01*
X14526666Y-95506095D02*
X14526666Y-95982285D01*
X14812380Y-95410857D02*
X13812380Y-95744190D01*
X14812380Y-96077523D01*
X17352380Y-95053714D02*
X17352380Y-94482285D01*
X17352380Y-94768000D02*
X16352380Y-94768000D01*
X16495238Y-94672761D01*
X16590476Y-94577523D01*
X16638095Y-94482285D01*
X16828571Y-95815619D02*
X16876190Y-95958476D01*
X16923809Y-96006095D01*
X17019047Y-96053714D01*
X17161904Y-96053714D01*
X17257142Y-96006095D01*
X17304761Y-95958476D01*
X17352380Y-95863238D01*
X17352380Y-95482285D01*
X16352380Y-95482285D01*
X16352380Y-95815619D01*
X16400000Y-95910857D01*
X16447619Y-95958476D01*
X16542857Y-96006095D01*
X16638095Y-96006095D01*
X16733333Y-95958476D01*
X16780952Y-95910857D01*
X16828571Y-95815619D01*
X16828571Y-95482285D01*
X37547619Y-94482285D02*
X37500000Y-94529904D01*
X37452380Y-94625142D01*
X37452380Y-94863238D01*
X37500000Y-94958476D01*
X37547619Y-95006095D01*
X37642857Y-95053714D01*
X37738095Y-95053714D01*
X37880952Y-95006095D01*
X38452380Y-94434666D01*
X38452380Y-95053714D01*
X37928571Y-95815619D02*
X37976190Y-95958476D01*
X38023809Y-96006095D01*
X38119047Y-96053714D01*
X38261904Y-96053714D01*
X38357142Y-96006095D01*
X38404761Y-95958476D01*
X38452380Y-95863238D01*
X38452380Y-95482285D01*
X37452380Y-95482285D01*
X37452380Y-95815619D01*
X37500000Y-95910857D01*
X37547619Y-95958476D01*
X37642857Y-96006095D01*
X37738095Y-96006095D01*
X37833333Y-95958476D01*
X37880952Y-95910857D01*
X37928571Y-95815619D01*
X37928571Y-95482285D01*
X40087619Y-94553714D02*
X40040000Y-94601333D01*
X39992380Y-94696571D01*
X39992380Y-94934666D01*
X40040000Y-95029904D01*
X40087619Y-95077523D01*
X40182857Y-95125142D01*
X40278095Y-95125142D01*
X40420952Y-95077523D01*
X40992380Y-94506095D01*
X40992380Y-95125142D01*
X40706666Y-95506095D02*
X40706666Y-95982285D01*
X40992380Y-95410857D02*
X39992380Y-95744190D01*
X40992380Y-96077523D01*
X43532380Y-95125142D02*
X43532380Y-94553714D01*
X43532380Y-94839428D02*
X42532380Y-94839428D01*
X42675238Y-94744190D01*
X42770476Y-94648952D01*
X42818095Y-94553714D01*
X43246666Y-95506095D02*
X43246666Y-95982285D01*
X43532380Y-95410857D02*
X42532380Y-95744190D01*
X43532380Y-96077523D01*
X46072380Y-95053714D02*
X46072380Y-94482285D01*
X46072380Y-94768000D02*
X45072380Y-94768000D01*
X45215238Y-94672761D01*
X45310476Y-94577523D01*
X45358095Y-94482285D01*
X45548571Y-95815619D02*
X45596190Y-95958476D01*
X45643809Y-96006095D01*
X45739047Y-96053714D01*
X45881904Y-96053714D01*
X45977142Y-96006095D01*
X46024761Y-95958476D01*
X46072380Y-95863238D01*
X46072380Y-95482285D01*
X45072380Y-95482285D01*
X45072380Y-95815619D01*
X45120000Y-95910857D01*
X45167619Y-95958476D01*
X45262857Y-96006095D01*
X45358095Y-96006095D01*
X45453333Y-95958476D01*
X45500952Y-95910857D01*
X45548571Y-95815619D01*
X45548571Y-95482285D01*
X51907619Y-94482285D02*
X51860000Y-94529904D01*
X51812380Y-94625142D01*
X51812380Y-94863238D01*
X51860000Y-94958476D01*
X51907619Y-95006095D01*
X52002857Y-95053714D01*
X52098095Y-95053714D01*
X52240952Y-95006095D01*
X52812380Y-94434666D01*
X52812380Y-95053714D01*
X52288571Y-95815619D02*
X52336190Y-95958476D01*
X52383809Y-96006095D01*
X52479047Y-96053714D01*
X52621904Y-96053714D01*
X52717142Y-96006095D01*
X52764761Y-95958476D01*
X52812380Y-95863238D01*
X52812380Y-95482285D01*
X51812380Y-95482285D01*
X51812380Y-95815619D01*
X51860000Y-95910857D01*
X51907619Y-95958476D01*
X52002857Y-96006095D01*
X52098095Y-96006095D01*
X52193333Y-95958476D01*
X52240952Y-95910857D01*
X52288571Y-95815619D01*
X52288571Y-95482285D01*
X54447619Y-94553714D02*
X54400000Y-94601333D01*
X54352380Y-94696571D01*
X54352380Y-94934666D01*
X54400000Y-95029904D01*
X54447619Y-95077523D01*
X54542857Y-95125142D01*
X54638095Y-95125142D01*
X54780952Y-95077523D01*
X55352380Y-94506095D01*
X55352380Y-95125142D01*
X55066666Y-95506095D02*
X55066666Y-95982285D01*
X55352380Y-95410857D02*
X54352380Y-95744190D01*
X55352380Y-96077523D01*
X57892380Y-95125142D02*
X57892380Y-94553714D01*
X57892380Y-94839428D02*
X56892380Y-94839428D01*
X57035238Y-94744190D01*
X57130476Y-94648952D01*
X57178095Y-94553714D01*
X57606666Y-95506095D02*
X57606666Y-95982285D01*
X57892380Y-95410857D02*
X56892380Y-95744190D01*
X57892380Y-96077523D01*
X60432380Y-95053714D02*
X60432380Y-94482285D01*
X60432380Y-94768000D02*
X59432380Y-94768000D01*
X59575238Y-94672761D01*
X59670476Y-94577523D01*
X59718095Y-94482285D01*
X59908571Y-95815619D02*
X59956190Y-95958476D01*
X60003809Y-96006095D01*
X60099047Y-96053714D01*
X60241904Y-96053714D01*
X60337142Y-96006095D01*
X60384761Y-95958476D01*
X60432380Y-95863238D01*
X60432380Y-95482285D01*
X59432380Y-95482285D01*
X59432380Y-95815619D01*
X59480000Y-95910857D01*
X59527619Y-95958476D01*
X59622857Y-96006095D01*
X59718095Y-96006095D01*
X59813333Y-95958476D01*
X59860952Y-95910857D01*
X59908571Y-95815619D01*
X59908571Y-95482285D01*
X80627619Y-94482285D02*
X80580000Y-94529904D01*
X80532380Y-94625142D01*
X80532380Y-94863238D01*
X80580000Y-94958476D01*
X80627619Y-95006095D01*
X80722857Y-95053714D01*
X80818095Y-95053714D01*
X80960952Y-95006095D01*
X81532380Y-94434666D01*
X81532380Y-95053714D01*
X81008571Y-95815619D02*
X81056190Y-95958476D01*
X81103809Y-96006095D01*
X81199047Y-96053714D01*
X81341904Y-96053714D01*
X81437142Y-96006095D01*
X81484761Y-95958476D01*
X81532380Y-95863238D01*
X81532380Y-95482285D01*
X80532380Y-95482285D01*
X80532380Y-95815619D01*
X80580000Y-95910857D01*
X80627619Y-95958476D01*
X80722857Y-96006095D01*
X80818095Y-96006095D01*
X80913333Y-95958476D01*
X80960952Y-95910857D01*
X81008571Y-95815619D01*
X81008571Y-95482285D01*
X83167619Y-94553714D02*
X83120000Y-94601333D01*
X83072380Y-94696571D01*
X83072380Y-94934666D01*
X83120000Y-95029904D01*
X83167619Y-95077523D01*
X83262857Y-95125142D01*
X83358095Y-95125142D01*
X83500952Y-95077523D01*
X84072380Y-94506095D01*
X84072380Y-95125142D01*
X83786666Y-95506095D02*
X83786666Y-95982285D01*
X84072380Y-95410857D02*
X83072380Y-95744190D01*
X84072380Y-96077523D01*
X86612380Y-95125142D02*
X86612380Y-94553714D01*
X86612380Y-94839428D02*
X85612380Y-94839428D01*
X85755238Y-94744190D01*
X85850476Y-94648952D01*
X85898095Y-94553714D01*
X86326666Y-95506095D02*
X86326666Y-95982285D01*
X86612380Y-95410857D02*
X85612380Y-95744190D01*
X86612380Y-96077523D01*
X89152380Y-95053714D02*
X89152380Y-94482285D01*
X89152380Y-94768000D02*
X88152380Y-94768000D01*
X88295238Y-94672761D01*
X88390476Y-94577523D01*
X88438095Y-94482285D01*
X88628571Y-95815619D02*
X88676190Y-95958476D01*
X88723809Y-96006095D01*
X88819047Y-96053714D01*
X88961904Y-96053714D01*
X89057142Y-96006095D01*
X89104761Y-95958476D01*
X89152380Y-95863238D01*
X89152380Y-95482285D01*
X88152380Y-95482285D01*
X88152380Y-95815619D01*
X88200000Y-95910857D01*
X88247619Y-95958476D01*
X88342857Y-96006095D01*
X88438095Y-96006095D01*
X88533333Y-95958476D01*
X88580952Y-95910857D01*
X88628571Y-95815619D01*
X88628571Y-95482285D01*
X35774449Y-68740312D02*
X35673434Y-68167893D01*
X36178510Y-68336251D02*
X35471403Y-67629145D01*
X35202029Y-67898519D01*
X35168357Y-67999534D01*
X35168357Y-68066877D01*
X35202029Y-68167893D01*
X35303044Y-68268908D01*
X35404060Y-68302580D01*
X35471403Y-68302580D01*
X35572418Y-68268908D01*
X35841792Y-67999534D01*
X34696953Y-68875000D02*
X35168357Y-69346404D01*
X34595937Y-68437267D02*
X35269373Y-68773984D01*
X34831640Y-69211717D01*
X34191876Y-69043358D02*
X34124533Y-69043358D01*
X34023518Y-69077030D01*
X33855159Y-69245389D01*
X33821487Y-69346404D01*
X33821487Y-69413748D01*
X33855159Y-69514763D01*
X33922502Y-69582106D01*
X34057189Y-69649450D01*
X34865311Y-69649450D01*
X34427579Y-70087183D01*
X38952380Y-9757142D02*
X38476190Y-9423809D01*
X38952380Y-9185714D02*
X37952380Y-9185714D01*
X37952380Y-9566666D01*
X38000000Y-9661904D01*
X38047619Y-9709523D01*
X38142857Y-9757142D01*
X38285714Y-9757142D01*
X38380952Y-9709523D01*
X38428571Y-9661904D01*
X38476190Y-9566666D01*
X38476190Y-9185714D01*
X37952380Y-10614285D02*
X37952380Y-10423809D01*
X38000000Y-10328571D01*
X38047619Y-10280952D01*
X38190476Y-10185714D01*
X38380952Y-10138095D01*
X38761904Y-10138095D01*
X38857142Y-10185714D01*
X38904761Y-10233333D01*
X38952380Y-10328571D01*
X38952380Y-10519047D01*
X38904761Y-10614285D01*
X38857142Y-10661904D01*
X38761904Y-10709523D01*
X38523809Y-10709523D01*
X38428571Y-10661904D01*
X38380952Y-10614285D01*
X38333333Y-10519047D01*
X38333333Y-10328571D01*
X38380952Y-10233333D01*
X38428571Y-10185714D01*
X38523809Y-10138095D01*
X38285714Y-11566666D02*
X38952380Y-11566666D01*
X37904761Y-11328571D02*
X38619047Y-11090476D01*
X38619047Y-11709523D01*
X27373995Y-58707142D02*
X26897805Y-58373809D01*
X27373995Y-58135714D02*
X26373995Y-58135714D01*
X26373995Y-58516666D01*
X26421615Y-58611904D01*
X26469234Y-58659523D01*
X26564472Y-58707142D01*
X26707329Y-58707142D01*
X26802567Y-58659523D01*
X26850186Y-58611904D01*
X26897805Y-58516666D01*
X26897805Y-58135714D01*
X26707329Y-59564285D02*
X27373995Y-59564285D01*
X26326376Y-59326190D02*
X27040662Y-59088095D01*
X27040662Y-59707142D01*
X26707329Y-60516666D02*
X27373995Y-60516666D01*
X26326376Y-60278571D02*
X27040662Y-60040476D01*
X27040662Y-60659523D01*
X44562732Y-55702029D02*
X44461717Y-55129609D01*
X44966793Y-55297968D02*
X44259687Y-54590861D01*
X43990312Y-54860235D01*
X43956641Y-54961250D01*
X43956641Y-55028594D01*
X43990312Y-55129609D01*
X44091328Y-55230624D01*
X44192343Y-55264296D01*
X44259687Y-55264296D01*
X44360702Y-55230624D01*
X44630076Y-54961250D01*
X43249534Y-55601014D02*
X43384221Y-55466327D01*
X43485236Y-55432655D01*
X43552580Y-55432655D01*
X43720938Y-55466327D01*
X43889297Y-55567342D01*
X44158671Y-55836716D01*
X44192343Y-55937731D01*
X44192343Y-56005075D01*
X44158671Y-56106090D01*
X44023984Y-56240777D01*
X43922969Y-56274449D01*
X43855625Y-56274449D01*
X43754610Y-56240777D01*
X43586251Y-56072418D01*
X43552580Y-55971403D01*
X43552580Y-55904060D01*
X43586251Y-55803044D01*
X43720938Y-55668357D01*
X43821954Y-55634686D01*
X43889297Y-55634686D01*
X43990312Y-55668357D01*
X91464285Y-24702380D02*
X91464285Y-23702380D01*
X91226190Y-23702380D01*
X91083333Y-23750000D01*
X90988095Y-23845238D01*
X90940476Y-23940476D01*
X90892857Y-24130952D01*
X90892857Y-24273809D01*
X90940476Y-24464285D01*
X90988095Y-24559523D01*
X91083333Y-24654761D01*
X91226190Y-24702380D01*
X91464285Y-24702380D01*
X90511904Y-23797619D02*
X90464285Y-23750000D01*
X90369047Y-23702380D01*
X90130952Y-23702380D01*
X90035714Y-23750000D01*
X89988095Y-23797619D01*
X89940476Y-23892857D01*
X89940476Y-23988095D01*
X89988095Y-24130952D01*
X90559523Y-24702380D01*
X89940476Y-24702380D01*
X89035714Y-23702380D02*
X89511904Y-23702380D01*
X89559523Y-24178571D01*
X89511904Y-24130952D01*
X89416666Y-24083333D01*
X89178571Y-24083333D01*
X89083333Y-24130952D01*
X89035714Y-24178571D01*
X88988095Y-24273809D01*
X88988095Y-24511904D01*
X89035714Y-24607142D01*
X89083333Y-24654761D01*
X89178571Y-24702380D01*
X89416666Y-24702380D01*
X89511904Y-24654761D01*
X89559523Y-24607142D01*
X96714285Y-19202380D02*
X96714285Y-18202380D01*
X96476190Y-18202380D01*
X96333333Y-18250000D01*
X96238095Y-18345238D01*
X96190476Y-18440476D01*
X96142857Y-18630952D01*
X96142857Y-18773809D01*
X96190476Y-18964285D01*
X96238095Y-19059523D01*
X96333333Y-19154761D01*
X96476190Y-19202380D01*
X96714285Y-19202380D01*
X95190476Y-19202380D02*
X95761904Y-19202380D01*
X95476190Y-19202380D02*
X95476190Y-18202380D01*
X95571428Y-18345238D01*
X95666666Y-18440476D01*
X95761904Y-18488095D01*
X94333333Y-18202380D02*
X94523809Y-18202380D01*
X94619047Y-18250000D01*
X94666666Y-18297619D01*
X94761904Y-18440476D01*
X94809523Y-18630952D01*
X94809523Y-19011904D01*
X94761904Y-19107142D01*
X94714285Y-19154761D01*
X94619047Y-19202380D01*
X94428571Y-19202380D01*
X94333333Y-19154761D01*
X94285714Y-19107142D01*
X94238095Y-19011904D01*
X94238095Y-18773809D01*
X94285714Y-18678571D01*
X94333333Y-18630952D01*
X94428571Y-18583333D01*
X94619047Y-18583333D01*
X94714285Y-18630952D01*
X94761904Y-18678571D01*
X94809523Y-18773809D01*
X42212732Y-53727030D02*
X42111717Y-53154610D01*
X42616793Y-53322969D02*
X41909687Y-52615862D01*
X41640312Y-52885236D01*
X41606641Y-52986251D01*
X41606641Y-53053595D01*
X41640312Y-53154610D01*
X41741328Y-53255625D01*
X41842343Y-53289297D01*
X41909687Y-53289297D01*
X42010702Y-53255625D01*
X42280076Y-52986251D01*
X41269923Y-53255625D02*
X40832190Y-53693358D01*
X41337267Y-53727030D01*
X41236251Y-53828045D01*
X41202580Y-53929061D01*
X41202580Y-53996404D01*
X41236251Y-54097419D01*
X41404610Y-54265778D01*
X41505625Y-54299450D01*
X41572969Y-54299450D01*
X41673984Y-54265778D01*
X41876015Y-54063748D01*
X41909687Y-53962732D01*
X41909687Y-53895389D01*
X43449450Y-54715312D02*
X43348435Y-54142893D01*
X43853511Y-54311251D02*
X43146404Y-53604145D01*
X42877030Y-53873519D01*
X42843358Y-53974534D01*
X42843358Y-54041877D01*
X42877030Y-54142893D01*
X42978045Y-54243908D01*
X43079061Y-54277580D01*
X43146404Y-54277580D01*
X43247419Y-54243908D01*
X43516793Y-53974534D01*
X42371954Y-54850000D02*
X42843358Y-55321404D01*
X42270938Y-54412267D02*
X42944374Y-54748984D01*
X42506641Y-55186717D01*
X41833206Y-54917343D02*
X41361801Y-55388748D01*
X42371954Y-55792809D01*
X38759687Y-63199450D02*
X39332106Y-63098435D01*
X39163748Y-63603511D02*
X39870854Y-62896404D01*
X39601480Y-62627030D01*
X39500465Y-62593358D01*
X39433122Y-62593358D01*
X39332106Y-62627030D01*
X39231091Y-62728045D01*
X39197419Y-62829061D01*
X39197419Y-62896404D01*
X39231091Y-62997419D01*
X39500465Y-63266793D01*
X38625000Y-62121954D02*
X38153595Y-62593358D01*
X39062732Y-62020938D02*
X38726015Y-62694374D01*
X38288282Y-62256641D01*
X38187267Y-61212816D02*
X38321954Y-61347503D01*
X38355625Y-61448519D01*
X38355625Y-61515862D01*
X38321954Y-61684221D01*
X38220938Y-61852580D01*
X37951564Y-62121954D01*
X37850549Y-62155625D01*
X37783206Y-62155625D01*
X37682190Y-62121954D01*
X37547503Y-61987267D01*
X37513832Y-61886251D01*
X37513832Y-61818908D01*
X37547503Y-61717893D01*
X37715862Y-61549534D01*
X37816877Y-61515862D01*
X37884221Y-61515862D01*
X37985236Y-61549534D01*
X38119923Y-61684221D01*
X38153595Y-61785236D01*
X38153595Y-61852580D01*
X38119923Y-61953595D01*
X39859687Y-62149450D02*
X40432106Y-62048435D01*
X40263748Y-62553511D02*
X40970854Y-61846404D01*
X40701480Y-61577030D01*
X40600465Y-61543358D01*
X40533122Y-61543358D01*
X40432106Y-61577030D01*
X40331091Y-61678045D01*
X40297419Y-61779061D01*
X40297419Y-61846404D01*
X40331091Y-61947419D01*
X40600465Y-62216793D01*
X39725000Y-61071954D02*
X39253595Y-61543358D01*
X40162732Y-60970938D02*
X39826015Y-61644374D01*
X39388282Y-61206641D01*
X39253595Y-60129145D02*
X39590312Y-60465862D01*
X39287267Y-60836251D01*
X39287267Y-60768908D01*
X39253595Y-60667893D01*
X39085236Y-60499534D01*
X38984221Y-60465862D01*
X38916877Y-60465862D01*
X38815862Y-60499534D01*
X38647503Y-60667893D01*
X38613832Y-60768908D01*
X38613832Y-60836251D01*
X38647503Y-60937267D01*
X38815862Y-61105625D01*
X38916877Y-61139297D01*
X38984221Y-61139297D01*
X34899449Y-67865312D02*
X34798434Y-67292893D01*
X35303510Y-67461251D02*
X34596403Y-66754145D01*
X34327029Y-67023519D01*
X34293357Y-67124534D01*
X34293357Y-67191877D01*
X34327029Y-67292893D01*
X34428044Y-67393908D01*
X34529060Y-67427580D01*
X34596403Y-67427580D01*
X34697418Y-67393908D01*
X34966792Y-67124534D01*
X33821953Y-68000000D02*
X34293357Y-68471404D01*
X33720937Y-67562267D02*
X34394373Y-67898984D01*
X33956640Y-68336717D01*
X33283205Y-68067343D02*
X32845472Y-68505076D01*
X33350548Y-68538748D01*
X33249533Y-68639763D01*
X33215861Y-68740778D01*
X33215861Y-68808122D01*
X33249533Y-68909137D01*
X33417892Y-69077496D01*
X33518907Y-69111167D01*
X33586250Y-69111167D01*
X33687266Y-69077496D01*
X33889296Y-68875465D01*
X33922968Y-68774450D01*
X33922968Y-68707106D01*
X48976450Y-56759812D02*
X48875435Y-56187393D01*
X49380511Y-56355751D02*
X48673404Y-55648645D01*
X48404030Y-55918019D01*
X48370358Y-56019034D01*
X48370358Y-56086377D01*
X48404030Y-56187393D01*
X48505045Y-56288408D01*
X48606061Y-56322080D01*
X48673404Y-56322080D01*
X48774419Y-56288408D01*
X49043793Y-56019034D01*
X47898954Y-56894500D02*
X48370358Y-57365904D01*
X47797938Y-56456767D02*
X48471374Y-56793484D01*
X48033641Y-57231217D01*
X47629580Y-58106683D02*
X48033641Y-57702622D01*
X47831610Y-57904652D02*
X47124503Y-57197545D01*
X47292862Y-57231217D01*
X47427549Y-57231217D01*
X47528564Y-57197545D01*
X47521050Y-55154412D02*
X47420035Y-54581993D01*
X47925111Y-54750351D02*
X47218004Y-54043245D01*
X46948630Y-54312619D01*
X46914958Y-54413634D01*
X46914958Y-54480977D01*
X46948630Y-54581993D01*
X47049645Y-54683008D01*
X47150661Y-54716680D01*
X47218004Y-54716680D01*
X47319019Y-54683008D01*
X47588393Y-54413634D01*
X46443554Y-55289100D02*
X46914958Y-55760504D01*
X46342538Y-54851367D02*
X47015974Y-55188084D01*
X46578241Y-55625817D01*
X45702775Y-55558474D02*
X45635432Y-55625817D01*
X45601760Y-55726832D01*
X45601760Y-55794176D01*
X45635432Y-55895191D01*
X45736447Y-56063550D01*
X45904806Y-56231909D01*
X46073164Y-56332924D01*
X46174180Y-56366596D01*
X46241523Y-56366596D01*
X46342538Y-56332924D01*
X46409882Y-56265580D01*
X46443554Y-56164565D01*
X46443554Y-56097222D01*
X46409882Y-55996206D01*
X46308867Y-55827848D01*
X46140508Y-55659489D01*
X45972149Y-55558474D01*
X45871134Y-55524802D01*
X45803790Y-55524802D01*
X45702775Y-55558474D01*
X36932106Y-60872969D02*
X36999450Y-60872969D01*
X37134137Y-60805625D01*
X37201480Y-60738282D01*
X37268824Y-60603595D01*
X37268824Y-60468908D01*
X37235152Y-60367893D01*
X37134137Y-60199534D01*
X37033122Y-60098519D01*
X36864763Y-59997503D01*
X36763748Y-59963832D01*
X36629061Y-59963832D01*
X36494374Y-60031175D01*
X36427030Y-60098519D01*
X36359687Y-60233206D01*
X36359687Y-60300549D01*
X36090312Y-60569923D02*
X36022969Y-60569923D01*
X35921954Y-60603595D01*
X35753595Y-60771954D01*
X35719923Y-60872969D01*
X35719923Y-60940312D01*
X35753595Y-61041328D01*
X35820938Y-61108671D01*
X35955625Y-61176015D01*
X36763748Y-61176015D01*
X36326015Y-61613748D01*
X35989297Y-61950465D02*
X35854610Y-62085152D01*
X35753595Y-62118824D01*
X35686251Y-62118824D01*
X35517893Y-62085152D01*
X35349534Y-61984137D01*
X35080160Y-61714763D01*
X35046488Y-61613748D01*
X35046488Y-61546404D01*
X35080160Y-61445389D01*
X35214847Y-61310702D01*
X35315862Y-61277030D01*
X35383206Y-61277030D01*
X35484221Y-61310702D01*
X35652580Y-61479061D01*
X35686251Y-61580076D01*
X35686251Y-61647419D01*
X35652580Y-61748435D01*
X35517893Y-61883122D01*
X35416877Y-61916793D01*
X35349534Y-61916793D01*
X35248519Y-61883122D01*
X42547093Y-68340243D02*
X42547093Y-68407587D01*
X42614437Y-68542274D01*
X42681780Y-68609617D01*
X42816467Y-68676961D01*
X42951154Y-68676961D01*
X43052169Y-68643289D01*
X43220528Y-68542274D01*
X43321543Y-68441259D01*
X43422559Y-68272900D01*
X43456230Y-68171885D01*
X43456230Y-68037198D01*
X43388887Y-67902511D01*
X43321543Y-67835167D01*
X43186856Y-67767824D01*
X43119513Y-67767824D01*
X42850139Y-67498449D02*
X42850139Y-67431106D01*
X42816467Y-67330091D01*
X42648108Y-67161732D01*
X42547093Y-67128060D01*
X42479750Y-67128060D01*
X42378734Y-67161732D01*
X42311391Y-67229075D01*
X42244047Y-67363762D01*
X42244047Y-68171885D01*
X41806314Y-67734152D01*
X41806314Y-66926030D02*
X41907330Y-66959701D01*
X41974673Y-66959701D01*
X42075688Y-66926030D01*
X42109360Y-66892358D01*
X42143032Y-66791343D01*
X42143032Y-66723999D01*
X42109360Y-66622984D01*
X41974673Y-66488297D01*
X41873658Y-66454625D01*
X41806314Y-66454625D01*
X41705299Y-66488297D01*
X41671627Y-66521969D01*
X41637956Y-66622984D01*
X41637956Y-66690327D01*
X41671627Y-66791343D01*
X41806314Y-66926030D01*
X41839986Y-67027045D01*
X41839986Y-67094388D01*
X41806314Y-67195404D01*
X41671627Y-67330091D01*
X41570612Y-67363762D01*
X41503269Y-67363762D01*
X41402253Y-67330091D01*
X41267566Y-67195404D01*
X41233895Y-67094388D01*
X41233895Y-67027045D01*
X41267566Y-66926030D01*
X41402253Y-66791343D01*
X41503269Y-66757671D01*
X41570612Y-66757671D01*
X41671627Y-66791343D01*
X28652030Y-56032106D02*
X28652030Y-56099450D01*
X28719374Y-56234137D01*
X28786717Y-56301480D01*
X28921404Y-56368824D01*
X29056091Y-56368824D01*
X29157106Y-56335152D01*
X29325465Y-56234137D01*
X29426480Y-56133122D01*
X29527496Y-55964763D01*
X29561167Y-55863748D01*
X29561167Y-55729061D01*
X29493824Y-55594374D01*
X29426480Y-55527030D01*
X29291793Y-55459687D01*
X29224450Y-55459687D01*
X28955076Y-55190312D02*
X28955076Y-55122969D01*
X28921404Y-55021954D01*
X28753045Y-54853595D01*
X28652030Y-54819923D01*
X28584687Y-54819923D01*
X28483671Y-54853595D01*
X28416328Y-54920938D01*
X28348984Y-55055625D01*
X28348984Y-55863748D01*
X27911251Y-55426015D01*
X27978595Y-54079145D02*
X28315312Y-54415862D01*
X28012267Y-54786251D01*
X28012267Y-54718908D01*
X27978595Y-54617893D01*
X27810236Y-54449534D01*
X27709221Y-54415862D01*
X27641877Y-54415862D01*
X27540862Y-54449534D01*
X27372503Y-54617893D01*
X27338832Y-54718908D01*
X27338832Y-54786251D01*
X27372503Y-54887267D01*
X27540862Y-55055625D01*
X27641877Y-55089297D01*
X27709221Y-55089297D01*
X51278793Y-59608543D02*
X51278793Y-59675887D01*
X51346137Y-59810574D01*
X51413480Y-59877917D01*
X51548167Y-59945261D01*
X51682854Y-59945261D01*
X51783869Y-59911589D01*
X51952228Y-59810574D01*
X52053243Y-59709559D01*
X52154259Y-59541200D01*
X52187930Y-59440185D01*
X52187930Y-59305498D01*
X52120587Y-59170811D01*
X52053243Y-59103467D01*
X51918556Y-59036124D01*
X51851213Y-59036124D01*
X51581839Y-58766749D02*
X51581839Y-58699406D01*
X51548167Y-58598391D01*
X51379808Y-58430032D01*
X51278793Y-58396360D01*
X51211450Y-58396360D01*
X51110434Y-58430032D01*
X51043091Y-58497375D01*
X50975747Y-58632062D01*
X50975747Y-59440185D01*
X50538014Y-59002452D01*
X51009419Y-58059643D02*
X50538014Y-57588238D01*
X50133953Y-58598391D01*
X39682106Y-51147969D02*
X39749450Y-51147969D01*
X39884137Y-51080625D01*
X39951480Y-51013282D01*
X40018824Y-50878595D01*
X40018824Y-50743908D01*
X39985152Y-50642893D01*
X39884137Y-50474534D01*
X39783122Y-50373519D01*
X39614763Y-50272503D01*
X39513748Y-50238832D01*
X39379061Y-50238832D01*
X39244374Y-50306175D01*
X39177030Y-50373519D01*
X39109687Y-50508206D01*
X39109687Y-50575549D01*
X38840312Y-50844923D02*
X38772969Y-50844923D01*
X38671954Y-50878595D01*
X38503595Y-51046954D01*
X38469923Y-51147969D01*
X38469923Y-51215312D01*
X38503595Y-51316328D01*
X38570938Y-51383671D01*
X38705625Y-51451015D01*
X39513748Y-51451015D01*
X39076015Y-51888748D01*
X37762816Y-51787732D02*
X37897503Y-51653045D01*
X37998519Y-51619374D01*
X38065862Y-51619374D01*
X38234221Y-51653045D01*
X38402580Y-51754061D01*
X38671954Y-52023435D01*
X38705625Y-52124450D01*
X38705625Y-52191793D01*
X38671954Y-52292809D01*
X38537267Y-52427496D01*
X38436251Y-52461167D01*
X38368908Y-52461167D01*
X38267893Y-52427496D01*
X38099534Y-52259137D01*
X38065862Y-52158122D01*
X38065862Y-52090778D01*
X38099534Y-51989763D01*
X38234221Y-51855076D01*
X38335236Y-51821404D01*
X38402580Y-51821404D01*
X38503595Y-51855076D01*
X48195867Y-62691469D02*
X48195867Y-62758813D01*
X48263211Y-62893500D01*
X48330554Y-62960843D01*
X48465241Y-63028187D01*
X48599928Y-63028187D01*
X48700943Y-62994515D01*
X48869302Y-62893500D01*
X48970317Y-62792485D01*
X49071333Y-62624126D01*
X49105004Y-62523111D01*
X49105004Y-62388424D01*
X49037661Y-62253737D01*
X48970317Y-62186393D01*
X48835630Y-62119050D01*
X48768287Y-62119050D01*
X48599928Y-61816004D02*
X48162195Y-61378271D01*
X48128524Y-61883347D01*
X48027508Y-61782332D01*
X47926493Y-61748660D01*
X47859149Y-61748660D01*
X47758134Y-61782332D01*
X47589775Y-61950691D01*
X47556104Y-62051706D01*
X47556104Y-62119050D01*
X47589775Y-62220065D01*
X47791806Y-62422095D01*
X47892821Y-62455767D01*
X47960165Y-62455767D01*
X47724462Y-60940538D02*
X47657119Y-60873195D01*
X47556104Y-60839523D01*
X47488760Y-60839523D01*
X47387745Y-60873195D01*
X47219386Y-60974210D01*
X47051027Y-61142569D01*
X46950012Y-61310927D01*
X46916340Y-61411943D01*
X46916340Y-61479286D01*
X46950012Y-61580301D01*
X47017356Y-61647645D01*
X47118371Y-61681317D01*
X47185714Y-61681317D01*
X47286730Y-61647645D01*
X47455088Y-61546630D01*
X47623447Y-61378271D01*
X47724462Y-61209912D01*
X47758134Y-61108897D01*
X47758134Y-61041553D01*
X47724462Y-60940538D01*
X41107106Y-52422969D02*
X41174450Y-52422969D01*
X41309137Y-52355625D01*
X41376480Y-52288282D01*
X41443824Y-52153595D01*
X41443824Y-52018908D01*
X41410152Y-51917893D01*
X41309137Y-51749534D01*
X41208122Y-51648519D01*
X41039763Y-51547503D01*
X40938748Y-51513832D01*
X40804061Y-51513832D01*
X40669374Y-51581175D01*
X40602030Y-51648519D01*
X40534687Y-51783206D01*
X40534687Y-51850549D01*
X40231641Y-52018908D02*
X39793908Y-52456641D01*
X40298984Y-52490312D01*
X40197969Y-52591328D01*
X40164297Y-52692343D01*
X40164297Y-52759687D01*
X40197969Y-52860702D01*
X40366328Y-53029061D01*
X40467343Y-53062732D01*
X40534687Y-53062732D01*
X40635702Y-53029061D01*
X40837732Y-52827030D01*
X40871404Y-52726015D01*
X40871404Y-52658671D01*
X39827580Y-53837183D02*
X40231641Y-53433122D01*
X40029610Y-53635152D02*
X39322503Y-52928045D01*
X39490862Y-52961717D01*
X39625549Y-52961717D01*
X39726564Y-52928045D01*
X44142857Y-73357142D02*
X44190476Y-73404761D01*
X44333333Y-73452380D01*
X44428571Y-73452380D01*
X44571428Y-73404761D01*
X44666666Y-73309523D01*
X44714285Y-73214285D01*
X44761904Y-73023809D01*
X44761904Y-72880952D01*
X44714285Y-72690476D01*
X44666666Y-72595238D01*
X44571428Y-72500000D01*
X44428571Y-72452380D01*
X44333333Y-72452380D01*
X44190476Y-72500000D01*
X44142857Y-72547619D01*
X43809523Y-72452380D02*
X43190476Y-72452380D01*
X43523809Y-72833333D01*
X43380952Y-72833333D01*
X43285714Y-72880952D01*
X43238095Y-72928571D01*
X43190476Y-73023809D01*
X43190476Y-73261904D01*
X43238095Y-73357142D01*
X43285714Y-73404761D01*
X43380952Y-73452380D01*
X43666666Y-73452380D01*
X43761904Y-73404761D01*
X43809523Y-73357142D01*
X42809523Y-72547619D02*
X42761904Y-72500000D01*
X42666666Y-72452380D01*
X42428571Y-72452380D01*
X42333333Y-72500000D01*
X42285714Y-72547619D01*
X42238095Y-72642857D01*
X42238095Y-72738095D01*
X42285714Y-72880952D01*
X42857142Y-73452380D01*
X42238095Y-73452380D01*
X33819076Y-71921051D02*
X33866695Y-71968670D01*
X34009552Y-72016289D01*
X34104790Y-72016289D01*
X34247647Y-71968670D01*
X34342885Y-71873432D01*
X34390504Y-71778194D01*
X34438123Y-71587718D01*
X34438123Y-71444861D01*
X34390504Y-71254385D01*
X34342885Y-71159147D01*
X34247647Y-71063909D01*
X34104790Y-71016289D01*
X34009552Y-71016289D01*
X33866695Y-71063909D01*
X33819076Y-71111528D01*
X33438123Y-71111528D02*
X33390504Y-71063909D01*
X33295266Y-71016289D01*
X33057171Y-71016289D01*
X32961933Y-71063909D01*
X32914314Y-71111528D01*
X32866695Y-71206766D01*
X32866695Y-71302004D01*
X32914314Y-71444861D01*
X33485742Y-72016289D01*
X32866695Y-72016289D01*
X32009552Y-71349623D02*
X32009552Y-72016289D01*
X32247647Y-70968670D02*
X32485742Y-71682956D01*
X31866695Y-71682956D01*
X35332106Y-59322969D02*
X35399450Y-59322969D01*
X35534137Y-59255625D01*
X35601480Y-59188282D01*
X35668824Y-59053595D01*
X35668824Y-58918908D01*
X35635152Y-58817893D01*
X35534137Y-58649534D01*
X35433122Y-58548519D01*
X35264763Y-58447503D01*
X35163748Y-58413832D01*
X35029061Y-58413832D01*
X34894374Y-58481175D01*
X34827030Y-58548519D01*
X34759687Y-58683206D01*
X34759687Y-58750549D01*
X34490312Y-59019923D02*
X34422969Y-59019923D01*
X34321954Y-59053595D01*
X34153595Y-59221954D01*
X34119923Y-59322969D01*
X34119923Y-59390312D01*
X34153595Y-59491328D01*
X34220938Y-59558671D01*
X34355625Y-59626015D01*
X35163748Y-59626015D01*
X34726015Y-60063748D01*
X33783206Y-59592343D02*
X33345473Y-60030076D01*
X33850549Y-60063748D01*
X33749534Y-60164763D01*
X33715862Y-60265778D01*
X33715862Y-60333122D01*
X33749534Y-60434137D01*
X33917893Y-60602496D01*
X34018908Y-60636167D01*
X34086251Y-60636167D01*
X34187267Y-60602496D01*
X34389297Y-60400465D01*
X34422969Y-60299450D01*
X34422969Y-60232106D01*
X27410967Y-69004235D02*
X27458586Y-69051854D01*
X27601443Y-69099473D01*
X27696681Y-69099473D01*
X27839538Y-69051854D01*
X27934776Y-68956616D01*
X27982395Y-68861378D01*
X28030014Y-68670902D01*
X28030014Y-68528045D01*
X27982395Y-68337569D01*
X27934776Y-68242331D01*
X27839538Y-68147093D01*
X27696681Y-68099473D01*
X27601443Y-68099473D01*
X27458586Y-68147093D01*
X27410967Y-68194712D01*
X27030014Y-68194712D02*
X26982395Y-68147093D01*
X26887157Y-68099473D01*
X26649062Y-68099473D01*
X26553824Y-68147093D01*
X26506205Y-68194712D01*
X26458586Y-68289950D01*
X26458586Y-68385188D01*
X26506205Y-68528045D01*
X27077633Y-69099473D01*
X26458586Y-69099473D01*
X26077633Y-68194712D02*
X26030014Y-68147093D01*
X25934776Y-68099473D01*
X25696681Y-68099473D01*
X25601443Y-68147093D01*
X25553824Y-68194712D01*
X25506205Y-68289950D01*
X25506205Y-68385188D01*
X25553824Y-68528045D01*
X26125252Y-69099473D01*
X25506205Y-69099473D01*
X39542857Y-72887142D02*
X39590476Y-72934761D01*
X39733333Y-72982380D01*
X39828571Y-72982380D01*
X39971428Y-72934761D01*
X40066666Y-72839523D01*
X40114285Y-72744285D01*
X40161904Y-72553809D01*
X40161904Y-72410952D01*
X40114285Y-72220476D01*
X40066666Y-72125238D01*
X39971428Y-72030000D01*
X39828571Y-71982380D01*
X39733333Y-71982380D01*
X39590476Y-72030000D01*
X39542857Y-72077619D01*
X39161904Y-72077619D02*
X39114285Y-72030000D01*
X39019047Y-71982380D01*
X38780952Y-71982380D01*
X38685714Y-72030000D01*
X38638095Y-72077619D01*
X38590476Y-72172857D01*
X38590476Y-72268095D01*
X38638095Y-72410952D01*
X39209523Y-72982380D01*
X38590476Y-72982380D01*
X37638095Y-72982380D02*
X38209523Y-72982380D01*
X37923809Y-72982380D02*
X37923809Y-71982380D01*
X38019047Y-72125238D01*
X38114285Y-72220476D01*
X38209523Y-72268095D01*
X46114257Y-61500232D02*
X46046914Y-61634919D01*
X46046914Y-61702263D01*
X46080586Y-61803278D01*
X46181601Y-61904293D01*
X46282616Y-61937965D01*
X46349960Y-61937965D01*
X46450975Y-61904293D01*
X46720349Y-61634919D01*
X46013242Y-60927813D01*
X45777540Y-61163515D01*
X45743868Y-61264530D01*
X45743868Y-61331874D01*
X45777540Y-61432889D01*
X45844883Y-61500232D01*
X45945899Y-61533904D01*
X46013242Y-61533904D01*
X46114257Y-61500232D01*
X46349960Y-61264530D01*
X45171448Y-61769606D02*
X45036761Y-61904293D01*
X45003090Y-62005309D01*
X45003090Y-62139996D01*
X45104105Y-62308354D01*
X45339807Y-62544057D01*
X45508166Y-62645072D01*
X45642853Y-62645072D01*
X45743868Y-62611400D01*
X45878555Y-62476713D01*
X45912227Y-62375698D01*
X45912227Y-62241011D01*
X45811212Y-62072652D01*
X45575509Y-61836950D01*
X45407151Y-61735935D01*
X45272464Y-61735935D01*
X45171448Y-61769606D01*
X44430670Y-62510385D02*
X44295983Y-62645072D01*
X44262311Y-62746087D01*
X44262311Y-62880774D01*
X44363326Y-63049133D01*
X44599028Y-63284835D01*
X44767387Y-63385851D01*
X44902074Y-63385851D01*
X45003090Y-63352179D01*
X45137777Y-63217492D01*
X45171448Y-63116477D01*
X45171448Y-62981790D01*
X45070433Y-62813431D01*
X44834731Y-62577728D01*
X44666372Y-62476713D01*
X44531685Y-62476713D01*
X44430670Y-62510385D01*
X43925593Y-63015461D02*
X43521532Y-63419522D01*
X44430670Y-63924599D02*
X43723563Y-63217492D01*
X43622548Y-64732721D02*
X44026609Y-64328660D01*
X43824578Y-64530690D02*
X43117471Y-63823583D01*
X43285830Y-63857255D01*
X43420517Y-63857255D01*
X43521532Y-63823583D01*
X41445854Y-56728129D02*
X41378511Y-56862816D01*
X41378511Y-56930160D01*
X41412183Y-57031175D01*
X41513198Y-57132190D01*
X41614213Y-57165862D01*
X41681557Y-57165862D01*
X41782572Y-57132190D01*
X42051946Y-56862816D01*
X41344839Y-56155710D01*
X41109137Y-56391412D01*
X41075465Y-56492427D01*
X41075465Y-56559771D01*
X41109137Y-56660786D01*
X41176480Y-56728129D01*
X41277496Y-56761801D01*
X41344839Y-56761801D01*
X41445854Y-56728129D01*
X41681557Y-56492427D01*
X40503045Y-56997503D02*
X40368358Y-57132190D01*
X40334687Y-57233206D01*
X40334687Y-57367893D01*
X40435702Y-57536251D01*
X40671404Y-57771954D01*
X40839763Y-57872969D01*
X40974450Y-57872969D01*
X41075465Y-57839297D01*
X41210152Y-57704610D01*
X41243824Y-57603595D01*
X41243824Y-57468908D01*
X41142809Y-57300549D01*
X40907106Y-57064847D01*
X40738748Y-56963832D01*
X40604061Y-56963832D01*
X40503045Y-56997503D01*
X39762267Y-57738282D02*
X39627580Y-57872969D01*
X39593908Y-57973984D01*
X39593908Y-58108671D01*
X39694923Y-58277030D01*
X39930625Y-58512732D01*
X40098984Y-58613748D01*
X40233671Y-58613748D01*
X40334687Y-58580076D01*
X40469374Y-58445389D01*
X40503045Y-58344374D01*
X40503045Y-58209687D01*
X40402030Y-58041328D01*
X40166328Y-57805625D01*
X39997969Y-57704610D01*
X39863282Y-57704610D01*
X39762267Y-57738282D01*
X39257190Y-58243358D02*
X38853129Y-58647419D01*
X39762267Y-59152496D02*
X39055160Y-58445389D01*
X38482740Y-59017809D02*
X38415397Y-59085152D01*
X38381725Y-59186167D01*
X38381725Y-59253511D01*
X38415397Y-59354526D01*
X38516412Y-59522885D01*
X38684771Y-59691244D01*
X38853129Y-59792259D01*
X38954145Y-59825931D01*
X39021488Y-59825931D01*
X39122503Y-59792259D01*
X39189847Y-59724915D01*
X39223519Y-59623900D01*
X39223519Y-59556557D01*
X39189847Y-59455541D01*
X39088832Y-59287183D01*
X38920473Y-59118824D01*
X38752114Y-59017809D01*
X38651099Y-58984137D01*
X38583755Y-58984137D01*
X38482740Y-59017809D01*
X36632106Y-69597970D02*
X36699450Y-69597970D01*
X36834137Y-69530626D01*
X36901480Y-69463283D01*
X36968824Y-69328596D01*
X36968824Y-69193909D01*
X36935152Y-69092894D01*
X36834137Y-68924535D01*
X36733122Y-68823520D01*
X36564763Y-68722504D01*
X36463748Y-68688833D01*
X36329061Y-68688833D01*
X36194374Y-68756176D01*
X36127030Y-68823520D01*
X36059687Y-68958207D01*
X36059687Y-69025550D01*
X35352580Y-69597970D02*
X35689297Y-69261252D01*
X36059687Y-69564298D01*
X35992343Y-69564298D01*
X35891328Y-69597970D01*
X35722969Y-69766329D01*
X35689297Y-69867344D01*
X35689297Y-69934688D01*
X35722969Y-70035703D01*
X35891328Y-70204062D01*
X35992343Y-70237733D01*
X36059687Y-70237733D01*
X36160702Y-70204062D01*
X36329061Y-70035703D01*
X36362732Y-69934688D01*
X36362732Y-69867344D01*
X34679145Y-70271405D02*
X35015862Y-69934688D01*
X35386251Y-70237733D01*
X35318908Y-70237733D01*
X35217893Y-70271405D01*
X35049534Y-70439764D01*
X35015862Y-70540779D01*
X35015862Y-70608123D01*
X35049534Y-70709138D01*
X35217893Y-70877497D01*
X35318908Y-70911168D01*
X35386251Y-70911168D01*
X35487267Y-70877497D01*
X35655625Y-70709138D01*
X35689297Y-70608123D01*
X35689297Y-70540779D01*
X73516666Y-65152380D02*
X73850000Y-64676190D01*
X74088095Y-65152380D02*
X74088095Y-64152380D01*
X73707142Y-64152380D01*
X73611904Y-64200000D01*
X73564285Y-64247619D01*
X73516666Y-64342857D01*
X73516666Y-64485714D01*
X73564285Y-64580952D01*
X73611904Y-64628571D01*
X73707142Y-64676190D01*
X74088095Y-64676190D01*
X72659523Y-64485714D02*
X72659523Y-65152380D01*
X72897619Y-64104761D02*
X73135714Y-64819047D01*
X72516666Y-64819047D01*
X73616666Y-67002380D02*
X73950000Y-66526190D01*
X74188095Y-67002380D02*
X74188095Y-66002380D01*
X73807142Y-66002380D01*
X73711904Y-66050000D01*
X73664285Y-66097619D01*
X73616666Y-66192857D01*
X73616666Y-66335714D01*
X73664285Y-66430952D01*
X73711904Y-66478571D01*
X73807142Y-66526190D01*
X74188095Y-66526190D01*
X72711904Y-66002380D02*
X73188095Y-66002380D01*
X73235714Y-66478571D01*
X73188095Y-66430952D01*
X73092857Y-66383333D01*
X72854761Y-66383333D01*
X72759523Y-66430952D01*
X72711904Y-66478571D01*
X72664285Y-66573809D01*
X72664285Y-66811904D01*
X72711904Y-66907142D01*
X72759523Y-66954761D01*
X72854761Y-67002380D01*
X73092857Y-67002380D01*
X73188095Y-66954761D01*
X73235714Y-66907142D01*
X49332380Y-70233333D02*
X48856190Y-69900000D01*
X49332380Y-69661904D02*
X48332380Y-69661904D01*
X48332380Y-70042857D01*
X48380000Y-70138095D01*
X48427619Y-70185714D01*
X48522857Y-70233333D01*
X48665714Y-70233333D01*
X48760952Y-70185714D01*
X48808571Y-70138095D01*
X48856190Y-70042857D01*
X48856190Y-69661904D01*
X48332380Y-70566666D02*
X48332380Y-71233333D01*
X49332380Y-70804761D01*
X90366666Y-91952380D02*
X90700000Y-91476190D01*
X90938095Y-91952380D02*
X90938095Y-90952380D01*
X90557142Y-90952380D01*
X90461904Y-91000000D01*
X90414285Y-91047619D01*
X90366666Y-91142857D01*
X90366666Y-91285714D01*
X90414285Y-91380952D01*
X90461904Y-91428571D01*
X90557142Y-91476190D01*
X90938095Y-91476190D01*
X89890476Y-91952380D02*
X89700000Y-91952380D01*
X89604761Y-91904761D01*
X89557142Y-91857142D01*
X89461904Y-91714285D01*
X89414285Y-91523809D01*
X89414285Y-91142857D01*
X89461904Y-91047619D01*
X89509523Y-91000000D01*
X89604761Y-90952380D01*
X89795238Y-90952380D01*
X89890476Y-91000000D01*
X89938095Y-91047619D01*
X89985714Y-91142857D01*
X89985714Y-91380952D01*
X89938095Y-91476190D01*
X89890476Y-91523809D01*
X89795238Y-91571428D01*
X89604761Y-91571428D01*
X89509523Y-91523809D01*
X89461904Y-91476190D01*
X89414285Y-91380952D01*
X74842857Y-91852380D02*
X75176190Y-91376190D01*
X75414285Y-91852380D02*
X75414285Y-90852380D01*
X75033333Y-90852380D01*
X74938095Y-90900000D01*
X74890476Y-90947619D01*
X74842857Y-91042857D01*
X74842857Y-91185714D01*
X74890476Y-91280952D01*
X74938095Y-91328571D01*
X75033333Y-91376190D01*
X75414285Y-91376190D01*
X74509523Y-90852380D02*
X73842857Y-90852380D01*
X74271428Y-91852380D01*
X73509523Y-90947619D02*
X73461904Y-90900000D01*
X73366666Y-90852380D01*
X73128571Y-90852380D01*
X73033333Y-90900000D01*
X72985714Y-90947619D01*
X72938095Y-91042857D01*
X72938095Y-91138095D01*
X72985714Y-91280952D01*
X73557142Y-91852380D01*
X72938095Y-91852380D01*
X58742857Y-91852380D02*
X59076190Y-91376190D01*
X59314285Y-91852380D02*
X59314285Y-90852380D01*
X58933333Y-90852380D01*
X58838095Y-90900000D01*
X58790476Y-90947619D01*
X58742857Y-91042857D01*
X58742857Y-91185714D01*
X58790476Y-91280952D01*
X58838095Y-91328571D01*
X58933333Y-91376190D01*
X59314285Y-91376190D01*
X57790476Y-91852380D02*
X58361904Y-91852380D01*
X58076190Y-91852380D02*
X58076190Y-90852380D01*
X58171428Y-90995238D01*
X58266666Y-91090476D01*
X58361904Y-91138095D01*
X57409523Y-90947619D02*
X57361904Y-90900000D01*
X57266666Y-90852380D01*
X57028571Y-90852380D01*
X56933333Y-90900000D01*
X56885714Y-90947619D01*
X56838095Y-91042857D01*
X56838095Y-91138095D01*
X56885714Y-91280952D01*
X57457142Y-91852380D01*
X56838095Y-91852380D01*
X42542857Y-91852380D02*
X42876190Y-91376190D01*
X43114285Y-91852380D02*
X43114285Y-90852380D01*
X42733333Y-90852380D01*
X42638095Y-90900000D01*
X42590476Y-90947619D01*
X42542857Y-91042857D01*
X42542857Y-91185714D01*
X42590476Y-91280952D01*
X42638095Y-91328571D01*
X42733333Y-91376190D01*
X43114285Y-91376190D01*
X41590476Y-91852380D02*
X42161904Y-91852380D01*
X41876190Y-91852380D02*
X41876190Y-90852380D01*
X41971428Y-90995238D01*
X42066666Y-91090476D01*
X42161904Y-91138095D01*
X40685714Y-90852380D02*
X41161904Y-90852380D01*
X41209523Y-91328571D01*
X41161904Y-91280952D01*
X41066666Y-91233333D01*
X40828571Y-91233333D01*
X40733333Y-91280952D01*
X40685714Y-91328571D01*
X40638095Y-91423809D01*
X40638095Y-91661904D01*
X40685714Y-91757142D01*
X40733333Y-91804761D01*
X40828571Y-91852380D01*
X41066666Y-91852380D01*
X41161904Y-91804761D01*
X41209523Y-91757142D01*
X26442857Y-91852380D02*
X26776190Y-91376190D01*
X27014285Y-91852380D02*
X27014285Y-90852380D01*
X26633333Y-90852380D01*
X26538095Y-90900000D01*
X26490476Y-90947619D01*
X26442857Y-91042857D01*
X26442857Y-91185714D01*
X26490476Y-91280952D01*
X26538095Y-91328571D01*
X26633333Y-91376190D01*
X27014285Y-91376190D01*
X25585714Y-90852380D02*
X25776190Y-90852380D01*
X25871428Y-90900000D01*
X25919047Y-90947619D01*
X26014285Y-91090476D01*
X26061904Y-91280952D01*
X26061904Y-91661904D01*
X26014285Y-91757142D01*
X25966666Y-91804761D01*
X25871428Y-91852380D01*
X25680952Y-91852380D01*
X25585714Y-91804761D01*
X25538095Y-91757142D01*
X25490476Y-91661904D01*
X25490476Y-91423809D01*
X25538095Y-91328571D01*
X25585714Y-91280952D01*
X25680952Y-91233333D01*
X25871428Y-91233333D01*
X25966666Y-91280952D01*
X26014285Y-91328571D01*
X26061904Y-91423809D01*
X25014285Y-91852380D02*
X24823809Y-91852380D01*
X24728571Y-91804761D01*
X24680952Y-91757142D01*
X24585714Y-91614285D01*
X24538095Y-91423809D01*
X24538095Y-91042857D01*
X24585714Y-90947619D01*
X24633333Y-90900000D01*
X24728571Y-90852380D01*
X24919047Y-90852380D01*
X25014285Y-90900000D01*
X25061904Y-90947619D01*
X25109523Y-91042857D01*
X25109523Y-91280952D01*
X25061904Y-91376190D01*
X25014285Y-91423809D01*
X24919047Y-91471428D01*
X24728571Y-91471428D01*
X24633333Y-91423809D01*
X24585714Y-91376190D01*
X24538095Y-91280952D01*
X10242857Y-91852380D02*
X10576190Y-91376190D01*
X10814285Y-91852380D02*
X10814285Y-90852380D01*
X10433333Y-90852380D01*
X10338095Y-90900000D01*
X10290476Y-90947619D01*
X10242857Y-91042857D01*
X10242857Y-91185714D01*
X10290476Y-91280952D01*
X10338095Y-91328571D01*
X10433333Y-91376190D01*
X10814285Y-91376190D01*
X9290476Y-91852380D02*
X9861904Y-91852380D01*
X9576190Y-91852380D02*
X9576190Y-90852380D01*
X9671428Y-90995238D01*
X9766666Y-91090476D01*
X9861904Y-91138095D01*
X8719047Y-91280952D02*
X8814285Y-91233333D01*
X8861904Y-91185714D01*
X8909523Y-91090476D01*
X8909523Y-91042857D01*
X8861904Y-90947619D01*
X8814285Y-90900000D01*
X8719047Y-90852380D01*
X8528571Y-90852380D01*
X8433333Y-90900000D01*
X8385714Y-90947619D01*
X8338095Y-91042857D01*
X8338095Y-91090476D01*
X8385714Y-91185714D01*
X8433333Y-91233333D01*
X8528571Y-91280952D01*
X8719047Y-91280952D01*
X8814285Y-91328571D01*
X8861904Y-91376190D01*
X8909523Y-91471428D01*
X8909523Y-91661904D01*
X8861904Y-91757142D01*
X8814285Y-91804761D01*
X8719047Y-91852380D01*
X8528571Y-91852380D01*
X8433333Y-91804761D01*
X8385714Y-91757142D01*
X8338095Y-91661904D01*
X8338095Y-91471428D01*
X8385714Y-91376190D01*
X8433333Y-91328571D01*
X8528571Y-91280952D01*
X3142857Y-72882380D02*
X3476190Y-72406190D01*
X3714285Y-72882380D02*
X3714285Y-71882380D01*
X3333333Y-71882380D01*
X3238095Y-71930000D01*
X3190476Y-71977619D01*
X3142857Y-72072857D01*
X3142857Y-72215714D01*
X3190476Y-72310952D01*
X3238095Y-72358571D01*
X3333333Y-72406190D01*
X3714285Y-72406190D01*
X2761904Y-71977619D02*
X2714285Y-71930000D01*
X2619047Y-71882380D01*
X2380952Y-71882380D01*
X2285714Y-71930000D01*
X2238095Y-71977619D01*
X2190476Y-72072857D01*
X2190476Y-72168095D01*
X2238095Y-72310952D01*
X2809523Y-72882380D01*
X2190476Y-72882380D01*
X1238095Y-72882380D02*
X1809523Y-72882380D01*
X1523809Y-72882380D02*
X1523809Y-71882380D01*
X1619047Y-72025238D01*
X1714285Y-72120476D01*
X1809523Y-72168095D01*
X3267857Y-53652380D02*
X3601190Y-53176190D01*
X3839285Y-53652380D02*
X3839285Y-52652380D01*
X3458333Y-52652380D01*
X3363095Y-52700000D01*
X3315476Y-52747619D01*
X3267857Y-52842857D01*
X3267857Y-52985714D01*
X3315476Y-53080952D01*
X3363095Y-53128571D01*
X3458333Y-53176190D01*
X3839285Y-53176190D01*
X2886904Y-52747619D02*
X2839285Y-52700000D01*
X2744047Y-52652380D01*
X2505952Y-52652380D01*
X2410714Y-52700000D01*
X2363095Y-52747619D01*
X2315476Y-52842857D01*
X2315476Y-52938095D01*
X2363095Y-53080952D01*
X2934523Y-53652380D01*
X2315476Y-53652380D01*
X1458333Y-52985714D02*
X1458333Y-53652380D01*
X1696428Y-52604761D02*
X1934523Y-53319047D01*
X1315476Y-53319047D01*
X52997380Y-3802142D02*
X52521190Y-3468809D01*
X52997380Y-3230714D02*
X51997380Y-3230714D01*
X51997380Y-3611666D01*
X52045000Y-3706904D01*
X52092619Y-3754523D01*
X52187857Y-3802142D01*
X52330714Y-3802142D01*
X52425952Y-3754523D01*
X52473571Y-3706904D01*
X52521190Y-3611666D01*
X52521190Y-3230714D01*
X52092619Y-4183095D02*
X52045000Y-4230714D01*
X51997380Y-4325952D01*
X51997380Y-4564047D01*
X52045000Y-4659285D01*
X52092619Y-4706904D01*
X52187857Y-4754523D01*
X52283095Y-4754523D01*
X52425952Y-4706904D01*
X52997380Y-4135476D01*
X52997380Y-4754523D01*
X52425952Y-5325952D02*
X52378333Y-5230714D01*
X52330714Y-5183095D01*
X52235476Y-5135476D01*
X52187857Y-5135476D01*
X52092619Y-5183095D01*
X52045000Y-5230714D01*
X51997380Y-5325952D01*
X51997380Y-5516428D01*
X52045000Y-5611666D01*
X52092619Y-5659285D01*
X52187857Y-5706904D01*
X52235476Y-5706904D01*
X52330714Y-5659285D01*
X52378333Y-5611666D01*
X52425952Y-5516428D01*
X52425952Y-5325952D01*
X52473571Y-5230714D01*
X52521190Y-5183095D01*
X52616428Y-5135476D01*
X52806904Y-5135476D01*
X52902142Y-5183095D01*
X52949761Y-5230714D01*
X52997380Y-5325952D01*
X52997380Y-5516428D01*
X52949761Y-5611666D01*
X52902142Y-5659285D01*
X52806904Y-5706904D01*
X52616428Y-5706904D01*
X52521190Y-5659285D01*
X52473571Y-5611666D01*
X52425952Y-5516428D01*
X51652380Y-17357142D02*
X51176190Y-17023809D01*
X51652380Y-16785714D02*
X50652380Y-16785714D01*
X50652380Y-17166666D01*
X50700000Y-17261904D01*
X50747619Y-17309523D01*
X50842857Y-17357142D01*
X50985714Y-17357142D01*
X51080952Y-17309523D01*
X51128571Y-17261904D01*
X51176190Y-17166666D01*
X51176190Y-16785714D01*
X50747619Y-17738095D02*
X50700000Y-17785714D01*
X50652380Y-17880952D01*
X50652380Y-18119047D01*
X50700000Y-18214285D01*
X50747619Y-18261904D01*
X50842857Y-18309523D01*
X50938095Y-18309523D01*
X51080952Y-18261904D01*
X51652380Y-17690476D01*
X51652380Y-18309523D01*
X50652380Y-18642857D02*
X50652380Y-19309523D01*
X51652380Y-18880952D01*
X43252380Y-17657142D02*
X42776190Y-17323809D01*
X43252380Y-17085714D02*
X42252380Y-17085714D01*
X42252380Y-17466666D01*
X42300000Y-17561904D01*
X42347619Y-17609523D01*
X42442857Y-17657142D01*
X42585714Y-17657142D01*
X42680952Y-17609523D01*
X42728571Y-17561904D01*
X42776190Y-17466666D01*
X42776190Y-17085714D01*
X42347619Y-18038095D02*
X42300000Y-18085714D01*
X42252380Y-18180952D01*
X42252380Y-18419047D01*
X42300000Y-18514285D01*
X42347619Y-18561904D01*
X42442857Y-18609523D01*
X42538095Y-18609523D01*
X42680952Y-18561904D01*
X43252380Y-17990476D01*
X43252380Y-18609523D01*
X42252380Y-19466666D02*
X42252380Y-19276190D01*
X42300000Y-19180952D01*
X42347619Y-19133333D01*
X42490476Y-19038095D01*
X42680952Y-18990476D01*
X43061904Y-18990476D01*
X43157142Y-19038095D01*
X43204761Y-19085714D01*
X43252380Y-19180952D01*
X43252380Y-19371428D01*
X43204761Y-19466666D01*
X43157142Y-19514285D01*
X43061904Y-19561904D01*
X42823809Y-19561904D01*
X42728571Y-19514285D01*
X42680952Y-19466666D01*
X42633333Y-19371428D01*
X42633333Y-19180952D01*
X42680952Y-19085714D01*
X42728571Y-19038095D01*
X42823809Y-18990476D01*
X63792380Y-3802142D02*
X63316190Y-3468809D01*
X63792380Y-3230714D02*
X62792380Y-3230714D01*
X62792380Y-3611666D01*
X62840000Y-3706904D01*
X62887619Y-3754523D01*
X62982857Y-3802142D01*
X63125714Y-3802142D01*
X63220952Y-3754523D01*
X63268571Y-3706904D01*
X63316190Y-3611666D01*
X63316190Y-3230714D01*
X62792380Y-4706904D02*
X62792380Y-4230714D01*
X63268571Y-4183095D01*
X63220952Y-4230714D01*
X63173333Y-4325952D01*
X63173333Y-4564047D01*
X63220952Y-4659285D01*
X63268571Y-4706904D01*
X63363809Y-4754523D01*
X63601904Y-4754523D01*
X63697142Y-4706904D01*
X63744761Y-4659285D01*
X63792380Y-4564047D01*
X63792380Y-4325952D01*
X63744761Y-4230714D01*
X63697142Y-4183095D01*
X62887619Y-5135476D02*
X62840000Y-5183095D01*
X62792380Y-5278333D01*
X62792380Y-5516428D01*
X62840000Y-5611666D01*
X62887619Y-5659285D01*
X62982857Y-5706904D01*
X63078095Y-5706904D01*
X63220952Y-5659285D01*
X63792380Y-5087857D01*
X63792380Y-5706904D01*
X63452380Y-16757142D02*
X62976190Y-16423809D01*
X63452380Y-16185714D02*
X62452380Y-16185714D01*
X62452380Y-16566666D01*
X62500000Y-16661904D01*
X62547619Y-16709523D01*
X62642857Y-16757142D01*
X62785714Y-16757142D01*
X62880952Y-16709523D01*
X62928571Y-16661904D01*
X62976190Y-16566666D01*
X62976190Y-16185714D01*
X62452380Y-17661904D02*
X62452380Y-17185714D01*
X62928571Y-17138095D01*
X62880952Y-17185714D01*
X62833333Y-17280952D01*
X62833333Y-17519047D01*
X62880952Y-17614285D01*
X62928571Y-17661904D01*
X63023809Y-17709523D01*
X63261904Y-17709523D01*
X63357142Y-17661904D01*
X63404761Y-17614285D01*
X63452380Y-17519047D01*
X63452380Y-17280952D01*
X63404761Y-17185714D01*
X63357142Y-17138095D01*
X63452380Y-18661904D02*
X63452380Y-18090476D01*
X63452380Y-18376190D02*
X62452380Y-18376190D01*
X62595238Y-18280952D01*
X62690476Y-18185714D01*
X62738095Y-18090476D01*
X54952380Y-16857142D02*
X54476190Y-16523809D01*
X54952380Y-16285714D02*
X53952380Y-16285714D01*
X53952380Y-16666666D01*
X54000000Y-16761904D01*
X54047619Y-16809523D01*
X54142857Y-16857142D01*
X54285714Y-16857142D01*
X54380952Y-16809523D01*
X54428571Y-16761904D01*
X54476190Y-16666666D01*
X54476190Y-16285714D01*
X53952380Y-17761904D02*
X53952380Y-17285714D01*
X54428571Y-17238095D01*
X54380952Y-17285714D01*
X54333333Y-17380952D01*
X54333333Y-17619047D01*
X54380952Y-17714285D01*
X54428571Y-17761904D01*
X54523809Y-17809523D01*
X54761904Y-17809523D01*
X54857142Y-17761904D01*
X54904761Y-17714285D01*
X54952380Y-17619047D01*
X54952380Y-17380952D01*
X54904761Y-17285714D01*
X54857142Y-17238095D01*
X53952380Y-18428571D02*
X53952380Y-18523809D01*
X54000000Y-18619047D01*
X54047619Y-18666666D01*
X54142857Y-18714285D01*
X54333333Y-18761904D01*
X54571428Y-18761904D01*
X54761904Y-18714285D01*
X54857142Y-18666666D01*
X54904761Y-18619047D01*
X54952380Y-18523809D01*
X54952380Y-18428571D01*
X54904761Y-18333333D01*
X54857142Y-18285714D01*
X54761904Y-18238095D01*
X54571428Y-18190476D01*
X54333333Y-18190476D01*
X54142857Y-18238095D01*
X54047619Y-18285714D01*
X54000000Y-18333333D01*
X53952380Y-18428571D01*
X74587380Y-3802142D02*
X74111190Y-3468809D01*
X74587380Y-3230714D02*
X73587380Y-3230714D01*
X73587380Y-3611666D01*
X73635000Y-3706904D01*
X73682619Y-3754523D01*
X73777857Y-3802142D01*
X73920714Y-3802142D01*
X74015952Y-3754523D01*
X74063571Y-3706904D01*
X74111190Y-3611666D01*
X74111190Y-3230714D01*
X73587380Y-4706904D02*
X73587380Y-4230714D01*
X74063571Y-4183095D01*
X74015952Y-4230714D01*
X73968333Y-4325952D01*
X73968333Y-4564047D01*
X74015952Y-4659285D01*
X74063571Y-4706904D01*
X74158809Y-4754523D01*
X74396904Y-4754523D01*
X74492142Y-4706904D01*
X74539761Y-4659285D01*
X74587380Y-4564047D01*
X74587380Y-4325952D01*
X74539761Y-4230714D01*
X74492142Y-4183095D01*
X73587380Y-5659285D02*
X73587380Y-5183095D01*
X74063571Y-5135476D01*
X74015952Y-5183095D01*
X73968333Y-5278333D01*
X73968333Y-5516428D01*
X74015952Y-5611666D01*
X74063571Y-5659285D01*
X74158809Y-5706904D01*
X74396904Y-5706904D01*
X74492142Y-5659285D01*
X74539761Y-5611666D01*
X74587380Y-5516428D01*
X74587380Y-5278333D01*
X74539761Y-5183095D01*
X74492142Y-5135476D01*
X75652380Y-16957142D02*
X75176190Y-16623809D01*
X75652380Y-16385714D02*
X74652380Y-16385714D01*
X74652380Y-16766666D01*
X74700000Y-16861904D01*
X74747619Y-16909523D01*
X74842857Y-16957142D01*
X74985714Y-16957142D01*
X75080952Y-16909523D01*
X75128571Y-16861904D01*
X75176190Y-16766666D01*
X75176190Y-16385714D01*
X74652380Y-17861904D02*
X74652380Y-17385714D01*
X75128571Y-17338095D01*
X75080952Y-17385714D01*
X75033333Y-17480952D01*
X75033333Y-17719047D01*
X75080952Y-17814285D01*
X75128571Y-17861904D01*
X75223809Y-17909523D01*
X75461904Y-17909523D01*
X75557142Y-17861904D01*
X75604761Y-17814285D01*
X75652380Y-17719047D01*
X75652380Y-17480952D01*
X75604761Y-17385714D01*
X75557142Y-17338095D01*
X74985714Y-18766666D02*
X75652380Y-18766666D01*
X74604761Y-18528571D02*
X75319047Y-18290476D01*
X75319047Y-18909523D01*
X66452380Y-17157142D02*
X65976190Y-16823809D01*
X66452380Y-16585714D02*
X65452380Y-16585714D01*
X65452380Y-16966666D01*
X65500000Y-17061904D01*
X65547619Y-17109523D01*
X65642857Y-17157142D01*
X65785714Y-17157142D01*
X65880952Y-17109523D01*
X65928571Y-17061904D01*
X65976190Y-16966666D01*
X65976190Y-16585714D01*
X65452380Y-18061904D02*
X65452380Y-17585714D01*
X65928571Y-17538095D01*
X65880952Y-17585714D01*
X65833333Y-17680952D01*
X65833333Y-17919047D01*
X65880952Y-18014285D01*
X65928571Y-18061904D01*
X66023809Y-18109523D01*
X66261904Y-18109523D01*
X66357142Y-18061904D01*
X66404761Y-18014285D01*
X66452380Y-17919047D01*
X66452380Y-17680952D01*
X66404761Y-17585714D01*
X66357142Y-17538095D01*
X65452380Y-18442857D02*
X65452380Y-19061904D01*
X65833333Y-18728571D01*
X65833333Y-18871428D01*
X65880952Y-18966666D01*
X65928571Y-19014285D01*
X66023809Y-19061904D01*
X66261904Y-19061904D01*
X66357142Y-19014285D01*
X66404761Y-18966666D01*
X66452380Y-18871428D01*
X66452380Y-18585714D01*
X66404761Y-18490476D01*
X66357142Y-18442857D01*
X11042857Y-29957142D02*
X11090476Y-30004761D01*
X11233333Y-30052380D01*
X11328571Y-30052380D01*
X11471428Y-30004761D01*
X11566666Y-29909523D01*
X11614285Y-29814285D01*
X11661904Y-29623809D01*
X11661904Y-29480952D01*
X11614285Y-29290476D01*
X11566666Y-29195238D01*
X11471428Y-29100000D01*
X11328571Y-29052380D01*
X11233333Y-29052380D01*
X11090476Y-29100000D01*
X11042857Y-29147619D01*
X10090476Y-30052380D02*
X10661904Y-30052380D01*
X10376190Y-30052380D02*
X10376190Y-29052380D01*
X10471428Y-29195238D01*
X10566666Y-29290476D01*
X10661904Y-29338095D01*
X9185714Y-29052380D02*
X9661904Y-29052380D01*
X9709523Y-29528571D01*
X9661904Y-29480952D01*
X9566666Y-29433333D01*
X9328571Y-29433333D01*
X9233333Y-29480952D01*
X9185714Y-29528571D01*
X9138095Y-29623809D01*
X9138095Y-29861904D01*
X9185714Y-29957142D01*
X9233333Y-30004761D01*
X9328571Y-30052380D01*
X9566666Y-30052380D01*
X9661904Y-30004761D01*
X9709523Y-29957142D01*
X24449432Y-30033780D02*
X24497051Y-30081399D01*
X24639908Y-30129018D01*
X24735146Y-30129018D01*
X24878003Y-30081399D01*
X24973241Y-29986161D01*
X25020860Y-29890923D01*
X25068479Y-29700447D01*
X25068479Y-29557590D01*
X25020860Y-29367114D01*
X24973241Y-29271876D01*
X24878003Y-29176638D01*
X24735146Y-29129018D01*
X24639908Y-29129018D01*
X24497051Y-29176638D01*
X24449432Y-29224257D01*
X23497051Y-30129018D02*
X24068479Y-30129018D01*
X23782765Y-30129018D02*
X23782765Y-29129018D01*
X23878003Y-29271876D01*
X23973241Y-29367114D01*
X24068479Y-29414733D01*
X23163717Y-29129018D02*
X22497051Y-29129018D01*
X22925622Y-30129018D01*
X39232142Y-14882142D02*
X39279761Y-14834523D01*
X39327380Y-14691666D01*
X39327380Y-14596428D01*
X39279761Y-14453571D01*
X39184523Y-14358333D01*
X39089285Y-14310714D01*
X38898809Y-14263095D01*
X38755952Y-14263095D01*
X38565476Y-14310714D01*
X38470238Y-14358333D01*
X38375000Y-14453571D01*
X38327380Y-14596428D01*
X38327380Y-14691666D01*
X38375000Y-14834523D01*
X38422619Y-14882142D01*
X39327380Y-15834523D02*
X39327380Y-15263095D01*
X39327380Y-15548809D02*
X38327380Y-15548809D01*
X38470238Y-15453571D01*
X38565476Y-15358333D01*
X38613095Y-15263095D01*
X38755952Y-16405952D02*
X38708333Y-16310714D01*
X38660714Y-16263095D01*
X38565476Y-16215476D01*
X38517857Y-16215476D01*
X38422619Y-16263095D01*
X38375000Y-16310714D01*
X38327380Y-16405952D01*
X38327380Y-16596428D01*
X38375000Y-16691666D01*
X38422619Y-16739285D01*
X38517857Y-16786904D01*
X38565476Y-16786904D01*
X38660714Y-16739285D01*
X38708333Y-16691666D01*
X38755952Y-16596428D01*
X38755952Y-16405952D01*
X38803571Y-16310714D01*
X38851190Y-16263095D01*
X38946428Y-16215476D01*
X39136904Y-16215476D01*
X39232142Y-16263095D01*
X39279761Y-16310714D01*
X39327380Y-16405952D01*
X39327380Y-16596428D01*
X39279761Y-16691666D01*
X39232142Y-16739285D01*
X39136904Y-16786904D01*
X38946428Y-16786904D01*
X38851190Y-16739285D01*
X38803571Y-16691666D01*
X38755952Y-16596428D01*
X3642857Y-29757142D02*
X3690476Y-29804761D01*
X3833333Y-29852380D01*
X3928571Y-29852380D01*
X4071428Y-29804761D01*
X4166666Y-29709523D01*
X4214285Y-29614285D01*
X4261904Y-29423809D01*
X4261904Y-29280952D01*
X4214285Y-29090476D01*
X4166666Y-28995238D01*
X4071428Y-28900000D01*
X3928571Y-28852380D01*
X3833333Y-28852380D01*
X3690476Y-28900000D01*
X3642857Y-28947619D01*
X2690476Y-29852380D02*
X3261904Y-29852380D01*
X2976190Y-29852380D02*
X2976190Y-28852380D01*
X3071428Y-28995238D01*
X3166666Y-29090476D01*
X3261904Y-29138095D01*
X1833333Y-29185714D02*
X1833333Y-29852380D01*
X2071428Y-28804761D02*
X2309523Y-29519047D01*
X1690476Y-29519047D01*
X17792857Y-29977142D02*
X17840476Y-30024761D01*
X17983333Y-30072380D01*
X18078571Y-30072380D01*
X18221428Y-30024761D01*
X18316666Y-29929523D01*
X18364285Y-29834285D01*
X18411904Y-29643809D01*
X18411904Y-29500952D01*
X18364285Y-29310476D01*
X18316666Y-29215238D01*
X18221428Y-29120000D01*
X18078571Y-29072380D01*
X17983333Y-29072380D01*
X17840476Y-29120000D01*
X17792857Y-29167619D01*
X16840476Y-30072380D02*
X17411904Y-30072380D01*
X17126190Y-30072380D02*
X17126190Y-29072380D01*
X17221428Y-29215238D01*
X17316666Y-29310476D01*
X17411904Y-29358095D01*
X15983333Y-29072380D02*
X16173809Y-29072380D01*
X16269047Y-29120000D01*
X16316666Y-29167619D01*
X16411904Y-29310476D01*
X16459523Y-29500952D01*
X16459523Y-29881904D01*
X16411904Y-29977142D01*
X16364285Y-30024761D01*
X16269047Y-30072380D01*
X16078571Y-30072380D01*
X15983333Y-30024761D01*
X15935714Y-29977142D01*
X15888095Y-29881904D01*
X15888095Y-29643809D01*
X15935714Y-29548571D01*
X15983333Y-29500952D01*
X16078571Y-29453333D01*
X16269047Y-29453333D01*
X16364285Y-29500952D01*
X16411904Y-29548571D01*
X16459523Y-29643809D01*
X14242857Y-38052380D02*
X14576190Y-37576190D01*
X14814285Y-38052380D02*
X14814285Y-37052380D01*
X14433333Y-37052380D01*
X14338095Y-37100000D01*
X14290476Y-37147619D01*
X14242857Y-37242857D01*
X14242857Y-37385714D01*
X14290476Y-37480952D01*
X14338095Y-37528571D01*
X14433333Y-37576190D01*
X14814285Y-37576190D01*
X13909523Y-37052380D02*
X13290476Y-37052380D01*
X13623809Y-37433333D01*
X13480952Y-37433333D01*
X13385714Y-37480952D01*
X13338095Y-37528571D01*
X13290476Y-37623809D01*
X13290476Y-37861904D01*
X13338095Y-37957142D01*
X13385714Y-38004761D01*
X13480952Y-38052380D01*
X13766666Y-38052380D01*
X13861904Y-38004761D01*
X13909523Y-37957142D01*
X12957142Y-37052380D02*
X12290476Y-37052380D01*
X12719047Y-38052380D01*
X21149432Y-38245742D02*
X21482765Y-37769552D01*
X21720860Y-38245742D02*
X21720860Y-37245742D01*
X21339908Y-37245742D01*
X21244670Y-37293362D01*
X21197051Y-37340981D01*
X21149432Y-37436219D01*
X21149432Y-37579076D01*
X21197051Y-37674314D01*
X21244670Y-37721933D01*
X21339908Y-37769552D01*
X21720860Y-37769552D01*
X20816098Y-37245742D02*
X20197051Y-37245742D01*
X20530384Y-37626695D01*
X20387527Y-37626695D01*
X20292289Y-37674314D01*
X20244670Y-37721933D01*
X20197051Y-37817171D01*
X20197051Y-38055266D01*
X20244670Y-38150504D01*
X20292289Y-38198123D01*
X20387527Y-38245742D01*
X20673241Y-38245742D01*
X20768479Y-38198123D01*
X20816098Y-38150504D01*
X19625622Y-37674314D02*
X19720860Y-37626695D01*
X19768479Y-37579076D01*
X19816098Y-37483838D01*
X19816098Y-37436219D01*
X19768479Y-37340981D01*
X19720860Y-37293362D01*
X19625622Y-37245742D01*
X19435146Y-37245742D01*
X19339908Y-37293362D01*
X19292289Y-37340981D01*
X19244670Y-37436219D01*
X19244670Y-37483838D01*
X19292289Y-37579076D01*
X19339908Y-37626695D01*
X19435146Y-37674314D01*
X19625622Y-37674314D01*
X19720860Y-37721933D01*
X19768479Y-37769552D01*
X19816098Y-37864790D01*
X19816098Y-38055266D01*
X19768479Y-38150504D01*
X19720860Y-38198123D01*
X19625622Y-38245742D01*
X19435146Y-38245742D01*
X19339908Y-38198123D01*
X19292289Y-38150504D01*
X19244670Y-38055266D01*
X19244670Y-37864790D01*
X19292289Y-37769552D01*
X19339908Y-37721933D01*
X19435146Y-37674314D01*
X37702380Y-14832142D02*
X37226190Y-14498809D01*
X37702380Y-14260714D02*
X36702380Y-14260714D01*
X36702380Y-14641666D01*
X36750000Y-14736904D01*
X36797619Y-14784523D01*
X36892857Y-14832142D01*
X37035714Y-14832142D01*
X37130952Y-14784523D01*
X37178571Y-14736904D01*
X37226190Y-14641666D01*
X37226190Y-14260714D01*
X36702380Y-15165476D02*
X36702380Y-15784523D01*
X37083333Y-15451190D01*
X37083333Y-15594047D01*
X37130952Y-15689285D01*
X37178571Y-15736904D01*
X37273809Y-15784523D01*
X37511904Y-15784523D01*
X37607142Y-15736904D01*
X37654761Y-15689285D01*
X37702380Y-15594047D01*
X37702380Y-15308333D01*
X37654761Y-15213095D01*
X37607142Y-15165476D01*
X37702380Y-16260714D02*
X37702380Y-16451190D01*
X37654761Y-16546428D01*
X37607142Y-16594047D01*
X37464285Y-16689285D01*
X37273809Y-16736904D01*
X36892857Y-16736904D01*
X36797619Y-16689285D01*
X36750000Y-16641666D01*
X36702380Y-16546428D01*
X36702380Y-16355952D01*
X36750000Y-16260714D01*
X36797619Y-16213095D01*
X36892857Y-16165476D01*
X37130952Y-16165476D01*
X37226190Y-16213095D01*
X37273809Y-16260714D01*
X37321428Y-16355952D01*
X37321428Y-16546428D01*
X37273809Y-16641666D01*
X37226190Y-16689285D01*
X37130952Y-16736904D01*
X39977380Y-14339285D02*
X39977380Y-14910714D01*
X40977380Y-14625000D02*
X39977380Y-14625000D01*
X40977380Y-15244047D02*
X39977380Y-15244047D01*
X40453571Y-15244047D02*
X40453571Y-15815476D01*
X40977380Y-15815476D02*
X39977380Y-15815476D01*
X40977380Y-16815476D02*
X40977380Y-16244047D01*
X40977380Y-16529761D02*
X39977380Y-16529761D01*
X40120238Y-16434523D01*
X40215476Y-16339285D01*
X40263095Y-16244047D01*
X7442857Y-38052380D02*
X7776190Y-37576190D01*
X8014285Y-38052380D02*
X8014285Y-37052380D01*
X7633333Y-37052380D01*
X7538095Y-37100000D01*
X7490476Y-37147619D01*
X7442857Y-37242857D01*
X7442857Y-37385714D01*
X7490476Y-37480952D01*
X7538095Y-37528571D01*
X7633333Y-37576190D01*
X8014285Y-37576190D01*
X7109523Y-37052380D02*
X6490476Y-37052380D01*
X6823809Y-37433333D01*
X6680952Y-37433333D01*
X6585714Y-37480952D01*
X6538095Y-37528571D01*
X6490476Y-37623809D01*
X6490476Y-37861904D01*
X6538095Y-37957142D01*
X6585714Y-38004761D01*
X6680952Y-38052380D01*
X6966666Y-38052380D01*
X7061904Y-38004761D01*
X7109523Y-37957142D01*
X5633333Y-37052380D02*
X5823809Y-37052380D01*
X5919047Y-37100000D01*
X5966666Y-37147619D01*
X6061904Y-37290476D01*
X6109523Y-37480952D01*
X6109523Y-37861904D01*
X6061904Y-37957142D01*
X6014285Y-38004761D01*
X5919047Y-38052380D01*
X5728571Y-38052380D01*
X5633333Y-38004761D01*
X5585714Y-37957142D01*
X5538095Y-37861904D01*
X5538095Y-37623809D01*
X5585714Y-37528571D01*
X5633333Y-37480952D01*
X5728571Y-37433333D01*
X5919047Y-37433333D01*
X6014285Y-37480952D01*
X6061904Y-37528571D01*
X6109523Y-37623809D01*
X3642857Y-39752380D02*
X3976190Y-39276190D01*
X4214285Y-39752380D02*
X4214285Y-38752380D01*
X3833333Y-38752380D01*
X3738095Y-38800000D01*
X3690476Y-38847619D01*
X3642857Y-38942857D01*
X3642857Y-39085714D01*
X3690476Y-39180952D01*
X3738095Y-39228571D01*
X3833333Y-39276190D01*
X4214285Y-39276190D01*
X3309523Y-38752380D02*
X2690476Y-38752380D01*
X3023809Y-39133333D01*
X2880952Y-39133333D01*
X2785714Y-39180952D01*
X2738095Y-39228571D01*
X2690476Y-39323809D01*
X2690476Y-39561904D01*
X2738095Y-39657142D01*
X2785714Y-39704761D01*
X2880952Y-39752380D01*
X3166666Y-39752380D01*
X3261904Y-39704761D01*
X3309523Y-39657142D01*
X1785714Y-38752380D02*
X2261904Y-38752380D01*
X2309523Y-39228571D01*
X2261904Y-39180952D01*
X2166666Y-39133333D01*
X1928571Y-39133333D01*
X1833333Y-39180952D01*
X1785714Y-39228571D01*
X1738095Y-39323809D01*
X1738095Y-39561904D01*
X1785714Y-39657142D01*
X1833333Y-39704761D01*
X1928571Y-39752380D01*
X2166666Y-39752380D01*
X2261904Y-39704761D01*
X2309523Y-39657142D01*
X24652380Y-6057142D02*
X24176190Y-5723809D01*
X24652380Y-5485714D02*
X23652380Y-5485714D01*
X23652380Y-5866666D01*
X23700000Y-5961904D01*
X23747619Y-6009523D01*
X23842857Y-6057142D01*
X23985714Y-6057142D01*
X24080952Y-6009523D01*
X24128571Y-5961904D01*
X24176190Y-5866666D01*
X24176190Y-5485714D01*
X23652380Y-6961904D02*
X23652380Y-6485714D01*
X24128571Y-6438095D01*
X24080952Y-6485714D01*
X24033333Y-6580952D01*
X24033333Y-6819047D01*
X24080952Y-6914285D01*
X24128571Y-6961904D01*
X24223809Y-7009523D01*
X24461904Y-7009523D01*
X24557142Y-6961904D01*
X24604761Y-6914285D01*
X24652380Y-6819047D01*
X24652380Y-6580952D01*
X24604761Y-6485714D01*
X24557142Y-6438095D01*
X24652380Y-7485714D02*
X24652380Y-7676190D01*
X24604761Y-7771428D01*
X24557142Y-7819047D01*
X24414285Y-7914285D01*
X24223809Y-7961904D01*
X23842857Y-7961904D01*
X23747619Y-7914285D01*
X23700000Y-7866666D01*
X23652380Y-7771428D01*
X23652380Y-7580952D01*
X23700000Y-7485714D01*
X23747619Y-7438095D01*
X23842857Y-7390476D01*
X24080952Y-7390476D01*
X24176190Y-7438095D01*
X24223809Y-7485714D01*
X24271428Y-7580952D01*
X24271428Y-7771428D01*
X24223809Y-7866666D01*
X24176190Y-7914285D01*
X24080952Y-7961904D01*
X20752380Y-9857142D02*
X20276190Y-9523809D01*
X20752380Y-9285714D02*
X19752380Y-9285714D01*
X19752380Y-9666666D01*
X19800000Y-9761904D01*
X19847619Y-9809523D01*
X19942857Y-9857142D01*
X20085714Y-9857142D01*
X20180952Y-9809523D01*
X20228571Y-9761904D01*
X20276190Y-9666666D01*
X20276190Y-9285714D01*
X19752380Y-10761904D02*
X19752380Y-10285714D01*
X20228571Y-10238095D01*
X20180952Y-10285714D01*
X20133333Y-10380952D01*
X20133333Y-10619047D01*
X20180952Y-10714285D01*
X20228571Y-10761904D01*
X20323809Y-10809523D01*
X20561904Y-10809523D01*
X20657142Y-10761904D01*
X20704761Y-10714285D01*
X20752380Y-10619047D01*
X20752380Y-10380952D01*
X20704761Y-10285714D01*
X20657142Y-10238095D01*
X20180952Y-11380952D02*
X20133333Y-11285714D01*
X20085714Y-11238095D01*
X19990476Y-11190476D01*
X19942857Y-11190476D01*
X19847619Y-11238095D01*
X19800000Y-11285714D01*
X19752380Y-11380952D01*
X19752380Y-11571428D01*
X19800000Y-11666666D01*
X19847619Y-11714285D01*
X19942857Y-11761904D01*
X19990476Y-11761904D01*
X20085714Y-11714285D01*
X20133333Y-11666666D01*
X20180952Y-11571428D01*
X20180952Y-11380952D01*
X20228571Y-11285714D01*
X20276190Y-11238095D01*
X20371428Y-11190476D01*
X20561904Y-11190476D01*
X20657142Y-11238095D01*
X20704761Y-11285714D01*
X20752380Y-11380952D01*
X20752380Y-11571428D01*
X20704761Y-11666666D01*
X20657142Y-11714285D01*
X20561904Y-11761904D01*
X20371428Y-11761904D01*
X20276190Y-11714285D01*
X20228571Y-11666666D01*
X20180952Y-11571428D01*
X18852380Y-9957142D02*
X18376190Y-9623809D01*
X18852380Y-9385714D02*
X17852380Y-9385714D01*
X17852380Y-9766666D01*
X17900000Y-9861904D01*
X17947619Y-9909523D01*
X18042857Y-9957142D01*
X18185714Y-9957142D01*
X18280952Y-9909523D01*
X18328571Y-9861904D01*
X18376190Y-9766666D01*
X18376190Y-9385714D01*
X17852380Y-10861904D02*
X17852380Y-10385714D01*
X18328571Y-10338095D01*
X18280952Y-10385714D01*
X18233333Y-10480952D01*
X18233333Y-10719047D01*
X18280952Y-10814285D01*
X18328571Y-10861904D01*
X18423809Y-10909523D01*
X18661904Y-10909523D01*
X18757142Y-10861904D01*
X18804761Y-10814285D01*
X18852380Y-10719047D01*
X18852380Y-10480952D01*
X18804761Y-10385714D01*
X18757142Y-10338095D01*
X17852380Y-11242857D02*
X17852380Y-11909523D01*
X18852380Y-11480952D01*
X22552380Y-9857142D02*
X22076190Y-9523809D01*
X22552380Y-9285714D02*
X21552380Y-9285714D01*
X21552380Y-9666666D01*
X21600000Y-9761904D01*
X21647619Y-9809523D01*
X21742857Y-9857142D01*
X21885714Y-9857142D01*
X21980952Y-9809523D01*
X22028571Y-9761904D01*
X22076190Y-9666666D01*
X22076190Y-9285714D01*
X21552380Y-10761904D02*
X21552380Y-10285714D01*
X22028571Y-10238095D01*
X21980952Y-10285714D01*
X21933333Y-10380952D01*
X21933333Y-10619047D01*
X21980952Y-10714285D01*
X22028571Y-10761904D01*
X22123809Y-10809523D01*
X22361904Y-10809523D01*
X22457142Y-10761904D01*
X22504761Y-10714285D01*
X22552380Y-10619047D01*
X22552380Y-10380952D01*
X22504761Y-10285714D01*
X22457142Y-10238095D01*
X21552380Y-11666666D02*
X21552380Y-11476190D01*
X21600000Y-11380952D01*
X21647619Y-11333333D01*
X21790476Y-11238095D01*
X21980952Y-11190476D01*
X22361904Y-11190476D01*
X22457142Y-11238095D01*
X22504761Y-11285714D01*
X22552380Y-11380952D01*
X22552380Y-11571428D01*
X22504761Y-11666666D01*
X22457142Y-11714285D01*
X22361904Y-11761904D01*
X22123809Y-11761904D01*
X22028571Y-11714285D01*
X21980952Y-11666666D01*
X21933333Y-11571428D01*
X21933333Y-11380952D01*
X21980952Y-11285714D01*
X22028571Y-11238095D01*
X22123809Y-11190476D01*
X32752380Y-6057142D02*
X32276190Y-5723809D01*
X32752380Y-5485714D02*
X31752380Y-5485714D01*
X31752380Y-5866666D01*
X31800000Y-5961904D01*
X31847619Y-6009523D01*
X31942857Y-6057142D01*
X32085714Y-6057142D01*
X32180952Y-6009523D01*
X32228571Y-5961904D01*
X32276190Y-5866666D01*
X32276190Y-5485714D01*
X31752380Y-6914285D02*
X31752380Y-6723809D01*
X31800000Y-6628571D01*
X31847619Y-6580952D01*
X31990476Y-6485714D01*
X32180952Y-6438095D01*
X32561904Y-6438095D01*
X32657142Y-6485714D01*
X32704761Y-6533333D01*
X32752380Y-6628571D01*
X32752380Y-6819047D01*
X32704761Y-6914285D01*
X32657142Y-6961904D01*
X32561904Y-7009523D01*
X32323809Y-7009523D01*
X32228571Y-6961904D01*
X32180952Y-6914285D01*
X32133333Y-6819047D01*
X32133333Y-6628571D01*
X32180952Y-6533333D01*
X32228571Y-6485714D01*
X32323809Y-6438095D01*
X31752380Y-7342857D02*
X31752380Y-7961904D01*
X32133333Y-7628571D01*
X32133333Y-7771428D01*
X32180952Y-7866666D01*
X32228571Y-7914285D01*
X32323809Y-7961904D01*
X32561904Y-7961904D01*
X32657142Y-7914285D01*
X32704761Y-7866666D01*
X32752380Y-7771428D01*
X32752380Y-7485714D01*
X32704761Y-7390476D01*
X32657142Y-7342857D01*
X28552380Y-9957142D02*
X28076190Y-9623809D01*
X28552380Y-9385714D02*
X27552380Y-9385714D01*
X27552380Y-9766666D01*
X27600000Y-9861904D01*
X27647619Y-9909523D01*
X27742857Y-9957142D01*
X27885714Y-9957142D01*
X27980952Y-9909523D01*
X28028571Y-9861904D01*
X28076190Y-9766666D01*
X28076190Y-9385714D01*
X27552380Y-10814285D02*
X27552380Y-10623809D01*
X27600000Y-10528571D01*
X27647619Y-10480952D01*
X27790476Y-10385714D01*
X27980952Y-10338095D01*
X28361904Y-10338095D01*
X28457142Y-10385714D01*
X28504761Y-10433333D01*
X28552380Y-10528571D01*
X28552380Y-10719047D01*
X28504761Y-10814285D01*
X28457142Y-10861904D01*
X28361904Y-10909523D01*
X28123809Y-10909523D01*
X28028571Y-10861904D01*
X27980952Y-10814285D01*
X27933333Y-10719047D01*
X27933333Y-10528571D01*
X27980952Y-10433333D01*
X28028571Y-10385714D01*
X28123809Y-10338095D01*
X27647619Y-11290476D02*
X27600000Y-11338095D01*
X27552380Y-11433333D01*
X27552380Y-11671428D01*
X27600000Y-11766666D01*
X27647619Y-11814285D01*
X27742857Y-11861904D01*
X27838095Y-11861904D01*
X27980952Y-11814285D01*
X28552380Y-11242857D01*
X28552380Y-11861904D01*
X30452380Y-9957142D02*
X29976190Y-9623809D01*
X30452380Y-9385714D02*
X29452380Y-9385714D01*
X29452380Y-9766666D01*
X29500000Y-9861904D01*
X29547619Y-9909523D01*
X29642857Y-9957142D01*
X29785714Y-9957142D01*
X29880952Y-9909523D01*
X29928571Y-9861904D01*
X29976190Y-9766666D01*
X29976190Y-9385714D01*
X29452380Y-10814285D02*
X29452380Y-10623809D01*
X29500000Y-10528571D01*
X29547619Y-10480952D01*
X29690476Y-10385714D01*
X29880952Y-10338095D01*
X30261904Y-10338095D01*
X30357142Y-10385714D01*
X30404761Y-10433333D01*
X30452380Y-10528571D01*
X30452380Y-10719047D01*
X30404761Y-10814285D01*
X30357142Y-10861904D01*
X30261904Y-10909523D01*
X30023809Y-10909523D01*
X29928571Y-10861904D01*
X29880952Y-10814285D01*
X29833333Y-10719047D01*
X29833333Y-10528571D01*
X29880952Y-10433333D01*
X29928571Y-10385714D01*
X30023809Y-10338095D01*
X29452380Y-11528571D02*
X29452380Y-11623809D01*
X29500000Y-11719047D01*
X29547619Y-11766666D01*
X29642857Y-11814285D01*
X29833333Y-11861904D01*
X30071428Y-11861904D01*
X30261904Y-11814285D01*
X30357142Y-11766666D01*
X30404761Y-11719047D01*
X30452380Y-11623809D01*
X30452380Y-11528571D01*
X30404761Y-11433333D01*
X30357142Y-11385714D01*
X30261904Y-11338095D01*
X30071428Y-11290476D01*
X29833333Y-11290476D01*
X29642857Y-11338095D01*
X29547619Y-11385714D01*
X29500000Y-11433333D01*
X29452380Y-11528571D01*
X26852380Y-9957142D02*
X26376190Y-9623809D01*
X26852380Y-9385714D02*
X25852380Y-9385714D01*
X25852380Y-9766666D01*
X25900000Y-9861904D01*
X25947619Y-9909523D01*
X26042857Y-9957142D01*
X26185714Y-9957142D01*
X26280952Y-9909523D01*
X26328571Y-9861904D01*
X26376190Y-9766666D01*
X26376190Y-9385714D01*
X25852380Y-10814285D02*
X25852380Y-10623809D01*
X25900000Y-10528571D01*
X25947619Y-10480952D01*
X26090476Y-10385714D01*
X26280952Y-10338095D01*
X26661904Y-10338095D01*
X26757142Y-10385714D01*
X26804761Y-10433333D01*
X26852380Y-10528571D01*
X26852380Y-10719047D01*
X26804761Y-10814285D01*
X26757142Y-10861904D01*
X26661904Y-10909523D01*
X26423809Y-10909523D01*
X26328571Y-10861904D01*
X26280952Y-10814285D01*
X26233333Y-10719047D01*
X26233333Y-10528571D01*
X26280952Y-10433333D01*
X26328571Y-10385714D01*
X26423809Y-10338095D01*
X26852380Y-11861904D02*
X26852380Y-11290476D01*
X26852380Y-11576190D02*
X25852380Y-11576190D01*
X25995238Y-11480952D01*
X26090476Y-11385714D01*
X26138095Y-11290476D01*
X37152380Y-9657142D02*
X36676190Y-9323809D01*
X37152380Y-9085714D02*
X36152380Y-9085714D01*
X36152380Y-9466666D01*
X36200000Y-9561904D01*
X36247619Y-9609523D01*
X36342857Y-9657142D01*
X36485714Y-9657142D01*
X36580952Y-9609523D01*
X36628571Y-9561904D01*
X36676190Y-9466666D01*
X36676190Y-9085714D01*
X36152380Y-10514285D02*
X36152380Y-10323809D01*
X36200000Y-10228571D01*
X36247619Y-10180952D01*
X36390476Y-10085714D01*
X36580952Y-10038095D01*
X36961904Y-10038095D01*
X37057142Y-10085714D01*
X37104761Y-10133333D01*
X37152380Y-10228571D01*
X37152380Y-10419047D01*
X37104761Y-10514285D01*
X37057142Y-10561904D01*
X36961904Y-10609523D01*
X36723809Y-10609523D01*
X36628571Y-10561904D01*
X36580952Y-10514285D01*
X36533333Y-10419047D01*
X36533333Y-10228571D01*
X36580952Y-10133333D01*
X36628571Y-10085714D01*
X36723809Y-10038095D01*
X36152380Y-11466666D02*
X36152380Y-11276190D01*
X36200000Y-11180952D01*
X36247619Y-11133333D01*
X36390476Y-11038095D01*
X36580952Y-10990476D01*
X36961904Y-10990476D01*
X37057142Y-11038095D01*
X37104761Y-11085714D01*
X37152380Y-11180952D01*
X37152380Y-11371428D01*
X37104761Y-11466666D01*
X37057142Y-11514285D01*
X36961904Y-11561904D01*
X36723809Y-11561904D01*
X36628571Y-11514285D01*
X36580952Y-11466666D01*
X36533333Y-11371428D01*
X36533333Y-11180952D01*
X36580952Y-11085714D01*
X36628571Y-11038095D01*
X36723809Y-10990476D01*
X41052380Y-5757142D02*
X40576190Y-5423809D01*
X41052380Y-5185714D02*
X40052380Y-5185714D01*
X40052380Y-5566666D01*
X40100000Y-5661904D01*
X40147619Y-5709523D01*
X40242857Y-5757142D01*
X40385714Y-5757142D01*
X40480952Y-5709523D01*
X40528571Y-5661904D01*
X40576190Y-5566666D01*
X40576190Y-5185714D01*
X40052380Y-6614285D02*
X40052380Y-6423809D01*
X40100000Y-6328571D01*
X40147619Y-6280952D01*
X40290476Y-6185714D01*
X40480952Y-6138095D01*
X40861904Y-6138095D01*
X40957142Y-6185714D01*
X41004761Y-6233333D01*
X41052380Y-6328571D01*
X41052380Y-6519047D01*
X41004761Y-6614285D01*
X40957142Y-6661904D01*
X40861904Y-6709523D01*
X40623809Y-6709523D01*
X40528571Y-6661904D01*
X40480952Y-6614285D01*
X40433333Y-6519047D01*
X40433333Y-6328571D01*
X40480952Y-6233333D01*
X40528571Y-6185714D01*
X40623809Y-6138095D01*
X40052380Y-7042857D02*
X40052380Y-7709523D01*
X41052380Y-7280952D01*
X35352380Y-9757142D02*
X34876190Y-9423809D01*
X35352380Y-9185714D02*
X34352380Y-9185714D01*
X34352380Y-9566666D01*
X34400000Y-9661904D01*
X34447619Y-9709523D01*
X34542857Y-9757142D01*
X34685714Y-9757142D01*
X34780952Y-9709523D01*
X34828571Y-9661904D01*
X34876190Y-9566666D01*
X34876190Y-9185714D01*
X34352380Y-10614285D02*
X34352380Y-10423809D01*
X34400000Y-10328571D01*
X34447619Y-10280952D01*
X34590476Y-10185714D01*
X34780952Y-10138095D01*
X35161904Y-10138095D01*
X35257142Y-10185714D01*
X35304761Y-10233333D01*
X35352380Y-10328571D01*
X35352380Y-10519047D01*
X35304761Y-10614285D01*
X35257142Y-10661904D01*
X35161904Y-10709523D01*
X34923809Y-10709523D01*
X34828571Y-10661904D01*
X34780952Y-10614285D01*
X34733333Y-10519047D01*
X34733333Y-10328571D01*
X34780952Y-10233333D01*
X34828571Y-10185714D01*
X34923809Y-10138095D01*
X34352380Y-11614285D02*
X34352380Y-11138095D01*
X34828571Y-11090476D01*
X34780952Y-11138095D01*
X34733333Y-11233333D01*
X34733333Y-11471428D01*
X34780952Y-11566666D01*
X34828571Y-11614285D01*
X34923809Y-11661904D01*
X35161904Y-11661904D01*
X35257142Y-11614285D01*
X35304761Y-11566666D01*
X35352380Y-11471428D01*
X35352380Y-11233333D01*
X35304761Y-11138095D01*
X35257142Y-11090476D01*
X14327380Y-16316666D02*
X15041666Y-16316666D01*
X15184523Y-16269047D01*
X15279761Y-16173809D01*
X15327380Y-16030952D01*
X15327380Y-15935714D01*
X15327380Y-16792857D02*
X14327380Y-16792857D01*
X14327380Y-17173809D01*
X14375000Y-17269047D01*
X14422619Y-17316666D01*
X14517857Y-17364285D01*
X14660714Y-17364285D01*
X14755952Y-17316666D01*
X14803571Y-17269047D01*
X14851190Y-17173809D01*
X14851190Y-16792857D01*
X14327380Y-18269047D02*
X14327380Y-17792857D01*
X14803571Y-17745238D01*
X14755952Y-17792857D01*
X14708333Y-17888095D01*
X14708333Y-18126190D01*
X14755952Y-18221428D01*
X14803571Y-18269047D01*
X14898809Y-18316666D01*
X15136904Y-18316666D01*
X15232142Y-18269047D01*
X15279761Y-18221428D01*
X15327380Y-18126190D01*
X15327380Y-17888095D01*
X15279761Y-17792857D01*
X15232142Y-17745238D01*
X78892857Y-11452380D02*
X79226190Y-10976190D01*
X79464285Y-11452380D02*
X79464285Y-10452380D01*
X79083333Y-10452380D01*
X78988095Y-10500000D01*
X78940476Y-10547619D01*
X78892857Y-10642857D01*
X78892857Y-10785714D01*
X78940476Y-10880952D01*
X78988095Y-10928571D01*
X79083333Y-10976190D01*
X79464285Y-10976190D01*
X78559523Y-10452380D02*
X77940476Y-10452380D01*
X78273809Y-10833333D01*
X78130952Y-10833333D01*
X78035714Y-10880952D01*
X77988095Y-10928571D01*
X77940476Y-11023809D01*
X77940476Y-11261904D01*
X77988095Y-11357142D01*
X78035714Y-11404761D01*
X78130952Y-11452380D01*
X78416666Y-11452380D01*
X78511904Y-11404761D01*
X78559523Y-11357142D01*
X77607142Y-10452380D02*
X76988095Y-10452380D01*
X77321428Y-10833333D01*
X77178571Y-10833333D01*
X77083333Y-10880952D01*
X77035714Y-10928571D01*
X76988095Y-11023809D01*
X76988095Y-11261904D01*
X77035714Y-11357142D01*
X77083333Y-11404761D01*
X77178571Y-11452380D01*
X77464285Y-11452380D01*
X77559523Y-11404761D01*
X77607142Y-11357142D01*
X78892857Y-10202380D02*
X79226190Y-9726190D01*
X79464285Y-10202380D02*
X79464285Y-9202380D01*
X79083333Y-9202380D01*
X78988095Y-9250000D01*
X78940476Y-9297619D01*
X78892857Y-9392857D01*
X78892857Y-9535714D01*
X78940476Y-9630952D01*
X78988095Y-9678571D01*
X79083333Y-9726190D01*
X79464285Y-9726190D01*
X78559523Y-9202380D02*
X77940476Y-9202380D01*
X78273809Y-9583333D01*
X78130952Y-9583333D01*
X78035714Y-9630952D01*
X77988095Y-9678571D01*
X77940476Y-9773809D01*
X77940476Y-10011904D01*
X77988095Y-10107142D01*
X78035714Y-10154761D01*
X78130952Y-10202380D01*
X78416666Y-10202380D01*
X78511904Y-10154761D01*
X78559523Y-10107142D01*
X76988095Y-10202380D02*
X77559523Y-10202380D01*
X77273809Y-10202380D02*
X77273809Y-9202380D01*
X77369047Y-9345238D01*
X77464285Y-9440476D01*
X77559523Y-9488095D01*
X78892857Y-8952380D02*
X79226190Y-8476190D01*
X79464285Y-8952380D02*
X79464285Y-7952380D01*
X79083333Y-7952380D01*
X78988095Y-8000000D01*
X78940476Y-8047619D01*
X78892857Y-8142857D01*
X78892857Y-8285714D01*
X78940476Y-8380952D01*
X78988095Y-8428571D01*
X79083333Y-8476190D01*
X79464285Y-8476190D01*
X78511904Y-8047619D02*
X78464285Y-8000000D01*
X78369047Y-7952380D01*
X78130952Y-7952380D01*
X78035714Y-8000000D01*
X77988095Y-8047619D01*
X77940476Y-8142857D01*
X77940476Y-8238095D01*
X77988095Y-8380952D01*
X78559523Y-8952380D01*
X77940476Y-8952380D01*
X77464285Y-8952380D02*
X77273809Y-8952380D01*
X77178571Y-8904761D01*
X77130952Y-8857142D01*
X77035714Y-8714285D01*
X76988095Y-8523809D01*
X76988095Y-8142857D01*
X77035714Y-8047619D01*
X77083333Y-8000000D01*
X77178571Y-7952380D01*
X77369047Y-7952380D01*
X77464285Y-8000000D01*
X77511904Y-8047619D01*
X77559523Y-8142857D01*
X77559523Y-8380952D01*
X77511904Y-8476190D01*
X77464285Y-8523809D01*
X77369047Y-8571428D01*
X77178571Y-8571428D01*
X77083333Y-8523809D01*
X77035714Y-8476190D01*
X76988095Y-8380952D01*
M02*
